<?xml version="1.0" standalone="no"?>
<!DOCTYPE svg PUBLIC "-//W3C//DTD SVG 1.1//EN" "http://www.w3.org/Graphics/SVG/1.1/DTD/svg11.dtd" >
<svg>
<metadata>
Created by FontForge 20090622 at Wed Sep  9 15:53:55 2015
 By deploy user
Copyright (c) 2015 by www.fontiran.com (Moslem Ebrahimi). All rights reserved.
</metadata>
<defs>
<font id="IRANSans-Bold" horiz-adv-x="0" >
  <font-face 
    font-family="IRANSans"
    font-weight="700"
    font-stretch="normal"
    units-per-em="2048"
    panose-1="2 4 5 3 5 2 1 2 2 3"
    ascent="1638"
    descent="-410"
    x-height="1062"
    cap-height="1466"
    bbox="-277 -1229 3057 2576"
    underline-thickness="102"
    underline-position="-205"
    unicode-range="U+0020-U+FEFC"
  />
<missing-glyph horiz-adv-x="1229" 
d="M1126 1444v-1806h-1024v1806h1024zM1012 1329h-795v-1577h795v1577z" />
    <glyph glyph-name="uniFDF2" unicode="&#xfedf;&#xfee0;&#xfe7c;&#xfeea;" horiz-adv-x="2182" arabic-form="isolated" 
d="M1421 8q-111 -79 -269 -79h-2l-49 3q-123 9 -203.5 47t-133.5 115q-64 -6 -136 -6h-29q-186 0 -311.5 65.5t-163.5 196.5q-13 45 -13 87v9q3 71 29 124q112 207 356 326q48 23 121 55l-6 71v18q0 4 -0.5 10.5t-0.5 9.5v31l313 48q18 -364 35 -541q20 -201 37 -261
q7 -42 48 -63.5t95 -21.5h14t11 -0.5t5 -0.5q46 5 68 46v38q0 65 -3 145t-6 132.5t-10 154t-9 141.5q-3 45 -8.5 147t-9.5 160l318 33l40 -555q19 -253 24 -343q0 -5 0.5 -9.5t0.5 -7.5t0.5 -5.5t0.5 -3.5v-2q0 -29 11.5 -51t35.5 -24h22q79 0 90 13q21 26 21 80
q0 3 -36 429l-43 511l312 71l57 -771q18 -248 18 -300v-7q-4 -98 -79 -214q-85 -118 -294 -118h-10q-10 -2 -19 -2h-20q-119 0 -219 69zM1384 1438q-52 -70 -134 -70q-76 0 -114 55.5t-38 147.5v20q0 45 22 107q1 3 2 6.5t2 5.5l1 2l116 -27l-9 -38q-10 -35 -10 -68
q0 -53 28 -69q2 -1 6 -1q20 0 38 39.5t23 71.5q5 37 5 62v23l118 -2l8 -47q2 -8 6.5 -30t7.5 -32.5t8 -26.5t12 -27.5t16 -20.5q6 -6 13 -6h7q29 0 29 63q0 15 -3.5 30.5t-11 32.5t-12.5 27t-15.5 29t-12.5 23q-13 25 -19 34l110 69q1 -3 25 -48.5t32 -64.5t19 -58t11 -73
q0 -112 -54 -166q-39 -39 -87 -39q-5 0 -11 -0.5t-7 -0.5q-67 0 -123 62q-1 1 -1 2l-1 1h1zM1425 2186q26 -114 26 -190q0 -94 -25 -217l-127 40q25 88 25 163q0 62 -26 164zM448 419q22 -3 70.5 -7t70.5 -6l72 1q-15 102 -22 211q-1 -1 -2 -1q-172 -68 -229 -121
q-15 -13 -18 -23t-1 -29v-1q0 -4 22 -13t38 -12z" />
    <glyph glyph-name="uniFDFC" unicode="&#x631;&#xfef3;&#xfe8e;&#x644;" horiz-adv-x="2976" arabic-form="isolated" 
d="M2805 752q101 -289 127 -497q6 -46 6 -86q0 -181 -98 -357q-183 -332 -603 -539l-182 253q340 170 515 404q93 125 93 238q0 70 -43 197q-31 89 -104 255zM1738 -346l-188 -188l-194 193l192 193l190 -190l188 188l194 -193l-192 -193zM1672 1549q9 -48 15.5 -107
t10 -106t6.5 -122t3.5 -113t2 -124.5t1.5 -114.5v-54q0 -9 0.5 -28.5t0.5 -29.5t0.5 -29t0.5 -28v-143q0 -29 -2 -85v-39q0 -9 -0.5 -22.5t-0.5 -17.5q-1 -10 -1 -33q0 -52 14 -66q26 -26 139 -30h9q13 0 19 -1h31q220 0 256 83q8 22 8 54q0 22 -14 72q-44 153 -148 350
l286 142q104 -230 141 -423q13 -69 13 -139q0 -101 -36 -185q-61 -138 -186 -204t-322 -66h-48h-98q-45 0 -80 20q-106 27 -185 104q-56 56 -80.5 130.5t-24.5 185.5q4 119 4 285q0 394 -20 616q-10 109 -23 175zM285 294q-50 -95 -81 -225q-12 -50 -12 -100
q0 -217 216 -326q88 -43 157 -43h12q150 0 284 90q156 104 156 299q0 88 -2.5 178t-9 199.5l-10.5 172t-14 197t-13 171.5q-11 155 -48 602l319 74q9 -214 43 -1169q8 -229 8 -428q0 -463 -394 -637q-148 -65 -313 -65h-21q-14 0 -19 1q-233 17 -413 159q-96 76 -152 192
t-56 270v12q4 290 113 496z" />
    <glyph glyph-name="uniFEF5" unicode="&#xfedf;&#xfe82;" horiz-adv-x="1350" arabic-form="isolated" 
d="M922 304q60 39 98 106t38 154q0 7 -5 55l-158 897l302 73q0 -4 7 -45q44 -251 98 -720q12 -101 22 -225q2 -16 2 -25v-26q0 -205 -120 -384q-36 -54 -75 -93q-230 -207 -607 -207q-82 0 -224 19l54 314q149 -20 216 -20q18 0 98 7q-29 230 -194 511q-122 209 -270 395
q-70 88 -80 98l231 237q400 -521 567 -1121zM241 1565q-17 0 -31.5 -3t-26 -11.5l-18.5 -14t-15.5 -21t-11.5 -21.5t-11 -26l-10 -25l-167 53q0 13 7 30t18 37.5t13 26.5q26 57 78.5 100.5t113.5 56.5q21 3 25 3h24q69 0 157 -37l31 -15q49 -22 71 -22q19 0 32 8
q42 23 95 97l156 -101q-22 -44 -84 -102q-95 -91 -198 -91h-14l-57 13q-89 42 -134 58q-20 7 -43 7z" />
    <glyph glyph-name="uniFEF6" unicode="&#xfee0;&#xfe82;" horiz-adv-x="1470" arabic-form="final" 
d="M913 310q97 78 99 154q-26 372 -96 840l-33 220l310 58q0 -16 2 -35t5.5 -45t5.5 -44l21.5 -198l23.5 -220.5l20 -197.5t20 -224.5t13 -206.5q2 -40 16 -77t35 -50q45 -25 115 -28q100 0 146 -96q13 -27 13 -62q0 -68 -45.5 -113t-113.5 -45h-9q-221 0 -342 134
q-105 -100 -260.5 -154t-349.5 -54q-96 0 -221 25l89 298q98 -13 164 -13t127 14q-79 288 -264 599q-120 204 -279 405l225 233l274 -441q205 -371 289 -676zM250 1565q-17 0 -31.5 -3t-26 -11.5l-18.5 -14t-15.5 -21t-11.5 -21.5t-11 -26l-10 -25l-167 53q0 13 7 30
t18 37.5t13 26.5q26 57 78.5 100.5t113.5 56.5q21 3 25 3h24q69 0 157 -37l31 -15q49 -22 71 -22q19 0 32 8q42 23 95 97l156 -101q-22 -44 -84 -102q-95 -91 -198 -91h-14l-57 13q-89 42 -134 58q-20 7 -43 7z" />
    <glyph glyph-name="uniFEF7" unicode="&#xfedf;&#xfe84;" horiz-adv-x="1247" arabic-form="isolated" 
d="M820 304q60 39 98 106t38 154q0 7 -5 55l-158 897l302 73q0 -4 7 -45q44 -251 98 -720q12 -101 22 -225q2 -16 2 -25v-26q0 -205 -120 -384q-36 -54 -75 -93q-230 -207 -607 -207q-82 0 -224 19l54 314q149 -20 216 -20q18 0 98 7q-29 230 -194 511q-122 209 -270 395
q-70 88 -80 98l231 237q400 -521 567 -1121zM33 1592q-104 78 -104 195q0 102 91 183q67 59 170 59q64 0 140 -21l-45 -138q-75 10 -97 10q-44 0 -81 -21t-51 -53q-10 -21 -1 -46q13 -28 45.5 -46t71.5 -18q23 0 47 8q62 19 146 79l30 21l62 -146l-101 -61.5l-115 -68.5
l-153 -84.5l-133 -72.5l-51 145z" />
    <glyph glyph-name="uniFEF8" unicode="&#xfee0;&#xfe84;" horiz-adv-x="1470" arabic-form="final" 
d="M913 310q97 78 99 154q-26 372 -96 840l-33 220l310 58q0 -16 2 -35t5.5 -45t5.5 -44l21.5 -198l23.5 -220.5l20 -197.5t20 -224.5t13 -206.5q2 -40 16 -77t35 -50q45 -25 115 -28q100 0 146 -96q13 -27 13 -62q0 -68 -45.5 -113t-113.5 -45h-9q-221 0 -342 134
q-105 -100 -260.5 -154t-349.5 -54q-96 0 -221 25l89 298q98 -13 164 -13t127 14q-79 288 -264 599q-120 204 -279 405l225 233l274 -441q205 -371 289 -676zM134 1601q-104 78 -104 195q0 102 91 183q67 59 170 59q64 0 140 -21l-45 -138q-75 10 -97 10q-44 0 -81 -21
t-51 -53q-10 -21 -1 -46q13 -28 45.5 -46t71.5 -18q23 0 47 8q62 19 146 79l30 21l62 -146l-101 -61.5l-115 -68.5l-153 -84.5l-133 -72.5l-51 145z" />
    <glyph glyph-name="uniFEF9" unicode="&#xfedf;&#xfe88;" horiz-adv-x="1247" arabic-form="isolated" 
d="M820 304q60 39 98 106t38 154q0 7 -5 55l-158 897l302 73q0 -4 7 -45q44 -251 98 -720q12 -101 22 -225q2 -16 2 -25v-26q0 -205 -120 -384q-36 -54 -75 -93q-230 -207 -607 -207q-82 0 -224 19l54 314q149 -20 216 -20q18 0 98 7q-29 230 -194 511q-122 209 -270 395
q-70 88 -80 98l231 237q400 -521 567 -1121zM420 -661q-104 78 -104 195q0 102 91 183q67 59 170 59q64 0 140 -21l-45 -138q-75 10 -97 10q-44 0 -81 -21t-51 -53q-10 -21 -1 -46q13 -28 45.5 -46t71.5 -18q23 0 47 8q62 19 146 79l30 21l62 -146l-101 -61.5l-115 -68.5
l-153 -84.5l-133 -72.5l-51 145z" />
    <glyph glyph-name="uniFEFA" unicode="&#xfee0;&#xfe88;" horiz-adv-x="1470" arabic-form="final" 
d="M913 310q97 78 99 154q-26 372 -96 840l-33 220l310 58q0 -16 2 -35t5.5 -45t5.5 -44l21.5 -198l23.5 -220.5l20 -197.5t20 -224.5t13 -206.5q2 -40 16 -77t35 -50q45 -25 115 -28q100 0 146 -96q13 -27 13 -62q0 -68 -45.5 -113t-113.5 -45h-9q-221 0 -342 134
q-105 -100 -260.5 -154t-349.5 -54q-96 0 -221 25l89 298q98 -13 164 -13t127 14q-79 288 -264 599q-120 204 -279 405l225 233l274 -441q205 -371 289 -676zM466 -663q-104 78 -104 195q0 102 91 183q67 59 170 59q64 0 140 -21l-45 -138q-75 10 -97 10q-44 0 -81 -21
t-51 -53q-10 -21 -1 -46q13 -28 45.5 -46t71.5 -18q23 0 47 8q62 19 146 79l30 21l62 -146l-101 -61.5l-115 -68.5l-153 -84.5l-133 -72.5l-51 145z" />
    <glyph glyph-name="uniFEFB" unicode="&#xfedf;&#xfe8e;" horiz-adv-x="1247" arabic-form="isolated" 
d="M820 304q60 39 98 106t38 154q0 7 -5 55l-158 897l302 73q0 -4 7 -45q44 -251 98 -720q12 -101 22 -225q2 -16 2 -25v-26q0 -205 -120 -384q-36 -54 -75 -93q-230 -207 -607 -207q-82 0 -224 19l54 314q149 -20 216 -20q18 0 98 7q-29 230 -194 511q-122 209 -270 395
q-70 88 -80 98l231 237q400 -521 567 -1121z" />
    <glyph glyph-name="uniFEFC" unicode="&#xfee0;&#xfe8e;" horiz-adv-x="1461" arabic-form="final" 
d="M913 310q97 78 99 154q-26 372 -96 840l-33 220l310 58q0 -16 2 -35t5.5 -45t5.5 -44l21.5 -198l23.5 -220.5l20 -197.5t20 -224.5t13 -206.5q2 -40 16 -77t35 -50q45 -25 115 -28q100 0 146 -96q13 -27 13 -62q0 -68 -45.5 -113t-113.5 -45h-9q-221 0 -342 134
q-105 -100 -260.5 -154t-349.5 -54q-96 0 -221 25l89 298q98 -13 164 -13t127 14q-79 288 -264 599q-120 204 -279 405l225 233l274 -441q205 -371 289 -676z" />
    <glyph glyph-name="uni06440671.isol" unicode="&#xfedf;&#xfb51;" horiz-adv-x="1247" 
d="M820 304q60 39 98 106t38 154q0 7 -5 55l-158 897l302 73q0 -4 7 -45q44 -251 98 -720q12 -101 22 -225q2 -16 2 -25v-26q0 -205 -120 -384q-36 -54 -75 -93q-230 -207 -607 -207q-82 0 -224 19l54 314q149 -20 216 -20q18 0 98 7q-29 230 -194 511q-122 209 -270 395
q-70 88 -80 98l231 237q400 -521 567 -1121zM136 1724q20 0 44 -8t36 -20q23 38 46.5 68t57 59.5t77 45.5t93.5 16q70 0 119 -46.5t49 -112.5q0 -79 -64 -135q-45 -32 -109 -53t-130 -21q-152 0 -221 91q-44 -4 -113 -54l-30 111q54 34 113 54q15 5 32 5zM569 1725
q-18 44 -62 44q-48 0 -112.5 -44t-86.5 -74h26q102 0 176 20q28 8 43 19.5t16 34.5z" />
    <glyph glyph-name="uni06440671.fina" unicode="&#xfee0;&#xfb51;" horiz-adv-x="1470" 
d="M913 310q97 78 99 154q-26 372 -96 840l-33 220l310 58q0 -16 2 -35t5.5 -45t5.5 -44l21.5 -198l23.5 -220.5l20 -197.5t20 -224.5t13 -206.5q2 -40 16 -77t35 -50q45 -25 115 -28q100 0 146 -96q13 -27 13 -62q0 -68 -45.5 -113t-113.5 -45h-9q-221 0 -342 134
q-105 -100 -260.5 -154t-349.5 -54q-96 0 -221 25l89 298q98 -13 164 -13t127 14q-79 288 -264 599q-120 204 -279 405l225 233l274 -441q205 -371 289 -676zM161 1714q20 0 44 -8t36 -20q23 38 46.5 68t57 59.5t77 45.5t93.5 16q70 0 119 -46.5t49 -112.5q0 -79 -64 -135
q-45 -32 -109 -53t-130 -21q-152 0 -221 91q-44 -4 -113 -54l-30 111q54 34 113 54q15 5 32 5zM594 1715q-18 44 -62 44q-48 0 -112.5 -44t-86.5 -74h26q102 0 176 20q28 8 43 19.5t16 34.5z" />
    <glyph glyph-name="uni0621" unicode="&#x621;" horiz-adv-x="1019" arabic-form="isolated" 
d="M319 159q-114 114 -114 248q0 186 169 297q83 54 196 54q92 0 192 -37l64 -24l-92 -188q-13 5 -27 9t-33.5 8l-29.5 6q-46 11 -75 11q-120 0 -174 -79q-14 -22 -14 -47q0 -5 2 -21q16 -50 69.5 -83t119.5 -33q13 0 25.5 1t26 4l24 5.5t25.5 8t22.5 8t24 10t21.5 9.5
t22 10t19 9q51 22 96 47l60 -220q-47 -24 -94 -45.5t-110 -47l-93.5 -38l-115 -45l-105.5 -40.5l-255 -98l-45 219z" />
    <glyph glyph-name="uni0622" unicode="&#x622;" horiz-adv-x="629" arabic-form="isolated" 
d="M204 -63q24 430 24 669q0 485 -48 785l-13 81l311 105q8 -28 14 -63.5t8.5 -62.5t6 -72t6.5 -71q32 -323 32 -704q0 -312 -19 -619zM238 1730q-17 0 -31.5 -3t-26 -11.5l-18.5 -14t-15.5 -21t-11.5 -21.5t-11 -26l-10 -25l-167 53q0 13 7 30t18 37.5t13 26.5
q26 57 78.5 100.5t113.5 56.5q21 3 25 3h24q69 0 157 -37l31 -15q49 -22 71 -22q19 0 32 8q42 23 95 97l156 -101q-22 -44 -84 -102q-95 -91 -198 -91h-14l-57 13q-89 42 -134 58q-20 7 -43 7z" />
    <glyph glyph-name="uni0623" unicode="&#x623;" horiz-adv-x="525" arabic-form="isolated" 
d="M131 -63q24 430 24 669q0 485 -48 785l-13 81l311 105q8 -28 14 -63.5t8.5 -62.5t6 -72t6.5 -71q32 -323 32 -704q0 -312 -19 -619zM121 1775q-104 78 -104 195q0 102 91 183q67 59 170 59q64 0 140 -21l-45 -138q-75 10 -97 10q-44 0 -81 -21t-51 -53q-10 -21 -1 -46
q13 -28 45.5 -46t71.5 -18q23 0 47 8q62 19 146 79l30 21l62 -146l-101 -61.5l-115 -68.5l-153 -84.5l-133 -72.5l-51 145z" />
    <glyph glyph-name="uni0624" unicode="&#x624;" horiz-adv-x="1058" arabic-form="isolated" 
d="M655 478q-25 42 -62.5 77t-77.5 35q-24 0 -45 -14q-54 -35 -88 -120q-16 -40 -16 -73q0 -125 260 -125h80q2 0 5.5 -0.5t4.5 -0.5h8q8 0 14 1q-33 137 -83 220zM28 -457q419 84 606 277q57 58 81 120q-110 0 -196.5 10.5t-166.5 39t-133 75t-84.5 121t-31.5 173.5
q0 155 81 311q27 52 52 85q122 152 282 152q169 0 305 -148q205 -230 205 -589q0 -407 -309 -666q-250 -211 -617 -268zM273 1321q0 -45 43 -73.5t96 -28.5q15 0 30.5 3t31 10.5t25 12.5t26.5 15.5l22 13.5q20 12 49 33l77 -102q-28 -22 -62 -43.5t-55 -33.5t-71 -38.5
l-68 -36.5l-240 -133l-62 113l167 93q-52 29 -85 78.5t-33 116.5q0 99 86 171q68 56 160 56q70 0 138 -24l-36 -121l-33 8q-45 9 -69 9q-89 0 -129 -72q-8 -14 -8 -27z" />
    <glyph glyph-name="uni0625" unicode="&#x625;" horiz-adv-x="525" arabic-form="isolated" 
d="M114 -63q24 430 24 669q0 485 -48 785l-13 81l311 105q8 -28 14 -63.5t8.5 -62.5t6 -72t6.5 -71q32 -323 32 -704q0 -312 -19 -619zM129 -560q-104 78 -104 195q0 102 91 183q67 59 170 59q64 0 140 -21l-45 -138q-75 10 -97 10q-44 0 -81 -21t-51 -53q-10 -21 -1 -46
q13 -28 45.5 -46t71.5 -18q23 0 47 8q62 19 146 79l30 21l62 -146l-101 -61.5l-115 -68.5l-153 -84.5l-133 -72.5l-51 145z" />
    <glyph glyph-name="uni0626" unicode="&#x626;" horiz-adv-x="1754" arabic-form="isolated" 
d="M286 -76q0 -80 25.5 -142.5t70 -103.5t109 -67.5t136.5 -37.5t158 -11q245 0 432 64q84 28 135 66q53 39 60 76q-14 0 -41 7.5t-31 8.5q-13 3 -41 9l-54 12q-57 14 -97.5 26.5t-88.5 32t-81.5 41t-66.5 53t-53 69t-32.5 88t-12.5 111.5q10 234 164 423q157 193 381 241
q56 14 122 14q135 0 282 -77l-111 -293q-102 44 -172 44q-83 0 -147 -32.5t-125 -87.5q-73 -67 -104 -138q-19 -42 -19 -74q0 -28 16 -44q15 -15 40 -27t46.5 -18l56 -15t50.5 -14l29 -7q46 -10 78.5 -19t72.5 -23.5t67 -30.5t55.5 -40.5t45 -53.5t27 -68.5t10.5 -87.5
q0 -122 -54 -208.5t-146 -159.5q-243 -193 -693 -193q-409 0 -619 233q-151 183 -151 436q0 8 6 101q14 258 123 514l12 27l9 20t4 9l251 -105q-65 -148 -99.5 -272.5t-34.5 -275.5zM463 1027q0 -45 43 -73.5t96 -28.5q15 0 30.5 3t31 10.5t25 12.5t26.5 15.5l22 13.5
q20 12 49 33l77 -102q-28 -22 -62 -43.5t-55 -33.5t-71 -38.5l-68 -36.5l-240 -133l-62 113l167 93q-52 29 -85 78.5t-33 116.5q0 99 86 171q68 56 160 56q70 0 138 -24l-36 -121l-33 8q-45 9 -69 9q-89 0 -129 -72q-8 -14 -8 -27z" />
    <glyph glyph-name="uni0627" unicode="&#x627;" horiz-adv-x="574" arabic-form="isolated" 
d="M186 -63q21 379 23 511v43q0 194 -25 546q-20 268 -35 357q-7 40 -15 95l309 102q68 -400 68 -945q0 -22 -0.5 -72t-0.5 -77q0 -309 -15 -512z" />
    <glyph glyph-name="uni0628" unicode="&#x628;" horiz-adv-x="2004" arabic-form="isolated" 
d="M1711 387q-19 75 -56 152t-63 118.5l-85 129.5l246 160q165 -262 209 -477q8 -39 8 -83v-14q-8 -153 -194 -261q-222 -129 -602 -163q-100 -9 -176 -9q-735 0 -909 345v-1q-48 93 -48 206q0 38 4.5 74.5t15 72.5t19 61.5t27 62l27.5 53.5l31 56l29 51l235 -197
q-76 -108 -105 -200q-12 -38 -12 -65q0 -19 6 -33q38 -79 229 -124q186 -44 451 -44q261 0 539 70q92 23 174 59zM1005 -578l-222 222l222 222l222 -222z" />
    <glyph glyph-name="uni0629" unicode="&#x629;" horiz-adv-x="1030" arabic-form="isolated" 
d="M522 -60q-133 0 -240.5 54.5t-165.5 141.5q-60 90 -60 211q0 201 177 415q32 40 56 64l18 18q-4 3 -20 16t-23 20l-18 16l199 243q69 -51 132.5 -111.5t153.5 -155.5q259 -295 259 -525q0 -93 -32 -166.5t-89.5 -122.5t-132 -78t-165.5 -38q-20 -2 -49 -2zM716 347
q0 60 -73 151q-67 86 -152 170q-111 -123 -153 -234q-14 -38 -14 -78v-9q1 -24 21.5 -43t52 -29.5t63 -15.5t61.5 -5q122 0 175 49q19 18 19 44zM466 1356l-188 -188l-194 193l192 193l190 -190l188 188l194 -193l-192 -193z" />
    <glyph glyph-name="uni062A" unicode="&#x62a;" horiz-adv-x="1993" arabic-form="isolated" 
d="M1694 387q-19 75 -56 152t-63 118.5l-85 129.5l246 160q165 -262 209 -477q8 -39 8 -83v-14q-8 -153 -194 -261q-222 -129 -602 -163q-100 -9 -176 -9q-735 0 -909 345v-1q-48 93 -48 206q0 38 4.5 74.5t15 72.5t19 61.5t27 62l27.5 53.5l31 56l29 51l235 -197
q-76 -108 -105 -200q-12 -38 -12 -65q0 -19 6 -33q38 -79 229 -124q186 -44 451 -44q261 0 539 70q92 23 174 59zM1007 988l-188 -188l-194 193l192 193l190 -190l188 188l194 -193l-192 -193z" />
    <glyph glyph-name="uni062B" unicode="&#x62b;" horiz-adv-x="2021" arabic-form="isolated" 
d="M1701 387q-19 75 -56 152t-63 118.5l-85 129.5l246 160q165 -262 209 -477q8 -39 8 -83v-14q-8 -153 -194 -261q-222 -129 -602 -163q-100 -9 -176 -9q-735 0 -909 345v-1q-48 93 -48 206q0 38 4.5 74.5t15 72.5t19 61.5t27 62l27.5 53.5l31 56l29 51l235 -197
q-76 -108 -105 -200q-12 -38 -12 -65q0 -19 6 -33q38 -79 229 -124q186 -44 451 -44q261 0 539 70q92 23 174 59zM1007 969l-188 -188l-194 193l192 193l190 -190l188 188l194 -193l-192 -193zM1186 1261l-178 -178l-179 179l178 178z" />
    <glyph glyph-name="uni062C" unicode="&#x62c;" horiz-adv-x="1592" arabic-form="isolated" 
d="M868 -526q163 0 287 43t233 125l143 -237q-198 -177 -499 -235q-103 -20 -202 -20q-264 0 -453 105t-279 291q-61 126 -61 291v23q0 109 58 222q137 267 515 426q231 96 481 115q-56 19 -119 51l-123 63q-54 27 -120 53q-51 20 -104 20h-7q-84 -2 -180 -66
q-57 -38 -142 -132l-221 161q46 67 76.5 106.5t82.5 91.5t102 81t123 51t158 24h10q107 0 237 -61q51 -24 109 -58t97.5 -60l103.5 -69.5l94 -62.5q134 -88 269 -111l-95 -333l-93 2q-227 0 -493 -82q-288 -90 -436 -226q-113 -103 -115 -218v-9q0 -237 295 -328
q119 -37 268 -37zM853 -326l-222 222l222 222l222 -222z" />
    <glyph glyph-name="uni062D" unicode="&#x62d;" horiz-adv-x="1609" arabic-form="isolated" 
d="M862 -526q163 0 287 43t233 125l143 -237q-198 -177 -499 -235q-103 -20 -202 -20q-264 0 -453 105t-279 291q-61 126 -61 291v23q0 109 58 222q137 267 515 426q231 96 481 115q-56 19 -119 51l-123 63q-54 27 -120 53q-51 20 -104 20h-7q-84 -2 -180 -66
q-57 -38 -142 -132l-221 161q46 67 76.5 106.5t82.5 91.5t102 81t123 51t158 24h10q107 0 237 -61q51 -24 109 -58t97.5 -60l103.5 -69.5l94 -62.5q134 -88 269 -111l-95 -333l-93 2q-227 0 -493 -82q-288 -90 -436 -226q-113 -103 -115 -218v-9q0 -237 295 -328
q119 -37 268 -37z" />
    <glyph glyph-name="uni062E" unicode="&#x62e;" horiz-adv-x="1603" arabic-form="isolated" 
d="M862 -526q163 0 287 43t233 125l143 -237q-198 -177 -499 -235q-103 -20 -202 -20q-264 0 -453 105t-279 291q-61 126 -61 291v23q0 109 58 222q137 267 515 426q231 96 481 115q-56 19 -119 51l-123 63q-54 27 -120 53q-51 20 -104 20h-7q-84 -2 -180 -66
q-57 -38 -142 -132l-221 161q46 67 76.5 106.5t82.5 91.5t102 81t123 51t158 24h10q107 0 237 -61q51 -24 109 -58t97.5 -60l103.5 -69.5l94 -62.5q134 -88 269 -111l-95 -333l-93 2q-227 0 -493 -82q-288 -90 -436 -226q-113 -103 -115 -218v-9q0 -237 295 -328
q119 -37 268 -37zM547 1264l-222 222l222 222l222 -222z" />
    <glyph glyph-name="uni062F" unicode="&#x62f;" horiz-adv-x="1127" arabic-form="isolated" 
d="M157 407q150 -96 330 -140q58 -14 97 -14q137 0 212 52q32 23 32 59q0 34 -24 84q-46 94 -162 210q-166 166 -335 274l177 263q331 -229 508 -525q61 -102 86 -203q14 -53 14 -115q0 -149 -81 -247.5t-210 -144.5q-89 -31 -198 -31q-3 0 -8 0.5t-8 0.5h-16
q-191 0 -421 109q-63 30 -124 67z" />
    <glyph glyph-name="uni0630" unicode="&#x630;" horiz-adv-x="1138" arabic-form="isolated" 
d="M157 407q150 -96 330 -140q58 -14 97 -14q137 0 212 52q32 23 32 59q0 34 -24 84q-46 94 -162 210q-166 166 -335 274l177 263q331 -229 508 -525q61 -102 86 -203q14 -53 14 -115q0 -149 -81 -247.5t-210 -144.5q-89 -31 -198 -31q-3 0 -8 0.5t-8 0.5h-16
q-191 0 -421 109q-63 30 -124 67zM470 1309l-222 222l222 222l222 -222z" />
    <glyph glyph-name="uni0631" unicode="&#x631;" horiz-adv-x="717" arabic-form="isolated" 
d="M565 673q101 -289 127 -497q6 -46 6 -86q0 -181 -98 -357q-183 -332 -603 -539l-182 253q340 170 515 404q93 125 93 238q0 70 -43 197q-31 89 -104 255z" />
    <glyph glyph-name="uni0632" unicode="&#x632;" horiz-adv-x="722" arabic-form="isolated" 
d="M565 673q101 -289 127 -497q6 -46 6 -86q0 -181 -98 -357q-183 -332 -603 -539l-182 253q340 170 515 404q93 125 93 238q0 70 -43 197q-31 89 -104 255zM395 839l-222 222l222 222l222 -222z" />
    <glyph glyph-name="uni0633" unicode="&#x633;" horiz-adv-x="2724" arabic-form="isolated" 
d="M2263 253q71 0 109.5 48t38.5 127q0 31 -9.5 69.5t-15.5 54.5t-25 62q-43 105 -118 238l256 143q131 -263 169 -458q11 -58 11 -122q-2 -160 -67 -270.5t-182 -164.5q-80 -37 -187 -37q-166 0 -247 116q-47 -60 -112.5 -88.5t-168.5 -28.5q-76 0 -141 21
q-1 -119 -36 -219.5t-97 -174t-138 -126t-170 -89.5q-184 -73 -392 -73q-157 0 -286.5 52t-220.5 141q-93 90 -147 217.5t-54 285.5q9 258 155 539q50 97 84 147l218 -168q-125 -203 -172 -395q-16 -65 -16 -131v-13q0 -143 124 -248q127 -108 311 -108q149 0 268.5 39
t190.5 113q46 48 66 105l-1 -1q25 78 25 169q0 113 -68 275q-18 43 -41 91l-53 106.5t-44 88.5l274 154l28 -65.5l33 -75.5l28.5 -63t35.5 -71.5l34 -59.5q30 -49 57.5 -81t63.5 -50q25 -13 53 -13q143 0 143 219q0 6 -0.5 18.5t-0.5 18.5q-1 33 -7 95.5t-7 74.5l276 37
q10 -43 21 -134t19 -129q17 -79 47 -133.5t85 -74.5z" />
    <glyph glyph-name="uni0634" unicode="&#x634;" horiz-adv-x="2717" arabic-form="isolated" 
d="M2263 253q71 0 109.5 48t38.5 127q0 31 -9.5 69.5t-15.5 54.5t-25 62q-43 105 -118 238l256 143q131 -263 169 -458q11 -58 11 -122q-2 -160 -67 -270.5t-182 -164.5q-80 -37 -187 -37q-166 0 -247 116q-47 -60 -112.5 -88.5t-168.5 -28.5q-76 0 -141 21
q-1 -119 -36 -219.5t-97 -174t-138 -126t-170 -89.5q-184 -73 -392 -73q-157 0 -286.5 52t-220.5 141q-93 90 -147 217.5t-54 285.5q9 258 155 539q50 97 84 147l218 -168q-125 -203 -172 -395q-16 -65 -16 -131v-13q0 -143 124 -248q127 -108 311 -108q149 0 268.5 39
t190.5 113q46 48 66 105l-1 -1q25 78 25 169q0 113 -68 275q-18 43 -41 91l-53 106.5t-44 88.5l274 154l28 -65.5l33 -75.5l28.5 -63t35.5 -71.5l34 -59.5q30 -49 57.5 -81t63.5 -50q25 -13 53 -13q143 0 143 219q0 6 -0.5 18.5t-0.5 18.5q-1 33 -7 95.5t-7 74.5l276 37
q10 -43 21 -134t19 -129q17 -79 47 -133.5t85 -74.5zM1901 1143l-188 -188l-194 193l192 193l190 -190l188 188l194 -193l-192 -193zM2080 1435l-178 -178l-179 179l178 178z" />
    <glyph glyph-name="uni0635" unicode="&#x635;" horiz-adv-x="2885" arabic-form="isolated" 
d="M2097 -94q-268 0 -498 107q-3 -161 -62 -293t-157 -225q-99 -94 -237 -149t-307 -55q-248 0 -423 85t-257 251q-80 168 -80 315q0 82 14 166t31.5 145.5t52 142t55.5 122.5l63 122l12 23l224 -160q-17 -21 -58 -111q-81 -179 -108 -334q-11 -64 -11 -118q0 -69 25 -124
t69.5 -91.5t96.5 -59.5t116 -37q84 -18 168 -18q159 0 278.5 68t176.5 182q41 82 41 187q0 114 -59 271q-19 51 -60.5 145t-57.5 134l277 153q50 -127 90 -217q37 -84 79 -126q193 297 452 429q165 84 340 84q197 0 341 -128q148 -131 148 -318v-16q0 -10 -1 -15
q-20 -275 -280 -419q-215 -118 -494 -118zM1830 260q124 -36 274 -36q257 0 412 91q104 62 104 149q0 41 -27.5 71t-66.5 47q-52 23 -122 23q-41 0 -77 -10q-230 -63 -408 -227q-58 -53 -89 -108z" />
    <glyph glyph-name="uni0636" unicode="&#x636;" horiz-adv-x="2928" arabic-form="isolated" 
d="M2097 -94q-268 0 -498 107q-3 -161 -62 -293t-157 -225q-99 -94 -237 -149t-307 -55q-248 0 -423 85t-257 251q-80 168 -80 315q0 82 14 166t31.5 145.5t52 142t55.5 122.5l63 122l12 23l224 -160q-17 -21 -58 -111q-81 -179 -108 -334q-11 -64 -11 -118q0 -69 25 -124
t69.5 -91.5t96.5 -59.5t116 -37q84 -18 168 -18q159 0 278.5 68t176.5 182q41 82 41 187q0 114 -59 271q-19 51 -60.5 145t-57.5 134l277 153q50 -127 90 -217q37 -84 79 -126q193 297 452 429q165 84 340 84q197 0 341 -128q148 -131 148 -318v-16q0 -10 -1 -15
q-20 -275 -280 -419q-215 -118 -494 -118zM1830 260q124 -36 274 -36q257 0 412 91q104 62 104 149q0 41 -27.5 71t-66.5 47q-52 23 -122 23q-41 0 -77 -10q-230 -63 -408 -227q-58 -53 -89 -108zM2268 1030l-222 222l222 222l222 -222z" />
    <glyph glyph-name="uni0637" unicode="&#x637;" horiz-adv-x="1776" arabic-form="isolated" 
d="M836 800q52 46 89.5 74t92.5 58.5t119 46t140 16.5h9q134 0 235 -59t159 -156q42 -70 53 -162v-9q0 -346 -299 -523q-247 -146 -578 -146q-487 0 -842 172l115 295q166 -64 266 -93l46 62l54 72q23 178 23 286q0 67 -4.5 152.5t-9 137l-14.5 159.5t-12 135
q-13 144 -22 182l317 84l11 -106q2 -17 8.5 -79.5t8.5 -86t7.5 -80.5t8 -87.5l6.5 -82.5t6 -89.5t4 -83.5t3 -89zM692 250q65 -6 143 -6q280 0 475 108q84 47 130 103q41 51 41 100v7q-8 53 -70 82.5t-134 29.5q-61 0 -135 -31q-158 -66 -310 -221q-79 -81 -140 -172z" />
    <glyph glyph-name="uni0638" unicode="&#x638;" horiz-adv-x="1787" arabic-form="isolated" 
d="M836 800q52 46 89.5 74t92.5 58.5t119 46t140 16.5h9q134 0 235 -59t159 -156q42 -70 53 -162v-9q0 -346 -299 -523q-247 -146 -578 -146q-487 0 -842 172l115 295q166 -64 266 -93l46 62l54 72q23 178 23 286q0 67 -4.5 152.5t-9 137l-14.5 159.5t-12 135
q-13 144 -22 182l317 84l11 -106q2 -17 8.5 -79.5t8.5 -86t7.5 -80.5t8 -87.5l6.5 -82.5t6 -89.5t4 -83.5t3 -89zM692 250q65 -6 143 -6q280 0 475 108q84 47 130 103q41 51 41 100v7q-8 53 -70 82.5t-134 29.5q-61 0 -135 -31q-158 -66 -310 -221q-79 -81 -140 -172z
M1271 1146l-222 222l222 222l222 -222z" />
    <glyph glyph-name="uni0639" unicode="&#x639;" horiz-adv-x="1587" arabic-form="isolated" 
d="M517 548q-119 119 -119 312q5 184 156 335q92 92 216 135q60 21 122 24q6 0 18 0.5t17 0.5q130 0 223.5 -41.5t198.5 -120.5l-124 -237q-94 51 -201 74q-36 8 -81 8q-83 0 -147.5 -33.5t-103.5 -89.5q-24 -35 -24 -76q0 -69 90 -115q71 -37 175 -37q23 0 35 1l376 25
l-24 -313q-41 -5 -152 -16t-172 -21q-345 -56 -544 -239q-136 -126 -136 -277q0 -170 166 -275q144 -92 350 -92q194 0 388 88q68 31 129 74l156 -244q-218 -184 -519 -232q-89 -14 -158 -14q-260 0 -480 138q-79 50 -141 113q-162 177 -162 444q0 252 157 452
q112 144 315 249z" />
    <glyph glyph-name="uni063A" unicode="&#x63a;" horiz-adv-x="1576" arabic-form="isolated" 
d="M517 548q-119 119 -119 312q5 184 156 335q92 92 216 135q60 21 122 24q6 0 18 0.5t17 0.5q130 0 223.5 -41.5t198.5 -120.5l-124 -237q-94 51 -201 74q-36 8 -81 8q-83 0 -147.5 -33.5t-103.5 -89.5q-24 -35 -24 -76q0 -69 90 -115q71 -37 175 -37q23 0 35 1l376 25
l-24 -313q-41 -5 -152 -16t-172 -21q-345 -56 -544 -239q-136 -126 -136 -277q0 -170 166 -275q144 -92 350 -92q194 0 388 88q68 31 129 74l156 -244q-218 -184 -519 -232q-89 -14 -158 -14q-260 0 -480 138q-79 50 -141 113q-162 177 -162 444q0 252 157 452
q112 144 315 249zM863 1562l-222 222l222 222l222 -222z" />
    <glyph glyph-name="uni0641" unicode="&#x641;" horiz-adv-x="1987" arabic-form="isolated" 
d="M1159 446q-74 95 -74 232q0 45 6 84q31 171 119 280q107 143 265 143q155 0 284 -137q132 -151 175 -388q13 -72 13 -152q0 -141 -45 -235t-133 -161q-126 -97 -325 -134.5t-467 -37.5h-41q-35 0 -186 12q-211 17 -357 75q-227 89 -312 258v-1q-48 93 -48 206
q0 38 4.5 74.5t15 72.5t19 61.5t27 62l27.5 53.5l31 56l29 51l235 -197q-76 -108 -105 -200q-12 -38 -12 -65q0 -19 6 -33q38 -79 226 -126q173 -44 449 -44q403 0 620 56q50 13 79 32q-80 -9 -150 -9q-6 0 -18 0.5t-18 0.5q-256 9 -339 111v-1zM1594 777q-21 35 -53 63
t-68 28q-25 0 -47 -14q-36 -23 -61.5 -65.5t-25.5 -91.5q0 -23 10 -39.5t22 -25.5t37.5 -15.5t40 -8t46.5 -4.5q53 -5 102 -5q30 0 57 3q-22 112 -60 175zM1460 1317l-222 222l222 222l222 -222z" />
    <glyph glyph-name="uni0642" unicode="&#x642;" horiz-adv-x="1592" arabic-form="isolated" 
d="M419 454q-61 -112 -93 -218t-32 -238q0 -171 146 -280q131 -99 326 -99h9q254 0 407 192q46 57 73 129l-190 1q-252 22 -364 165q-90 110 -90 245q0 150 91 316q77 140 184 198q72 39 151 39q168 0 305 -149q94 -107 148.5 -257.5t54.5 -331.5q0 -8 -0.5 -23.5
t-0.5 -22.5q0 -30 -1 -45q0 -36 -19 -135q-45 -228 -178.5 -385.5t-339.5 -220.5q-108 -33 -235 -33q-327 0 -533 187q-70 64 -113 140v-1q-99 159 -99 370q0 165 36 297t105 266zM1160 518q-65 67 -128 67q-30 0 -54 -17q-43 -30 -73 -83.5t-30 -114.5q0 -25 15.5 -43.5
t32.5 -26.5t44 -18q76 -26 158 -26q8 0 22.5 -0.5t21.5 -0.5q12 0 32 0.5t28 0.5q33 0 48 1q-5 92 -71 200q-21 35 -46 61zM1006 1162l-188 -188l-194 193l192 193l190 -190l188 188l194 -193l-192 -193z" />
    <glyph glyph-name="uni0643" unicode="&#x643;" horiz-adv-x="2024" arabic-form="isolated" 
d="M971 -71q-740 5 -909 346v-1q-48 93 -48 206q0 102 33 191.5t88 183.5l233 -175q-34 -53 -57 -104t-23 -100q0 -132 204 -186q162 -42 479 -42q307 0 484 67q35 15 58 26.5t51 31t44 44.5t20 55q4 27 5 43q-2 76 -11.5 228l-12.5 203q-21 368 -43 565l312 71
q24 -269 49 -757l2 -57q7 -157 7 -260q-3 -128 -56 -228q-96 -170 -314 -260q-239 -91 -595 -91zM895 572q-104 78 -104 195q0 102 91 183q67 59 170 59q64 0 140 -21l-45 -138q-75 10 -97 10q-44 0 -81 -21t-51 -53q-10 -21 -1 -46q13 -28 45.5 -46t71.5 -18q23 0 47 8
q62 19 146 79l30 21l62 -146l-101 -61.5l-115 -68.5l-153 -84.5l-133 -72.5l-51 145z" />
    <glyph glyph-name="uni0644" unicode="&#x644;" horiz-adv-x="1483" arabic-form="isolated" 
d="M369 294q-50 -95 -81 -225q-12 -49 -12 -100q0 -217 216 -326q88 -43 157 -43h12q150 0 284 90q156 104 156 299q0 88 -2.5 178t-9 199.5l-10.5 172t-14 197t-13 171.5q-11 155 -48 602l319 74q9 -214 43 -1169q8 -229 8 -428q0 -463 -394 -637q-148 -65 -313 -65h-21
q-14 0 -19 1q-233 17 -413 159q-96 76 -152 192t-56 270v12q4 290 113 496z" />
    <glyph glyph-name="uni0645" unicode="&#x645;" horiz-adv-x="1210" arabic-form="isolated" 
d="M322 166q9 -153 30 -453.5t30 -451.5l-306 -52l-39 985q0 129 70 210.5t194 81.5h16q6 0 16 -2q67 184 186 303q56 56 115 85t141 29h8q193 -7 305 -155q98 -136 98 -307v-24q0 -128 -44 -235l1 1q-69 -182 -224 -209l3 2q-23 -7 -41 -7q-15 0 -32.5 2.5t-30 5t-32.5 9.5
l-28.5 10l-31.5 11.5t-28 10.5q-36 14 -169 70t-207 80zM893 288q20 58 20 120q0 57 -24 100.5t-64 64.5q-21 11 -46 11q-63 0 -119 -56q-28 -28 -69 -121q198 -89 302 -119z" />
    <glyph glyph-name="uni0646" unicode="&#x646;" horiz-adv-x="1614" arabic-form="isolated" 
d="M813 -749q-551 0 -712 404q-54 133 -54 293q0 164 53 331q54 169 155 323l225 -162q-94 -131 -141 -350q-17 -80 -17 -150q0 -161 138 -265q134 -101 313 -104h12q163 0 290 64.5t189 172.5q38 67 38 144v16q-2 66 -50 208q-29 84 -122 292q-12 27 -19 45l272 151
q1 -1 3 -5t6 -13.5t8 -17.5q61 -127 122 -334q46 -153 55 -283q1 -5 1 -19v-20q0 -291 -186 -494q-209 -227 -579 -227zM813 460l-222 222l222 222l222 -222z" />
    <glyph glyph-name="uni0647" unicode="&#x647;" horiz-adv-x="974" arabic-form="isolated" 
d="M485 -60q-133 0 -240.5 54.5t-165.5 141.5q-60 90 -60 211q0 201 177 415q32 40 56 64l18 18q-4 3 -20 16t-23 20l-18 16l199 243q69 -51 132.5 -111.5t153.5 -155.5q259 -295 259 -525q0 -93 -32 -166.5t-89.5 -122.5t-132 -78t-165.5 -38q-20 -2 -49 -2zM679 347
q0 60 -73 151q-68 86 -152 170q-111 -123 -153 -234q-14 -38 -14 -78v-9q1 -24 21.5 -43t52 -29.5t63 -15.5t61.5 -5q122 0 175 49q19 18 19 44z" />
    <glyph glyph-name="uni0648" unicode="&#x648;" horiz-adv-x="1051" arabic-form="isolated" 
d="M655 478q-25 42 -62.5 77t-77.5 35q-24 0 -45 -14q-54 -35 -88 -120q-16 -40 -16 -73q0 -125 260 -125h80q2 0 5.5 -0.5t4.5 -0.5h8q8 0 14 1q-33 137 -83 220zM28 -457q419 84 606 277q57 58 81 120q-110 0 -196.5 10.5t-166.5 39t-133 75t-84.5 121t-31.5 173.5
q0 155 81 311q27 52 52 85q122 152 282 152q169 0 305 -148q205 -230 205 -589q0 -407 -309 -666q-250 -211 -617 -268z" />
    <glyph glyph-name="uni0649" unicode="&#x649;" horiz-adv-x="1733" arabic-form="isolated" 
d="M286 -76q0 -80 25.5 -142.5t70 -103.5t109 -67.5t136.5 -37.5t158 -11q245 0 432 64q84 28 135 66q53 39 60 76q-14 0 -41 7.5t-31 8.5q-13 3 -41 9l-54 12q-57 14 -97.5 26.5t-88.5 32t-81.5 41t-66.5 53t-53 69t-32.5 88t-12.5 111.5q10 234 164 423q157 193 381 241
q56 14 122 14q135 0 282 -77l-111 -293q-102 44 -172 44q-83 0 -147 -32.5t-125 -87.5q-73 -67 -104 -138q-19 -42 -19 -74q0 -28 16 -44q15 -15 40 -27t46.5 -18l56 -15t50.5 -14l29 -7q46 -10 78.5 -19t72.5 -23.5t67 -30.5t55.5 -40.5t45 -53.5t27 -68.5t10.5 -87.5
q0 -122 -54 -208.5t-146 -159.5q-243 -193 -693 -193q-409 0 -619 233q-151 183 -151 436q0 8 6 101q14 258 123 514l12 27l9 20t4 9l251 -105q-65 -148 -99.5 -272.5t-34.5 -275.5z" />
    <glyph glyph-name="uni064A" unicode="&#x64a;" horiz-adv-x="1781" arabic-form="isolated" 
d="M286 -76q0 -80 25.5 -142.5t70 -103.5t109 -67.5t136.5 -37.5t158 -11q245 0 432 64q84 28 135 66q53 39 60 76q-14 0 -41 7.5t-31 8.5q-13 3 -41 9l-54 12q-57 14 -97.5 26.5t-88.5 32t-81.5 41t-66.5 53t-53 69t-32.5 88t-12.5 111.5q10 234 164 423q157 193 381 241
q56 14 122 14q135 0 282 -77l-111 -293q-102 44 -172 44q-83 0 -147 -32.5t-125 -87.5q-73 -67 -104 -138q-19 -42 -19 -74q0 -28 16 -44q15 -15 40 -27t46.5 -18l56 -15t50.5 -14l29 -7q46 -10 78.5 -19t72.5 -23.5t67 -30.5t55.5 -40.5t45 -53.5t27 -68.5t10.5 -87.5
q0 -122 -54 -208.5t-146 -159.5q-243 -193 -693 -193q-409 0 -619 233q-151 183 -151 436q0 8 6 101q14 258 123 514l12 27l9 20t4 9l251 -105q-65 -148 -99.5 -272.5t-34.5 -275.5zM808 -1039l-188 -188l-194 193l192 193l190 -190l188 188l194 -193l-192 -193z" />
    <glyph glyph-name="uni066E.init" unicode="&#x66e;" horiz-adv-x="700" 
d="M-165 98q0 68 45 113t113 45h148q220 0 256 83q8 22 8 54q0 22 -14 72q-44 153 -148 350l286 142q104 -230 141 -423q13 -69 13 -139q0 -101 -36 -185q-61 -138 -186 -204t-322 -66h-146q-68 0 -113 45t-45 113z" />
    <glyph glyph-name="uni066E.medi" unicode="&#x66e;" horiz-adv-x="705" 
d="M424 41q-138 -101 -407 -101h-17q-69 0 -113.5 44.5t-44.5 113.5t44.5 113.5t113.5 44.5h17q281 0 281 180v32q0 30 -16 96q-11 43 -28 100l285 69q53 -150 53 -297q0 -73 27 -126.5t85 -53.5q100 0 146 -96q13 -27 13 -62q0 -68 -45 -113t-113 -45q-173 0 -281 101z" />
    <glyph glyph-name="uni066E.fina" unicode="&#x66e;" horiz-adv-x="2316" 
d="M2308 -60q-175 0 -286.5 57t-179.5 177q-279 -237 -814 -237q-510 5 -766 179q-96 65 -144.5 151t-48.5 223q0 189 109 402l238 -138q-2 -3 -10.5 -20.5t-10.5 -22t-9.5 -20t-10 -22l-8.5 -21.5t-8 -24t-6 -24t-5 -27t-2.5 -27t-1.5 -30q0 -42 16 -101q46 -80 245 -122
q174 -37 423 -37q123 0 220 8.5t193 31t168 66t115 108.5q36 53 57.5 117.5t44.5 165.5l280 -71l-41 -212q-3 -18 -3 -34q0 -62 37 -103.5t92 -59t125 -17.5q68 0 113.5 -45t45.5 -113t-45.5 -113t-113.5 -45h-8z" />
    <glyph glyph-name="uni066F.init" unicode="&#x66f;" horiz-adv-x="895" 
d="M900 508q0 -102 -24.5 -183.5t-67 -139.5t-108 -101.5t-137 -69.5t-166 -42.5t-183.5 -23t-200 -8.5h-17q-68 0 -113 45t-45 113q0 69 45.5 113.5t114.5 44.5q363 0 563 56q47 13 75 32q-79 -9 -150 -9q-6 0 -18 0.5t-18 0.5q-256 9 -339 111v-1q-74 96 -74 232
q0 45 6 84q31 171 119 280q107 143 265 143q155 0 284 -137q131 -149 174 -388q14 -78 14 -152zM547 777q-54 91 -120 91q-25 0 -47 -14q-38 -23 -63 -64t-25 -93q0 -23 10 -39.5t22 -25.5t37.5 -15.5t40 -8t46.5 -4.5q53 -5 102 -5q30 0 57 3q-21 110 -60 175z" />
    <glyph glyph-name="uni066F.medi" unicode="&#x66f;" horiz-adv-x="1057" 
d="M1049 -60q-342 0 -511 81q-106 -60 -384 -76q-87 -5 -148 -5h-8q-69 0 -113.5 44.5t-44.5 113.5q0 70 44.5 114t113.5 44h108q6 0 20 -0.5t20 -0.5q7 0 15 -0.5t9 -0.5h8q1 0 3 -0.5t3 -0.5l16 2q-92 100 -98 240q2 158 76 280.5t189 182.5q77 40 154 40h16
q171 -9 291 -151q118 -142 118 -317q0 -122 -81 -262q137 -12 193 -12q71 0 115 -44t44 -114t-44.5 -114t-114.5 -44h-9zM681 507q0 90 -102 151q-28 17 -47 22q-50 -10 -90 -40t-63 -72q-18 -33 -18 -79q0 -32 55 -95q57 -65 121 -85q39 21 74.5 62t56.5 85q13 27 13 51z
" />
    <glyph glyph-name="uni066F.fina" unicode="&#x66f;" horiz-adv-x="1570" 
d="M419 454q-61 -112 -93 -218t-32 -238q0 -171 146 -280q131 -99 326 -99h9q254 0 407 192q46 57 73 129l-190 1q-252 22 -364 165q-90 110 -90 245q0 150 91 316q77 140 184 198q72 39 151 39q168 0 305 -149q80 -92 132.5 -221.5t66.5 -277.5h29q101 0 147 -96
q13 -27 13 -63q0 -67 -46 -112t-114 -45h-46q-32 -164 -116 -297t-205 -217q-183 -125 -432 -125q-327 0 -533 187q-70 64 -113 140v-1q-99 159 -99 370q0 165 36 297t105 266zM1160 518q-65 67 -128 67q-30 0 -54 -17q-43 -30 -73 -83.5t-30 -114.5q0 -25 15.5 -43.5
t32.5 -26.5t44 -18q76 -26 158 -26q8 0 22.5 -0.5t21.5 -0.5q12 0 32 0.5t28 0.5q33 0 48 1q-5 92 -71 200q-21 35 -46 61z" />
    <glyph glyph-name="uni0671" unicode="&#x671;" horiz-adv-x="573" arabic-form="isolated" 
d="M127 -63q24 430 24 669q0 485 -48 785l-13 81l311 105q8 -28 14 -63.5t8.5 -62.5t6 -72t6.5 -71q32 -323 32 -704q0 -312 -19 -619zM96 1856q20 0 44 -8t36 -20q23 38 46.5 68t57 59.5t77 45.5t93.5 16q70 0 119 -46.5t49 -112.5q0 -79 -64 -135q-45 -32 -109 -53
t-130 -21q-152 0 -221 91q-44 -4 -113 -54l-30 111q54 34 113 54q15 5 32 5zM529 1857q-18 44 -62 44q-48 0 -112.5 -44t-86.5 -74h26q102 0 176 20q28 8 43 19.5t16 34.5z" />
    <glyph glyph-name="uni0679" unicode="&#x679;" horiz-adv-x="2015" arabic-form="isolated" 
d="M1707 387q-19 75 -56 152t-63 118.5l-85 129.5l246 160q165 -262 209 -477q8 -39 8 -83v-14q-8 -153 -194 -261q-222 -129 -602 -163q-100 -9 -176 -9q-735 0 -909 345v-1q-48 93 -48 206q0 38 4.5 74.5t15 72.5t19 61.5t27 62l27.5 53.5l31 56l29 51l235 -197
q-76 -108 -105 -200q-12 -38 -12 -65q0 -19 6 -33q38 -79 229 -124q186 -44 451 -44q261 0 539 70q92 23 174 59zM668 1016q59 -23 117 -40l13 21l24 33q11 95 11 121q0 159 -29 323q-4 22 -5 33l146 40q3 -50 17 -171t16 -190q84 63 162 78q16 3 33 3q110 0 174 -90
q29 -39 29 -90q0 -20 -4 -37q-28 -120 -132.5 -182t-257.5 -62h-30q-134 0 -338 76zM957 952q85 0 164 19t124 54q26 28 26 52q0 20 -28 32.5t-60 12.5q-33 0 -70 -16t-57 -30t-52 -40q-41 -33 -61 -57l-23 -27h37z" />
    <glyph glyph-name="uni067E" unicode="&#x67e;" horiz-adv-x="2032" arabic-form="isolated" 
d="M1707 387q-19 75 -56 152t-63 118.5l-85 129.5l246 160q165 -262 209 -477q8 -39 8 -83v-14q-8 -153 -194 -261q-222 -129 -602 -163q-100 -9 -176 -9q-735 0 -909 345v-1q-48 93 -48 206q0 38 4.5 74.5t15 72.5t19 61.5t27 62l27.5 53.5l31 56l29 51l235 -197
q-76 -108 -105 -200q-12 -38 -12 -65q0 -19 6 -33q38 -79 229 -124q186 -44 451 -44q261 0 539 70q92 23 174 59zM818 -575l-192 193l194 193l188 -188l190 190l192 -193l-194 -193l-188 188zM1008 -848l-178 178l179 179l178 -178z" />
    <glyph glyph-name="uni0686" unicode="&#x686;" horiz-adv-x="1598" arabic-form="isolated" 
d="M886 -526q163 0 287 43t233 125l143 -237q-198 -177 -499 -235q-103 -20 -202 -20q-264 0 -453 105t-279 291q-61 126 -61 291v23q0 109 58 222q137 267 515 426q231 96 481 115q-56 19 -119 51l-123 63q-54 27 -120 53q-51 20 -104 20h-7q-84 -2 -180 -66
q-57 -38 -142 -132l-221 161q46 67 76.5 106.5t82.5 91.5t102 81t123 51t158 24h10q107 0 237 -61q51 -24 109 -58t97.5 -60l103.5 -69.5l94 -62.5q134 -88 269 -111l-95 -333l-93 2q-227 0 -493 -82q-288 -90 -436 -226q-113 -103 -115 -218v-9q0 -237 295 -328
q119 -37 268 -37zM720 -175l-162 163l164 163l159 -158l160 160l162 -163l-163 -163l-159 159zM881 -405l-150 150l151 151l150 -150z" />
    <glyph glyph-name="uni0688" unicode="&#x688;" horiz-adv-x="1149" arabic-form="isolated" 
d="M165 407q150 -96 330 -140q58 -14 97 -14q137 0 212 52q32 23 32 59q0 34 -24 84q-46 94 -162 210q-166 166 -335 274l177 263q331 -229 508 -525q61 -102 86 -203q14 -53 14 -115q0 -149 -81 -247.5t-210 -144.5q-89 -31 -198 -31q-3 0 -8 0.5t-8 0.5h-16
q-191 0 -421 109q-63 30 -124 67zM167 1491q59 -23 117 -40l13 21l24 33q11 95 11 121q0 159 -29 323q-4 22 -5 33l146 40q3 -50 17 -171t16 -190q84 63 162 78q17 3 33 3q110 0 174 -90q29 -39 29 -90q0 -20 -4 -37q-28 -120 -132.5 -182t-257.5 -62h-30q-134 0 -338 76z
M456 1427q85 0 164 19t124 54q26 28 26 52q0 20 -28 32.5t-60 12.5q-33 0 -70 -16t-57 -30t-52 -40q-41 -33 -61 -57l-23 -27h37z" />
    <glyph glyph-name="uni0691" unicode="&#x691;" horiz-adv-x="864" arabic-form="isolated" 
d="M565 673q101 -289 127 -497q6 -46 6 -86q0 -181 -98 -357q-183 -332 -603 -539l-182 253q340 170 515 404q93 125 93 238q0 70 -43 197q-31 89 -104 255zM82 1110q59 -23 117 -40l13 21l24 33q11 95 11 121q0 159 -29 323q-4 22 -5 33l146 40q3 -50 17 -171t16 -190
q84 63 162 78q16 3 33 3q110 0 174 -90q29 -39 29 -90q0 -20 -4 -37q-28 -120 -132.5 -182t-257.5 -62h-30q-134 0 -338 76zM371 1046q85 0 164 19t124 54q26 28 26 52q0 20 -28 32.5t-60 12.5q-33 0 -70 -16t-57 -30t-52 -40q-41 -33 -61 -57l-23 -27h37z" />
    <glyph glyph-name="uni0698" unicode="&#x698;" horiz-adv-x="930" arabic-form="isolated" 
d="M663 673q101 -289 127 -497q6 -46 6 -86q0 -181 -98 -357q-183 -332 -603 -539l-182 253q340 170 515 404q93 125 93 238q0 70 -43 197q-31 89 -104 255zM472 1083l-188 -188l-194 193l192 193l190 -190l188 188l194 -193l-192 -193zM651 1375l-178 -178l-179 179
l178 178z" />
    <glyph glyph-name="uni06A9" unicode="&#x6a9;" horiz-adv-x="2143" arabic-form="isolated" 
d="M1016 -59q-775 0 -950 347v-1q-48 93 -48 206q0 124 80 299q8 18 43 71l237 -173q-9 -17 -28 -48t-33 -57.5t-22 -53.5q-9 -29 -9 -56q0 -74 104 -123q101 -48 243 -66t342 -25h1q16 -1 48 -1q8 0 24 -0.5t23 -0.5q284 0 465 66q83 35 108 65q28 31 28 74q0 42 -33 92
q-16 24 -34.5 47.5t-45 49l-43 42t-51.5 45.5l-46.5 38.5l-53 42l-46.5 36.5l-209 172l33 296l902 393l124 -294l-705 -301q213 -178 324 -307q99 -114 135 -225q20 -60 20 -118q0 -138 -96 -274h1q-61 -91 -197 -153t-286 -84q-139 -21 -285 -21h-64z" />
    <glyph glyph-name="uni06AA.init" unicode="&#x6aa;" horiz-adv-x="2227" 
d="M686 655q108 0 323 13t328 13q88 0 162 -4t153 -14t143 -29t121.5 -46.5t100.5 -69t69 -95.5q8 -17 39.5 -97.5t51.5 -114.5l-118 -178q-3 -1 -12.5 -6t-17 -8t-14.5 -3q-546 -47 -863 -62l-1251 -14v314h125q318 0 1110 14q428 22 644 41q-34 44 -108.5 67.5t-144 28.5
t-173.5 5h-36q-111 -2 -226 -6l-231 -9q-42 -2 -124 -2q-76 0 -132.5 2.5t-124 11t-115.5 24t-91 43.5t-68 66q-28 44 -28 100v17q0 174 160 326q179 170 598 319q99 36 173 56l80 -305q-243 -71 -402 -150l-71.5 -34.5l-79 -37.5t-69 -36t-68.5 -42q-35 -24 -50 -47
q11 -21 43 -32t61 -14t77 -4q9 0 27.5 -0.5t28.5 -0.5z" />
    <glyph glyph-name="uni06AA.medi" unicode="&#x6aa;" horiz-adv-x="2706" 
d="M879 256q790 0 1177 43h9q-22 29 -51 52q-12 4 -29.5 6.5t-30 3l-36.5 1.5t-32 1q-46 2 -71 2q-161 0 -353 -29q-20 -3 -21 -3h-12q-130 -16 -377 -16h-48q-104 2 -177 8.5t-151.5 23.5t-133.5 53t-88 90q-28 46 -28 102v18q0 177 161 326h-1q133 126 338.5 220.5
t443.5 153.5q26 6 27 7l78 -291q-53 -22 -157 -58t-157 -57q-187 -76 -311 -161q-31 -21 -44.5 -31t-34.5 -29.5t-32 -37.5q114 -23 321 -23q234 0 335 15q166 33 422 33q199 0 297 -53q120 -67 222 -248l32 -58q48 -48 227 -60q57 -4 152 -4v-316q-258 0 -481 68
q-724 -73 -1250 -73q-6 0 -19 0.5t-20 0.5h-151q-6 0 -18 0.5t-19 0.5h-72q-43 0 -119 0.5t-108 0.5q-133 0 -194 1q-13 0 -42 0.5t-46 0.5h-199q-17 0 -47 0.5t-43 0.5v315h137q24 0 72 -0.5t71 -0.5q24 0 70 -0.5t69 -0.5h329q33 0 104.5 1t109.5 1z" />
    <glyph glyph-name="uni06AA.fina" unicode="&#x6aa;" horiz-adv-x="2763" 
d="M7 292q334 -52 760 -52q431 0 1233 46q78 4 138 9q-10 15 -15.5 21.5t-16 16t-24.5 17.5q-68 38 -212 55q-55 0 -113 -3.5t-129.5 -10t-111.5 -9.5q-296 -18 -457 -25q-102 2 -175.5 8.5t-151.5 23.5t-134 51.5t-89 86.5q-28 44 -28 99v18q0 177 161 326h-1
q109 104 314 205q186 90 585 163q35 6 36 7l71 -311q-321 -79 -553 -168q-175 -68 -266 -134q-61 -44 -88 -88q95 -3 181 -3h57q125 2 264 13t224.5 21l253.5 31q77 5 150 5q199 0 297 -53q120 -67 222 -248l29 -53q109 -101 383 -101l-1 -316q-226 0 -400 45
q-5 0 -13.5 3.5t-9.5 3.5q-54 15 -56 16q-907 -83 -1556 -83q-460 0 -810 55z" />
    <glyph glyph-name="uni06AF" unicode="&#x6af;" horiz-adv-x="2149" arabic-form="isolated" 
d="M1016 -59q-775 0 -950 347v-1q-48 93 -48 206q0 124 80 299q8 18 43 71l237 -173q-9 -17 -28 -48t-33 -57.5t-22 -53.5q-9 -29 -9 -56q0 -74 104 -123q101 -48 243 -66t342 -25h1q16 -1 48 -1q8 0 24 -0.5t23 -0.5q284 0 465 66q83 35 108 65q28 31 28 74q0 42 -33 92
q-16 24 -34.5 47.5t-45 49l-43 42t-51.5 45.5l-46.5 38.5l-53 42l-46.5 36.5l-209 172l33 296l902 393l124 -294l-705 -301q213 -178 324 -307q99 -114 135 -225q20 -60 20 -118q0 -138 -96 -274h1q-61 -91 -197 -153t-286 -84q-139 -21 -285 -21h-64zM1172 1617l765 319
l55 -119l-828 -350z" />
    <glyph glyph-name="uni06BA" unicode="&#x6ba;" horiz-adv-x="1630" arabic-form="isolated" 
d="M813 -749q-551 0 -712 404q-54 133 -54 293q0 164 53 331q54 169 155 323l225 -162q-94 -131 -141 -350q-17 -80 -17 -150q0 -161 138 -265q134 -101 313 -104h12q163 0 290 64.5t189 172.5q38 67 38 144v16q-2 66 -50 208q-29 84 -122 292q-12 27 -19 45l272 151
q1 -1 3 -5t6 -13.5t8 -17.5q61 -127 122 -334q46 -153 55 -283q1 -5 1 -19v-20q0 -291 -186 -494q-209 -227 -579 -227z" />
    <glyph glyph-name="uni06BE" unicode="&#x6be;" horiz-adv-x="1723" arabic-form="isolated" 
d="M789 -1q-109 -30 -265 -30q-175 0 -347 37q-167 35 -167 159q0 68 45 112.5t113 44.5h9q15 0 33.5 -5t45.5 -15t34 -12q90 -28 145 -28h12q-71 123 -71 264q0 117 43.5 211.5t117.5 159.5q-10 4 -52 29l193 284q36 -25 75.5 -49.5t86.5 -50l81 -43.5t92 -46l84 -40.5
l92.5 -43.5l84.5 -39q100 -47 173 -98t132 -121q98 -123 98 -295q0 -127 -62 -221.5t-165 -156.5q-120 -69 -328 -69q-180 0 -333 62zM830 746q-1 0 -4.5 0.5t-5.5 0.5q-59 0 -114 -82q-51 -75 -51 -148q0 -95 93 -171q23 -19 46 -28q107 67 156 190q14 35 14 72
q0 45 -26.5 83.5t-62.5 63.5q-23 16 -45 19zM1223 580q0 -180 -96 -324h9q84 0 153.5 21t104.5 61q23 26 23 55q0 47 -60 107q-56 56 -134 100v-20z" />
    <glyph glyph-name="uni06C0" unicode="&#x6c0;" horiz-adv-x="983" arabic-form="isolated" 
d="M485 -60q-133 0 -240.5 54.5t-165.5 141.5q-60 90 -60 211q0 201 177 415q32 40 56 64l18 18q-4 3 -20 16t-23 20l-18 16l199 243q69 -51 132.5 -111.5t153.5 -155.5q259 -295 259 -525q0 -93 -32 -166.5t-89.5 -122.5t-132 -78t-165.5 -38q-20 -2 -49 -2zM679 347
q0 60 -73 151q-68 86 -152 170q-111 -123 -153 -234q-14 -38 -14 -78v-9q1 -24 21.5 -43t52 -29.5t63 -15.5t61.5 -5q122 0 175 49q19 18 19 44zM262 1561q0 -45 43 -73.5t96 -28.5q15 0 30.5 3t31 10.5t25 12.5t26.5 15.5l22 13.5q20 12 49 33l77 -102q-28 -22 -62 -43.5
t-55 -33.5t-71 -38.5l-68 -36.5l-240 -133l-62 113l167 93q-52 29 -85 78.5t-33 116.5q0 99 86 171q68 56 160 56q70 0 138 -24l-36 -121l-33 8q-45 9 -69 9q-89 0 -129 -72q-8 -14 -8 -27z" />
    <glyph glyph-name="uni06C1" unicode="&#x6c1;" horiz-adv-x="1362" arabic-form="final" 
d="M1353 256h7q69 0 113.5 -44.5t44.5 -113.5t-44.5 -113.5t-113.5 -44.5h-6q-1 0 -2.5 0.5t-2.5 0.5q-80 1 -146 22t-125.5 69t-89 78.5t-87.5 98.5l-20 23l-31 38.5l-35 43t-33.5 37.5t-40 38t-39.5 29q-31 19 -63 19q-80 0 -134 -64q-88 -103 -151 -338l-300 80
q25 94 52.5 168.5t71 152t95.5 132t127 95t166 55.5q31 5 73 5q148 0 275 -91q35 -25 72.5 -60t61 -61l64.5 -73l59 -67q56 -63 121 -98q28 -15 61 -17z" />
    <glyph glyph-name="uni06CC" unicode="&#x6cc;" horiz-adv-x="1759" arabic-form="isolated" 
d="M286 -76q0 -80 25.5 -142.5t70 -103.5t109 -67.5t136.5 -37.5t158 -11q245 0 432 64q84 28 135 66q53 39 60 76q-14 0 -41 7.5t-31 8.5q-13 3 -41 9l-54 12q-57 14 -97.5 26.5t-88.5 32t-81.5 41t-66.5 53t-53 69t-32.5 88t-12.5 111.5q10 234 164 423q157 193 381 241
q56 14 122 14q135 0 282 -77l-111 -293q-102 44 -172 44q-83 0 -147 -32.5t-125 -87.5q-73 -67 -104 -138q-19 -42 -19 -74q0 -28 16 -44q15 -15 40 -27t46.5 -18l56 -15t50.5 -14l29 -7q46 -10 78.5 -19t72.5 -23.5t67 -30.5t55.5 -40.5t45 -53.5t27 -68.5t10.5 -87.5
q0 -122 -54 -208.5t-146 -159.5q-243 -193 -693 -193q-409 0 -619 233q-151 183 -151 436q0 8 6 101q14 258 123 514l12 27l9 20t4 9l251 -105q-65 -148 -99.5 -272.5t-34.5 -275.5z" />
    <glyph glyph-name="uni06D2" unicode="&#x6d2;" horiz-adv-x="2375" arabic-form="isolated" 
d="M892 -208q-109 0 -201.5 6t-192 23t-174.5 44.5t-136.5 75t-91.5 110.5q-25 51 -25 107q0 73 46 154q25 45 68 81t91 60t113.5 44t121.5 31.5t128 22.5q113 18 258 34l-4 -279q-189 -23 -417 -88l-36.5 -9.5t-36.5 -10t-29.5 -9.5t-30 -13t-23.5 -15q15 -15 62 -25
q68 -14 167.5 -22t160.5 -9.5t191 -2.5h69q651 0 1165 72q111 16 190 34l-37 -283q-401 -123 -1207 -134h-62q-90 0 -127 1z" />
    <glyph glyph-name="uni06D3" unicode="&#x6d3;" horiz-adv-x="2457" arabic-form="isolated" 
d="M925 -208q-109 0 -201.5 6t-192 23t-174.5 44.5t-136.5 75t-91.5 110.5q-25 51 -25 107q0 73 46 154q25 45 68 81t91 60t113.5 44t121.5 31.5t128 22.5q113 18 258 34l-4 -279q-189 -23 -417 -88l-36.5 -9.5t-36.5 -10t-29.5 -9.5t-30 -13t-23.5 -15q15 -15 62 -25
q68 -14 167.5 -22t160.5 -9.5t191 -2.5h69q651 0 1165 72q111 16 190 34l-37 -283q-401 -123 -1207 -134h-62q-90 0 -127 1zM503 994q0 -45 43 -73.5t96 -28.5q15 0 30.5 3t31 10.5t25 12.5t26.5 15.5l22 13.5q20 12 49 33l77 -102q-28 -22 -62 -43.5t-55 -33.5t-71 -38.5
l-68 -36.5l-240 -133l-62 113l167 93q-52 29 -85 78.5t-33 116.5q0 99 86 171q68 56 160 56q70 0 138 -24l-36 -121l-33 8q-45 9 -69 9q-89 0 -129 -72q-8 -14 -8 -27z" />
    <glyph glyph-name="uniFB51" unicode="&#x671;" horiz-adv-x="669" arabic-form="final" 
d="M459 1549q9 -48 15.5 -107t10 -106t6.5 -122t3.5 -113t2 -124.5t1.5 -114.5v-54q0 -9 0.5 -28.5t0.5 -29.5t0.5 -29t0.5 -28v-143q0 -29 -2 -85v-39q0 -9 -0.5 -22.5t-0.5 -17.5q-1 -10 -1 -33q0 -52 14 -66q26 -26 139 -30h9q99 0 146 -98q13 -27 13 -61
q0 -68 -45.5 -113t-113.5 -45q-126 0 -211.5 30t-151.5 94q-56 56 -80.5 130.5t-24.5 185.5q4 119 4 285q0 394 -20 616q-10 109 -23 175zM125 1843q20 0 44 -8t36 -20q23 38 46.5 68t57 59.5t77 45.5t93.5 16q70 0 119 -46.5t49 -112.5q0 -79 -64 -135q-45 -32 -109 -53
t-130 -21q-152 0 -221 91q-44 -4 -113 -54l-30 111q54 34 113 54q15 5 32 5zM558 1844q-18 44 -62 44q-48 0 -112.5 -44t-86.5 -74h26q102 0 176 20q28 8 43 19.5t16 34.5z" />
    <glyph glyph-name="uniFB57" unicode="&#x67e;" horiz-adv-x="2282" arabic-form="final" 
d="M2287 -60q-175 0 -286.5 57t-179.5 177q-279 -237 -814 -237q-510 5 -766 179q-96 65 -144.5 151t-48.5 223q0 189 109 402l238 -138q-2 -3 -10.5 -20.5t-10.5 -22t-9.5 -20t-10 -22l-8.5 -21.5t-8 -24t-6 -24t-5 -27t-2.5 -27t-1.5 -30q0 -42 16 -101q46 -80 245 -122
q174 -37 423 -37q123 0 220 8.5t193 31t168 66t115 108.5q36 53 57.5 117.5t44.5 165.5l280 -71l-41 -212q-3 -18 -3 -34q0 -62 37 -103.5t92 -59t125 -17.5q68 0 113.5 -45t45.5 -113t-45.5 -113t-113.5 -45h-8zM879 -586l-192 193l194 193l188 -188l190 190l192 -193
l-194 -193l-188 188zM1069 -859l-178 178l179 179l178 -178z" />
    <glyph glyph-name="uniFB58" unicode="&#x67e;" horiz-adv-x="859" arabic-form="initial" 
d="M-158 98q0 69 44.5 113.5t113.5 44.5h159q180 0 293 42q36 13 53.5 30.5t17.5 54.5q0 43 -21 102q-18 51 -43 105l-62.5 129l-47.5 96l285 140q104 -179 149 -431q14 -78 14 -129q0 -101 -36 -185q-84 -187 -290 -246q-95 -24 -253 -24h-218q-69 0 -113.5 44.5
t-44.5 113.5zM219 -570l-192 193l194 193l188 -188l190 190l192 -193l-194 -193l-188 188zM409 -843l-178 178l179 179l178 -178z" />
    <glyph glyph-name="uniFB59" unicode="&#x67e;" horiz-adv-x="859" arabic-form="medial" 
d="M-7 -60q-69 0 -113.5 44.5t-44.5 113.5t44.5 113.5t113.5 44.5h76q51 0 88.5 2t83.5 7.5t78.5 18.5t61.5 32t44 50t16 71q1 15 1 37q0 14 -2.5 26.5t-9 33.5t-8.5 28l-11.5 39.5t-15.5 55.5l291 82q45 -109 59 -300q9 -183 107 -183q68 0 113.5 -45t45.5 -113t-45 -113
t-113 -45q-169 0 -282 106q-158 -106 -502 -106h-76zM226 -569l-192 193l194 193l188 -188l190 190l192 -193l-194 -193l-188 188zM416 -842l-178 178l179 179l178 -178z" />
    <glyph glyph-name="uniFB67" unicode="&#x679;" horiz-adv-x="2236" arabic-form="final" 
d="M2231 -60q-175 0 -286.5 57t-179.5 177q-279 -237 -814 -237q-510 5 -766 179q-96 65 -144.5 151t-48.5 223q0 189 109 402l238 -138q-2 -3 -10.5 -20.5t-10.5 -22t-9.5 -20t-10 -22l-8.5 -21.5t-8 -24t-6 -24t-5 -27t-2.5 -27t-1.5 -30q0 -42 16 -101q46 -80 245 -122
q174 -37 423 -37q123 0 220 8.5t193 31t168 66t115 108.5q36 53 57.5 117.5t44.5 165.5l280 -71l-41 -212q-3 -18 -3 -34q0 -62 37 -103.5t92 -59t125 -17.5q68 0 113.5 -45t45.5 -113t-45.5 -113t-113.5 -45h-8zM742 1016q59 -23 117 -40l13 21l24 33q11 95 11 121
q0 159 -29 323q-4 22 -5 33l146 40q3 -50 17 -171t16 -190q84 63 162 78q16 3 33 3q110 0 174 -90q29 -39 29 -90q0 -20 -4 -37q-28 -120 -132.5 -182t-257.5 -62h-30q-134 0 -338 76zM1031 952q85 0 164 19t124 54q26 28 26 52q0 20 -28 32.5t-60 12.5q-33 0 -70 -16
t-57 -30t-52 -40q-41 -33 -61 -57l-23 -27h37z" />
    <glyph glyph-name="uniFB68" unicode="&#x679;" horiz-adv-x="774" arabic-form="initial" 
d="M-163 98q0 68 45 113t113 45h148q220 0 256 83q8 22 8 54q0 22 -14 72q-44 153 -148 350l286 142q104 -230 141 -423q13 -69 13 -139q0 -101 -36 -185q-61 -138 -186 -204t-322 -66h-146q-68 0 -113 45t-45 113zM19 1275q59 -23 117 -40l13 21l24 33q11 95 11 121
q0 159 -29 323q-4 22 -5 33l146 40q3 -50 17 -171t16 -190q84 63 162 78q17 3 33 3q110 0 174 -90q29 -39 29 -90q0 -20 -4 -37q-28 -120 -132.5 -182t-257.5 -62h-30q-134 0 -338 76zM308 1211q85 0 164 19t124 54q26 28 26 52q0 20 -28 32.5t-60 12.5q-33 0 -70 -16
t-57 -30t-52 -40q-41 -33 -61 -57l-23 -27h37z" />
    <glyph glyph-name="uniFB69" unicode="&#x679;" horiz-adv-x="859" arabic-form="medial" 
d="M-7 -60q-69 0 -113.5 44.5t-44.5 113.5t44.5 113.5t113.5 44.5h76q51 0 88.5 2t83.5 7.5t78.5 18.5t61.5 32t44 50t16 71q1 15 1 37q0 14 -2.5 26.5t-9 33.5t-8.5 28l-11.5 39.5t-15.5 55.5l291 82q45 -109 59 -300q9 -183 107 -183q68 0 113.5 -45t45.5 -113t-45 -113
t-113 -45q-169 0 -282 106q-158 -106 -502 -106h-76zM80 1165q59 -23 117 -40l13 21l24 33q11 95 11 121q0 159 -29 323q-4 22 -5 33l146 40q3 -50 17 -171t16 -190q84 63 162 78q16 3 33 3q110 0 174 -90q29 -39 29 -90q0 -20 -4 -37q-28 -120 -132.5 -182t-257.5 -62h-30
q-134 0 -338 76zM369 1101q85 0 164 19t124 54q26 28 26 52q0 20 -28 32.5t-60 12.5q-33 0 -70 -16t-57 -30t-52 -40q-41 -33 -61 -57l-23 -27h37z" />
    <glyph glyph-name="uniFB6A" unicode="&#x6a4;" horiz-adv-x="1959" arabic-form="isolated" 
d="M1159 446q-74 95 -74 232q0 45 6 84q31 171 119 280q107 143 265 143q155 0 284 -137q132 -151 175 -388q13 -72 13 -152q0 -141 -45 -235t-133 -161q-126 -97 -325 -134.5t-467 -37.5h-41q-35 0 -186 12q-211 17 -357 75q-227 89 -312 258v-1q-48 93 -48 206
q0 38 4.5 74.5t15 72.5t19 61.5t27 62l27.5 53.5l31 56l29 51l235 -197q-76 -108 -105 -200q-12 -38 -12 -65q0 -19 6 -33q38 -79 226 -126q173 -44 449 -44q403 0 620 56q50 13 79 32q-80 -9 -150 -9q-6 0 -18 0.5t-18 0.5q-256 9 -339 111v-1zM1594 777q-21 35 -53 63
t-68 28q-25 0 -47 -14q-36 -23 -61.5 -65.5t-25.5 -91.5q0 -23 10 -39.5t22 -25.5t37.5 -15.5t40 -8t46.5 -4.5q53 -5 102 -5q30 0 57 3q-22 112 -60 175zM1448 1485l-188 -188l-194 193l192 193l190 -190l188 188l194 -193l-192 -193zM1627 1777l-178 -178l-179 179
l178 178z" />
    <glyph glyph-name="uniFB6B" unicode="&#x6a4;" horiz-adv-x="2106" arabic-form="final" 
d="M922 -60q-305 0 -537.5 86t-320.5 259v-1q-48 93 -48 206q0 38 4.5 74.5t15 72.5t19 61.5t27 62l27.5 53.5l31 56l29 51l235 -197q-73 -103 -104 -200q-13 -41 -13 -65q0 -19 6 -33q38 -79 225 -126q175 -44 450 -44h84q62 0 156 4q7 0 17 0.5t15.5 1t8.5 0.5
q-90 101 -98 233q2 158 76 280.5t189 182.5q77 40 154 40h16q172 -9 292 -151q117 -139 117 -317q0 -122 -81 -262q137 -12 193 -12q70 0 114.5 -44t44.5 -114q0 -69 -45 -113.5t-114 -44.5h-9q-342 0 -511 81q-70 -40 -275 -61q-196 -20 -349 -20h-41zM1581 680
q-72 -15 -121.5 -65t-49.5 -126q0 -33 56 -95q57 -65 120 -85q40 21 75 61.5t56 85.5q13 27 13 51q0 48 -30.5 87.5t-71.5 63.5q-28 17 -47 22zM1590 1272l-188 -188l-194 193l192 193l190 -190l188 188l194 -193l-192 -193zM1769 1564l-178 -178l-179 179l178 178z" />
    <glyph glyph-name="uniFB6C" unicode="&#x6a4;" horiz-adv-x="896" arabic-form="initial" 
d="M900 508q0 -102 -24.5 -183.5t-67 -139.5t-108 -101.5t-137 -69.5t-166 -42.5t-183.5 -23t-200 -8.5h-17q-68 0 -113 45t-45 113q0 69 45.5 113.5t114.5 44.5q363 0 563 56q47 13 75 32q-79 -9 -150 -9q-6 0 -18 0.5t-18 0.5q-256 9 -339 111v-1q-74 96 -74 232
q0 45 6 84q31 171 119 280q107 143 265 143q155 0 284 -137q131 -149 174 -388q14 -78 14 -152zM547 777q-54 91 -120 91q-25 0 -47 -14q-38 -23 -63 -64t-25 -93q0 -23 10 -39.5t22 -25.5t37.5 -15.5t40 -8t46.5 -4.5q53 -5 102 -5q30 0 57 3q-21 110 -60 175zM353 1386
l-188 -188l-194 193l192 193l190 -190l188 188l194 -193l-192 -193zM532 1678l-178 -178l-179 179l178 178z" />
    <glyph glyph-name="uniFB6D" unicode="&#x6a4;" horiz-adv-x="1066" arabic-form="medial" 
d="M1049 -60q-342 0 -511 81q-106 -60 -384 -76q-87 -5 -148 -5h-8q-69 0 -113.5 44.5t-44.5 113.5q0 70 44.5 114t113.5 44h108q6 0 20 -0.5t20 -0.5q7 0 15 -0.5t9 -0.5h8q1 0 3 -0.5t3 -0.5l16 2q-92 100 -98 240q2 158 76 280.5t189 182.5q77 40 154 40h16
q171 -9 291 -151q118 -142 118 -317q0 -122 -81 -262q137 -12 193 -12q71 0 115 -44t44 -114t-44.5 -114t-114.5 -44h-9zM681 507q0 90 -102 151q-28 17 -47 22q-50 -10 -90 -40t-63 -72q-18 -33 -18 -79q0 -32 55 -95q57 -65 121 -85q39 21 74.5 62t56.5 85q13 27 13 51z
M512 1288l-188 -188l-194 193l192 193l190 -190l188 188l194 -193l-192 -193zM691 1580l-178 -178l-179 179l178 178z" />
    <glyph glyph-name="uniFB7B" unicode="&#x686;" horiz-adv-x="1703" arabic-form="final" 
d="M1399 367q42 -111 301 -111q52 0 89 -27.5t57 -70.5q13 -27 13 -62q0 -68 -45.5 -112t-113.5 -44q-407 0 -560 235q-51 78 -63 152q-291 -57 -501 -169q-153 -81 -218 -187q-34 -55 -35 -114v-12q0 -178 174 -279q151 -89 384 -89q286 0 544 161l144 -233
q-256 -183 -527 -234q-96 -18 -199 -18q-264 0 -454 104.5t-280 290.5q-62 129 -62 292v24q0 110 61 220q149 267 548 422q247 96 502 114q-230 126 -400 174q-67 19 -123 19q-77 0 -161 -54q-91 -58 -131 -132l-225 153q142 250 358 324q76 26 159 26q101 0 189.5 -31
t185.5 -84q48 -26 182.5 -110t234.5 -129.5t219 -70.5l-93 -315zM687 -204l-162 163l164 163l159 -158l160 160l162 -163l-163 -163l-159 159zM848 -434l-150 150l151 151l150 -150z" />
    <glyph glyph-name="uniFB7C" unicode="&#x686;" horiz-adv-x="1559" arabic-form="initial" 
d="M-161 98q0 69 45.5 113.5t114.5 44.5h192q417 0 775 148l207 91q-67 19 -201.5 72t-208.5 73q-71 19 -135 19q-77 0 -171 -82q-62 -55 -90 -104l-231 149q132 238 340 324q72 30 152 30q103 0 236 -45q76 -25 177 -73.5t197.5 -90t189.5 -61.5q56 -12 129 -14l-25 -307
l-142 -68l-148.5 -73.5l-154.5 -76.5t-150 -69t-166.5 -64t-171 -48t-197 -35t-211.5 -11h-192q-69 0 -114.5 45t-45.5 113zM561 -563l-192 193l194 193l188 -188l190 190l192 -193l-194 -193l-188 188zM751 -836l-178 178l179 179l178 -178z" />
    <glyph glyph-name="uniFB7D" unicode="&#x686;" horiz-adv-x="1663" arabic-form="medial" 
d="M561 658q-28 -1 -54.5 -9t-45.5 -16.5t-42.5 -29l-35 -30.5t-33.5 -37.5t-27 -34.5l-27 -37l-237 136q138 251 357 347q69 30 138 30h7q60 -2 122.5 -16.5t101.5 -29.5t100 -41l89.5 -39.5l97.5 -43t91 -36t105 -34.5q171 -47 307 -47l-52 -295l-102 -48l-26 -13
q65 -78 258 -78h14q68 0 113.5 -45.5t45.5 -113.5q0 -69 -45 -113t-114 -44h-14q-288 0 -458 146q-55 47 -89 105q-177 -86 -335 -144t-331 -87q-123 -21 -257 -21l-183 1q-69 0 -114 44.5t-45 112.5q0 51 27.5 88.5t69.5 57.5q27 13 62 13h183q212 0 492 78q266 75 461 167
q-72 17 -221 69t-223 70q-75 18 -124 18h-7zM560 -542l-192 193l194 193l188 -188l190 190l192 -193l-194 -193l-188 188zM750 -815l-178 178l179 179l178 -178z" />
    <glyph glyph-name="uniFB89" unicode="&#x688;" horiz-adv-x="1242" arabic-form="final" 
d="M944 51q-166 -111 -410 -111q-287 0 -489 211l181 255q76 -70 152.5 -108t180.5 -38q138 0 224 65q-54 133 -172.5 393.5t-170.5 387.5l292 122l89 -216l241 -581q3 -7 11 -27.5t11 -27l11.5 -24t13 -24l14 -20t18 -18.5t21 -13.5t25.5 -11.5t30 -6t36 -3q52 0 89 -27
t57 -69q13 -27 13 -62q0 -67 -45.5 -112.5t-113.5 -45.5q-107 0 -180 27.5t-129 83.5zM209 1516q59 -23 117 -40l13 21l24 33q11 95 11 121q0 159 -29 323q-4 22 -5 33l146 40q3 -50 17 -171t16 -190q84 63 162 78q17 3 33 3q110 0 174 -90q29 -39 29 -90q0 -20 -4 -37
q-28 -120 -132.5 -182t-257.5 -62h-30q-134 0 -338 76zM498 1452q85 0 164 19t124 54q26 28 26 52q0 20 -28 32.5t-60 12.5q-33 0 -70 -16t-57 -30t-52 -40q-41 -33 -61 -57l-23 -27h37z" />
    <glyph glyph-name="uniFB8B" unicode="&#x698;" horiz-adv-x="871" arabic-form="final" 
d="M1034 97q0 -69 -45 -113t-115 -44q-87 0 -148 25q-43 -236 -232 -445q-171 -189 -446 -326l-183 253q241 123 403 267q114 102 164 220q24 57 24 116v9q0 2 -0.5 6t-0.5 6t-0.5 4t-0.5 3q-6 45 -16.5 90.5t-19.5 78t-27.5 80.5t-27.5 69.5l-33.5 76.5t-31.5 72l289 126
q27 -81 43.5 -126.5t43.5 -102.5t56 -99q59 -87 140 -87h5q68 0 113.5 -45.5t45.5 -113.5zM444 1051l-188 -188l-194 193l192 193l190 -190l188 188l194 -193l-192 -193zM623 1343l-178 -178l-179 179l178 178z" />
    <glyph glyph-name="uniFB8D" unicode="&#x691;" horiz-adv-x="822" arabic-form="final" 
d="M984 97q0 -69 -45 -113t-115 -44q-87 0 -148 25q-43 -236 -232 -445q-171 -189 -446 -326l-183 253q241 123 403 267q114 102 164 220q24 57 24 116v9q0 2 -0.5 6t-0.5 6t-0.5 4t-0.5 3q-6 45 -16.5 90.5t-19.5 78t-27.5 80.5t-27.5 69.5l-33.5 76.5t-31.5 72l289 126
q27 -81 43.5 -126.5t43.5 -102.5t56 -99q59 -87 140 -87h5q68 0 113.5 -45.5t45.5 -113.5zM87 1057q59 -23 117 -40l13 21l24 33q11 95 11 121q0 159 -29 323q-4 22 -5 33l146 40q3 -50 17 -171t16 -190q84 63 162 78q17 3 33 3q110 0 174 -90q29 -39 29 -90q0 -20 -4 -37
q-28 -120 -132.5 -182t-257.5 -62h-30q-134 0 -338 76zM376 993q85 0 164 19t124 54q26 28 26 52q0 20 -28 32.5t-60 12.5q-33 0 -70 -16t-57 -30t-52 -40q-41 -33 -61 -57l-23 -27h37z" />
    <glyph glyph-name="uniFB8F" unicode="&#x6a9;" horiz-adv-x="2321" arabic-form="final" 
d="M2320 -60q-324 0 -525 213q-94 -98 -295 -157q-187 -56 -543 -56q-713 11 -881 345v-1q-48 93 -48 206q0 203 124 368l236 -172q-63 -99 -82 -161q-9 -30 -9 -57q0 -46 35 -76.5t90 -53.5q191 -81 629 -81q226 0 403 43q140 36 185 87q33 37 33 79q0 37 -14.5 77
t-29.5 65t-40 61q-128 184 -371 371l32 273l923 387l112 -278l-767 -311q213 -170 333 -369q36 -60 74 -141q75 -220 229 -313q64 -29 159 -32h8q69 0 113.5 -44.5t44.5 -113.5t-44.5 -113.5t-113.5 -44.5z" />
    <glyph glyph-name="uniFB90" unicode="&#x6a9;" horiz-adv-x="1024" arabic-form="initial" 
d="M412 -52q-58 -9 -98 -9l-323 1q-73 0 -120.5 43.5t-47.5 113.5q0 72 47 115.5t121 43.5h105q245 0 353 37q101 35 101 152q0 48 -16.5 91.5t-32 65.5t-50.5 64q-137 165 -395 381l31 272l840 374l121 -268l-664 -308q162 -113 294 -301q90 -129 125 -258q18 -67 18 -121
v-8q-3 -140 -67 -255q-104 -186 -343 -227z" />
    <glyph glyph-name="uniFB91" unicode="&#x6a9;" horiz-adv-x="1197" arabic-form="medial" 
d="M728 121q-134 -172 -401 -181h-326q-68 0 -113.5 45t-45.5 113t45.5 113t113.5 45h339q102 0 197 88q24 23 29 49v13q0 92 -77 214q-143 227 -392 419l27 275l919 385l116 -275l-759 -310q125 -117 219 -234.5t165 -256.5l26.5 -51l28.5 -54t28.5 -49.5t33 -51
l34.5 -43.5t41 -42.5t45 -32t53 -27.5q38 -14 82 -16h42q69 0 113.5 -44.5t44.5 -113.5t-44.5 -113.5t-113.5 -44.5h-8q-157 0 -266.5 46t-195.5 135z" />
    <glyph glyph-name="uniFB93" unicode="&#x6af;" horiz-adv-x="2309" arabic-form="final" 
d="M2320 -60q-324 0 -525 213q-94 -98 -295 -157q-187 -56 -543 -56q-713 11 -881 345v-1q-48 93 -48 206q0 203 124 368l236 -172q-63 -99 -82 -161q-9 -30 -9 -57q0 -46 35 -76.5t90 -53.5q191 -81 629 -81q226 0 403 43q140 36 185 87q33 37 33 79q0 37 -14.5 77
t-29.5 65t-40 61q-128 184 -371 371l32 273l923 387l112 -278l-767 -311q213 -170 333 -369q36 -60 74 -141q75 -220 229 -313q64 -29 159 -32h8q69 0 113.5 -44.5t44.5 -113.5t-44.5 -113.5t-113.5 -44.5zM1242 1591l834 359l55 -119l-897 -390z" />
    <glyph glyph-name="uniFB94" unicode="&#x6af;" horiz-adv-x="1047" arabic-form="initial" 
d="M425 -52q-58 -9 -98 -9l-323 1q-73 0 -120.5 43.5t-47.5 113.5q0 72 47 115.5t121 43.5h105q245 0 353 37q101 35 101 152q0 48 -16.5 91.5t-32 65.5t-50.5 64q-137 165 -395 381l31 272l840 374l121 -268l-664 -308q162 -113 294 -301q90 -129 125 -258q18 -67 18 -121
v-8q-3 -140 -67 -255q-104 -186 -343 -227zM82 1597l765 319l55 -119l-828 -350z" />
    <glyph glyph-name="uniFB95" unicode="&#x6af;" horiz-adv-x="1197" arabic-form="medial" 
d="M728 121q-134 -172 -401 -181h-326q-68 0 -113.5 45t-45.5 113t45.5 113t113.5 45h339q102 0 197 88q24 23 29 49v13q0 92 -77 214q-143 227 -392 419l27 275l919 385l116 -275l-759 -310q125 -117 219 -234.5t165 -256.5l26.5 -51l28.5 -54t28.5 -49.5t33 -51
l34.5 -43.5t41 -42.5t45 -32t53 -27.5q38 -14 82 -16h42q69 0 113.5 -44.5t44.5 -113.5t-44.5 -113.5t-113.5 -44.5h-8q-157 0 -266.5 46t-195.5 135zM137 1607l765 319l55 -119l-828 -350z" />
    <glyph glyph-name="uniFB9F" unicode="&#x6ba;" horiz-adv-x="1709" arabic-form="final" 
d="M1707 -60q-87 0 -179 29q-7 -196 -84 -347t-207 -235q-207 -134 -501 -134q-221 0 -369 68.5t-243 204.5q-123 175 -123 418q0 101 15 190.5t49 177t60 141t76 147.5l225 -162q-101 -187 -136 -386q-13 -73 -13 -127q0 -152 139 -255q132 -97 307 -100h19q359 0 470 200
q39 70 39 171q0 100 -61 259q-14 36 -33.5 79l-31.5 68l-40 81l-35 70l273 173l101 -195q36 -72 71 -118t83 -74q47 -28 129 -28q69 0 114 -44.5t45 -113.5t-45 -113.5t-114 -44.5z" />
    <glyph glyph-name="uniFBA5" unicode="&#x6c0;" horiz-adv-x="1090" arabic-form="final" 
d="M735 93q-90 -13 -191 -13q-282 0 -406 147q-66 87 -66 198q0 80 24 134q122 253 458 385l-3.5 45t-3.5 48l-5 63l312 67q6 -38 13 -117.5t9 -99.5q8 -64 18 -175q24 -263 61 -435q10 -48 41.5 -66t93.5 -18q100 0 146 -96q13 -27 13 -62q0 -68 -45.5 -113t-113.5 -45
q-243 0 -355 153zM538 394q20 0 87 5q-19 138 -21 166l-10 92q-179 -94 -243 -161q-28 -29 -28 -57q0 -45 215 -45zM412 1513q0 -45 43 -73.5t96 -28.5q15 0 30.5 3t31 10.5t25 12.5t26.5 15.5l22 13.5q20 12 49 33l77 -102q-28 -22 -62 -43.5t-55 -33.5t-71 -38.5
l-68 -36.5l-240 -133l-62 113l167 93q-52 29 -85 78.5t-33 116.5q0 99 86 171q68 56 160 56q70 0 138 -24l-36 -121l-33 8q-45 9 -69 9q-89 0 -129 -72q-8 -14 -8 -27z" />
    <glyph glyph-name="uniFBA6" unicode="&#x6c1;" horiz-adv-x="983" arabic-form="isolated" 
d="M485 -60q-133 0 -240.5 54.5t-165.5 141.5q-60 90 -60 211q0 201 177 415q32 40 56 64l18 18q-4 3 -20 16t-23 20l-18 16l199 243q69 -51 132.5 -111.5t153.5 -155.5q259 -295 259 -525q0 -93 -32 -166.5t-89.5 -122.5t-132 -78t-165.5 -38q-20 -2 -49 -2zM679 347
q0 60 -73 151q-68 86 -152 170q-111 -123 -153 -234q-14 -38 -14 -78v-9q1 -24 21.5 -43t52 -29.5t63 -15.5t61.5 -5q122 0 175 49q19 18 19 44z" />
    <glyph glyph-name="uniFBA8" unicode="&#x6c1;" horiz-adv-x="728" arabic-form="initial" 
d="M527 -45q22 -15 75 -44q-92 -143 -92 -222q0 -29 27 -53q25 -22 90 -47q-58 -95 -123 -138q-18 -12 -28 -12h-1q-58 6 -94 44t-36 98q0 73 50 171q32 62 132 203zM-165 98q0 68 45 113t113 45h148q220 0 256 83q8 22 8 54q0 22 -14 72q-44 153 -148 350l286 142
q104 -230 141 -423q13 -69 13 -139q0 -101 -36 -185q-61 -138 -186 -204t-322 -66h-146q-68 0 -113 45t-45 113z" />
    <glyph glyph-name="uniFBA9" unicode="&#x6c1;" horiz-adv-x="1059" arabic-form="medial" 
d="M443 325q-46 -114 -46 -221q0 -154 64 -308q24 -57 53 -92q-7 40 -8 87v13q0 192 73 276q123 176 404 176h123v-316l-122 1q-66 0 -113.5 -23t-76 -67t-44.5 -91.5t-26 -113.5q-7 -45 -7 -88q0 -4 0.5 -16.5t0.5 -20.5v-35l-183 -102q-146 92 -231.5 190.5t-136.5 241.5
q-23 66 -35 132q-53 -8 -173 -8v316q53 0 107 2q16 1 25 2t14.5 5.5t7 6.5t5.5 13.5l6 17.5q10 25 20 45l22 44q5 10 17 31zM975 -209q15 -9 38 -33t42 -34q-99 -152 -99 -228q0 -22 30 -45q31 -23 95 -48q-36 -88 -87 -133q-35 -31 -67 -31q-66 0 -106 45t-40 112
q0 83 53 180q54 98 141 215z" />
    <glyph glyph-name="uniFBAB" unicode="&#x6be;" horiz-adv-x="1220" arabic-form="final" 
d="M875 -693q-101 62 -177.5 119t-152 131t-131 163t-90.5 193h-4l-128 -48q-18 -7 -37 -7q-39 0 -71.5 28.5t-49.5 65.5q-15 33 -15 65q0 64 33.5 95t99.5 56l124 49q15 228 134 471q82 167 192 242q58 40 121 44q131 -3 221 -133q87 -124 87 -286q0 -170 -141 -337
q-59 -70 -140.5 -131.5t-167.5 -100.5q14 -45 80 -125q46 -57 107 -112v8q0 169 144 333q87 100 199 144q57 22 107 22q69 0 114 -44.5t45 -113.5t-45 -113.5t-114 -44.5h-4q-71 -10 -125 -56.5t-83 -111.5q-19 -42 -19 -88q0 -49 18 -83t52 -71zM686 344q47 42 72 87.5
t25 109.5q0 60 -15.5 110.5t-47.5 69.5q-37 -20 -87 -107q-78 -136 -111 -278q-9 -41 -11 -84q93 15 175 92z" />
    <glyph glyph-name="uniFBAC" unicode="&#x6be;" horiz-adv-x="1570" arabic-form="initial" 
d="M518 -1q-210 -59 -519 -59h-9q-69 0 -113.5 45t-44.5 114q0 68 45 112.5t113 44.5h38q27 0 73.5 2.5t60.5 3.5q-71 123 -71 264q0 117 43.5 211.5t117.5 159.5l-52 29l193 284q62 -43 138.5 -81t193 -87.5t152.5 -66.5l108 -48.5t116 -53.5t93.5 -50t100.5 -67.5
t77 -76.5q98 -123 98 -295q0 -126 -62.5 -221.5t-164.5 -156.5q-121 -69 -353 -69q-224 0 -372 62zM523 318q99 11 152 71.5t53 168.5q0 56 -63 124q-51 56 -106 64q-1 0 -5 0.5t-6 0.5q-59 0 -124 -82q-63 -78 -63 -153q0 -55 61 -120q49 -53 101 -74zM991 580
q0 -116 -75 -266q-20 -40 -46 -79h9q41 0 69 0.5t67 4t65.5 9.5t55.5 17.5t46.5 28t29 41t11.5 55.5q0 20 -15 42.5t-27.5 33.5l-34.5 29q-67 55 -155 104v-20z" />
    <glyph glyph-name="uniFBAD" unicode="&#x6be;" horiz-adv-x="1003" arabic-form="medial" 
d="M-1 -60q-69 0 -113.5 44.5t-44.5 113.5t44.5 113.5t113.5 44.5h52q10 219 139 452q88 158 198 226q58 35 121 40q131 -3 221 -133q87 -124 87 -286q0 -170 -141 -337q-59 -70 -140.5 -131.5t-167.5 -100.5q14 -45 80 -125q46 -57 107 -112v8q0 169 144 333
q87 100 199 144q57 22 107 22q69 0 114 -44.5t45 -113.5t-45 -113.5t-114 -44.5h-4q-71 -10 -125 -56.5t-83 -111.5q-19 -42 -19 -88q0 -49 18 -83t52 -71l-183 -223q-207 127 -347 277.5t-208 355.5h-107zM472 344q47 42 72 87.5t25 109.5q0 60 -15.5 110.5t-47.5 69.5
q-37 -20 -87 -107q-78 -136 -111 -278q-9 -41 -11 -84q93 15 175 92z" />
    <glyph glyph-name="uniFBAF" unicode="&#x6d2;" horiz-adv-x="1630" arabic-form="final" 
d="M1204 -256q342 0 342 7l74 -262q-72 0 -217 -10.5t-197 -12.5q-157 -7 -278 -7q-97 0 -177.5 3.5t-172 13t-164.5 28.5t-140.5 47t-116 71t-75.5 99q-26 55 -26 115q0 3 0.5 9.5t0.5 9.5q5 71 45 134q35 56 97 98.5t129.5 68t163.5 44.5t174.5 28.5t187.5 17.5
q127 10 294 10h482q69 0 113.5 -44.5t44.5 -113.5t-44.5 -113.5t-113.5 -44.5h-618q-6 0 -23 0.5t-28 0.5h-73q-210 0 -479 -47q-60 -10 -86 -36q-12 -12 -24 -19q67 -44 275 -67q247 -28 630 -28z" />
    <glyph glyph-name="uniFBB1" unicode="&#x6d3;" horiz-adv-x="1598" arabic-form="final" 
d="M1168 -256q342 0 342 7l74 -262q-72 0 -217 -10.5t-197 -12.5q-158 -7 -278 -7q-97 0 -177.5 3.5t-172 13t-164.5 28.5t-140.5 47t-116 71t-75.5 99q-26 55 -26 115q0 3 0.5 9.5t0.5 9.5q5 71 45 134q35 56 97 98.5t129.5 68t163.5 44.5t174.5 28.5t187.5 17.5
q127 10 294 10h482q69 0 113.5 -44.5t44.5 -113.5t-44.5 -113.5t-113.5 -44.5h-618q-6 0 -23 0.5t-28 0.5h-73q-210 0 -479 -47q-60 -10 -86 -36q-12 -12 -24 -19q67 -44 275 -67q247 -28 630 -28zM377 684q0 -45 43 -73.5t96 -28.5q15 0 30.5 3t31 10.5t25 12.5t26.5 15.5
l22 13.5q20 12 49 33l77 -102q-28 -22 -62 -43.5t-55 -33.5t-71 -38.5l-68 -36.5l-240 -133l-62 113l167 93q-52 29 -85 78.5t-33 116.5q0 99 86 171q68 56 160 56q70 0 138 -24l-36 -121l-33 8q-45 9 -69 9q-89 0 -129 -72q-8 -14 -8 -27z" />
    <glyph glyph-name="uniFBE8" unicode="&#x649;" horiz-adv-x="724" arabic-form="initial" 
d="M-165 98q0 68 45 113t113 45h148q220 0 256 83q8 22 8 54q0 22 -14 72q-44 153 -148 350l286 142q104 -230 141 -423q13 -69 13 -139q0 -101 -36 -185q-61 -138 -186 -204t-322 -66h-146q-68 0 -113 45t-45 113z" />
    <glyph glyph-name="uniFBE9" unicode="&#x649;" horiz-adv-x="705" arabic-form="medial" 
d="M424 41q-138 -101 -407 -101h-17q-69 0 -113.5 44.5t-44.5 113.5t44.5 113.5t113.5 44.5h17q281 0 281 180v32q0 30 -16 96q-11 43 -28 100l285 69q53 -150 53 -297q0 -73 27 -126.5t85 -53.5q100 0 146 -96q13 -27 13 -62q0 -68 -45 -113t-113 -45q-173 0 -281 101z" />
    <glyph glyph-name="uniFBFD" unicode="&#x6cc;" horiz-adv-x="1731" arabic-form="final" 
d="M1605 -60q37 -68 41 -150q-8 -174 -157 -297q-117 -96 -288.5 -150.5t-370.5 -54.5q-513 0 -685 268q-107 170 -107 395q0 185 34.5 337t99.5 316l257 -107q-33 -84 -49 -128.5t-37 -117t-29.5 -144.5t-8.5 -156q0 -346 525 -346q133 0 312 38q136 29 201 83q33 27 33 64
q0 9 -62 38q-81 39 -145 63q-32 10 -72.5 19t-71 14.5l-80 14.5l-72.5 13l41 304h802q100 0 146 -96q13 -27 13 -62q0 -68 -45.5 -113t-113.5 -45h-111z" />
    <glyph glyph-name="uniFBFE" unicode="&#x6cc;" horiz-adv-x="799" arabic-form="initial" 
d="M379 -390l-188 -188l-194 193l192 193l190 -190l188 188l194 -193l-192 -193zM-206 98q0 69 44.5 113.5t113.5 44.5h159q180 0 293 42q36 13 53.5 30.5t17.5 54.5q0 43 -21 102q-18 51 -43 105l-62.5 129l-47.5 96l285 140q104 -179 149 -431q14 -78 14 -129
q0 -101 -36 -185q-84 -187 -290 -246q-95 -24 -253 -24h-218q-69 0 -113.5 44.5t-44.5 113.5z" />
    <glyph glyph-name="uniFBFF" unicode="&#x6cc;" horiz-adv-x="860" arabic-form="medial" 
d="M-7 -60q-69 0 -113.5 44.5t-44.5 113.5t44.5 113.5t113.5 44.5h76q51 0 88.5 2t83.5 7.5t78.5 18.5t61.5 32t44 50t16 71q1 15 1 37q0 14 -2.5 26.5t-9 33.5t-8.5 28l-11.5 39.5t-15.5 55.5l291 82q45 -109 59 -300q9 -183 107 -183q68 0 113.5 -45t45.5 -113t-45 -113
t-113 -45q-169 0 -282 106q-158 -106 -502 -106h-76zM412 -420l-188 -188l-194 193l192 193l190 -190l188 188l194 -193l-192 -193z" />
    <glyph glyph-name="uniFC5E" unicode="&#xfc5e;" arabic-form="isolated" 
d="M266 1175q-52 -52 -127 -52q-89 4 -140 48.5t-51 129.5q0 104 43 175l120 -63q-31 -58 -31 -110q0 -18 12.5 -28.5t32.5 -10.5q10 0 18.5 2.5t14.5 8.5t10.5 12t7.5 16t5 17.5t3.5 20.5t2 20.5l1.5 21.5t1 20l100 38q14 -103 45 -138q19 -21 41 -21q21 2 39 13.5t18 28.5
q0 32 -35 86q-30 47 -64 84l123 85q56 -79 89 -172q14 -40 14 -75q0 -58 -33.5 -104.5t-81.5 -71.5q-34 -18 -71 -18q-62 0 -107 37zM16 1729q0 17 -8.5 33t-24.5 16q-23 0 -59.5 -18.5t-50.5 -29.5l-78 88q81 81 165 81h7q43 -2 78.5 -20t50.5 -48q22 -44 22 -76
q0 -19 -15 -61q85 28 140 58q-77 42 -109 89q-33 48 -33 90q0 63 49 116q69 75 154 75q79 0 125.5 -59.5t46.5 -146.5q0 -36 -13 -99q21 -9 29 -15l-41 -128l-58 16q-119 -106 -344 -151l-30 -6l-59 83l16 23l19.5 28.5t14 29t6.5 32.5zM340 1909q0 33 -16.5 56.5
t-42.5 23.5q-17 0 -41.5 -14t-24.5 -28q0 -4 3 -8q16 -20 73 -51l-1 1l46 -23l3 21q1 7 1 22z" />
    <glyph glyph-name="uniFC5F" unicode="&#xfc5f;" arabic-form="isolated" 
d="M277 1231q-52 -52 -127 -52q-89 4 -140 48.5t-51 129.5q0 104 43 175l120 -63q-31 -58 -31 -110q0 -18 12.5 -28.5t32.5 -10.5q10 0 18.5 2.5t14.5 8.5t10.5 12t7.5 16t5 17.5t3.5 20.5t2 20.5l1.5 21.5t1 20l100 38q14 -103 45 -138q19 -21 41 -21q21 2 39 13.5t18 28.5
q0 32 -35 86q-30 47 -64 84l123 85q56 -79 89 -172q14 -40 14 -75q0 -58 -33.5 -104.5t-81.5 -71.5q-34 -18 -71 -18q-62 0 -107 37zM41 705l482 191v-168l-482 -200v177zM41 991l482 191v-168l-482 -200v177z" />
    <glyph glyph-name="uniFC60" unicode="&#xfc60;" arabic-form="isolated" 
d="M242 1354q-52 -52 -127 -52q-89 4 -140 48.5t-51 129.5q0 104 43 175l120 -63q-31 -58 -31 -110q0 -18 12.5 -28.5t32.5 -10.5q10 0 18.5 2.5t14.5 8.5t10.5 12t7.5 16t5 17.5t3.5 20.5t2 20.5l1.5 21.5t1 20l100 38q14 -103 45 -138q19 -21 41 -21q21 2 39 13.5t18 28.5
q0 32 -35 86q-30 47 -64 84l123 85q56 -79 89 -172q14 -40 14 -75q0 -58 -33.5 -104.5t-81.5 -71.5q-34 -18 -71 -18q-62 0 -107 37zM-42 1880l482 191v-168l-482 -200v177z" />
    <glyph glyph-name="uniFC61" unicode="&#xfc61;" arabic-form="isolated" 
d="M262 1184q-52 -52 -127 -52q-89 4 -140 48.5t-51 129.5q0 104 43 175l120 -63q-31 -58 -31 -110q0 -18 12.5 -28.5t32.5 -10.5q10 0 18.5 2.5t14.5 8.5t10.5 12t7.5 16t5 17.5t3.5 20.5t2 20.5l1.5 21.5t1 20l100 38q14 -103 45 -138q19 -21 41 -21q21 2 39 13.5t18 28.5
q0 32 -35 86q-30 47 -64 84l123 85q56 -79 89 -172q14 -40 14 -75q0 -58 -33.5 -104.5t-81.5 -71.5q-34 -18 -71 -18q-62 0 -107 37zM382 1696q-47 9 -62 16q-113 -94 -323 -165l-40 -10l-40 140l63 19.5l74.5 23.5t58 21.5t62.5 28.5l-27 11q-116 59 -116 171q0 65 43 113
t103 67q32 10 57 10q71 0 124 -62q48 -57 48 -146q0 -40 -11 -91l29 -6zM279 1888q0 45 -17.5 80.5t-49.5 44.5q-20 0 -41 -16t-28 -33q2 -5 6 -9.5t11 -10t12.5 -9l14 -8.5t11.5 -7q51 -32 81 -45q1 3 1 6v3q-1 2 -1 4z" />
    <glyph glyph-name="uniFC62" unicode="&#xfc62;" arabic-form="isolated" 
d="M269 1192q-52 -52 -127 -52q-89 4 -140 48.5t-51 129.5q0 104 43 175l120 -63q-31 -58 -31 -110q0 -18 12.5 -28.5t32.5 -10.5q10 0 18.5 2.5t14.5 8.5t10.5 12t7.5 16t5 17.5t3.5 20.5t2 20.5l1.5 21.5t1 20l100 38q14 -103 45 -138q19 -21 41 -21q21 2 39 13.5t18 28.5
q0 32 -35 86q-30 47 -64 84l123 85q56 -79 89 -172q14 -40 14 -75q0 -58 -33.5 -104.5t-81.5 -71.5q-35 -18 -71 -18q-62 0 -107 37zM24 951l482 191v-168l-482 -200v177z" />
    <glyph glyph-name="uniFC63" unicode="&#xfc63;" arabic-form="isolated" 
d="M271 1159q-52 -52 -127 -52q-89 4 -140 48.5t-51 129.5q0 104 43 175l120 -63q-31 -58 -31 -110q0 -18 12.5 -28.5t32.5 -10.5q10 0 18.5 2.5t14.5 8.5t10.5 12t7.5 16t5 17.5t3.5 20.5t2 20.5l1.5 21.5t1 20l100 38q14 -103 45 -138q19 -21 41 -21q21 2 39 13.5t18 28.5
q0 32 -35 86q-30 47 -64 84l123 85q56 -79 89 -172q14 -40 14 -75q0 -58 -33.5 -104.5t-81.5 -71.5q-35 -18 -71 -18q-62 0 -107 37zM128 1587q28 99 28 209q0 107 -28 206l147 48q30 -131 30 -240q0 -128 -28 -272z" />
    <glyph glyph-name="uniFE70" unicode="&#xfe70;" arabic-form="isolated" 
d="M-26 1245l482 191v-168l-482 -200v177zM-26 1531l482 191v-168l-482 -200v177z" />
    <glyph glyph-name="uniFE72" unicode="&#xfe72;" arabic-form="isolated" 
d="M56 1270q0 17 -8.5 33t-24.5 16q-23 0 -59.5 -18.5t-50.5 -29.5l-78 88q81 81 165 81h7q43 -2 78.5 -20t50.5 -48q22 -44 22 -76q0 -18 -15 -61q85 28 140 58q-77 42 -109 89q-33 48 -33 90q0 63 49 116q69 75 154 75q79 0 125.5 -59.5t46.5 -146.5q0 -36 -13 -99
q21 -9 29 -15l-41 -128l-58 16q-119 -106 -344 -151l-30 -6l-59 83l16 23l19.5 28.5t14 29t6.5 32.5zM380 1450q0 33 -16.5 56.5t-42.5 23.5q-17 0 -41.5 -14t-24.5 -28q0 -4 3 -8q16 -20 73 -51l-1 1l46 -23l3 21q1 7 1 22z" />
    <glyph glyph-name="uniFE74" unicode="&#xfe74;" arabic-form="isolated" 
d="M-21 -574l482 191v-168l-482 -200v177zM-21 -288l482 191v-168l-482 -200v177z" />
    <glyph glyph-name="uniFE76" unicode="&#xfe76;" arabic-form="isolated" 
d="M-45 1381l482 191v-168l-482 -200v177z" />
    <glyph glyph-name="uniFE78" unicode="&#xfe78;" arabic-form="isolated" 
d="M382 1200q-47 9 -62 16q-113 -94 -323 -165l-40 -10l-40 140l63 19.5l74.5 23.5t58 21.5t62.5 28.5l-27 11q-116 59 -116 171q0 65 43 113t103 67q32 10 57 10q71 0 124 -62q48 -57 48 -146q0 -40 -11 -91l29 -6zM279 1392q0 45 -17.5 80.5t-49.5 44.5q-20 0 -41 -16
t-28 -33q2 -5 6 -9.5t11 -10t12.5 -9l14 -8.5t11.5 -7q51 -32 81 -45q1 3 1 6v3q-1 2 -1 4z" />
    <glyph glyph-name="uniFE7A" unicode="&#xfe7a;" arabic-form="isolated" 
d="M-21 -400l482 191v-168l-482 -200v177z" />
    <glyph glyph-name="uniFE7C" unicode="&#xfe7c;" arabic-form="isolated" 
d="M271 1159q-52 -52 -127 -52q-89 4 -140 48.5t-51 129.5q0 104 43 175l120 -63q-31 -58 -31 -110q0 -18 12.5 -28.5t32.5 -10.5q10 0 18.5 2.5t14.5 8.5t10.5 12t7.5 16t5 17.5t3.5 20.5t2 20.5l1.5 21.5t1 20l100 38q14 -103 45 -138q19 -21 41 -21q21 2 39 13.5t18 28.5
q0 32 -35 86q-30 47 -64 84l123 85q56 -79 89 -172q14 -40 14 -75q0 -58 -33.5 -104.5t-81.5 -71.5q-35 -18 -71 -18q-62 0 -107 37z" />
    <glyph glyph-name="uniFE7E" unicode="&#xfe7e;" arabic-form="isolated" 
d="M246 1236q38 0 68.5 29t30.5 65q0 35 -31 62.5t-68 27.5q-31 0 -57 -18.5t-39 -42.5q-8 -15 -8 -29q0 -36 33 -65t71 -29zM240 1579h12q87 0 156 -79t69 -170q0 -75 -41 -135.5t-101 -92.5q-41 -22 -89 -22q-75 0 -131 47t-83 113q-18 45 -18 90q0 77 41 136.5t101 91.5
q39 21 84 21z" />
    <glyph glyph-name="uniFE82" unicode="&#x622;" horiz-adv-x="674" arabic-form="final" 
d="M459 1549q9 -48 15.5 -107t10 -106t6.5 -122t3.5 -113t2 -124.5t1.5 -114.5v-54q0 -9 0.5 -28.5t0.5 -29.5t0.5 -29t0.5 -28v-143q0 -29 -2 -85v-39q0 -9 -0.5 -22.5t-0.5 -17.5q-1 -10 -1 -33q0 -52 14 -66q26 -26 139 -30h9q99 0 146 -98q13 -27 13 -61
q0 -68 -45.5 -113t-113.5 -45q-126 0 -211.5 30t-151.5 94q-56 56 -80.5 130.5t-24.5 185.5q4 119 4 285q0 394 -20 616q-10 109 -23 175zM256 1704q-17 0 -31.5 -3t-26 -11.5l-18.5 -14t-15.5 -21t-11.5 -21.5t-11 -26l-10 -25l-167 53q0 13 7 30t18 37.5t13 26.5
q26 57 78.5 100.5t113.5 56.5q21 3 25 3h24q69 0 157 -37l31 -15q49 -22 71 -22q19 0 32 8q42 23 95 97l156 -101q-22 -44 -84 -102q-95 -91 -198 -91h-14l-57 13q-89 42 -134 58q-20 7 -43 7z" />
    <glyph glyph-name="uniFE84" unicode="&#x623;" horiz-adv-x="673" arabic-form="final" 
d="M459 1549q9 -48 15.5 -107t10 -106t6.5 -122t3.5 -113t2 -124.5t1.5 -114.5v-54q0 -9 0.5 -28.5t0.5 -29.5t0.5 -29t0.5 -28v-143q0 -29 -2 -85v-39q0 -9 -0.5 -22.5t-0.5 -17.5q-1 -10 -1 -33q0 -52 14 -66q26 -26 139 -30h9q99 0 146 -98q13 -27 13 -61
q0 -68 -45.5 -113t-113.5 -45q-126 0 -211.5 30t-151.5 94q-56 56 -80.5 130.5t-24.5 185.5q4 119 4 285q0 394 -20 616q-10 109 -23 175zM125 1718q-104 78 -104 195q0 102 91 183q67 59 170 59q64 0 140 -21l-45 -138q-75 10 -97 10q-44 0 -81 -21t-51 -53q-10 -21 -1 -46
q13 -28 45.5 -46t71.5 -18q23 0 47 8q62 19 146 79l30 21l62 -146l-101 -61.5l-115 -68.5l-153 -84.5l-133 -72.5l-51 145z" />
    <glyph glyph-name="uniFE86" unicode="&#x624;" horiz-adv-x="1058" arabic-form="final" 
d="M28 -457q270 54 456 166q174 106 223 231q-108 0 -194 11t-165 39.5t-131 75t-83 120.5t-31 173q0 155 81 311q27 52 52 85q122 152 282 152q169 0 305 -148q176 -195 201 -503h19q101 0 147 -96q13 -27 13 -63q0 -68 -45.5 -112.5t-114.5 -44.5h-44
q-59 -221 -215 -376.5t-378 -244.5q-142 -57 -304 -83zM518 590q-47 0 -98 -69q-54 -71 -54 -139q0 -34 17.5 -57.5t50.5 -36t62.5 -18t69.5 -9.5q36 -3 40 -3h90q15 0 41 -2q-25 161 -137 290q-44 44 -82 44zM311 1284q0 -45 43 -73.5t96 -28.5q15 0 30.5 3t31 10.5
t25 12.5t26.5 15.5l22 13.5q20 12 49 33l77 -102q-28 -22 -62 -43.5t-55 -33.5t-71 -38.5l-68 -36.5l-240 -133l-62 113l167 93q-52 29 -85 78.5t-33 116.5q0 99 86 171q68 56 160 56q70 0 138 -24l-36 -121l-33 8q-45 9 -69 9q-89 0 -129 -72q-8 -14 -8 -27z" />
    <glyph glyph-name="uniFE88" unicode="&#x625;" horiz-adv-x="673" arabic-form="final" 
d="M459 1549q9 -48 15.5 -107t10 -106t6.5 -122t3.5 -113t2 -124.5t1.5 -114.5v-54q0 -9 0.5 -28.5t0.5 -29.5t0.5 -29t0.5 -28v-143q0 -29 -2 -85v-39q0 -9 -0.5 -22.5t-0.5 -17.5q-1 -10 -1 -33q0 -52 14 -66q26 -26 139 -30h9q99 0 146 -98q13 -27 13 -61
q0 -68 -45.5 -113t-113.5 -45q-126 0 -211.5 30t-151.5 94q-56 56 -80.5 130.5t-24.5 185.5q4 119 4 285q0 394 -20 616q-10 109 -23 175zM237 -568q-104 78 -104 195q0 102 91 183q67 59 170 59q64 0 140 -21l-45 -138q-75 10 -97 10q-44 0 -81 -21t-51 -53q-10 -21 -1 -46
q13 -28 45.5 -46t71.5 -18q23 0 47 8q62 19 146 79l30 21l62 -146l-101 -61.5l-115 -68.5l-153 -84.5l-133 -72.5l-51 145z" />
    <glyph glyph-name="uniFE8A" unicode="&#x626;" horiz-adv-x="1726" arabic-form="final" 
d="M1605 -60q37 -68 41 -150q-8 -174 -157 -297q-117 -96 -288.5 -150.5t-370.5 -54.5q-513 0 -685 268q-107 170 -107 395q0 185 34.5 337t99.5 316l257 -107q-33 -84 -49 -128.5t-37 -117t-29.5 -144.5t-8.5 -156q0 -346 525 -346q133 0 312 38q136 29 201 83q33 27 33 64
q0 9 -62 38q-81 39 -145 63q-32 10 -72.5 19t-71 14.5l-80 14.5l-72.5 13l41 304h802q100 0 146 -96q13 -27 13 -62q0 -68 -45.5 -113t-113.5 -45h-111zM679 573q0 -45 43 -73.5t96 -28.5q15 0 30.5 3t31 10.5t25 12.5t26.5 15.5l22 13.5q20 12 49 33l77 -102
q-28 -22 -62 -43.5t-55 -33.5t-71 -38.5l-68 -36.5l-240 -133l-62 113l167 93q-52 29 -85 78.5t-33 116.5q0 99 86 171q68 56 160 56q70 0 138 -24l-36 -121l-33 8q-45 9 -69 9q-89 0 -129 -72q-8 -14 -8 -27z" />
    <glyph glyph-name="uniFE8B" unicode="&#x626;" horiz-adv-x="735" arabic-form="initial" 
d="M-165 98q0 68 45 113t113 45h148q220 0 256 83q8 22 8 54q0 22 -14 72q-44 153 -148 350l286 142q104 -230 141 -423q13 -69 13 -139q0 -101 -36 -185q-61 -138 -186 -204t-322 -66h-146q-68 0 -113 45t-45 113zM258 1324q0 -45 43 -73.5t96 -28.5q15 0 30.5 3t31 10.5
t25 12.5t26.5 15.5l22 13.5q20 12 49 33l77 -102q-28 -22 -62 -43.5t-55 -33.5t-71 -38.5l-68 -36.5l-240 -133l-62 113l167 93q-52 29 -85 78.5t-33 116.5q0 99 86 171q68 56 160 56q70 0 138 -24l-36 -121l-33 8q-45 9 -69 9q-89 0 -129 -72q-8 -14 -8 -27z" />
    <glyph glyph-name="uniFE8C" unicode="&#x626;" horiz-adv-x="715" arabic-form="medial" 
d="M424 41q-138 -101 -407 -101h-17q-69 0 -113.5 44.5t-44.5 113.5t44.5 113.5t113.5 44.5h17q281 0 281 180v32q0 30 -16 96q-11 43 -28 100l285 69q53 -150 53 -297q0 -73 27 -126.5t85 -53.5q100 0 146 -96q13 -27 13 -62q0 -68 -45 -113t-113 -45q-173 0 -281 101z
M246 1207q0 -45 43 -73.5t96 -28.5q15 0 30.5 3t31 10.5t25 12.5t26.5 15.5l22 13.5q20 12 49 33l77 -102q-28 -22 -62 -43.5t-55 -33.5t-71 -38.5l-68 -36.5l-240 -133l-62 113l167 93q-52 29 -85 78.5t-33 116.5q0 99 86 171q68 56 160 56q70 0 138 -24l-36 -121l-33 8
q-45 9 -69 9q-89 0 -129 -72q-8 -14 -8 -27z" />
    <glyph glyph-name="uniFE8E" unicode="&#x627;" horiz-adv-x="624" arabic-form="final" 
d="M464 842q0 -58 -9 -168t-9 -166q0 -108 30 -191q15 -38 46 -49t95 -11h9q99 0 146 -98q13 -27 13 -61q0 -68 -45.5 -113t-113.5 -45q-126 0 -211.5 30t-151.5 94q-56 56 -80.5 130.5t-24.5 185.5v15q4 107 4 270q0 416 -20 649q-10 114 -23 181l299 91q8 -38 14 -83
l10.5 -81.5t7.5 -93.5t5 -88.5t4 -98.5t2 -91t1.5 -98t1.5 -90v-20z" />
    <glyph glyph-name="uniFE90" unicode="&#x628;" horiz-adv-x="2305" arabic-form="final" 
d="M2296 -60q-175 0 -286.5 57t-179.5 177q-279 -237 -814 -237q-510 5 -766 179q-96 65 -144.5 151t-48.5 223q0 189 109 402l238 -138q-2 -3 -10.5 -20.5t-10.5 -22t-9.5 -20t-10 -22l-8.5 -21.5t-8 -24t-6 -24t-5 -27t-2.5 -27t-1.5 -30q0 -42 16 -101q46 -80 245 -122
q174 -37 423 -37q123 0 220 8.5t193 31t168 66t115 108.5q36 53 57.5 117.5t44.5 165.5l280 -71l-41 -212q-3 -18 -3 -34q0 -62 37 -103.5t92 -59t125 -17.5q68 0 113.5 -45t45.5 -113t-45.5 -113t-113.5 -45h-8zM1050 -579l-222 222l222 222l222 -222z" />
    <glyph glyph-name="uniFE91" unicode="&#x628;" horiz-adv-x="729" arabic-form="initial" 
d="M-165 98q0 68 45 113t113 45h148q220 0 256 83q8 22 8 54q0 22 -14 72q-44 153 -148 350l286 142q104 -230 141 -423q13 -69 13 -139q0 -101 -36 -185q-61 -138 -186 -204t-322 -66h-146q-68 0 -113 45t-45 113zM291 -593l-222 222l222 222l222 -222z" />
    <glyph glyph-name="uniFE92" unicode="&#x628;" horiz-adv-x="718" arabic-form="medial" 
d="M424 41q-138 -101 -407 -101h-17q-69 0 -113.5 44.5t-44.5 113.5t44.5 113.5t113.5 44.5h17q281 0 281 180v32q0 30 -16 96q-11 43 -28 100l285 69q53 -150 53 -297q0 -73 27 -126.5t85 -53.5q100 0 146 -96q13 -27 13 -62q0 -68 -45 -113t-113 -45q-173 0 -281 101z
M386 -578l-222 222l222 222l222 -222z" />
    <glyph glyph-name="uniFE94" unicode="&#x629;" horiz-adv-x="1126" arabic-form="final" 
d="M772 93q-90 -13 -191 -13q-281 0 -406 147q-66 87 -66 198q0 80 24 134q122 253 458 385l-3.5 45t-3.5 48l-5 63l312 67q6 -38 13 -117.5t9 -99.5q8 -64 18 -175q24 -263 61 -435q10 -48 41.5 -66t93.5 -18q100 0 146 -96q13 -27 13 -62q0 -68 -45.5 -113t-113.5 -45
q-243 0 -355 153zM575 394q19 0 87 5q-19 138 -21 166l-10 92q-179 -94 -243 -161q-28 -29 -28 -57q0 -45 215 -45zM629 1461l-188 -188l-194 193l192 193l190 -190l188 188l194 -193l-192 -193z" />
    <glyph glyph-name="uniFE96" unicode="&#x62a;" horiz-adv-x="2299" arabic-form="final" 
d="M2289 -60q-175 0 -286.5 57t-179.5 177q-279 -237 -814 -237q-510 5 -766 179q-96 65 -144.5 151t-48.5 223q0 189 109 402l238 -138q-2 -3 -10.5 -20.5t-10.5 -22t-9.5 -20t-10 -22l-8.5 -21.5t-8 -24t-6 -24t-5 -27t-2.5 -27t-1.5 -30q0 -42 16 -101q46 -80 245 -122
q174 -37 423 -37q123 0 220 8.5t193 31t168 66t115 108.5q36 53 57.5 117.5t44.5 165.5l280 -71l-41 -212q-3 -18 -3 -34q0 -62 37 -103.5t92 -59t125 -17.5q68 0 113.5 -45t45.5 -113t-45.5 -113t-113.5 -45h-8zM1086 983l-188 -188l-194 193l192 193l190 -190l188 188
l194 -193l-192 -193z" />
    <glyph glyph-name="uniFE97" unicode="&#x62a;" horiz-adv-x="813" arabic-form="initial" 
d="M427 1242l-188 -188l-194 193l192 193l190 -190l188 188l194 -193l-192 -193zM-192 98q0 69 44.5 113.5t113.5 44.5h159q180 0 293 42q36 13 53.5 30.5t17.5 54.5q0 43 -21 102q-18 51 -43 105l-62.5 129l-47.5 96l285 140q104 -179 149 -431q14 -78 14 -129
q0 -101 -36 -185q-84 -187 -290 -246q-95 -24 -253 -24h-218q-69 0 -113.5 44.5t-44.5 113.5z" />
    <glyph glyph-name="uniFE98" unicode="&#x62a;" horiz-adv-x="870" arabic-form="medial" 
d="M-7 -60q-69 0 -113.5 44.5t-44.5 113.5t44.5 113.5t113.5 44.5h76q51 0 88.5 2t83.5 7.5t78.5 18.5t61.5 32t44 50t16 71q1 15 1 37q0 14 -2.5 26.5t-9 33.5t-8.5 28l-11.5 39.5t-15.5 55.5l291 82q45 -109 59 -300q9 -183 107 -183q68 0 113.5 -45t45.5 -113t-45 -113
t-113 -45q-169 0 -282 106q-158 -106 -502 -106h-76zM448 1059l-188 -188l-194 193l192 193l190 -190l188 188l194 -193l-192 -193z" />
    <glyph glyph-name="uniFE9A" unicode="&#x62b;" horiz-adv-x="2277" arabic-form="final" 
d="M2264 -60q-175 0 -286.5 57t-179.5 177q-279 -237 -814 -237q-510 5 -766 179q-96 65 -144.5 151t-48.5 223q0 189 109 402l238 -138q-2 -3 -10.5 -20.5t-10.5 -22t-9.5 -20t-10 -22l-8.5 -21.5t-8 -24t-6 -24t-5 -27t-2.5 -27t-1.5 -30q0 -42 16 -101q46 -80 245 -122
q174 -37 423 -37q123 0 220 8.5t193 31t168 66t115 108.5q36 53 57.5 117.5t44.5 165.5l280 -71l-41 -212q-3 -18 -3 -34q0 -62 37 -103.5t92 -59t125 -17.5q68 0 113.5 -45t45.5 -113t-45.5 -113t-113.5 -45h-8zM1055 969l-188 -188l-194 193l192 193l190 -190l188 188
l194 -193l-192 -193zM1234 1261l-178 -178l-179 179l178 178z" />
    <glyph glyph-name="uniFE9B" unicode="&#x62b;" horiz-adv-x="874" arabic-form="initial" 
d="M462 1240l-188 -188l-194 193l192 193l190 -190l188 188l194 -193l-192 -193zM641 1532l-178 -178l-179 179l178 178zM-158 98q0 69 44.5 113.5t113.5 44.5h159q180 0 293 42q36 13 53.5 30.5t17.5 54.5q0 43 -21 102q-18 51 -43 105l-62.5 129l-47.5 96l285 140
q104 -179 149 -431q14 -78 14 -129q0 -101 -36 -185q-84 -187 -290 -246q-95 -24 -253 -24h-218q-69 0 -113.5 44.5t-44.5 113.5z" />
    <glyph glyph-name="uniFE9C" unicode="&#x62b;" horiz-adv-x="864" arabic-form="medial" 
d="M-7 -60q-69 0 -113.5 44.5t-44.5 113.5t44.5 113.5t113.5 44.5h76q51 0 88.5 2t83.5 7.5t78.5 18.5t61.5 32t44 50t16 71q1 15 1 37q0 14 -2.5 26.5t-9 33.5t-8.5 28l-11.5 39.5t-15.5 55.5l291 82q45 -109 59 -300q9 -183 107 -183q68 0 113.5 -45t45.5 -113t-45 -113
t-113 -45q-169 0 -282 106q-158 -106 -502 -106h-76zM423 1073l-188 -188l-194 193l192 193l190 -190l188 188l194 -193l-192 -193zM602 1365l-178 -178l-179 179l178 178z" />
    <glyph glyph-name="uniFE9E" unicode="&#x62c;" horiz-adv-x="1696" arabic-form="final" 
d="M1399 367q42 -111 301 -111q52 0 89 -27.5t57 -70.5q13 -27 13 -62q0 -68 -45.5 -112t-113.5 -44q-407 0 -560 235q-51 78 -63 152q-291 -57 -501 -169q-153 -81 -218 -187q-34 -55 -35 -114v-12q0 -178 174 -279q151 -89 384 -89q286 0 544 161l144 -233
q-256 -183 -527 -234q-96 -18 -199 -18q-264 0 -454 104.5t-280 290.5q-62 129 -62 292v24q0 110 61 220q149 267 548 422q247 96 502 114q-230 126 -400 174q-67 19 -123 19q-77 0 -161 -54q-91 -58 -131 -132l-225 153q142 250 358 324q76 26 159 26q101 0 189.5 -31
t185.5 -84q48 -26 182.5 -110t234.5 -129.5t219 -70.5l-93 -315zM893 -339l-222 222l222 222l222 -222z" />
    <glyph glyph-name="uniFE9F" unicode="&#x62c;" horiz-adv-x="1548" arabic-form="initial" 
d="M-161 98q0 69 45.5 113.5t114.5 44.5h192q417 0 775 148l207 91q-67 19 -201.5 72t-208.5 73q-71 19 -135 19q-77 0 -171 -82q-62 -55 -90 -104l-231 149q132 238 340 324q72 30 152 30q103 0 236 -45q76 -25 177 -73.5t197.5 -90t189.5 -61.5q56 -12 129 -14l-25 -307
l-142 -68l-148.5 -73.5l-154.5 -76.5t-150 -69t-166.5 -64t-171 -48t-197 -35t-211.5 -11h-192q-69 0 -114.5 45t-45.5 113zM759 -582l-222 222l222 222l222 -222z" />
    <glyph glyph-name="uniFEA0" unicode="&#x62c;" horiz-adv-x="1663" arabic-form="medial" 
d="M561 658q-28 -1 -54.5 -9t-45.5 -16.5t-42.5 -29l-35 -30.5t-33.5 -37.5t-27 -34.5l-27 -37l-237 136q138 251 357 347q69 30 138 30h7q60 -2 122.5 -16.5t101.5 -29.5t100 -41l89.5 -39.5l97.5 -43t91 -36t105 -34.5q171 -47 307 -47l-52 -295l-102 -48l-26 -13
q65 -78 258 -78h14q68 0 113.5 -45.5t45.5 -113.5q0 -69 -45 -113t-114 -44h-14q-288 0 -458 146q-55 47 -89 105q-177 -86 -335 -144t-331 -87q-123 -21 -257 -21l-183 1q-69 0 -114 44.5t-45 112.5q0 51 27.5 88.5t69.5 57.5q27 13 62 13h183q212 0 492 78q266 75 461 167
q-72 17 -221 69t-223 70q-75 18 -124 18h-7zM783 -580l-222 222l222 222l222 -222z" />
    <glyph glyph-name="uniFEA2" unicode="&#x62d;" horiz-adv-x="1702" arabic-form="final" 
d="M1399 367q42 -111 301 -111q52 0 89 -27.5t57 -70.5q13 -27 13 -62q0 -68 -45.5 -112t-113.5 -44q-407 0 -560 235q-51 78 -63 152q-291 -57 -501 -169q-153 -81 -218 -187q-34 -55 -35 -114v-12q0 -178 174 -279q151 -89 384 -89q286 0 544 161l144 -233
q-256 -183 -527 -234q-96 -18 -199 -18q-264 0 -454 104.5t-280 290.5q-62 129 -62 292v24q0 110 61 220q149 267 548 422q247 96 502 114q-230 126 -400 174q-67 19 -123 19q-77 0 -161 -54q-91 -58 -131 -132l-225 153q142 250 358 324q76 26 159 26q101 0 189.5 -31
t185.5 -84q48 -26 182.5 -110t234.5 -129.5t219 -70.5l-93 -315z" />
    <glyph glyph-name="uniFEA3" unicode="&#x62d;" horiz-adv-x="1548" arabic-form="initial" 
d="M-161 98q0 69 45.5 113.5t114.5 44.5h192q417 0 775 148l207 91q-67 19 -201.5 72t-208.5 73q-71 19 -135 19q-77 0 -171 -82q-62 -55 -90 -104l-231 149q132 238 340 324q72 30 152 30q103 0 236 -45q76 -25 177 -73.5t197.5 -90t189.5 -61.5q56 -12 129 -14l-25 -307
l-142 -68l-148.5 -73.5l-154.5 -76.5t-150 -69t-166.5 -64t-171 -48t-197 -35t-211.5 -11h-192q-69 0 -114.5 45t-45.5 113z" />
    <glyph glyph-name="uniFEA4" unicode="&#x62d;" horiz-adv-x="1667" arabic-form="medial" 
d="M561 658q-28 -1 -54.5 -9t-45.5 -16.5t-42.5 -29l-35 -30.5t-33.5 -37.5t-27 -34.5l-27 -37l-237 136q138 251 357 347q69 30 138 30h7q60 -2 122.5 -16.5t101.5 -29.5t100 -41l89.5 -39.5l97.5 -43t91 -36t105 -34.5q171 -47 307 -47l-52 -295l-102 -48l-26 -13
q65 -78 258 -78h14q68 0 113.5 -45.5t45.5 -113.5q0 -69 -45 -113t-114 -44h-14q-288 0 -458 146q-55 47 -89 105q-177 -86 -335 -144t-331 -87q-123 -21 -257 -21l-183 1q-69 0 -114 44.5t-45 112.5q0 51 27.5 88.5t69.5 57.5q27 13 62 13h183q212 0 492 78q266 75 461 167
q-72 17 -221 69t-223 70q-75 18 -124 18h-7z" />
    <glyph glyph-name="uniFEA6" unicode="&#x62e;" horiz-adv-x="1707" arabic-form="final" 
d="M1399 367q42 -111 301 -111q52 0 89 -27.5t57 -70.5q13 -27 13 -62q0 -68 -45.5 -112t-113.5 -44q-407 0 -560 235q-51 78 -63 152q-291 -57 -501 -169q-153 -81 -218 -187q-34 -55 -35 -114v-12q0 -178 174 -279q151 -89 384 -89q286 0 544 161l144 -233
q-256 -183 -527 -234q-96 -18 -199 -18q-264 0 -454 104.5t-280 290.5q-62 129 -62 292v24q0 110 61 220q149 267 548 422q247 96 502 114q-230 126 -400 174q-67 19 -123 19q-77 0 -161 -54q-91 -58 -131 -132l-225 153q142 250 358 324q76 26 159 26q101 0 189.5 -31
t185.5 -84q48 -26 182.5 -110t234.5 -129.5t219 -70.5l-93 -315zM595 1224l-222 222l222 222l222 -222z" />
    <glyph glyph-name="uniFEA7" unicode="&#x62e;" horiz-adv-x="1548" arabic-form="initial" 
d="M-161 98q0 69 45.5 113.5t114.5 44.5h192q417 0 775 148l207 91q-67 19 -201.5 72t-208.5 73q-71 19 -135 19q-77 0 -171 -82q-62 -55 -90 -104l-231 149q132 238 340 324q72 30 152 30q103 0 236 -45q76 -25 177 -73.5t197.5 -90t189.5 -61.5q56 -12 129 -14l-25 -307
l-142 -68l-148.5 -73.5l-154.5 -76.5t-150 -69t-166.5 -64t-171 -48t-197 -35t-211.5 -11h-192q-69 0 -114.5 45t-45.5 113zM586 1073l-222 222l222 222l222 -222z" />
    <glyph glyph-name="uniFEA8" unicode="&#x62e;" horiz-adv-x="1669" arabic-form="medial" 
d="M561 658q-28 -1 -54.5 -9t-45.5 -16.5t-42.5 -29l-35 -30.5t-33.5 -37.5t-27 -34.5l-27 -37l-237 136q138 251 357 347q69 30 138 30h7q60 -2 122.5 -16.5t101.5 -29.5t100 -41l89.5 -39.5l97.5 -43t91 -36t105 -34.5q171 -47 307 -47l-52 -295l-102 -48l-26 -13
q65 -78 258 -78h14q68 0 113.5 -45.5t45.5 -113.5q0 -69 -45 -113t-114 -44h-14q-288 0 -458 146q-55 47 -89 105q-177 -86 -335 -144t-331 -87q-123 -21 -257 -21l-183 1q-69 0 -114 44.5t-45 112.5q0 51 27.5 88.5t69.5 57.5q27 13 62 13h183q212 0 492 78q266 75 461 167
q-72 17 -221 69t-223 70q-75 18 -124 18h-7zM556 1063l-222 222l222 222l222 -222z" />
    <glyph glyph-name="uniFEAA" unicode="&#x62f;" horiz-adv-x="1253" arabic-form="final" 
d="M944 51q-166 -111 -410 -111q-287 0 -489 211l181 255q76 -70 152.5 -108t180.5 -38q138 0 224 65q-54 133 -172.5 393.5t-170.5 387.5l292 122l89 -216l241 -581q3 -7 11 -27.5t11 -27l11.5 -24t13 -24l14 -20t18 -18.5t21 -13.5t25.5 -11.5t30 -6t36 -3q52 0 89 -27
t57 -69q13 -27 13 -62q0 -67 -45.5 -112.5t-113.5 -45.5q-107 0 -180 27.5t-129 83.5z" />
    <glyph glyph-name="uniFEAC" unicode="&#x630;" horiz-adv-x="1247" arabic-form="final" 
d="M944 51q-166 -111 -410 -111q-287 0 -489 211l181 255q76 -70 152.5 -108t180.5 -38q138 0 224 65q-54 133 -172.5 393.5t-170.5 387.5l292 122l89 -216l241 -581q3 -7 11 -27.5t11 -27l11.5 -24t13 -24l14 -20t18 -18.5t21 -13.5t25.5 -11.5t30 -6t36 -3q52 0 89 -27
t57 -69q13 -27 13 -62q0 -67 -45.5 -112.5t-113.5 -45.5q-107 0 -180 27.5t-129 83.5zM610 1341l-222 222l222 222l222 -222z" />
    <glyph glyph-name="uniFEAE" unicode="&#x631;" horiz-adv-x="816" arabic-form="final" 
d="M984 97q0 -69 -45 -113t-115 -44q-87 0 -148 25q-43 -236 -232 -445q-171 -189 -446 -326l-183 253q241 123 403 267q114 102 164 220q24 57 24 116v9q0 2 -0.5 6t-0.5 6t-0.5 4t-0.5 3q-6 45 -16.5 90.5t-19.5 78t-27.5 80.5t-27.5 69.5l-33.5 76.5t-31.5 72l289 126
q27 -81 43.5 -126.5t43.5 -102.5t56 -99q59 -87 140 -87h5q68 0 113.5 -45.5t45.5 -113.5z" />
    <glyph glyph-name="uniFEB0" unicode="&#x632;" horiz-adv-x="819" arabic-form="final" 
d="M984 97q0 -69 -45 -113t-115 -44q-87 0 -148 25q-43 -236 -232 -445q-171 -189 -446 -326l-183 253q241 123 403 267q114 102 164 220q24 57 24 116v9q0 2 -0.5 6t-0.5 6t-0.5 4t-0.5 3q-6 45 -16.5 90.5t-19.5 78t-27.5 80.5t-27.5 69.5l-33.5 76.5t-31.5 72l289 126
q27 -81 43.5 -126.5t43.5 -102.5t56 -99q59 -87 140 -87h5q68 0 113.5 -45.5t45.5 -113.5zM383 831l-222 222l222 222l222 -222z" />
    <glyph glyph-name="uniFEB2" unicode="&#x633;" horiz-adv-x="2889" arabic-form="final" 
d="M2547 88q-114 -146 -319 -146q-152 0 -241 116q-47 -61 -111.5 -89t-169.5 -28q-76 0 -141 21q-4 -333 -269 -517q-237 -165 -564 -165q-157 0 -286.5 51.5t-221.5 140.5q-92 90 -146 218t-54 286q6 163 80 368q67 183 159 318l218 -167q-123 -201 -166 -394
q-15 -67 -15 -131v-13q0 -146 120 -249q125 -109 308 -109q206 0 347 72t193 217q23 64 23 144q0 110 -65 260q-45 105 -145 281l277 148q91 -214 156 -317q43 -68 87 -106q43 -37 89 -37h4q32 1 55.5 16.5t36 37.5t19.5 57.5t8.5 64.5t1.5 71l-3 86.5l-3 86.5l284 39
q0 -234 59 -372q40 -96 102 -96q60 0 102 109q34 91 34 221v32q0 3 -0.5 8.5t-0.5 7.5t-0.5 8t-0.5 10v35l271 39l7 -78q2 -33 6 -67t10.5 -74.5t9.5 -65.5q8 -62 43 -107t87 -63q31 -11 57 -11h12q73 0 119.5 -44t46.5 -115t-47 -114.5t-121 -43.5q-228 0 -342 149z" />
    <glyph glyph-name="uniFEB3" unicode="&#x633;" horiz-adv-x="1634" arabic-form="initial" 
d="M-2 -61q-64 3 -107 48t-43 110q0 96 92 143q29 15 58 16q77 0 126.5 39.5t88.5 107.5q53 94 112 323l266 -48q-4 -19 -23.5 -95.5t-28 -130t-8.5 -108.5q0 -98 55 -98q80 0 142 93q84 129 120 385l254 -43q-2 -33 -12.5 -122.5t-10.5 -140.5q0 -174 119 -174q48 0 86 22
t60 56q15 24 15 54q0 86 -59 238q-30 77 -94 210l248 139q127 -277 160 -474q11 -68 11 -126q0 -212 -115 -322t-330 -113q-187 0 -288 136q-50 -66 -119.5 -99.5t-174.5 -36.5h-12q-160 0 -258 136q-102 -125 -312 -125h-18z" />
    <glyph glyph-name="uniFEB4" unicode="&#x633;" horiz-adv-x="1851" arabic-form="medial" 
d="M331 79q-53 -73 -130.5 -106t-199.5 -33q-75 0 -122 43t-47 115q0 96 102 143q30 13 65 15q56 0 99 17t73.5 51t50 69.5t40.5 88.5q36 92 69 238l266 -38q-41 -175 -41 -294t52 -133q32 -8 60 13q48 35 80 98.5t63 155.5q32 99 51 198l264 -38q-1 -22 -9.5 -111
t-8.5 -139q0 -72 23 -122.5t77 -50.5q29 0 51 14.5t36 41.5t22 50t15 55q20 86 20 184q0 44 -3 78l270 38l33 -282q8 -62 42.5 -105.5t87.5 -64.5q30 -12 57 -12h12q73 0 119.5 -43.5t46.5 -114.5q0 -74 -49.5 -116t-128.5 -42q-216 0 -332 149q-4 -4 -11.5 -12.5
t-11.5 -13.5v1q-118 -124 -276 -124q-95 0 -170 40t-125 105q-135 -148 -303 -148q-90 0 -162 39.5t-117 102.5z" />
    <glyph glyph-name="uniFEB6" unicode="&#x634;" horiz-adv-x="2889" arabic-form="final" 
d="M2547 88q-114 -146 -319 -146q-152 0 -241 116q-47 -61 -111.5 -89t-169.5 -28q-76 0 -141 21q-4 -333 -269 -517q-237 -165 -564 -165q-157 0 -286.5 51.5t-221.5 140.5q-92 90 -146 218t-54 286q6 163 80 368q67 183 159 318l218 -167q-123 -201 -166 -394
q-15 -67 -15 -131v-13q0 -146 120 -249q125 -109 308 -109q206 0 347 72t193 217q23 64 23 144q0 110 -65 260q-45 105 -145 281l277 148q91 -214 156 -317q43 -68 87 -106q43 -37 89 -37h4q32 1 55.5 16.5t36 37.5t19.5 57.5t8.5 64.5t1.5 71l-3 86.5l-3 86.5l284 39
q0 -234 59 -372q40 -96 102 -96q60 0 102 109q34 91 34 221v32q0 3 -0.5 8.5t-0.5 7.5t-0.5 8t-0.5 10v35l271 39l7 -78q2 -33 6 -67t10.5 -74.5t9.5 -65.5q8 -62 43 -107t87 -63q31 -11 57 -11h12q73 0 119.5 -44t46.5 -115t-47 -114.5t-121 -43.5q-228 0 -342 149z
M1961 1090l-188 -188l-194 193l192 193l190 -190l188 188l194 -193l-192 -193zM2140 1382l-178 -178l-179 179l178 178z" />
    <glyph glyph-name="uniFEB7" unicode="&#x634;" horiz-adv-x="1676" arabic-form="initial" 
d="M-2 -61q-64 3 -107 48t-43 110q0 96 92 143q29 15 58 16q77 0 126.5 39.5t88.5 107.5q53 94 112 323l266 -48q-4 -19 -23.5 -95.5t-28 -130t-8.5 -108.5q0 -98 55 -98q80 0 142 93q84 129 120 385l254 -43q-2 -33 -12.5 -122.5t-10.5 -140.5q0 -174 119 -174q48 0 86 22
t60 56q15 24 15 54q0 86 -59 238q-30 77 -94 210l248 139q127 -277 160 -474q11 -68 11 -126q0 -212 -115 -322t-330 -113q-187 0 -288 136q-50 -66 -119.5 -99.5t-174.5 -36.5h-12q-160 0 -258 136q-102 -125 -312 -125h-18zM936 1154l-188 -188l-194 193l192 193l190 -190
l188 188l194 -193l-192 -193zM1115 1446l-178 -178l-179 179l178 178z" />
    <glyph glyph-name="uniFEB8" unicode="&#x634;" horiz-adv-x="1876" arabic-form="medial" 
d="M338 79q-53 -73 -130.5 -106t-199.5 -33q-75 0 -122 43t-47 115q0 96 102 143q30 13 65 15q56 0 99 17t73.5 51t50 69.5t40.5 88.5q36 92 69 238l266 -38q-41 -175 -41 -294t52 -133q32 -8 60 13q48 35 80 98.5t63 155.5q32 99 51 198l264 -38q-1 -22 -9.5 -111
t-8.5 -139q0 -72 23 -122.5t77 -50.5q29 0 51 14.5t36 41.5t22 50t15 55q20 86 20 184q0 44 -3 78l270 38l33 -282q8 -62 42.5 -105.5t87.5 -64.5q30 -12 57 -12h12q73 0 119.5 -43.5t46.5 -114.5q0 -74 -49.5 -116t-128.5 -42q-216 0 -332 149q-4 -4 -11.5 -12.5
t-11.5 -13.5v1q-118 -124 -276 -124q-95 0 -170 40t-125 105q-135 -148 -303 -148q-90 0 -162 39.5t-117 102.5zM1004 1126l-188 -188l-194 193l192 193l190 -190l188 188l194 -193l-192 -193zM1183 1418l-178 -178l-179 179l178 178z" />
    <glyph glyph-name="uniFEBA" unicode="&#x635;" horiz-adv-x="2868" arabic-form="final" 
d="M2056 -94q-268 0 -498 107q-6 -314 -218 -518q-98 -94 -237 -149t-308 -55q-248 0 -423 85t-257 251q-80 166 -80 315q0 193 91 423q58 147 137 298l224 -162q-17 -21 -59 -111q-82 -183 -107 -332q-11 -64 -11 -118q0 -69 25 -124t69 -91.5t96 -59.5t116 -37
q84 -18 169 -18q160 0 276.5 65t173.5 178q42 83 43 189v11q0 109 -56 262q-19 51 -60.5 146t-57.5 136l281 154l38 -97.5t46.5 -115t42.5 -86.5q15 -27 38 -50q157 285 444 429q168 84 348 89h16q188 0 326 -124q65 -59 106 -141t41 -181v-16q0 -96 -47 -194q16 -3 78 -8h8
q69 0 114 -45.5t45 -113.5t-45.5 -112.5t-113.5 -44.5q-195 0 -309 90q-226 -124 -505 -124zM1789 258q124 -36 274 -36q257 0 412 91q104 60 104 149q0 77 -95 118q-52 23 -121 23q-41 0 -77 -10q-231 -63 -408 -227q-58 -53 -89 -108z" />
    <glyph glyph-name="uniFEBB" unicode="&#x635;" horiz-adv-x="1871" arabic-form="initial" 
d="M408 81q-71 -71 -167 -105.5t-232 -35.5h-9q-68 0 -113.5 45t-45.5 113t45.5 113t113.5 45q149 0 201 70q15 23 28 48t25 57l19.5 53t18.5 63l15.5 59t16.5 69t16 66l262 -85q-2 -9 -9 -32t-10 -35t-7 -31.5t-6 -37.5t-2 -37q0 -51 19 -102q151 253 303 383
q201 172 493 176h9q221 0 362 -150q119 -128 119 -302q0 -4 -0.5 -11t-0.5 -10q-5 -110 -55.5 -201t-127.5 -155q-246 -191 -713 -191q-151 0 -257 16.5t-191 61.5q-58 31 -120 83zM1623 486q-20 136 -244 136q-174 0 -347 -131q-144 -108 -215 -238q106 -4 183 -4
q202 0 349 32.5t225 117.5q36 39 49 87z" />
    <glyph glyph-name="uniFEBC" unicode="&#x635;" horiz-adv-x="1933" arabic-form="medial" 
d="M-1 -60q-68 0 -113 44.5t-45 112.5q0 69 44.5 114t113.5 45h8q93 2 128 14t67 56q11 15 21 33.5t16.5 32t15.5 40.5t12 37.5l13 45.5t12 44l48 181l262 -84q-31 -79 -34 -156v-20q0 -55 12 -129q130 219 258 347q224 210 497 238q29 3 54 3q172 0 296 -83.5t173 -218.5
q25 -71 25 -146q0 -5 -0.5 -13t-0.5 -13q-1 -17 -4 -33.5t-9 -34.5l-9.5 -29t-13.5 -31.5l-13 -26.5t-15.5 -29t-13.5 -25h129q101 0 147 -97q13 -27 13 -62q0 -69 -45.5 -113t-114.5 -44l-252 -1h-38q-170 0 -239 27q-173 -45 -418 -45q-222 0 -322 25q-156 39 -256 168
q-15 -38 -51.5 -70t-79.5 -51q-115 -53 -278 -53zM830 251q64 -8 178 -8q223 0 394 53q121 38 180 106q31 36 40 80q-17 96 -160 135q-37 10 -74 10q-134 0 -286 -86q-37 -21 -74 -54t-56.5 -54.5l-59.5 -68.5q-43 -50 -82 -113z" />
    <glyph glyph-name="uniFEBE" unicode="&#x636;" horiz-adv-x="2889" arabic-form="final" 
d="M2056 -94q-268 0 -498 107q-6 -314 -218 -518q-98 -94 -237 -149t-308 -55q-248 0 -423 85t-257 251q-80 166 -80 315q0 193 91 423q58 147 137 298l224 -162q-17 -21 -59 -111q-82 -183 -107 -332q-11 -64 -11 -118q0 -69 25 -124t69 -91.5t96 -59.5t116 -37
q84 -18 169 -18q160 0 276.5 65t173.5 178q42 83 43 189v11q0 109 -56 262q-19 51 -60.5 146t-57.5 136l281 154l38 -97.5t46.5 -115t42.5 -86.5q15 -27 38 -50q157 285 444 429q168 84 348 89h16q188 0 326 -124q65 -59 106 -141t41 -181v-16q0 -96 -47 -194q16 -3 78 -8h8
q69 0 114 -45.5t45 -113.5t-45.5 -112.5t-113.5 -44.5q-195 0 -309 90q-226 -124 -505 -124zM1789 258q124 -36 274 -36q257 0 412 91q104 60 104 149q0 77 -95 118q-52 23 -121 23q-41 0 -77 -10q-231 -63 -408 -227q-58 -53 -89 -108zM2284 1024l-222 222l222 222
l222 -222z" />
    <glyph glyph-name="uniFEBF" unicode="&#x636;" horiz-adv-x="1909" arabic-form="initial" 
d="M408 81q-71 -71 -167 -105.5t-232 -35.5h-9q-68 0 -113.5 45t-45.5 113t45.5 113t113.5 45q149 0 201 70q15 23 28 48t25 57l19.5 53t18.5 63l15.5 59t16.5 69t16 66l262 -85q-2 -9 -9 -32t-10 -35t-7 -31.5t-6 -37.5t-2 -37q0 -51 19 -102q151 253 303 383
q201 172 493 176h9q221 0 362 -150q119 -128 119 -302q0 -4 -0.5 -11t-0.5 -10q-5 -110 -55.5 -201t-127.5 -155q-246 -191 -713 -191q-151 0 -257 16.5t-191 61.5q-58 31 -120 83zM1623 486q-20 136 -244 136q-174 0 -347 -131q-144 -108 -215 -238q106 -4 183 -4
q202 0 349 32.5t225 117.5q36 39 49 87zM1293 1091l-222 222l222 222l222 -222z" />
    <glyph glyph-name="uniFEC0" unicode="&#x636;" horiz-adv-x="1931" arabic-form="medial" 
d="M-1 -60q-68 0 -113 44.5t-45 112.5q0 69 44.5 114t113.5 45h8q93 2 128 14t67 56q11 15 21 33.5t16.5 32t15.5 40.5t12 37.5l13 45.5t12 44l48 181l262 -84q-31 -79 -34 -156v-20q0 -55 12 -129q130 219 258 347q224 210 497 238q29 3 54 3q172 0 296 -83.5t173 -218.5
q25 -71 25 -146q0 -5 -0.5 -13t-0.5 -13q-1 -17 -4 -33.5t-9 -34.5l-9.5 -29t-13.5 -31.5l-13 -26.5t-15.5 -29t-13.5 -25h129q101 0 147 -97q13 -27 13 -62q0 -69 -45.5 -113t-114.5 -44l-252 -1h-38q-170 0 -239 27q-173 -45 -418 -45q-222 0 -322 25q-156 39 -256 168
q-15 -38 -51.5 -70t-79.5 -51q-115 -53 -278 -53zM830 251q64 -8 178 -8q223 0 394 53q121 38 180 106q31 36 40 80q-17 96 -160 135q-37 10 -74 10q-134 0 -286 -86q-37 -21 -74 -54t-56.5 -54.5l-59.5 -68.5q-43 -50 -82 -113zM1343 1069l-222 222l222 222l222 -222z" />
    <glyph glyph-name="uniFEC2" unicode="&#x637;" horiz-adv-x="1867" arabic-form="final" 
d="M1287 -29q-118 -31 -291 -31h-90q-487 0 -842 172l115 295q166 -64 266 -93l46 62l54 72q23 178 23 286q0 49 -3 110t-6 104.5t-9 114.5t-8 103q-12 155 -26 271q-7 59 -8 63l317 84l11 -106q46 -450 50 -678q52 46 89.5 74t92.5 58.5t119 46t140 16.5h9q134 0 235 -59
t159 -156q42 -70 53 -162v-10q0 -203 -109 -352h193q69 0 113.5 -44t44.5 -113q0 -70 -44.5 -114.5t-114.5 -44.5h-318q-162 0 -261 31zM739 250q65 -6 143 -6q281 0 476 108q81 45 128 103q42 53 42 101v6q-8 53 -70 82.5t-134 29.5q-62 0 -136 -31q-132 -56 -247 -159.5
t-202 -233.5z" />
    <glyph glyph-name="uniFEC3" unicode="&#x637;" horiz-adv-x="1509" arabic-form="initial" 
d="M582 793q60 46 100.5 73.5t103.5 60.5t131.5 49t145.5 16q134 0 230 -60t147 -160q37 -73 46 -158q0 -5 0.5 -14.5t0.5 -14.5q0 -209 -127 -360q-116 -138 -313.5 -212t-448.5 -74l-592 1h-9q-101 0 -146 95q-13 27 -13 63q0 67 46 112.5t113 45.5h116q67 116 125 187
q18 151 21 355q0 114 -10.5 252.5t-18.5 211t-29 240.5l322 82q59 -452 59 -791zM447 256q64 -6 143 -6q283 0 476 104q81 43 128 100q42 51 42 100v6q-8 56 -66 82t-138 30h-6q-59 0 -130 -28q-155 -62 -310 -217q-75 -75 -139 -171z" />
    <glyph glyph-name="uniFEC4" unicode="&#x637;" horiz-adv-x="1583" arabic-form="medial" 
d="M947 -17q-165 -44 -349 -44l-592 1h-9q-101 0 -146 95q-13 27 -13 63q0 67 46 112.5t113 45.5h116q67 116 125 187q18 151 21 355q0 14 -0.5 39.5t-0.5 37.5q0 78 -5 165.5t-10.5 146.5t-16 162l-15.5 153l322 82q49 -374 49 -791q60 46 100.5 73.5t103.5 60.5t131.5 49
t145.5 16q134 0 230 -60t147 -160q37 -73 46 -158q0 -4 0.5 -13t0.5 -14q0 -185 -103 -331h201q69 0 113.5 -44t44.5 -113q0 -70 -44.5 -114.5t-114.5 -44.5h-247q-218 0 -390 43zM483 256q424 0 616 98q136 70 136 191v14q-2 43 -74 77q-68 33 -153 33q-111 -7 -254 -96
q-178 -112 -311 -317h40z" />
    <glyph glyph-name="uniFEC6" unicode="&#x638;" horiz-adv-x="1868" arabic-form="final" 
d="M1287 -29q-118 -31 -291 -31h-90q-487 0 -842 172l115 295q166 -64 266 -93l46 62l54 72q23 178 23 286q0 49 -3 110t-6 104.5t-9 114.5t-8 103q-12 155 -26 271q-7 59 -8 63l317 84l11 -106q46 -450 50 -678q52 46 89.5 74t92.5 58.5t119 46t140 16.5h9q134 0 235 -59
t159 -156q42 -70 53 -162v-10q0 -203 -109 -352h193q69 0 113.5 -44t44.5 -113q0 -70 -44.5 -114.5t-114.5 -44.5h-318q-162 0 -261 31zM739 250q65 -6 143 -6q281 0 476 108q81 45 128 103q42 53 42 101v6q-8 53 -70 82.5t-134 29.5q-62 0 -136 -31q-132 -56 -247 -159.5
t-202 -233.5zM1277 1135l-222 222l222 222l222 -222z" />
    <glyph glyph-name="uniFEC7" unicode="&#x638;" horiz-adv-x="1520" arabic-form="initial" 
d="M582 793q60 46 100.5 73.5t103.5 60.5t131.5 49t145.5 16q134 0 230 -60t147 -160q37 -73 46 -158q0 -5 0.5 -14.5t0.5 -14.5q0 -209 -127 -360q-116 -138 -313.5 -212t-448.5 -74l-592 1h-9q-101 0 -146 95q-13 27 -13 63q0 67 46 112.5t113 45.5h116q67 116 125 187
q18 151 21 355q0 114 -10.5 252.5t-18.5 211t-29 240.5l322 82q59 -452 59 -791zM447 256q64 -6 143 -6q283 0 476 104q81 43 128 100q42 51 42 100v6q-8 56 -66 82t-138 30h-6q-59 0 -130 -28q-155 -62 -310 -217q-75 -75 -139 -171zM1031 1162l-222 222l222 222l222 -222z
" />
    <glyph glyph-name="uniFEC8" unicode="&#x638;" horiz-adv-x="1570" arabic-form="medial" 
d="M947 -17q-165 -44 -349 -44l-592 1h-9q-101 0 -146 95q-13 27 -13 63q0 67 46 112.5t113 45.5h116q67 116 125 187q18 151 21 355q0 14 -0.5 39.5t-0.5 37.5q0 78 -5 165.5t-10.5 146.5t-16 162l-15.5 153l322 82q49 -374 49 -791q60 46 100.5 73.5t103.5 60.5t131.5 49
t145.5 16q134 0 230 -60t147 -160q37 -73 46 -158q0 -4 0.5 -13t0.5 -14q0 -185 -103 -331h201q69 0 113.5 -44t44.5 -113q0 -70 -44.5 -114.5t-114.5 -44.5h-247q-218 0 -390 43zM483 256q424 0 616 98q136 70 136 191v14q-2 43 -74 77q-68 33 -153 33q-111 -7 -254 -96
q-178 -112 -311 -317h40zM1051 1134l-222 222l222 222l222 -222z" />
    <glyph glyph-name="uniFECA" unicode="&#x639;" horiz-adv-x="1357" arabic-form="final" 
d="M1512 97q0 -68 -44.5 -113t-112.5 -45q-234 0 -480 139q-85 48 -153 95l-98.5 -42.5t-92 -46.5t-90.5 -57.5t-71.5 -67.5t-56.5 -85q-19 -41 -19 -92q0 -105 84 -182q117 -108 304 -133q38 -5 68 -5q13 0 39 2q229 0 433 136l155 -249q-82 -69 -200.5 -118t-252.5 -73
q-72 -13 -143 -13h-15q-263 6 -446.5 110t-257.5 296q-36 95 -38 229v8q0 135 81 291q104 192 348 317l-143 123l-67 57l-21 241q135 123 314 193q137 54 316 54q173 0 293 -60.5t165 -179.5q16 -42 16 -92v-17q0 -115 -76 -223q-74 -105 -194 -167q153 -71 299 -71
q52 0 89.5 -28.5t55.5 -70.5q12 -29 12 -60zM504 706q134 -110 255 -180q199 67 272 148q25 28 27 57q-10 11 -54 25q-68 23 -150 26h-17l-85 -6q-129 -19 -248 -70z" />
    <glyph glyph-name="uniFECB" unicode="&#x639;" horiz-adv-x="1072" arabic-form="initial" 
d="M155 259q-63 100 -63 233v12q3 181 144 326q163 168 397 168q177 0 350 -114q34 -22 60 -46l-124 -237q-104 55 -214 75q-42 7 -75 7q-86 0 -151 -35t-97 -95q-18 -33 -18 -67q0 -90 106 -145q90 -46 199 -46h13q178 14 358 57l41 -311q-371 -99 -863 -99l-218 -2
q-70 0 -115 44.5t-45 114.5q0 67 46.5 111t112.5 47z" />
    <glyph glyph-name="uniFECC" unicode="&#x639;" horiz-adv-x="1142" arabic-form="medial" 
d="M601 69q-212 -130 -600 -130q-68 0 -113.5 44.5t-45.5 112.5q0 101 98 147q27 13 61 13q155 0 300 31l-39 39h1l-111 111l-125 120l16 234q151 135 365 186q98 23 197 23q120 0 221.5 -27t177.5 -85.5t104 -142.5q9 -28 11 -54q0 -3 0.5 -8t0.5 -7q0 -84 -56 -192
q-59 -115 -152 -208q115 -20 234 -20q52 0 89 -27.5t57 -70.5q13 -27 13 -62q0 -68 -45.5 -112.5t-113.5 -44.5q-184 0 -318 29.5t-227 100.5zM850 651q-81 38 -245 38q-82 0 -215 -27q-37 -7 -64 -17l275 -235q120 89 205 183q32 35 44 58z" />
    <glyph glyph-name="uniFECE" unicode="&#x63a;" horiz-adv-x="1351" arabic-form="final" 
d="M1508 97q0 -68 -44.5 -113t-112.5 -45q-234 0 -480 139q-85 48 -153 95l-98.5 -42.5t-92 -46.5t-90.5 -57.5t-71.5 -67.5t-56.5 -85q-19 -41 -19 -92q0 -105 84 -182q117 -108 304 -133q38 -5 68 -5q13 0 39 2q229 0 433 136l155 -249q-82 -69 -200.5 -118t-252.5 -73
q-72 -13 -143 -13h-15q-263 6 -446.5 110t-257.5 296q-36 95 -38 229v8q0 135 81 291q104 192 348 317l-143 123l-67 57l-21 241q135 123 314 193q137 54 316 54q173 0 293 -60.5t165 -179.5q16 -42 16 -92v-17q0 -115 -76 -223q-74 -105 -194 -167q153 -71 299 -71
q52 0 89.5 -28.5t55.5 -70.5q12 -29 12 -60zM500 706q134 -110 255 -180q199 67 272 148q25 28 27 57q-10 11 -54 25q-68 23 -150 26h-17l-85 -6q-129 -19 -248 -70zM775 1188l-222 222l222 222l222 -222z" />
    <glyph glyph-name="uniFECF" unicode="&#x63a;" horiz-adv-x="1119" arabic-form="initial" 
d="M155 259q-63 100 -63 233v12q3 181 144 326q163 168 397 168q177 0 350 -114q34 -22 60 -46l-124 -237q-104 55 -214 75q-42 7 -75 7q-86 0 -151 -35t-97 -95q-18 -33 -18 -67q0 -90 106 -145q90 -46 199 -46h13q178 14 358 57l41 -311q-371 -99 -863 -99l-218 -2
q-70 0 -115 44.5t-45 114.5q0 67 46.5 111t112.5 47zM546 1139l-222 222l222 222l222 -222z" />
    <glyph glyph-name="uniFED0" unicode="&#x63a;" horiz-adv-x="1170" arabic-form="medial" 
d="M612 69q-212 -130 -600 -130q-68 0 -113.5 44.5t-45.5 112.5q0 101 98 147q27 13 61 13q155 0 300 31l-39 39h1l-111 111l-125 120l16 234q151 135 365 186q98 23 197 23q120 0 221.5 -27t177.5 -85.5t104 -142.5q9 -28 11 -54q0 -3 0.5 -8t0.5 -7q0 -84 -56 -192
q-59 -115 -152 -208q115 -20 234 -20q52 0 89 -27.5t57 -70.5q13 -27 13 -62q0 -68 -45.5 -112.5t-113.5 -44.5q-184 0 -318 29.5t-227 100.5zM861 651q-81 38 -245 38q-82 0 -215 -27q-37 -7 -64 -17l275 -235q120 89 205 183q32 35 44 58zM601 1120l-222 222l222 222
l222 -222z" />
    <glyph glyph-name="uniFED2" unicode="&#x641;" horiz-adv-x="2101" arabic-form="final" 
d="M922 -60q-305 0 -537.5 86t-320.5 259v-1q-48 93 -48 206q0 38 4.5 74.5t15 72.5t19 61.5t27 62l27.5 53.5l31 56l29 51l235 -197q-73 -103 -104 -200q-13 -41 -13 -65q0 -19 6 -33q38 -79 225 -126q175 -44 450 -44h84q62 0 156 4q7 0 17 0.5t15.5 1t8.5 0.5
q-90 101 -98 233q2 158 76 280.5t189 182.5q77 40 154 40h16q172 -9 292 -151q117 -139 117 -317q0 -122 -81 -262q137 -12 193 -12q70 0 114.5 -44t44.5 -114q0 -69 -45 -113.5t-114 -44.5h-9q-342 0 -511 81q-70 -40 -275 -61q-196 -20 -349 -20h-41zM1581 680
q-72 -15 -121.5 -65t-49.5 -126q0 -33 56 -95q57 -65 120 -85q40 21 75 61.5t56 85.5q13 27 13 51q0 48 -30.5 87.5t-71.5 63.5q-28 17 -47 22zM1578 1115l-222 222l222 222l222 -222z" />
    <glyph glyph-name="uniFED3" unicode="&#x641;" horiz-adv-x="941" arabic-form="initial" 
d="M900 508q0 -102 -24.5 -183.5t-67 -139.5t-108 -101.5t-137 -69.5t-166 -42.5t-183.5 -23t-200 -8.5h-17q-68 0 -113 45t-45 113q0 69 45.5 113.5t114.5 44.5q363 0 563 56q47 13 75 32q-79 -9 -150 -9q-6 0 -18 0.5t-18 0.5q-256 9 -339 111v-1q-74 96 -74 232
q0 45 6 84q31 171 119 280q107 143 265 143q155 0 284 -137q131 -149 174 -388q14 -78 14 -152zM547 777q-54 91 -120 91q-25 0 -47 -14q-38 -23 -63 -64t-25 -93q0 -23 10 -39.5t22 -25.5t37.5 -15.5t40 -8t46.5 -4.5q53 -5 102 -5q30 0 57 3q-21 110 -60 175zM389 1311
l-222 222l222 222l222 -222z" />
    <glyph glyph-name="uniFED4" unicode="&#x641;" horiz-adv-x="1075" arabic-form="medial" 
d="M1049 -60q-342 0 -511 81q-106 -60 -384 -76q-87 -5 -148 -5h-8q-69 0 -113.5 44.5t-44.5 113.5q0 70 44.5 114t113.5 44h108q6 0 20 -0.5t20 -0.5q7 0 15 -0.5t9 -0.5h8q1 0 3 -0.5t3 -0.5l16 2q-92 100 -98 240q2 158 76 280.5t189 182.5q77 40 154 40h16
q171 -9 291 -151q118 -142 118 -317q0 -122 -81 -262q137 -12 193 -12q71 0 115 -44t44 -114t-44.5 -114t-114.5 -44h-9zM681 507q0 90 -102 151q-28 17 -47 22q-50 -10 -90 -40t-63 -72q-18 -33 -18 -79q0 -32 55 -95q57 -65 121 -85q39 21 74.5 62t56.5 85q13 27 13 51z
M525 1135l-222 222l222 222l222 -222z" />
    <glyph glyph-name="uniFED6" unicode="&#x642;" horiz-adv-x="1565" arabic-form="final" 
d="M419 454q-61 -112 -93 -218t-32 -238q0 -171 146 -280q131 -99 326 -99h9q254 0 407 192q46 57 73 129l-190 1q-252 22 -364 165q-90 110 -90 245q0 150 91 316q77 140 184 198q72 39 151 39q168 0 305 -149q80 -92 132.5 -221.5t66.5 -277.5h29q101 0 147 -96
q13 -27 13 -63q0 -67 -46 -112t-114 -45h-46q-32 -164 -116 -297t-205 -217q-183 -125 -432 -125q-327 0 -533 187q-70 64 -113 140v-1q-99 159 -99 370q0 165 36 297t105 266zM1160 518q-65 67 -128 67q-30 0 -54 -17q-43 -30 -73 -83.5t-30 -114.5q0 -25 15.5 -43.5
t32.5 -26.5t44 -18q76 -26 158 -26q8 0 22.5 -0.5t21.5 -0.5q12 0 32 0.5t28 0.5q33 0 48 1q-5 92 -71 200q-21 35 -46 61zM998 1231l-188 -188l-194 193l192 193l190 -190l188 188l194 -193l-192 -193z" />
    <glyph glyph-name="uniFED7" unicode="&#x642;" horiz-adv-x="946" arabic-form="initial" 
d="M900 508q0 -102 -24.5 -183.5t-67 -139.5t-108 -101.5t-137 -69.5t-166 -42.5t-183.5 -23t-200 -8.5h-17q-68 0 -113 45t-45 113q0 69 45.5 113.5t114.5 44.5q363 0 563 56q47 13 75 32q-79 -9 -150 -9q-6 0 -18 0.5t-18 0.5q-256 9 -339 111v-1q-74 96 -74 232
q0 45 6 84q31 171 119 280q107 143 265 143q155 0 284 -137q131 -149 174 -388q14 -78 14 -152zM547 777q-54 91 -120 91q-25 0 -47 -14q-38 -23 -63 -64t-25 -93q0 -23 10 -39.5t22 -25.5t37.5 -15.5t40 -8t46.5 -4.5q53 -5 102 -5q30 0 57 3q-21 110 -60 175zM406 1500
l-188 -188l-194 193l192 193l190 -190l188 188l194 -193l-192 -193z" />
    <glyph glyph-name="uniFED8" unicode="&#x642;" horiz-adv-x="1097" arabic-form="medial" 
d="M1072 -60q-342 0 -511 81q-106 -60 -384 -76q-87 -5 -148 -5h-8q-69 0 -113.5 44.5t-44.5 113.5q0 70 44.5 114t113.5 44h108q7 0 20 -0.5t20 -0.5t15 -0.5t9 -0.5h8q1 0 3 -0.5t3 -0.5l16 2q-92 100 -98 240q2 158 76 280.5t189 182.5q77 40 154 40h16q171 -9 291 -151
q118 -142 118 -317q0 -122 -81 -262q137 -12 193 -12q71 0 115 -44t44 -114t-44.5 -114t-114.5 -44h-9zM704 507q0 90 -102 151q-28 17 -47 22q-50 -10 -90 -40t-63 -72q-18 -33 -18 -79q0 -32 55 -95q57 -65 121 -85q39 21 74.5 62t56.5 85q13 27 13 51zM542 1340
l-188 -188l-194 193l192 193l190 -190l188 188l194 -193l-192 -193z" />
    <glyph glyph-name="uniFEDA" unicode="&#x643;" horiz-adv-x="2108" arabic-form="final" 
d="M-4 463q0 94 43 217v1q23 63 70 139l14 26l232 -174q-60 -105 -79 -158q-8 -22 -8 -33v-22q0 -49 23 -79.5t69 -55.5q173 -93 593 -93q306 0 477 67q92 38 134 87.5t42 152.5v24q-4 101 -24 364l-12 156q-4 44 -13.5 174.5t-15.5 198.5q-4 44 -4 47l315 61
q33 -373 44 -621q12 -224 20 -348q1 -14 1 -35q8 -171 49 -253l-3 4q17 -33 61 -43.5t116 -10.5v-316q-156 0 -255.5 37t-162.5 122q-245 -187 -769 -187q-740 5 -909 346v-1q-48 93 -48 206zM858 577q-104 78 -104 195q0 104 90 184q66 58 171 58q64 0 140 -21l-45 -138
q-77 10 -97 10q-44 0 -80.5 -21t-51.5 -52q-10 -21 -1 -47q12 -27 45.5 -45.5t72.5 -18.5q22 0 46 8q57 17 146 79l30 21l62 -146l-148.5 -88.5t-187.5 -108.5l-80.5 -44l-85.5 -46l-51 145z" />
    <glyph glyph-name="uniFEDB" unicode="&#x643;" horiz-adv-x="1039" arabic-form="initial" 
d="M421 -52q-58 -9 -98 -9l-323 1q-73 0 -120.5 43.5t-47.5 113.5q0 72 47 115.5t121 43.5h105q245 0 353 37q101 35 101 152q0 48 -16.5 91.5t-32 65.5t-50.5 64q-137 165 -395 381l31 272l840 374l121 -268l-664 -308q162 -113 294 -301q90 -129 125 -258q18 -67 18 -121
v-8q-3 -140 -67 -255q-104 -186 -343 -227z" />
    <glyph glyph-name="uniFEDC" unicode="&#x643;" horiz-adv-x="1188" arabic-form="medial" 
d="M717 121q-134 -172 -401 -181h-326q-68 0 -113.5 45t-45.5 113t45.5 113t113.5 45h339q102 0 197 88q24 23 29 49v13q0 92 -77 214q-143 227 -392 419l27 275l919 385l116 -275l-759 -310q125 -117 219 -234.5t165 -256.5l26.5 -51l28.5 -54t28.5 -49.5t33 -51
l34.5 -43.5t41 -42.5t45 -32t53 -27.5q38 -14 82 -16h42q69 0 113.5 -44.5t44.5 -113.5t-44.5 -113.5t-113.5 -44.5h-8q-157 0 -266.5 46t-195.5 135z" />
    <glyph glyph-name="uniFEDE" unicode="&#x644;" horiz-adv-x="1508" arabic-form="final" 
d="M371 294q-92 -176 -92 -327q0 -5 0.5 -14t0.5 -13q10 -196 212 -297q88 -43 157 -43h12q150 0 284 90q156 104 156 299q0 88 -2.5 178t-9 199.5l-10.5 172t-14 197t-13 171.5q-11 155 -48 602l319 74q20 -465 44 -1188q25 -139 141 -139q67 0 113 -46t46 -113
q0 -68 -45.5 -112.5t-113.5 -44.5q-75 0 -135 16q-8 -230 -113 -382t-286 -228q-147 -62 -307 -62h-21q-14 0 -19 1q-231 15 -409 159q-208 167 -212 474v19q0 268 113 477z" />
    <glyph glyph-name="uniFEDF" unicode="&#x644;" horiz-adv-x="558" arabic-form="initial" 
d="M526 431q0 -236 -120.5 -363.5t-349.5 -127.5h-56q-69 0 -113.5 44.5t-44.5 113.5t44.5 113.5t113.5 44.5h56q100 0 130 30v-1q35 42 35 152v13q0 23 -2 52.5t-5 70t-4 63.5q-16 264 -56 824q-3 36 -4 38l316 78q32 -339 44 -627l16 -495v-23z" />
    <glyph glyph-name="uniFEE0" unicode="&#x644;" horiz-adv-x="653" arabic-form="medial" 
d="M378 50q-116 -107 -269 -110h-118q-68 0 -113 45t-45 113t45 113t113 45h72q7 -2 21 -2q64 0 100.5 62t36.5 137q0 10 0.5 33t0.5 36q0 78 -4.5 223.5t-4.5 232.5q-4 364 -15 554l311 57q24 -202 24 -634q0 -94 -3.5 -282.5t-3.5 -283.5q0 -54 22 -90h-1q28 -43 106 -43
q101 0 147 -96q13 -27 13 -62q0 -69 -45.5 -113.5t-114.5 -44.5h-8q-157 0 -267 110z" />
    <glyph glyph-name="uniFEE2" unicode="&#x645;" horiz-adv-x="1358" arabic-form="final" 
d="M116 434q67 51 154 51h17q6 0 20 -2q116 288 293 382q68 36 151 36h7q179 -12 280 -126.5t124 -300.5q11 -67 44 -121t84 -79q27 -16 65 -18h9q70 0 114.5 -44t44.5 -114t-44.5 -114t-114.5 -44h-13q-101 4 -172 33.5t-131 87.5q-68 -76 -152 -90l4 2q-23 -7 -41 -7
q-51 0 -151 34q-95 32 -189 72l-30 12l-83 34t-105 41q6 -153 28.5 -449.5t28.5 -449.5l-301 -53l-47 986q0 78 28.5 140.5t78.5 100.5h-1zM895 279q20 58 20 120q0 57 -32 101.5t-78 69.5q-31 16 -59 16q-97 0 -179 -180q6 -3 59 -25.5l71.5 -30l60.5 -24.5t74 -27.5
t63 -19.5z" />
    <glyph glyph-name="uniFEE3" unicode="&#x645;" horiz-adv-x="1138" arabic-form="initial" 
d="M367 102q-84 -78 -166.5 -120t-200.5 -42q-69 0 -113 44.5t-44 113.5q0 68 44.5 111.5t111.5 46.5q119 0 204 94q43 48 87.5 127.5t75.5 144t84.5 130t118.5 98.5q67 34 143 34q172 0 297 -143q116 -141 116 -358q0 -226 -131 -344q-51 -46 -102 -67.5t-128 -21.5
q-67 0 -136 21t-109.5 42t-101.5 58zM850 254q20 0 31 28.5t11 61.5q0 3 -0.5 9t-0.5 9q0 68 -65 142q-68 79 -143 79q-14 0 -36 -40l-64 -119l-31 -63q103 -65 236 -97q40 -10 53 -10h9z" />
    <glyph glyph-name="uniFEE4" unicode="&#x645;" horiz-adv-x="1311" arabic-form="medial" 
d="M318 98q-64 -76 -132 -115.5t-176 -42.5h-13q-68 0 -113 44t-45 112q0 52 27.5 89.5t69.5 57.5q27 13 63 13q101 0 181 98q36 43 72.5 110.5t62 123.5t65.5 117t84 99q91 78 204 78h10q54 -4 100.5 -19.5t80 -34.5t65.5 -53.5t52 -62t43.5 -75t36 -78l33.5 -85.5
q53 -133 119 -186q41 -32 104 -32q52 0 89.5 -28t57.5 -70q13 -27 13 -62q0 -68 -46 -112t-114 -44q-101 0 -177 39.5t-143 106.5q-99 -140 -255 -140q-137 0 -309 90q-78 40 -110 62zM787 231q30 0 48.5 37.5t18.5 79.5q0 54 -46 123q-71 108 -176 108q-17 0 -44 -50
q-5 -8 -44 -87l-42 -85q116 -80 242 -117q28 -9 43 -9z" />
    <glyph glyph-name="uniFEE6" unicode="&#x646;" horiz-adv-x="1714" arabic-form="final" 
d="M1707 -60q-87 0 -179 29q-7 -196 -84 -347t-207 -235q-207 -134 -501 -134q-221 0 -369 68.5t-243 204.5q-123 175 -123 418q0 101 15 190.5t49 177t60 141t76 147.5l225 -162q-101 -187 -136 -386q-13 -73 -13 -127q0 -152 139 -255q132 -97 307 -100h19q359 0 470 200
q39 70 39 171q0 100 -61 259q-14 36 -33.5 79l-31.5 68l-40 81l-35 70l273 173l101 -195q36 -72 71 -118t83 -74q47 -28 129 -28q69 0 114 -44.5t45 -113.5t-45 -113.5t-114 -44.5zM753 463l-222 222l222 222l222 -222z" />
    <glyph glyph-name="uniFEE7" unicode="&#x646;" horiz-adv-x="706" arabic-form="initial" 
d="M-165 98q0 68 45 113t113 45h148q220 0 256 83q8 22 8 54q0 22 -14 72q-44 153 -148 350l286 142q104 -230 141 -423q13 -69 13 -139q0 -101 -36 -185q-61 -138 -186 -204t-322 -66h-146q-68 0 -113 45t-45 113zM332 1078l-222 222l222 222l222 -222z" />
    <glyph glyph-name="uniFEE8" unicode="&#x646;" horiz-adv-x="705" arabic-form="medial" 
d="M424 41q-138 -101 -407 -101h-17q-69 0 -113.5 44.5t-44.5 113.5t44.5 113.5t113.5 44.5h17q281 0 281 180v32q0 30 -16 96q-11 43 -28 100l285 69q53 -150 53 -297q0 -73 27 -126.5t85 -53.5q100 0 146 -96q13 -27 13 -62q0 -68 -45 -113t-113 -45q-173 0 -281 101z
M391 899l-222 222l222 222l222 -222z" />
    <glyph glyph-name="uniFEEA" unicode="&#x647;" horiz-adv-x="1090" arabic-form="final" 
d="M735 93q-90 -13 -191 -13q-282 0 -406 147q-66 87 -66 198q0 80 24 134q122 253 458 385l-3.5 45t-3.5 48l-5 63l312 67q6 -38 13 -117.5t9 -99.5q8 -64 18 -175q24 -263 61 -435q10 -48 41.5 -66t93.5 -18q100 0 146 -96q13 -27 13 -62q0 -68 -45.5 -113t-113.5 -45
q-243 0 -355 153zM538 394q20 0 87 5q-19 138 -21 166l-10 92q-179 -94 -243 -161q-28 -29 -28 -57q0 -45 215 -45z" />
    <glyph glyph-name="uniFEEB" unicode="&#x647;" horiz-adv-x="1554" arabic-form="initial" 
d="M518 -1q-210 -59 -519 -59h-9q-69 0 -113.5 45t-44.5 114q0 68 45 112.5t113 44.5h38q27 0 73.5 2.5t60.5 3.5q-71 123 -71 264q0 117 43.5 211.5t117.5 159.5l-52 29l193 284q62 -43 138.5 -81t193 -87.5t152.5 -66.5l108 -48.5t116 -53.5t93.5 -50t100.5 -67.5
t77 -76.5q98 -123 98 -295q0 -126 -62.5 -221.5t-164.5 -156.5q-121 -69 -353 -69q-224 0 -372 62zM523 318q99 11 152 71.5t53 168.5q0 56 -63 124q-51 56 -106 64q-1 0 -5 0.5t-6 0.5q-59 0 -124 -82q-63 -78 -63 -153q0 -55 61 -120q49 -53 101 -74zM991 580
q0 -116 -75 -266q-20 -40 -46 -79h9q41 0 69 0.5t67 4t65.5 9.5t55.5 17.5t46.5 28t29 41t11.5 55.5q0 20 -15 42.5t-27.5 33.5l-34.5 29q-67 55 -155 104v-20z" />
    <glyph glyph-name="uniFEEC" unicode="&#x647;" horiz-adv-x="1005" arabic-form="medial" 
d="M-1 -60q-69 0 -113.5 44.5t-44.5 113.5t44.5 113.5t113.5 44.5h52q10 219 139 452q88 158 198 226q58 35 121 40q131 -3 221 -133q87 -124 87 -286q0 -170 -141 -337q-59 -70 -140.5 -131.5t-167.5 -100.5q14 -45 80 -125q46 -57 107 -112v8q0 169 144 333
q87 100 199 144q57 22 107 22q69 0 114 -44.5t45 -113.5t-45 -113.5t-114 -44.5h-4q-71 -10 -125 -56.5t-83 -111.5q-19 -42 -19 -88q0 -49 18 -83t52 -71l-183 -223q-207 127 -347 277.5t-208 355.5h-107zM472 344q47 42 72 87.5t25 109.5q0 60 -15.5 110.5t-47.5 69.5
q-37 -20 -87 -107q-78 -136 -111 -278q-9 -41 -11 -84q93 15 175 92z" />
    <glyph glyph-name="uniFEEE" unicode="&#x648;" horiz-adv-x="1043" arabic-form="final" 
d="M28 -457q270 54 456 166q174 106 223 231q-108 0 -194 11t-165 39.5t-131 75t-83 120.5t-31 173q0 155 81 311q27 52 52 85q122 152 282 152q169 0 305 -148q176 -195 201 -503h19q101 0 147 -96q13 -27 13 -63q0 -68 -45.5 -112.5t-114.5 -44.5h-44
q-59 -221 -215 -376.5t-378 -244.5q-142 -57 -304 -83zM518 590q-47 0 -98 -69q-54 -71 -54 -139q0 -34 17.5 -57.5t50.5 -36t62.5 -18t69.5 -9.5q36 -3 40 -3h90q15 0 41 -2q-25 161 -137 290q-44 44 -82 44z" />
    <glyph glyph-name="uniFEF0" unicode="&#x649;" horiz-adv-x="1715" arabic-form="final" 
d="M1605 -60q37 -68 41 -150q-8 -174 -157 -297q-117 -96 -288.5 -150.5t-370.5 -54.5q-513 0 -685 268q-107 170 -107 395q0 185 34.5 337t99.5 316l257 -107q-33 -84 -49 -128.5t-37 -117t-29.5 -144.5t-8.5 -156q0 -346 525 -346q133 0 312 38q136 29 201 83q33 27 33 64
q0 9 -62 38q-81 39 -145 63q-32 10 -72.5 19t-71 14.5l-80 14.5l-72.5 13l41 304h802q100 0 146 -96q13 -27 13 -62q0 -68 -45.5 -113t-113.5 -45h-111z" />
    <glyph glyph-name="uniFEF2" unicode="&#x64a;" horiz-adv-x="1726" arabic-form="final" 
d="M1605 -60q37 -68 41 -150q-8 -174 -157 -297q-117 -96 -288.5 -150.5t-370.5 -54.5q-513 0 -685 268q-107 170 -107 395q0 185 34.5 337t99.5 316l257 -107q-33 -84 -49 -128.5t-37 -117t-29.5 -144.5t-8.5 -156q0 -346 525 -346q133 0 312 38q136 29 201 83q33 27 33 64
q0 9 -62 38q-81 39 -145 63q-32 10 -72.5 19t-71 14.5l-80 14.5l-72.5 13l41 304h802q100 0 146 -96q13 -27 13 -62q0 -68 -45.5 -113t-113.5 -45h-111zM817 -1002l-188 -188l-194 193l192 193l190 -190l188 188l194 -193l-192 -193z" />
    <glyph glyph-name="uniFEF3" unicode="&#x64a;" horiz-adv-x="804" arabic-form="initial" 
d="M374 -347l-188 -188l-194 193l192 193l190 -190l188 188l194 -193l-192 -193zM-206 98q0 69 44.5 113.5t113.5 44.5h159q180 0 293 42q36 13 53.5 30.5t17.5 54.5q0 43 -21 102q-18 51 -43 105l-62.5 129l-47.5 96l285 140q104 -179 149 -431q14 -78 14 -129
q0 -101 -36 -185q-84 -187 -290 -246q-95 -24 -253 -24h-218q-69 0 -113.5 44.5t-44.5 113.5z" />
    <glyph glyph-name="uniFEF4" unicode="&#x64a;" horiz-adv-x="854" arabic-form="medial" 
d="M-7 -60q-69 0 -113.5 44.5t-44.5 113.5t44.5 113.5t113.5 44.5h76q51 0 88.5 2t83.5 7.5t78.5 18.5t61.5 32t44 50t16 71q1 15 1 37q0 14 -2.5 26.5t-9 33.5t-8.5 28l-11.5 39.5t-15.5 55.5l291 82q45 -109 59 -300q9 -183 107 -183q68 0 113.5 -45t45.5 -113t-45 -113
t-113 -45q-169 0 -282 106q-158 -106 -502 -106h-76zM349 -381l-188 -188l-194 193l192 193l190 -190l188 188l194 -193l-192 -193z" />
    <glyph glyph-name=".notdef" horiz-adv-x="1229" 
d="M1126 1444v-1806h-1024v1806h1024zM1012 1329h-795v-1577h795v1577z" />
    <glyph glyph-name=".null" 
 />
    <glyph glyph-name="nonmarkingreturn" horiz-adv-x="602" 
 />
    <glyph glyph-name="space" unicode=" " horiz-adv-x="601" 
 />
    <glyph glyph-name="space" unicode="&#xa0;" horiz-adv-x="601" 
 />
    <glyph glyph-name="exclam" unicode="!" horiz-adv-x="579" 
d="M143 1572h277v-419l-36 -755h-192l-49 755v419zM293 -154l-222 222l222 222l222 -222z" />
    <glyph glyph-name="quotedbl" unicode="&#x22;" horiz-adv-x="979" 
d="M112 1466h306v-248l-46 -273h-207l-53 273v248zM563 1466h306v-248l-46 -273h-207l-53 273v248z" />
    <glyph glyph-name="numbersign" unicode="#" horiz-adv-x="1139" 
d="M18 585h180l60 295h-240v221h285l79 390h224l-79 -390h221l77 390h232l-80 -390h138v-221h-183l-60 -295h243v-220h-288l-79 -390h-223l77 390h-222l-79 -390h-226l79 390h-136v220zM646 585l58 295h-221l-59 -295h222z" />
    <glyph glyph-name="dollar" unicode="$" horiz-adv-x="1100" 
d="M1048 439q0 -190 -114.5 -310t-299.5 -147v-187h-145v182q-360 44 -419 434l261 28q15 -74 58 -134t100 -88v419q-195 55 -287 170t-92 275q0 169 106.5 278.5t272.5 125.5v99h145v-99q322 -39 373 -348l-253 -33q-22 118 -120 160v-391q238 -65 327 -169
q87 -104 87 -265zM489 1267q-58 -20 -93.5 -64t-35.5 -110q0 -117 129 -172v346zM634 203q73 13 121 68t48 132q0 142 -169 190v-390z" />
    <glyph glyph-name="percent" unicode="%" horiz-adv-x="1771" 
d="M415 717q-164 0 -245 101.5t-81 285.5q0 181 78.5 284t242.5 103q165 0 245.5 -101t80.5 -286q0 -182 -78 -284.5t-243 -102.5zM308 1106q0 -142 33 -192q25 -36 69 -36q45 0 70 36q32 50 32 192q0 141 -32 191q-25 37 -70 37q-44 0 -69 -36q-33 -50 -33 -192zM1197 1491
h202l-775 -1547h-208zM1404 -59q-165 0 -245.5 101t-80.5 287q0 182 79 284.5t244 102.5t244.5 -103t79.5 -284q0 -182 -78.5 -285t-242.5 -103zM1297 330q0 -143 33 -191q25 -37 69 -37q45 0 69 36q33 50 33 192t-32 192q-25 36 -70 36t-69 -36q-33 -50 -33 -192z" />
    <glyph glyph-name="ampersand" unicode="&#x26;" horiz-adv-x="1395" 
d="M970 538q36 63 62 167l254 -58q-30 -108 -47 -155.5t-48 -100.5q-18 -31 -31 -46q59 -56 185 -141q26 -17 46 -25l-170 -217q-125 62 -240 168q-88 -79 -187 -117.5t-240 -38.5q-274 0 -412 154q-107 119 -107 274q0 282 335 449q-151 178 -151 322q0 150 116.5 234
t293.5 84q191 0 297 -97q107 -98 107 -237q0 -89 -53 -169t-214 -181zM786 1163q0 61 -42 95.5t-108 34.5q-95 0 -133 -69q-10 -19 -10 -42q0 -53 64 -126l69 -80l76 58q84 64 84 129zM323 412q0 -93 61 -149.5t158 -56.5q79 0 136 27.5t124 84.5l-286 353
q-97 -49 -145 -118t-48 -141z" />
    <glyph glyph-name="quotesingle" unicode="'" horiz-adv-x="397" 
d="M55 1466h306v-248l-46 -273h-207l-53 273v248z" />
    <glyph glyph-name="parenleft" unicode="(" horiz-adv-x="864" 
d="M722 1351q-152 -152 -250.5 -300t-145.5 -341q-20 -81 -24 -164q0 -211 110 -426q109 -213 334 -423l-173 -193q-530 494 -530 1020v30q11 368 255 707v-1q113 158 263 292z" />
    <glyph glyph-name="parenright" unicode=")" horiz-adv-x="821" 
d="M505 1261q243 -335 255 -707v-30q0 -526 -530 -1020l-173 193q225 210 334 423q110 215 110 426q-6 114 -35 218t-77.5 192.5t-99 157t-117.5 142.5q-40 44 -54 58l-37 37l161 201q149 -134 263 -292v1z" />
    <glyph glyph-name="asterisk" unicode="*" horiz-adv-x="1136" 
d="M516 691q-1 51 -5.5 160t-5.5 160h224l-17 -319q49 16 155.5 54t155.5 54l72 -220l-317 -86l210 -251l-187 -131l-184 265l-185 -265l-182 131l203 251l-311 88l72 217z" />
    <glyph glyph-name="plus" unicode="+" horiz-adv-x="1219" 
d="M85 592v263h384v381h256v-381h385v-263h-385v-381h-256v381h-384z" />
    <glyph glyph-name="comma" unicode="," horiz-adv-x="588" 
d="M421 80q0 -124 -20.5 -194t-79.5 -126t-149 -87l-55 116q78 25 117 73t42 138h-136v281h281v-201z" />
    <glyph glyph-name="hyphen" unicode="-" horiz-adv-x="788" 
d="M766 672v-281h-651v281h651z" />
    <glyph glyph-name="period" unicode="." horiz-adv-x="567" 
d="M110 123q0 60 31 102.5t79 64.5q31 14 70 14q60 0 102 -31t64 -80q15 -33 15 -70q0 -78 -51.5 -129t-129.5 -51t-129 51t-51 129z" />
    <glyph glyph-name="slash" unicode="/" horiz-adv-x="590" 
d="M571 1491l-367 -1516h-207l363 1516h211z" />
    <glyph glyph-name="zero" unicode="0" horiz-adv-x="1138" 
d="M562 1472q213 0 333 -152q143 -182 143 -597q0 -417 -144 -598q-119 -150 -332 -150q-214 0 -345 164q-131 167 -131 587q0 414 144 596q118 150 332 150zM562 1239q-64 0 -99 -38.5t-54 -110.5q-29 -116 -29 -367t26 -355q26 -96 65 -128q41 -32 91 -32q64 0 99 38.5
t54 110.5q29 114 29 366t-26 354q-26 97 -66 129q-39 33 -90 33z" />
    <glyph glyph-name="one" unicode="1" horiz-adv-x="875" 
d="M449 1059q-155 -144 -363 -213v255q113 38 239 136q129 101 177 235h228v-1472h-281v1059z" />
    <glyph glyph-name="two" unicode="2" horiz-adv-x="1144" 
d="M564 1239q-99 0 -146 -58.5t-54 -170.5l-280 28q25 232 157 333q134 101 330 101q217 0 341 -117t124 -291q0 -98 -36 -188q-37 -92 -112 -188q-52 -64 -183 -185.5t-170 -163.5q-35 -41 -57 -78h558v-261h-985q14 127 68.5 230t146.5 204q76 83 197 198q193 180 233 240
q58 85 58 172q0 93 -49.5 144t-140.5 51z" />
    <glyph glyph-name="three" unicode="3" horiz-adv-x="1138" 
d="M349 422q13 -96 65.5 -155t142.5 -59q93 0 149.5 70t56.5 174q0 99 -53.5 164.5t-142.5 65.5q-54 0 -129 -21l31 229h12q100 0 161 49.5t61 139.5q0 74 -43.5 118t-117.5 44q-80 0 -128 -54.5t-57 -141.5l-259 44q27 132 80.5 212t153.5 126q98 45 218 45q208 0 332 -132
q103 -106 103 -244q0 -193 -211 -308q122 -26 199.5 -119t77.5 -229q0 -192 -141 -329q-139 -136 -351 -136q-199 0 -330 115t-152 299z" />
    <glyph glyph-name="four" unicode="4" horiz-adv-x="1111" 
d="M38 295v246l636 931h236v-930h182v-247h-182v-295h-272v295h-600zM301 542h337v501z" />
    <glyph glyph-name="five" unicode="5" horiz-adv-x="1155" 
d="M371 406q11 -87 67 -146.5t140 -59.5q87 0 149 71q61 70 61 216q0 123 -54 196.5t-164 73.5q-121 0 -217 -107l-228 33l144 763h743v-263h-530l-44 -249q100 47 192 47q187 0 317 -136t130 -353q0 -180 -105 -323q-143 -194 -397 -194q-202 0 -330 109t-154 293z" />
    <glyph glyph-name="six" unicode="6" horiz-adv-x="1155" 
d="M1066 472q0 -219 -130 -358t-341 -139q-223 0 -365 172q-143 173 -143 566q0 402 149 581q148 178 387 178q179 0 283.5 -98.5t132.5 -266.5l-272 -30q-20 164 -161 164q-89 0 -151 -80q-61 -79 -77 -333q105 124 261 124q176 0 301 -134q126 -134 126 -346zM595 745
q-92 0 -142.5 -71t-50.5 -180q0 -137 63 -212q63 -74 144 -74q78 0 130 61t52 200q0 124 -48.5 200t-147.5 76z" />
    <glyph glyph-name="seven" unicode="7" horiz-adv-x="1150" 
d="M1048 1446v-204q-119 -115 -242 -336q-105 -188 -178 -429t-73 -468v-9h-271q14 472 264 918q79 142 178 267h-639v261h961z" />
    <glyph glyph-name="eight" unicode="8" horiz-adv-x="1133" 
d="M83 419q0 134 66 229t179 143q-96 41 -152 117t-56 186q0 177 122.5 277.5t317.5 100.5q194 0 317 -101.5t123 -276.5q0 -110 -55 -187t-147 -116q249 -98 249 -360q0 -203 -130 -330q-127 -127 -344 -127q-199 0 -333 105q-157 124 -157 340zM563 1249
q-82 0 -129.5 -46.5t-47.5 -128.5q0 -83 46.5 -130.5t127.5 -47.5q82 0 129 48t47 131q0 80 -46.5 127t-126.5 47zM769 443q0 98 -56.5 163t-148.5 65q-103 0 -154 -71q-50 -71 -50 -154q0 -108 56 -177t152 -69t148.5 67.5t52.5 175.5z" />
    <glyph glyph-name="nine" unicode="9" horiz-adv-x="1171" 
d="M365 369q19 -163 163 -163q86 0 148 80t78 332q-106 -123 -265 -123q-173 0 -299 133q-125 134 -125 348q0 222 132 359q134 137 338 137q223 0 366 -173t143 -567q0 -401 -149 -580q-148 -178 -388 -178q-355 0 -414 365zM537 701q92 0 142 71.5t50 180.5q0 118 -56 202
t-151 84q-77 0 -130 -62q-51 -61 -51 -201q0 -124 48.5 -199.5t147.5 -75.5z" />
    <glyph glyph-name="colon" unicode=":" horiz-adv-x="564" 
d="M456 147q0 -74 -47.5 -121.5t-121.5 -47.5q-110 0 -156 102q-13 29 -13 67q0 56 28.5 96t73.5 60q29 13 67 13q73 0 121 -48t48 -121zM456 804q0 -73 -47.5 -120.5t-121.5 -47.5t-121.5 47t-47.5 121q0 57 28.5 97t73.5 60q29 13 67 13q74 0 121.5 -48t47.5 -122z" />
    <glyph glyph-name="semicolon" unicode=";" horiz-adv-x="586" 
d="M474 1062v-281h-281v281h281zM474 80q0 -124 -20.5 -194t-79.5 -126t-149 -87l-55 116q81 27 119.5 74t39.5 137h-136v281h281v-201z" />
    <glyph glyph-name="less" unicode="&#x3c;" horiz-adv-x="1296" 
d="M95 846l1005 435v-285l-701 -268l701 -278v-283l-1005 437v242z" />
    <glyph glyph-name="equal" unicode="=" horiz-adv-x="1282" 
d="M1110 1074v-258h-1025v258h1025zM1110 631v-259h-1025v259h1025z" />
    <glyph glyph-name="greater" unicode="&#x3e;" horiz-adv-x="1244" 
d="M797 725l-702 273v281l1006 -435v-240l-1006 -438v283z" />
    <glyph glyph-name="question" unicode="?" horiz-adv-x="1144" 
d="M588 1267q-227 0 -278 -247l-258 32q11 179 152 304q143 125 372 125q243 0 385 -127q143 -126 143 -294q0 -82 -35.5 -146.5t-98.5 -127.5t-143 -128q-89 -74 -111 -119q-19 -38 -19 -145v-16h-255q-1 19 -1 44v23q0 124 41 204q41 81 164 180l99 83q42 36 63.5 71
t21.5 85q0 89 -70.5 144t-171.5 55zM723 281v-281h-281v281h281z" />
    <glyph glyph-name="at" unicode="@" horiz-adv-x="2090" 
d="M1366 254q0 -22 10 -36t29 -14q48 0 124 58q97 72 162.5 198.5t65.5 270.5q0 246 -178 411q-178 166 -497 166q-272 0 -460.5 -111t-283.5 -311q-95 -205 -95 -417q0 -225 112.5 -393.5t292.5 -242.5q199 -80 441 -80q478 0 688 266h213q-107 -216 -336.5 -333
t-548.5 -117q-334 0 -572.5 112.5t-354.5 327.5q-117 217 -117 474q0 282 133 523q126 229 351.5 357.5t540.5 128.5q256 0 452 -101t295 -276q104 -182 104 -394q0 -256 -157 -461q-197 -260 -505 -260q-79 0 -123 27.5t-58 86.5q-118 -114 -272 -114q-166 0 -276 114
q-109 115 -109 305q0 235 132 429q161 236 410 236q178 0 263 -136l25 111h264l-151 -717q-14 -64 -14 -88zM1187 670q0 102 -48.5 168t-136.5 66q-86 0 -159 -67q-73 -64 -110 -189q-37 -117 -37 -218q0 -112 45 -179.5t134 -67.5q57 0 103.5 23t78.5 65t53 84.5t38 96.5
q39 117 39 218z" />
    <glyph glyph-name="A" unicode="A" horiz-adv-x="1494" 
d="M1021 333h-586l-121 -333h-314l571 1466h313l587 -1466h-322zM526 580h400l-202 544z" />
    <glyph glyph-name="B" unicode="B" horiz-adv-x="1450" 
d="M1100 779q127 -37 202.5 -126.5t75.5 -227.5q0 -105 -50 -199t-124 -146q-27 -19 -57.5 -33t-70.5 -22.5t-69.5 -13.5t-83.5 -7.5t-82.5 -3t-96 -0.5h-95.5h-499v1466h586q174 0 259 -15q112 -18 191 -88.5t108 -174.5q12 -44 12 -91q0 -109 -58.5 -193t-147.5 -125z
M742 882q62 0 107 6.5t86 24.5t62 53.5t21 88.5q0 144 -149 162q-74 5 -253 5h-170v-339h194q18 0 52 -0.5t50 -0.5zM720 247q160 0 203 9q68 12 108.5 59.5t40.5 123.5q0 137 -125 179q-60 21 -262 21h-239v-392h274z" />
    <glyph glyph-name="C" unicode="C" horiz-adv-x="1499" 
d="M1374 448q-63 -229 -209.5 -351t-399.5 -122q-293 0 -480 199q-188 200 -188 546q0 366 189 568q189 203 497 203q269 0 437 -159q100 -94 150 -270l-293 -70q-25 108 -106.5 177t-202.5 69q-163 0 -265 -117q-101 -119 -101 -379q0 -278 100 -396t260 -118
q253 0 325 311z" />
    <glyph glyph-name="D" unicode="D" horiz-adv-x="1466" 
d="M689 1466q189 0 279 -28q131 -38 222.5 -136t138.5 -236q48 -141 48 -347q0 -374 -202 -571q-77 -75 -208 -117q-92 -31 -262 -31h-557v1466h541zM665 247q172 0 254.5 44.5t121.5 171.5q30 99 30 269q0 152 -25 247t-88 156q-52 51 -138 69q-73 14 -243 14h-133v-971
h221z" />
    <glyph glyph-name="E" unicode="E" horiz-adv-x="1330" 
d="M1236 1466v-248h-791v-325h736v-247h-736v-399h819v-247h-1115v1466h1087z" />
    <glyph glyph-name="F" unicode="F" horiz-adv-x="1226" 
d="M1156 1466v-248h-709v-347h612v-248h-612v-623h-296v1466h1005z" />
    <glyph glyph-name="G" unicode="G" horiz-adv-x="1581" 
d="M823 228q94 0 187.5 37t159.5 88v186h-339v247h638v-584q-93 -90 -270 -159q-181 -68 -357 -68q-236 0 -405.5 99.5t-252.5 272.5q-86 186 -86 391q0 240 101 415t276 265q139 73 351 73q262 0 420.5 -110t203.5 -321l-294 -55q-32 109 -115.5 171t-214.5 62
q-207 0 -315 -130t-108 -358q0 -240 106.5 -381t313.5 -141z" />
    <glyph glyph-name="H" unicode="H" horiz-adv-x="1444" 
d="M446 1466v-577h580v577h296v-1466h-296v641h-580v-641h-296v1466h296z" />
    <glyph glyph-name="I" unicode="I" horiz-adv-x="514" 
d="M436 1466v-1466h-296v1466h296z" />
    <glyph glyph-name="J" unicode="J" horiz-adv-x="1029" 
d="M314 485q5 -126 45.5 -191.5t137.5 -65.5q99 0 140 56q41 59 41 235v947h295v-928q0 -195 -40.5 -303.5t-147.5 -182.5q-113 -77 -298 -77q-223 0 -336.5 123.5t-115.5 354.5z" />
    <glyph glyph-name="K" unicode="K" horiz-adv-x="1499" 
d="M449 1466v-651l598 651h398l-552 -571l582 -895h-383l-403 688l-240 -245v-443h-296v1466h296z" />
    <glyph glyph-name="L" unicode="L" horiz-adv-x="1237" 
d="M453 1454v-1207h736v-247h-1032v1454h296z" />
    <glyph glyph-name="M" unicode="M" horiz-adv-x="1647" 
d="M588 1466l266 -1000l263 1000h444v-1466h-275v1154l-291 -1154h-285l-290 1154v-1154h-275v1466h443z" />
    <glyph glyph-name="N" unicode="N" horiz-adv-x="1450" 
d="M440 1466l600 -979v979h275v-1466h-297l-591 956v-956h-275v1466h288z" />
    <glyph glyph-name="O" unicode="O" horiz-adv-x="1609" 
d="M89 724q0 199 49.5 334.5t153.5 242.5q94 95 215 142.5t291 47.5q324 0 518 -201q195 -201 195 -559q0 -357 -193 -556q-194 -200 -516 -200q-327 0 -520 199t-193 550zM1205 738q0 231 -101.5 365.5t-302.5 134.5q-183 0 -295 -126q-112 -124 -112 -378q0 -251 115 -378
q116 -128 292 -128q178 0 290 127q114 128 114 383z" />
    <glyph glyph-name="P" unicode="P" horiz-adv-x="1362" 
d="M624 1466q276 0 352 -22q126 -33 211 -144q85 -109 85 -285v-10q0 -137 -57 -234t-154 -151q-57 -32 -116 -46q-107 -21 -307 -21h-193v-553h-296v1466h475zM607 802q170 0 234 23q57 21 91.5 69t34.5 117q0 82 -45.5 133.5t-120.5 63.5q-41 10 -213 10h-143v-416h162z
" />
    <glyph glyph-name="Q" unicode="Q" horiz-adv-x="1603" 
d="M802 1491q333 0 520.5 -205t187.5 -553q0 -268 -104 -442q-30 -51 -77 -105q118 -83 237 -124l-109 -209q-58 18 -94 36t-92 55l-142 94q-144 -63 -319 -63q-343 0 -532 202.5t-189 555.5q0 359 192 558q192 200 521 200zM912 242q-81 55 -183 92l83 169
q146 -49 279 -150q114 133 114 380q0 255 -112 379q-113 126 -293 126q-182 0 -294 -126q-112 -124 -112 -379q0 -258 112 -385t285 -127q64 0 121 21z" />
    <glyph glyph-name="R" unicode="R" horiz-adv-x="1499" 
d="M1349 1055q0 -181 -104.5 -282t-282.5 -126q55 -32 100 -69.5t86 -88t69 -91.5t72 -112l179 -286h-354l-214 319q-120 177 -156 215q-44 47 -93 62.5t-145 15.5h-60v-612h-296v1466h623q240 0 341 -40q104 -38 169.5 -138t65.5 -233zM665 846q213 0 266 18t83 62t30 110
q0 76 -40 120.5t-111 56.5q-62 5 -216 5h-231v-372h219z" />
    <glyph glyph-name="S" unicode="S" horiz-adv-x="1330" 
d="M362 505q24 -138 101 -209.5t219 -71.5q143 0 215 60q73 61 73 142q0 41 -14 70t-51.5 49.5t-58.5 28t-78 23.5l-20 6q-64 18 -152 39q-238 59 -334 145q-135 121 -135 295q0 112 63 209q129 200 472 200q256 0 405 -112.5t157 -331.5l-296 -13q-17 110 -81 161t-188 51
q-46 0 -88 -7.5t-79.5 -23.5t-59.5 -45t-22 -68q0 -51 44 -89q56 -47 272 -98q70 -16 119.5 -30t110.5 -36t102 -46.5t83.5 -61.5t67.5 -80.5t41 -103t16 -130.5q0 -138 -76 -246t-191 -155q-126 -52 -320 -52q-547 0 -605 503z" />
    <glyph glyph-name="T" unicode="T" horiz-adv-x="1275" 
d="M44 1218v248h1165v-248h-434v-1218h-296v1218h-435z" />
    <glyph glyph-name="U" unicode="U" horiz-adv-x="1412" 
d="M443 672q0 -177 11 -245q21 -96 94.5 -147.5t191.5 -51.5q112 0 181.5 45.5t85.5 132.5q13 68 13 249v811h296v-770q0 -264 -24 -373q-25 -111 -90 -184.5t-171 -119.5q-114 -44 -282 -44q-209 0 -319 48q-97 44 -164.5 118t-89.5 171q-29 136 -29 372v782h296v-794z" />
    <glyph glyph-name="V" unicode="V" horiz-adv-x="1361" 
d="M320 1466l371 -1085l359 1085h314l-525 -1466h-316l-524 1466h321z" />
    <glyph glyph-name="W" unicode="W" horiz-adv-x="1948" 
d="M310 1466l221 -1007l268 1007h352l257 -1024l225 1024h298l-356 -1466h-314l-292 1096l-291 -1096h-321l-350 1466h303z" />
    <glyph glyph-name="X" unicode="X" horiz-adv-x="1368" 
d="M47 1466h346l294 -471l288 471h343l-456 -712l501 -754h-357l-325 507l-326 -507h-355l501 765z" />
    <glyph glyph-name="Y" unicode="Y" horiz-adv-x="1394" 
d="M-3 1466h347l345 -580l338 580h341l-539 -851v-615h-295v617z" />
    <glyph glyph-name="Z" unicode="Z" horiz-adv-x="1247" 
d="M792 1218h-683v248h1073v-230l-803 -989h834v-247h-1191v267z" />
    <glyph glyph-name="bracketleft" unicode="[" horiz-adv-x="702" 
d="M644 1466v-221h-231v-1437h231v-221h-498v1879h498z" />
    <glyph glyph-name="backslash" unicode="\" horiz-adv-x="572" 
d="M571 -25h-211l-363 1516h207z" />
    <glyph glyph-name="bracketright" unicode="]" horiz-adv-x="569" 
d="M38 -413v221h231v1439h-231v219h498v-1879h-498z" />
    <glyph glyph-name="asciicircum" unicode="^" horiz-adv-x="1089" 
d="M714 1491l366 -799h-284l-198 489l-197 -489h-286l376 799h223z" />
    <glyph glyph-name="underscore" unicode="_" horiz-adv-x="1133" 
d="M1149 -223v-182h-1168v182h1168z" />
    <glyph glyph-name="grave" unicode="`" horiz-adv-x="584" 
d="M42 1491h315l138 -299h-177z" />
    <glyph glyph-name="a" unicode="a" horiz-adv-x="1116" 
d="M542 871q-79 0 -120 -32.5t-65 -100.5l-255 46q45 159 152 230.5t308 71.5q188 0 280 -45q92 -44 129 -113q38 -68 38 -251l-3 -328q0 -151 13 -207q14 -66 51 -142h-278q-1 2 -11.5 33.5t-15.5 49.5l-10 33q-146 -140 -329 -140q-155 0 -254 85t-99 229q0 94 45 163
t118 105q78 37 224 66q196 38 273 69v28q0 87 -44 118.5t-147 31.5zM354 319q0 -61 45.5 -103t110.5 -42q69 0 131.5 42t80.5 101q11 42 11 137v56q-38 -13 -136 -35t-133 -33q-110 -35 -110 -123z" />
    <glyph glyph-name="b" unicode="b" horiz-adv-x="1204" 
d="M728 -24q-106 0 -190.5 50t-141.5 130v-156h-261v1466h281v-528q130 148 308 148q194 0 321 -141q127 -139 127 -403q0 -274 -130 -419q-129 -147 -314 -147zM414 554q0 -165 52 -244q73 -112 194 -112q94 0 158 79q66 79 66 251q0 182 -66 262q-66 81 -169 81
q-101 0 -168 -79q-67 -76 -67 -238z" />
    <glyph glyph-name="c" unicode="c" horiz-adv-x="1149" 
d="M796 698q-26 167 -192 167q-230 0 -230 -315q0 -189 63 -267q65 -78 171 -78q92 0 138 51t65 151l276 -47q-87 -384 -492 -384q-239 0 -374.5 151t-135.5 403q0 255 136.5 405.5t378.5 150.5q197 0 310.5 -85.5t162.5 -252.5z" />
    <glyph glyph-name="d" unicode="d" horiz-adv-x="1171" 
d="M860 156q-129 -180 -332 -180q-184 0 -314 147q-130 148 -130 412q0 271 127 410q127 141 321 141q178 0 308 -148v528h281v-1466h-261v156zM606 871q-114 0 -174.5 -88.5t-60.5 -228.5q0 -169 47 -246q68 -110 190 -110q98 0 165 82q68 83 68 247q0 183 -66 263
q-66 81 -169 81z" />
    <glyph glyph-name="e" unicode="e" horiz-adv-x="1133" 
d="M583 186q137 0 179 152l280 -47q-108 -315 -462 -315q-277 0 -410 181q-105 145 -105 366q0 264 138 413q138 150 349 150q169 0 283.5 -76.5t168 -211t53.5 -322.5v-26h-704q3 -116 64 -190t166 -74zM569 871q-96 0 -153.5 -69.5t-57.5 -174.5v-5h420
q-2 110 -57.5 179.5t-151.5 69.5z" />
    <glyph glyph-name="f" unicode="f" horiz-adv-x="733" 
d="M575 1275q-65 0 -89.5 -33t-24.5 -105v-75h210v-221h-210v-841h-281v841h-156v221h156v80q0 135 26.5 199.5t106.5 108.5q75 41 194 41t235 -36l-38 -196q-60 16 -129 16z" />
    <glyph glyph-name="g" unicode="g" horiz-adv-x="1204" 
d="M521 0q-132 0 -233 73t-152.5 194t-51.5 270q0 265 128 408q129 141 320 141q197 0 325 -173v149h263v-953q0 -194 -31 -281q-47 -140 -160.5 -199.5t-312.5 -59.5q-270 0 -383 93q-113 92 -113 234v16q0 11 1 18l321 -39q8 -61 46.5 -84t116.5 -23q95 0 146.5 22.5
t74.5 81.5q13 29 13 129v155q-126 -172 -318 -172zM604 871q-115 0 -173.5 -88t-58.5 -230q0 -168 65 -248q66 -78 162 -78q118 0 181.5 89.5t63.5 229.5q0 165 -68 245t-172 80z" />
    <glyph glyph-name="h" unicode="h" horiz-adv-x="1220" 
d="M752 1086q139 0 231 -68t115 -184q15 -68 15 -211v-623h-281v561q0 173 -16 212q-17 45 -58 71.5t-100 26.5q-76 0 -129 -37t-77 -100q-25 -62 -25 -202v-532h-281v1466h281v-539q137 159 325 159z" />
    <glyph glyph-name="i" unicode="i" horiz-adv-x="531" 
d="M428 1466v-260h-281v260h281zM428 1062v-1062h-281v1062h281z" />
    <glyph glyph-name="j" unicode="j" horiz-adv-x="498" 
d="M422 1466v-260h-281v260h281zM-45 -161q40 -9 70 -9q40 0 69 17t38 46q9 25 9 156v1013h281v-1029q0 -203 -27 -286q-25 -86 -102 -132t-192 -46q-83 0 -195 30z" />
    <glyph glyph-name="k" unicode="k" horiz-adv-x="1111" 
d="M418 1466v-778l329 374h346l-363 -388l389 -674h-303l-267 477l-131 -137v-340h-281v1466h281z" />
    <glyph glyph-name="l" unicode="l" horiz-adv-x="503" 
d="M428 1466v-1466h-281v1466h281z" />
    <glyph glyph-name="m" unicode="m" horiz-adv-x="1751" 
d="M385 917q139 169 331 169q204 0 300 -169q139 169 324 169q240 0 319 -187q29 -73 29 -220v-679h-281v607q0 157 -29 204q-39 60 -120 60q-67 0 -116.5 -40.5t-69.5 -101.5q-23 -75 -23 -219v-510h-281v582q0 155 -15 200q-30 89 -132 89q-70 0 -121 -37.5t-71 -98.5
q-22 -60 -22 -219v-516h-281v1062h259v-145z" />
    <glyph glyph-name="n" unicode="n" horiz-adv-x="1187" 
d="M832 542q0 172 -18 222q-17 49 -57 78t-99 29q-76 0 -133 -41t-78 -105q-21 -66 -21 -244v-481h-281v1062h261v-156q140 180 350 180q137 0 226 -62.5t115 -174.5q16 -60 16 -189v-660h-281v542z" />
    <glyph glyph-name="o" unicode="o" horiz-adv-x="1242" 
d="M82 546q0 154 75 281t189 190q128 69 283 69q241 0 395 -157q154 -154 154 -395t-156 -400q-155 -158 -391 -158q-145 0 -279 66q-270 134 -270 504zM630 857q-123 0 -191.5 -91.5t-68.5 -234.5t68.5 -234.5t191.5 -91.5t191 92t68 236q0 141 -68.5 232.5t-190.5 91.5z
" />
    <glyph glyph-name="p" unicode="p" horiz-adv-x="1242" 
d="M730 -24q-102 0 -169.5 38t-140.5 117v-535h-281v1466h262v-156q53 79 138.5 129.5t192.5 50.5q185 0 314 -145t129 -404q0 -266 -130 -414q-131 -147 -315 -147zM656 864q-116 0 -177.5 -88t-61.5 -227q0 -179 71 -265q70 -85 173 -85q99 0 163 78q65 80 65 258
q0 169 -67 248q-67 81 -166 81z" />
    <glyph glyph-name="q" unicode="q" horiz-adv-x="1187" 
d="M542 1086q114 0 188.5 -46.5t132.5 -134.5v157h259v-1466h-281v534q-118 -154 -314 -154q-105 0 -189.5 46.5t-137.5 125.5t-81 180t-28 215q0 257 129 399q130 144 322 144zM850 544q0 163 -67 242q-66 80 -166 80q-102 0 -171 -81q-68 -83 -68 -257q0 -175 66 -253
q66 -77 163 -77t170 87q73 85 73 259z" />
    <glyph glyph-name="r" unicode="r" horiz-adv-x="804" 
d="M135 1062h261v-151q68 107 120 141t122 34q96 0 185 -53l-87 -245q-70 46 -132 46q-71 0 -107.5 -37.5t-57.5 -112.5q-23 -92 -23 -356v-328h-281v1062z" />
    <glyph glyph-name="s" unicode="s" horiz-adv-x="1083" 
d="M330 346q36 -167 227 -167q201 0 201 115q0 23 -7 38t-25.5 25t-34 14.5t-47.5 12.5q-337 73 -431 137q-126 85 -126 239q0 138 109 232t338 94q217 0 324 -71q106 -71 146 -210l-265 -49q-34 128 -200 128q-113 0 -159 -31q-32 -23 -32 -57q0 -30 28 -51q35 -26 262 -79
q225 -51 314 -125q88 -75 88 -209q0 -146 -122 -251t-361 -105q-207 0 -337 83t-172 244z" />
    <glyph glyph-name="t" unicode="t" horiz-adv-x="646" 
d="M442 838v-472q0 -68 5 -108q6 -22 26 -35.5t47 -13.5q40 0 113 27l24 -218q-97 -42 -222 -42q-235 0 -266 201q-9 49 -9 198v463h-129v224h129v211l282 164v-375h192v-224h-192z" />
    <glyph glyph-name="u" unicode="u" horiz-adv-x="1149" 
d="M846 159q-54 -79 -147.5 -131t-204.5 -52q-110 0 -194.5 49t-120.5 130q-38 91 -38 235v672h281v-488q0 -224 15 -275q35 -109 161 -109q72 0 129 40t78 97q21 58 21 287v448h281v-1062h-261v159z" />
    <glyph glyph-name="v" unicode="v" horiz-adv-x="1122" 
d="M306 1062l200 -542l58 -181q43 137 59 181l202 542h289l-422 -1062h-253l-428 1062h295z" />
    <glyph glyph-name="w" unicode="w" horiz-adv-x="1598" 
d="M282 1062l199 -696l183 696h271l177 -696l203 696h277l-341 -1062h-270l-183 683l-180 -683h-273l-336 1062h273z" />
    <glyph glyph-name="x" unicode="x" horiz-adv-x="1105" 
d="M28 1062h343l188 -292l198 292h330l-360 -503l393 -559h-345l-216 329l-218 -329h-329l383 547z" />
    <glyph glyph-name="y" unicode="y" horiz-adv-x="1116" 
d="M82 -194q53 -13 119 -13q99 0 145 58q46 57 72 146l-404 1065h299l254 -754l248 754h291l-196 -534l-246 -673q-23 -56 -42.5 -92.5t-49 -75t-69.5 -63t-93 -38.5q-65 -17 -144 -17q-71 0 -159 17z" />
    <glyph glyph-name="z" unicode="z" horiz-adv-x="1034" 
d="M402 240q101 7 145 7h435v-247h-948v219l398 457q91 105 145 159q-51 -3 -57 -3q-45 0 -72 -1l-375 -2v233h878v-199l-171 -197.5l-202 -232.5z" />
    <glyph glyph-name="braceleft" unicode="{" horiz-adv-x="810" 
d="M539 -46q0 -41 8 -67.5t21 -42.5t41.5 -23.5t56.5 -9.5t78 -2v-240h-53q-131 0 -202 18.5t-127 74.5q-54 54 -68.5 130t-14.5 225q0 190 -16 239q-22 80 -66.5 115t-136.5 39v240q72 5 109 21.5t65 60.5q29 44 37 107.5t8 166.5q0 194 18 270q28 121 123 168t271 47h53
v-239q-53 0 -80.5 -2t-56 -9t-40.5 -22t-19.5 -40t-7.5 -65q0 -52 -5 -162t-13 -166q-13 -92 -54.5 -150t-115.5 -106q91 -52 131.5 -137t48.5 -227q7 -147 7 -212z" />
    <glyph glyph-name="bar" unicode="|" horiz-adv-x="471" 
d="M399 1491v-1922h-223v1922h223z" />
    <glyph glyph-name="braceright" unicode="}" horiz-adv-x="739" 
d="M45 -191q49 0 76.5 2t56 9.5t41.5 22.5t21.5 40.5t8.5 64.5q6 285 26 365q19 77 57.5 125.5t104.5 91.5q-79 51 -117.5 108t-54.5 154q-14 106 -16 308q-2 71 -11.5 97t-47.5 41q-37 14 -145 14v239h53q131 0 202.5 -18.5t125.5 -74.5q50 -50 66 -124q18 -74 18 -231
q0 -183 15 -239q23 -81 67 -115.5t137 -38.5v-240q-73 -5 -109 -21.5t-64 -60.5q-29 -44 -37.5 -107.5t-8.5 -165.5q0 -195 -18 -271q-26 -121 -121.5 -168t-272.5 -47h-53v240z" />
    <glyph glyph-name="asciitilde" unicode="~" horiz-adv-x="1182" 
d="M1129 654q-49 -51 -133 -91.5t-166 -40.5q-50 0 -98 12q-46 12 -150 57q-149 67 -242 67q-140 0 -273 -139v259q127 138 296 138q42 0 74.5 -4.5t52 -10.5t62.5 -21q48 -16 117 -45q132 -55 187 -55q58 0 130 34q71 33 143 110v-270z" />
    <glyph glyph-name="exclamdown" unicode="&#xa1;" horiz-adv-x="660" 
d="M240 857v205h207v-205h-207zM455 -404h-223v325l52 776h116l55 -776v-325z" />
    <glyph glyph-name="cent" unicode="&#xa2;" horiz-adv-x="1119" 
d="M84 535q0 252 136.5 401.5t377.5 149.5q44 0 94 -6l113 376l123 -35l-112 -371q188 -72 256 -302l-277 -50q-12 72 -51 113l-182 -602q13 -4 45 -4q92 0 138 51t65 151l276 -47q-43 -188 -161.5 -286t-329.5 -98q-64 0 -101 7l-117 -386l-122 34l116 385
q-135 59 -211 194.5t-76 324.5zM603 865q-231 0 -231 -316q0 -195 76 -280l179 595q-5 1 -13 1h-11z" />
    <glyph glyph-name="sterling" unicode="&#xa3;" horiz-adv-x="1241" 
d="M1107 47q-140 -70 -276 -70q-90 0 -240 42q-144 43 -222 43q-121 0 -249 -87l-107 242q161 115 200 261q12 45 12 86q0 19 -4 57h-208v221h157q-41 125 -41 239q0 121 65 216.5t163 141.5q104 52 238 52q202 0 317 -99.5t140 -285.5l-271 -40q-18 96 -63 148.5t-131 52.5
q-79 0 -132.5 -54t-53.5 -134q0 -104 50 -237h312v-221h-266q3 -23 3 -44q0 -79 -30 -146q-28 -66 -123 -176q55 28 138 28q50 0 166 -27t144 -27q72 0 204 56z" />
    <glyph glyph-name="currency" unicode="&#xa4;" horiz-adv-x="1209" 
d="M180 510q-57 105 -57 218q0 116 54 213l-132 131l166 178l136 -136q109 57 218 57q112 0 219 -57l134 134l167 -169l-132 -133q56 -104 56 -218t-56 -218l134 -133l-167 -171l-136 136q-102 -57 -218 -57q-112 0 -216 56l-130 -131l-170 168zM566 930q-83 0 -142.5 -59.5
t-59.5 -142.5t60 -142.5t142 -59.5q83 0 142.5 59.5t59.5 142.5t-59.5 142.5t-142.5 59.5z" />
    <glyph glyph-name="yen" unicode="&#xa5;" horiz-adv-x="1160" 
d="M51 494h371v120h-371v221h261l-311 631h308l200 -426q37 -80 54 -141q19 66 54 141l204 426h308l-315 -631h265v-221h-376v-120h376v-221h-376v-273h-281v273h-371v221z" />
    <glyph glyph-name="brokenbar" unicode="&#xa6;" horiz-adv-x="562" 
d="M399 1491v-790h-223v790h223zM399 360v-791h-223v791h223z" />
    <glyph glyph-name="section" unicode="&#xa7;" horiz-adv-x="1205" 
d="M59 625q0 214 185 320q-101 110 -101 224q0 135 105 228q106 94 297 94q185 0 303 -90t138 -247l-275 -29q-10 152 -153 152q-56 0 -94.5 -24.5t-38.5 -68.5q0 -10 2 -20t4 -17.5t8 -17l9 -14.5t12.5 -14t12.5 -12.5t15.5 -13l15 -11.5t17.5 -12t17 -12q38 -27 143 -94
t178.5 -121.5t120.5 -108.5q88 -100 88 -231q0 -186 -182 -314q121 -112 121 -254q0 -147 -111 -248q-109 -100 -319 -100q-193 0 -316 97t-146 266l274 33q36 -181 196 -181q61 0 102.5 31.5t41.5 86.5q0 47 -37 84q-17 17 -86 64l-181 118q-228 146 -297 242t-69 215z
M400 816q-34 -19 -60 -56.5t-26 -79.5q0 -100 135 -192l286 -195q87 78 87 147q0 33 -23 68t-126 110z" />
    <glyph glyph-name="dieresis" unicode="&#xa8;" horiz-adv-x="750" 
d="M246 1491v-241h-241v241h241zM677 1491v-241h-242v241h242z" />
    <glyph glyph-name="copyright" unicode="&#xa9;" horiz-adv-x="1536" 
d="M757 1496q197 0 378 -99q165 -89 276.5 -269.5t111.5 -397.5q0 -218 -108.5 -394t-276.5 -271q-182 -101 -381 -101q-218 0 -395 109t-270 275q-101 182 -101 382q0 219 110.5 397.5t277.5 269.5q181 99 378 99zM757 1345q-176 0 -316.5 -86t-215.5 -220
q-83 -149 -83 -309q0 -175 87.5 -316.5t221.5 -217.5q145 -81 306 -81q175 0 317 87.5t216 221.5q82 145 82 306q0 122 -52 243.5t-130 196.5t-195 125t-238 50zM751 445q79 0 123.5 44.5t68.5 126.5l161 -54q-36 -121 -119.5 -190.5t-216.5 -69.5q-178 0 -282.5 116.5
t-104.5 304.5q0 196 102 313.5t287 117.5q134 0 212.5 -62t121.5 -181l-162 -38q-26 67 -67 103t-111 36q-73 0 -120.5 -39t-67 -100t-19.5 -144q0 -146 57 -215t137 -69z" />
    <glyph glyph-name="ordfeminine" unicode="&#xaa;" horiz-adv-x="756" 
d="M379 1491q153 0 226 -55t73 -187v-240l-1 -61q0 -134 41 -184h-148q-19 37 -22 89q-122 -107 -256 -107q-109 0 -177 59t-68 160q0 54 18 93t53.5 62.5t75 36t97.5 22.5l147 22q14 3 47 9.5t49 10.5q-2 68 -12 91t-50 44q-34 18 -95 18q-147 0 -166 -125l-137 34
q13 100 95.5 154t209.5 54zM196 965q0 -48 36.5 -73.5t93.5 -25.5q81 0 140.5 48t63.5 122q1 25 3 68q-53 -14 -192 -36q-90 -14 -117 -39q-28 -25 -28 -64z" />
    <glyph glyph-name="guillemotleft" unicode="&#xab;" horiz-adv-x="1184" 
d="M633 70h-221l-316 462l316 451h221l-310 -447zM1025 70h-221l-316 462l316 451h221l-303 -452z" />
    <glyph glyph-name="logicalnot" unicode="&#xac;" horiz-adv-x="1323" 
d="M85 817v257h1025v-698h-257v441h-768z" />
    <glyph glyph-name="uni00AD" unicode="&#xad;" horiz-adv-x="724" 
d="M711 672v-281h-596v281h596z" />
    <glyph glyph-name="registered" unicode="&#xae;" horiz-adv-x="1593" 
d="M757 1496q197 0 378 -99q181 -98 284 -282q104 -185 104 -385q0 -218 -108.5 -394t-276.5 -271q-182 -101 -381 -101q-218 0 -395 109t-270 275q-101 182 -101 382q0 201 103 385q104 185 285 282q181 99 378 99zM758 1346q-175 0 -316.5 -86t-215.5 -220
q-83 -149 -83 -310q0 -176 87.5 -317.5t221.5 -217.5q145 -82 306 -82q175 0 316.5 88t217.5 222q82 145 82 307q0 122 -52.5 243.5t-130.5 197.5q-78 75 -195 125t-238 50zM1070 904q0 -98 -61 -156t-158 -72q38 -15 61.5 -35.5t50.5 -57.5q9 -12 60 -99l96 -164h-204
l-68 132q-68 133 -114 167q-47 35 -114 35h-43v-334h-165v813h165q44 0 104.5 -0.5t77.5 -0.5q121 0 182.5 -22.5t99.5 -89.5q30 -53 30 -116zM643 782q136 0 177 11q32 10 53.5 37t21.5 64t-21.5 62.5t-53.5 35.5q-36 12 -177 12h-67v-222h67z" />
    <glyph glyph-name="macron" unicode="&#xaf;" horiz-adv-x="1129" 
d="M1149 1735v-183h-1168v183h1168z" />
    <glyph glyph-name="degree" unicode="&#xb0;" horiz-adv-x="830" 
d="M405 853q-131 0 -225 94t-94 225q0 132 94 225.5t225 93.5t225 -94.5t94 -224.5q0 -131 -94 -225t-225 -94zM405 1325q-62 0 -107.5 -45.5t-45.5 -107.5t45.5 -107.5t107.5 -45.5t107.5 45.5t45.5 107.5t-45.5 107.5t-107.5 45.5z" />
    <glyph glyph-name="plusminus" unicode="&#xb1;" horiz-adv-x="1144" 
d="M50 737v263h384v381h256v-381h385v-263h-385v-381h-256v381h-384zM1075 263v-263h-1025v263h1025z" />
    <glyph glyph-name="uni00B2" unicode="&#xb2;" horiz-adv-x="700" 
d="M45 1242q16 125 89.5 183.5t211.5 58.5q139 0 212 -64q74 -65 74 -151q0 -43 -10.5 -78t-34.5 -66t-43 -50.5t-54 -49.5l-84 -68t-88 -72h314v-158h-607q11 85 54 152t195 186l91 74q25 20 39 34.5t26 38t12 48.5q0 41 -27 61t-74 20q-56 0 -78.5 -27t-28.5 -88z" />
    <glyph glyph-name="uni00B3" unicode="&#xb3;" horiz-adv-x="679" 
d="M505 1136q136 -48 136 -179q0 -95 -84 -169q-82 -73 -221 -73q-126 0 -203 60.5t-93 170.5l184 20q16 -108 113 -108q49 0 79 30t30 78q0 44 -29 71.5t-74 27.5q-29 0 -91 -15l23 146h13q123 0 123 79q0 32 -23 49t-60 17q-46 0 -69 -24.5t-30 -73.5l-178 26
q27 111 93 163t189 52q109 0 189 -56.5t80 -147.5q0 -86 -97 -144z" />
    <glyph glyph-name="acute" unicode="&#xb4;" horiz-adv-x="839" 
d="M640 1491l-275 -299h-178l138 299h315z" />
    <glyph glyph-name="mu" unicode="&#xb5;" horiz-adv-x="1242" 
d="M602 -26q-79 0 -126.5 40t-85.5 114v-535h-279v1469h279v-481q0 -208 42 -283q52 -97 157 -97q63 0 110.5 39.5t69.5 96.5q24 65 24 241v484h284v-1062h-262v128q-31 -57 -56 -84t-74 -49q-45 -21 -83 -21z" />
    <glyph glyph-name="paragraph" unicode="&#xb6;" horiz-adv-x="1125" 
d="M392 644q-182 13 -288 118.5t-106 289.5q0 104 43 193t109 138q70 52 163 71q55 12 219 12h597v-261h-113v-1608h-237v1608h-144v-1608h-243v1047z" />
    <glyph glyph-name="periodcentered" unicode="&#xb7;" horiz-adv-x="604" 
d="M481 854v-281h-281v281h281z" />
    <glyph glyph-name="cedilla" unicode="&#xb8;" horiz-adv-x="670" 
d="M38 -285q141 -11 189 -11q71 0 118 22t47 72q0 43 -35 63.5t-92 20.5t-131 -20l26 99q78 27 168 27q111 0 183 -49t72 -140q0 -87 -72 -143q-97 -75 -278 -75q-135 0 -195 16v118z" />
    <glyph glyph-name="uni00B9" unicode="&#xb9;" horiz-adv-x="607" 
d="M91 1297q84 24 153.5 72t96.5 115h154v-757h-190v513q-90 -63 -214 -98v155z" />
    <glyph glyph-name="ordmasculine" unicode="&#xba;" horiz-adv-x="729" 
d="M45 1111q0 170 87 275t241 105q152 0 240 -105t88 -271q0 -165 -88 -270t-239 -105q-153 0 -241 102.5t-88 268.5zM373 872q180 0 180 248q0 108 -43.5 173t-136.5 65q-180 0 -180 -243q0 -110 43 -176.5t137 -66.5z" />
    <glyph glyph-name="guillemotright" unicode="&#xbb;" horiz-adv-x="1154" 
d="M709 70h-221l310 466l-310 447h221l316 -451zM317 70h-221l303 461l-303 452h221l316 -451z" />
    <glyph glyph-name="onequarter" unicode="&#xbc;" horiz-adv-x="1905" 
d="M92 1297q84 24 153.5 72t96.5 115h154v-757h-190v513q-91 -63 -214 -98v155zM1209 1484h159l-869 -1538h-159zM1043 104v141l382 470h156v-466h107v-145h-107v-146h-178v146h-360zM1220 249h183v225z" />
    <glyph glyph-name="onehalf" unicode="&#xbd;" horiz-adv-x="1916" 
d="M92 1297q84 24 153.5 72t96.5 115h154v-757h-190v513q-91 -63 -214 -98v155zM1209 1484h159l-869 -1538h-159zM1069 473q16 124 90.5 183t210.5 59q139 0 212 -64q74 -65 74 -151q0 -43 -10.5 -78t-34.5 -66t-43 -50.5t-54 -49.5l-81 -65t-90 -76h313v-157h-607
q8 80 55 152q45 68 194 186l91 74q25 20 39 34.5t26 38t12 48.5q0 41 -27 61t-74 20q-55 0 -78.5 -27t-27.5 -88z" />
    <glyph glyph-name="threequarters" unicode="&#xbe;" horiz-adv-x="1769" 
d="M505 1136q136 -48 136 -179q0 -95 -84 -169q-82 -73 -221 -73q-126 0 -203 60.5t-93 170.5l184 20q16 -108 113 -108q49 0 79 30t30 78q0 44 -29 71.5t-74 27.5q-29 0 -91 -15l23 146h13q123 0 123 79q0 32 -23 49t-60 17q-46 0 -69 -24.5t-30 -73.5l-178 26
q27 111 93 163t189 52q109 0 189 -56.5t80 -147.5q0 -86 -97 -144zM1233 1484h158l-868 -1538h-159zM1042 104v141l382 470h156v-466h108v-145h-108v-146h-178v146h-360zM1220 249h182v225z" />
    <glyph glyph-name="questiondown" unicode="&#xbf;" horiz-adv-x="1275" 
d="M482 781v281h281v-281h-281zM618 -205q119 0 185.5 64t92.5 183l258 -33q-36 -269 -264 -375q-117 -54 -261 -54q-243 0 -385 127q-143 126 -143 292q0 75 28 131.5t77 114.5q56 61 174 159q88 70 108 116q21 44 21 150v14h254q1 -22 1 -52v-16l1 -8q0 -114 -44 -197
q-43 -82 -170 -185q-127 -105 -151 -144q-25 -40 -25 -93q0 -86 72.5 -140t170.5 -54z" />
    <glyph glyph-name="Agrave" unicode="&#xc0;" horiz-adv-x="1373" 
d="M1021 333h-586l-121 -333h-314l571 1466h313l587 -1466h-322zM526 580h400l-202 544zM322 1898h315l138 -299h-177z" />
    <glyph glyph-name="Aacute" unicode="&#xc1;" horiz-adv-x="1373" 
d="M1021 333h-586l-121 -333h-314l571 1466h313l587 -1466h-322zM526 580h400l-202 544zM996 1813l-275 -299h-178l138 299h315z" />
    <glyph glyph-name="Acircumflex" unicode="&#xc2;" horiz-adv-x="1373" 
d="M1021 333h-586l-121 -333h-314l571 1466h313l587 -1466h-322zM526 580h400l-202 544zM792 1817l207 -295h-226l-116 149l-108 -149h-227l210 295h260z" />
    <glyph glyph-name="Atilde" unicode="&#xc3;" horiz-adv-x="1373" 
d="M1021 333h-586l-121 -333h-314l571 1466h313l587 -1466h-322zM526 580h400l-202 544zM526 1678q-36 0 -56 -25t-20 -64v-6h-133v5q0 97 56 160t147 63q62 0 169 -54q59 -30 94 -30q38 0 52 20t21 67h130q-3 -104 -53.5 -166t-142.5 -62q-62 0 -166 56q-68 36 -98 36z" />
    <glyph glyph-name="Adieresis" unicode="&#xc4;" horiz-adv-x="1373" 
d="M1021 333h-586l-121 -333h-314l571 1466h313l587 -1466h-322zM526 580h400l-202 544zM564 1727v-241h-241v241h241zM995 1727v-241h-242v241h242z" />
    <glyph glyph-name="Aring" unicode="&#xc5;" horiz-adv-x="1373" 
d="M651 1537q-76 0 -128.5 55t-52.5 132q0 72 54 125.5t126 53.5q74 0 127 -54t53 -129t-52.5 -129t-126.5 -54zM652 1830q-43 0 -74.5 -32t-31.5 -75q0 -46 30.5 -78.5t75.5 -32.5q43 0 74.5 32.5t31.5 76.5q0 45 -31 77t-75 32zM1021 333h-586l-121 -333h-314l571 1466
h313l587 -1466h-322zM526 580h400l-202 544z" />
    <glyph glyph-name="AE" unicode="&#xc6;" horiz-adv-x="2036" 
d="M1922 1466v-248h-726v-326h669v-248h-669v-397h753v-247h-1049v345h-508l-150 -345h-328l684 1466h1324zM903 1244h-115l-287 -643h402v643z" />
    <glyph glyph-name="Ccedilla" unicode="&#xc7;" horiz-adv-x="1557" 
d="M493 -285q141 -11 189 -11q71 0 118 22t47 72q0 43 -35 63.5t-92 20.5t-131 -20l26 99q33 12 68 18q-238 24 -398 195q-188 200 -188 546q0 366 189 568q189 203 497 203q269 0 437 -159q100 -94 150 -270l-293 -70q-25 108 -106.5 177t-202.5 69q-163 0 -265 -117
q-101 -119 -101 -379q0 -278 100 -396t260 -118q253 0 325 311l287 -91q-56 -206 -179.5 -325.5t-330.5 -142.5q79 -16 126.5 -62t47.5 -119q0 -87 -72 -143q-98 -75 -278 -75q-135 0 -195 16v118z" />
    <glyph glyph-name="Egrave" unicode="&#xc8;" horiz-adv-x="1380" 
d="M1236 1466v-248h-791v-325h736v-247h-736v-399h819v-247h-1115v1466h1087zM363 1846h315l138 -299h-177z" />
    <glyph glyph-name="Eacute" unicode="&#xc9;" horiz-adv-x="1380" 
d="M1236 1466v-248h-791v-325h736v-247h-736v-399h819v-247h-1115v1466h1087zM933 1942l-275 -299h-178l138 299h315z" />
    <glyph glyph-name="Ecircumflex" unicode="&#xca;" horiz-adv-x="1380" 
d="M1236 1466v-248h-791v-325h736v-247h-736v-399h819v-247h-1115v1466h1087zM832 1946l207 -295h-226l-116 149l-108 -149h-227l210 295h260z" />
    <glyph glyph-name="Edieresis" unicode="&#xcb;" horiz-adv-x="1335" 
d="M1236 1466v-248h-791v-325h736v-247h-736v-399h819v-247h-1115v1466h1087zM571 1864v-241h-241v241h241zM1002 1864v-241h-242v241h242z" />
    <glyph glyph-name="Igrave" unicode="&#xcc;" horiz-adv-x="562" 
d="M436 1466v-1466h-296v1466h296zM-47 1949h315l138 -299h-177z" />
    <glyph glyph-name="Iacute" unicode="&#xcd;" horiz-adv-x="562" 
d="M436 1466v-1466h-296v1466h296zM595 1832l-275 -299h-178l138 299h315z" />
    <glyph glyph-name="Icircumflex" unicode="&#xce;" horiz-adv-x="562" 
d="M436 1466v-1466h-296v1466h296zM426 1833l207 -295h-226l-116 149l-108 -149h-227l210 295h260z" />
    <glyph glyph-name="Idieresis" unicode="&#xcf;" horiz-adv-x="562" 
d="M436 1466v-1466h-296v1466h296zM190 1873v-241h-241v241h241zM621 1873v-241h-242v241h242z" />
    <glyph glyph-name="Eth" unicode="&#xd0;" horiz-adv-x="1508" 
d="M689 1466q195 0 305.5 -35.5t198.5 -131.5q185 -198 185 -584q0 -371 -203 -569q-76 -73 -207 -115q-92 -31 -263 -31h-556v640h-152v186h152v640h540zM758 826v-186h-314v-393h222q148 0 212 24q86 30 131 110q63 113 63 345q0 102 -10.5 176.5t-36.5 137.5t-73.5 103
t-118.5 59q-58 16 -255 16h-134v-392h314z" />
    <glyph glyph-name="Ntilde" unicode="&#xd1;" horiz-adv-x="1541" 
d="M440 1466l600 -979v979h275v-1466h-297l-591 956v-956h-275v1466h288zM635 1757q-36 0 -56 -25t-20 -64v-6h-133v5q0 97 56 160t147 63q63 0 169 -54q58 -30 94 -30q38 0 52 20t21 67h130q-3 -104 -53.5 -166t-142.5 -62q-62 0 -166 56q-67 36 -98 36z" />
    <glyph glyph-name="Ograve" unicode="&#xd2;" horiz-adv-x="1707" 
d="M89 724q0 199 49.5 334.5t153.5 242.5q94 95 215 142.5t291 47.5q324 0 518 -201q195 -201 195 -559q0 -357 -193 -556q-194 -200 -516 -200q-327 0 -520 199t-193 550zM1205 738q0 231 -101.5 365.5t-302.5 134.5q-183 0 -295 -126q-112 -124 -112 -378q0 -251 115 -378
q116 -128 292 -128q178 0 290 127q114 128 114 383zM452 1916h315l138 -299h-177z" />
    <glyph glyph-name="Oacute" unicode="&#xd3;" horiz-adv-x="1707" 
d="M89 724q0 199 49.5 334.5t153.5 242.5q94 95 215 142.5t291 47.5q324 0 518 -201q195 -201 195 -559q0 -357 -193 -556q-194 -200 -516 -200q-327 0 -520 199t-193 550zM1205 738q0 231 -101.5 365.5t-302.5 134.5q-183 0 -295 -126q-112 -124 -112 -378q0 -251 115 -378
q116 -128 292 -128q178 0 290 127q114 128 114 383zM1093 1828l-275 -299h-178l138 299h315z" />
    <glyph glyph-name="Ocircumflex" unicode="&#xd4;" horiz-adv-x="1707" 
d="M89 724q0 199 49.5 334.5t153.5 242.5q94 95 215 142.5t291 47.5q324 0 518 -201q195 -201 195 -559q0 -357 -193 -556q-194 -200 -516 -200q-327 0 -520 199t-193 550zM1205 738q0 231 -101.5 365.5t-302.5 134.5q-183 0 -295 -126q-112 -124 -112 -378q0 -251 115 -378
q116 -128 292 -128q178 0 290 127q114 128 114 383zM905 1838l207 -295h-226l-116 149l-108 -149h-227l210 295h260z" />
    <glyph glyph-name="Otilde" unicode="&#xd5;" horiz-adv-x="1707" 
d="M89 724q0 199 49.5 334.5t153.5 242.5q94 95 215 142.5t291 47.5q324 0 518 -201q195 -201 195 -559q0 -357 -193 -556q-194 -200 -516 -200q-327 0 -520 199t-193 550zM1205 738q0 231 -101.5 365.5t-302.5 134.5q-183 0 -295 -126q-112 -124 -112 -378q0 -251 115 -378
q116 -128 292 -128q178 0 290 127q114 128 114 383zM686 1742q-36 0 -56 -25t-20 -64v-6h-133v5q0 97 56 160t147 63q62 0 169 -54q58 -30 94 -30q38 0 52 20t21 67h130q-3 -104 -53.5 -166t-142.5 -62q-62 0 -166 56q-68 36 -98 36z" />
    <glyph glyph-name="Odieresis" unicode="&#xd6;" horiz-adv-x="1614" 
d="M89 724q0 199 49.5 334.5t153.5 242.5q94 95 215 142.5t291 47.5q324 0 518 -201q195 -201 195 -559q0 -357 -193 -556q-194 -200 -516 -200q-327 0 -520 199t-193 550zM1205 738q0 231 -101.5 365.5t-302.5 134.5q-183 0 -295 -126q-112 -124 -112 -378q0 -251 115 -378
q116 -128 292 -128q178 0 290 127q114 128 114 383zM652 1795v-241h-241v241h241zM1083 1795v-241h-242v241h242z" />
    <glyph glyph-name="multiply" unicode="&#xd7;" horiz-adv-x="1215" 
d="M109 1025l186 186l304 -303l302 302l181 -182l-302 -302l305 -305l-186 -186l-305 305l-302 -302l-181 182l302 302z" />
    <glyph glyph-name="Oslash" unicode="&#xd8;" horiz-adv-x="1669" 
d="M1369 1226q66 -91 103.5 -221t37.5 -280q0 -351 -193 -550q-194 -200 -510 -200q-273 0 -440 125l-162 -182l-142 124l171 192q-146 197 -146 508q0 349 193 548q193 201 515 201q268 0 443 -132l158 177l139 -122zM1055 1153q-101 86 -256 86q-181 0 -294 -126
q-112 -124 -112 -378q0 -165 46 -272zM549 305q103 -90 248 -90q178 0 292 129q115 127 115 385q0 168 -40 267z" />
    <glyph glyph-name="Ugrave" unicode="&#xd9;" horiz-adv-x="1522" 
d="M443 672q0 -177 11 -245q21 -96 94.5 -147.5t191.5 -51.5q112 0 181.5 45.5t85.5 132.5q13 68 13 249v811h296v-770q0 -264 -24 -373q-25 -111 -90 -184.5t-171 -119.5q-114 -44 -282 -44q-209 0 -319 48q-97 44 -164.5 118t-89.5 171q-29 136 -29 372v782h296v-794z
M428 1941h315l138 -299h-177z" />
    <glyph glyph-name="Uacute" unicode="&#xda;" horiz-adv-x="1522" 
d="M443 672q0 -177 11 -245q21 -96 94.5 -147.5t191.5 -51.5q112 0 181.5 45.5t85.5 132.5q13 68 13 249v811h296v-770q0 -264 -24 -373q-25 -111 -90 -184.5t-171 -119.5q-114 -44 -282 -44q-209 0 -319 48q-97 44 -164.5 118t-89.5 171q-29 136 -29 372v782h296v-794z
M1025 1837l-275 -299h-178l138 299h315z" />
    <glyph glyph-name="Ucircumflex" unicode="&#xdb;" horiz-adv-x="1522" 
d="M443 672q0 -177 11 -245q21 -96 94.5 -147.5t191.5 -51.5q112 0 181.5 45.5t85.5 132.5q13 68 13 249v811h296v-770q0 -264 -24 -373q-25 -111 -90 -184.5t-171 -119.5q-114 -44 -282 -44q-209 0 -319 48q-97 44 -164.5 118t-89.5 171q-29 136 -29 372v782h296v-794z
M892 1942l207 -295h-226l-116 149l-108 -149h-227l210 295h260z" />
    <glyph glyph-name="Udieresis" unicode="&#xdc;" horiz-adv-x="1522" 
d="M443 672q0 -177 11 -245q21 -96 94.5 -147.5t191.5 -51.5q112 0 181.5 45.5t85.5 132.5q13 68 13 249v811h296v-770q0 -264 -24 -373q-25 -111 -90 -184.5t-171 -119.5q-114 -44 -282 -44q-209 0 -319 48q-97 44 -164.5 118t-89.5 171q-29 136 -29 372v782h296v-794z
M635 1746v-241h-241v241h241zM1066 1746v-241h-242v241h242z" />
    <glyph glyph-name="Yacute" unicode="&#xdd;" horiz-adv-x="1394" 
d="M-3 1466h347l345 -580l338 580h341l-539 -851v-615h-295v617zM941 1833l-275 -299h-178l138 299h315z" />
    <glyph glyph-name="Thorn" unicode="&#xde;" horiz-adv-x="1390" 
d="M445 1466v-276h179q277 0 353 -22q124 -34 210 -145q85 -109 85 -285v-10q0 -136 -57.5 -234t-153.5 -152q-55 -31 -116 -44q-98 -22 -307 -22h-193v-276h-296v1466h296zM607 525q55 0 86.5 1t73 5t66.5 12.5t51.5 23.5t43.5 38.5t28 55.5t11 76q0 65 -34.5 116.5
t-84.5 70.5q-49 18 -260 18h-143v-417h162z" />
    <glyph glyph-name="germandbls" unicode="&#xdf;" horiz-adv-x="1316" 
d="M695 1165q0 47 -35 76.5t-86 29.5q-52 0 -87.5 -25.5t-48.5 -67.5q-18 -56 -18 -226v-952h-281v952q0 200 34 303.5t139 169.5q102 66 265 66q205 0 305 -87q101 -87 101 -216q0 -87 -55 -187q-50 -92 -62 -121q-8 -29 -8 -38q0 -23 11 -45.5t20 -33t33 -35.5l81 -83
q105 -107 140 -178q36 -73 36 -151q0 -147 -102 -243.5t-253 -96.5q-106 0 -193 55t-131 134l196 115q43 -79 104 -79q42 0 70 29.5t28 73.5q0 26 -11 50.5t-23.5 39t-37.5 39.5q-34 35 -96 93q-169 162 -169 255q0 53 65 194q51 103 60 132t9 58z" />
    <glyph glyph-name="agrave" unicode="&#xe0;" horiz-adv-x="1205" 
d="M542 871q-79 0 -120 -32.5t-65 -100.5l-255 46q45 159 152 230.5t308 71.5q188 0 280 -45q92 -44 129 -113q38 -68 38 -251l-3 -328q0 -151 13 -207q14 -66 51 -142h-278q-1 2 -11.5 33.5t-15.5 49.5l-10 33q-146 -140 -329 -140q-155 0 -254 85t-99 229q0 94 45 163
t118 105q78 37 224 66q196 38 273 69v28q0 87 -44 118.5t-147 31.5zM354 319q0 -61 45.5 -103t110.5 -42q69 0 131.5 42t80.5 101q11 42 11 137v56q-38 -13 -136 -35t-133 -33q-110 -35 -110 -123zM253 1497h315l138 -299h-177z" />
    <glyph glyph-name="aacute" unicode="&#xe1;" horiz-adv-x="1205" 
d="M542 871q-79 0 -120 -32.5t-65 -100.5l-255 46q45 159 152 230.5t308 71.5q188 0 280 -45q92 -44 129 -113q38 -68 38 -251l-3 -328q0 -151 13 -207q14 -66 51 -142h-278q-1 2 -11.5 33.5t-15.5 49.5l-10 33q-146 -140 -329 -140q-155 0 -254 85t-99 229q0 94 45 163
t118 105q78 37 224 66q196 38 273 69v28q0 87 -44 118.5t-147 31.5zM354 319q0 -61 45.5 -103t110.5 -42q69 0 131.5 42t80.5 101q11 42 11 137v56q-38 -13 -136 -35t-133 -33q-110 -35 -110 -123zM836 1491l-275 -299h-178l138 299h315z" />
    <glyph glyph-name="acircumflex" unicode="&#xe2;" horiz-adv-x="1205" 
d="M542 871q-79 0 -120 -32.5t-65 -100.5l-255 46q45 159 152 230.5t308 71.5q188 0 280 -45q92 -44 129 -113q38 -68 38 -251l-3 -328q0 -151 13 -207q14 -66 51 -142h-278q-1 2 -11.5 33.5t-15.5 49.5l-10 33q-146 -140 -329 -140q-155 0 -254 85t-99 229q0 94 45 163
t118 105q78 37 224 66q196 38 273 69v28q0 87 -44 118.5t-147 31.5zM354 319q0 -61 45.5 -103t110.5 -42q69 0 131.5 42t80.5 101q11 42 11 137v56q-38 -13 -136 -35t-133 -33q-110 -35 -110 -123zM734 1491l207 -295h-226l-116 149l-108 -149h-227l210 295h260z" />
    <glyph glyph-name="atilde" unicode="&#xe3;" horiz-adv-x="1205" 
d="M542 871q-79 0 -120 -32.5t-65 -100.5l-255 46q45 159 152 230.5t308 71.5q188 0 280 -45q92 -44 129 -113q38 -68 38 -251l-3 -328q0 -151 13 -207q14 -66 51 -142h-278q-1 2 -11.5 33.5t-15.5 49.5l-10 33q-146 -140 -329 -140q-155 0 -254 85t-99 229q0 94 45 163
t118 105q78 37 224 66q196 38 273 69v28q0 87 -44 118.5t-147 31.5zM354 319q0 -61 45.5 -103t110.5 -42q69 0 131.5 42t80.5 101q11 42 11 137v56q-38 -13 -136 -35t-133 -33q-110 -35 -110 -123zM477 1314q-36 0 -56 -25t-20 -64v-6h-133v5q0 97 56 160t147 63
q63 0 169 -54q58 -30 94 -30q38 0 52 20t21 67h130q-3 -104 -53.5 -166t-142.5 -62q-62 0 -166 56q-67 36 -98 36z" />
    <glyph glyph-name="adieresis" unicode="&#xe4;" horiz-adv-x="1205" 
d="M542 871q-79 0 -120 -32.5t-65 -100.5l-255 46q45 159 152 230.5t308 71.5q188 0 280 -45q92 -44 129 -113q38 -68 38 -251l-3 -328q0 -151 13 -207q14 -66 51 -142h-278q-1 2 -11.5 33.5t-15.5 49.5l-10 33q-146 -140 -329 -140q-155 0 -254 85t-99 229q0 94 45 163
t118 105q78 37 224 66q196 38 273 69v28q0 87 -44 118.5t-147 31.5zM354 319q0 -61 45.5 -103t110.5 -42q69 0 131.5 42t80.5 101q11 42 11 137v56q-38 -13 -136 -35t-133 -33q-110 -35 -110 -123zM507 1491v-241h-241v241h241zM938 1491v-241h-242v241h242z" />
    <glyph glyph-name="aring" unicode="&#xe5;" horiz-adv-x="1205" 
d="M599 1162q-76 0 -128.5 55t-52.5 132q0 72 54 125.5t126 53.5q74 0 127 -54t53 -129t-52.5 -129t-126.5 -54zM600 1455q-43 0 -74.5 -32t-31.5 -75q0 -46 30.5 -78.5t75.5 -32.5q43 0 74.5 32.5t31.5 76.5q0 45 -31 77t-75 32zM542 871q-79 0 -120 -32.5t-65 -100.5
l-255 46q45 159 152 230.5t308 71.5q188 0 280 -45q92 -44 129 -113q38 -68 38 -251l-3 -328q0 -151 13 -207q14 -66 51 -142h-278q-1 2 -11.5 33.5t-15.5 49.5l-10 33q-146 -140 -329 -140q-155 0 -254 85t-99 229q0 94 45 163t118 105q78 37 224 66q196 38 273 69v28
q0 87 -44 118.5t-147 31.5zM354 319q0 -61 45.5 -103t110.5 -42q69 0 131.5 42t80.5 101q11 42 11 137v56q-38 -13 -136 -35t-133 -33q-110 -35 -110 -123z" />
    <glyph glyph-name="ae" unicode="&#xe6;" horiz-adv-x="1861" 
d="M567 871q-82 0 -128.5 -32.5t-65.5 -100.5l-255 49q49 153 157 226q106 73 328 73q209 0 325 -98q122 98 289 98q311 0 444 -267q63 -127 63 -360v-11h-706q18 -135 76 -196q59 -62 145 -62q144 0 197 149l275 -49q-55 -156 -167 -235t-302 -79q-224 0 -379 146
q-69 -61 -184 -103.5t-231 -42.5q-160 0 -260 83.5t-100 228.5q0 77 32.5 141.5t81.5 100.5q48 36 133 62q9 3 186.5 43.5t220.5 54.5v28q0 81 -43 117t-132 36zM1447 624q-6 88 -27 136t-72 80q-49 31 -119 31q-121 0 -174 -110q-32 -72 -32 -127v-10h424zM369 314
q0 -62 45 -101t112 -39t126 38.5t74 95.5q14 61 14 200l-180 -48q-98 -26 -126 -42q-23 -13 -38 -31q-27 -31 -27 -73z" />
    <glyph glyph-name="ccedilla" unicode="&#xe7;" horiz-adv-x="1119" 
d="M796 698q-26 167 -192 167q-230 0 -230 -315q0 -189 63 -267q65 -78 171 -78q92 0 138 51t65 151l276 -47q-39 -174 -144.5 -271t-287.5 -111q75 -17 119.5 -63t44.5 -116q0 -87 -72 -143q-97 -75 -278 -75q-135 0 -195 16v118q141 -11 189 -11q71 0 118 22t47 72
q0 43 -35 63.5t-92 20.5t-131 -20l26 99q41 15 98 23q-194 31 -301.5 176.5t-107.5 369.5q0 255 136.5 405.5t378.5 150.5q197 0 310.5 -85.5t162.5 -252.5z" />
    <glyph glyph-name="egrave" unicode="&#xe8;" horiz-adv-x="1194" 
d="M583 186q137 0 179 152l280 -47q-108 -315 -462 -315q-277 0 -410 181q-105 145 -105 366q0 264 138 413q138 150 349 150q169 0 283.5 -76.5t168 -211t53.5 -322.5v-26h-704q3 -116 64 -190t166 -74zM569 871q-96 0 -153.5 -69.5t-57.5 -174.5v-5h420
q-2 110 -57.5 179.5t-151.5 69.5zM209 1467h315l138 -299h-177z" />
    <glyph glyph-name="eacute" unicode="&#xe9;" horiz-adv-x="1194" 
d="M583 186q137 0 179 152l280 -47q-108 -315 -462 -315q-277 0 -410 181q-105 145 -105 366q0 264 138 413q138 150 349 150q169 0 283.5 -76.5t168 -211t53.5 -322.5v-26h-704q3 -116 64 -190t166 -74zM569 871q-96 0 -153.5 -69.5t-57.5 -174.5v-5h420
q-2 110 -57.5 179.5t-151.5 69.5zM830 1491l-275 -299h-178l138 299h315z" />
    <glyph glyph-name="ecircumflex" unicode="&#xea;" horiz-adv-x="1194" 
d="M583 186q137 0 179 152l280 -47q-108 -315 -462 -315q-277 0 -410 181q-105 145 -105 366q0 264 138 413q138 150 349 150q169 0 283.5 -76.5t168 -211t53.5 -322.5v-26h-704q3 -116 64 -190t166 -74zM569 871q-96 0 -153.5 -69.5t-57.5 -174.5v-5h420
q-2 110 -57.5 179.5t-151.5 69.5zM728 1491l207 -295h-226l-116 149l-108 -149h-227l210 295h260z" />
    <glyph glyph-name="edieresis" unicode="&#xeb;" horiz-adv-x="1194" 
d="M583 186q137 0 179 152l280 -47q-108 -315 -462 -315q-277 0 -410 181q-105 145 -105 366q0 264 138 413q138 150 349 150q169 0 283.5 -76.5t168 -211t53.5 -322.5v-26h-704q3 -116 64 -190t166 -74zM569 871q-96 0 -153.5 -69.5t-57.5 -174.5v-5h420
q-2 110 -57.5 179.5t-151.5 69.5zM501 1491v-241h-241v241h241zM932 1491v-241h-242v241h242z" />
    <glyph glyph-name="igrave" unicode="&#xec;" horiz-adv-x="515" 
d="M428 1062v-1062h-281v1062h281zM-54 1491h315l138 -299h-177z" />
    <glyph glyph-name="iacute" unicode="&#xed;" horiz-adv-x="547" 
d="M428 1062v-1062h-281v1062h281zM584 1482l-275 -299h-178l138 299h315z" />
    <glyph glyph-name="icircumflex" unicode="&#xee;" horiz-adv-x="574" 
d="M428 1062v-1062h-281v1062h281zM419 1487l207 -295h-226l-116 149l-108 -149h-227l210 295h260z" />
    <glyph glyph-name="idieresis" unicode="&#xef;" horiz-adv-x="492" 
d="M409 1062v-1062h-281v1062h281zM164 1421v-241h-241v241h241zM595 1421v-241h-242v241h242z" />
    <glyph glyph-name="eth" unicode="&#xf0;" horiz-adv-x="1229" 
d="M771 993q-41 73 -68 113.5t-78 103.5l-250 -119l-43 96l218 103q-112 102 -218 176h293q74 -58 109 -89l181 89l45 -98l-144 -67q192 -194 275 -388q84 -194 84 -367q0 -258 -154 -415q-155 -156 -398 -156q-235 0 -388 155q-152 158 -152 403q0 243 162 399
q133 130 304 130q45 0 89 -12t64 -21.5t69 -35.5zM624 841q-115 0 -181.5 -88.5t-66.5 -222.5q0 -142 65.5 -234t184.5 -92q118 0 187.5 90.5t69.5 225.5t-71 228t-188 93z" />
    <glyph glyph-name="ntilde" unicode="&#xf1;" horiz-adv-x="1117" 
d="M832 542q0 172 -18 222q-17 49 -57 78t-99 29q-76 0 -133 -41t-78 -105q-21 -66 -21 -244v-481h-281v1062h261v-156q140 180 350 180q137 0 226 -62.5t115 -174.5q16 -60 16 -189v-660h-281v542zM433 1314q-36 0 -56 -25t-20 -64v-6h-133v5q0 97 56 160t147 63
q63 0 169 -54q58 -30 94 -30q38 0 52 20t21 67h130q-3 -104 -53.5 -166t-142.5 -62q-62 0 -166 56q-67 36 -98 36z" />
    <glyph glyph-name="ograve" unicode="&#xf2;" horiz-adv-x="1223" 
d="M82 546q0 154 75 281t189 190q128 69 283 69q241 0 395 -157q154 -154 154 -395t-156 -400q-155 -158 -391 -158q-145 0 -279 66q-270 134 -270 504zM630 857q-123 0 -191.5 -91.5t-68.5 -234.5t68.5 -234.5t191.5 -91.5t191 92t68 236q0 141 -68.5 232.5t-190.5 91.5z
M376 1491h315l138 -299h-177z" />
    <glyph glyph-name="oacute" unicode="&#xf3;" horiz-adv-x="1223" 
d="M82 546q0 154 75 281t189 190q128 69 283 69q241 0 395 -157q154 -154 154 -395t-156 -400q-155 -158 -391 -158q-145 0 -279 66q-270 134 -270 504zM630 857q-123 0 -191.5 -91.5t-68.5 -234.5t68.5 -234.5t191.5 -91.5t191 92t68 236q0 141 -68.5 232.5t-190.5 91.5z
M901 1491l-275 -299h-178l138 299h315z" />
    <glyph glyph-name="ocircumflex" unicode="&#xf4;" horiz-adv-x="1223" 
d="M82 546q0 154 75 281t189 190q128 69 283 69q241 0 395 -157q154 -154 154 -395t-156 -400q-155 -158 -391 -158q-145 0 -279 66q-270 134 -270 504zM630 857q-123 0 -191.5 -91.5t-68.5 -234.5t68.5 -234.5t191.5 -91.5t191 92t68 236q0 141 -68.5 232.5t-190.5 91.5z
M743 1491l207 -295h-226l-116 149l-108 -149h-227l210 295h260z" />
    <glyph glyph-name="otilde" unicode="&#xf5;" horiz-adv-x="1223" 
d="M82 546q0 154 75 281t189 190q128 69 283 69q241 0 395 -157q154 -154 154 -395t-156 -400q-155 -158 -391 -158q-145 0 -279 66q-270 134 -270 504zM630 857q-123 0 -191.5 -91.5t-68.5 -234.5t68.5 -234.5t191.5 -91.5t191 92t68 236q0 141 -68.5 232.5t-190.5 91.5z
M398 1295q-36 0 -56 -25t-20 -64v-6h-133v5q0 97 56 160t147 63q63 0 169 -54q58 -30 94 -30q38 0 52 20t21 67h130q-3 -104 -53.5 -166t-142.5 -62q-62 0 -166 56q-68 36 -98 36z" />
    <glyph glyph-name="odieresis" unicode="&#xf6;" horiz-adv-x="1223" 
d="M82 546q0 154 75 281t189 190q128 69 283 69q241 0 395 -157q154 -154 154 -395t-156 -400q-155 -158 -391 -158q-145 0 -279 66q-270 134 -270 504zM630 857q-123 0 -191.5 -91.5t-68.5 -234.5t68.5 -234.5t191.5 -91.5t191 92t68 236q0 141 -68.5 232.5t-190.5 91.5z
M451 1398v-241h-241v241h241zM882 1398v-241h-242v241h242z" />
    <glyph glyph-name="divide" unicode="&#xf7;" horiz-adv-x="1150" 
d="M702 1262v-281h-281v281h281zM1074 855v-263h-1025v263h1025zM702 466v-281h-281v281h281z" />
    <glyph glyph-name="oslash" unicode="&#xf8;" horiz-adv-x="1223" 
d="M216 156q-129 155 -129 381q0 239 153 394q155 155 394 155q178 0 312 -87l104 120l112 -92l-108 -124q129 -156 129 -373q0 -239 -157 -396q-158 -158 -394 -158q-172 0 -307 84l-115 -133l-110 95zM636 871q-125 0 -197.5 -94t-72.5 -237q0 -104 28 -178l394 455
q-67 54 -152 54zM633 194q126 0 198.5 93t72.5 236q0 94 -30 172l-392 -453q66 -48 151 -48z" />
    <glyph glyph-name="ugrave" unicode="&#xf9;" horiz-adv-x="1150" 
d="M846 159q-54 -79 -147.5 -131t-204.5 -52q-110 0 -194.5 49t-120.5 130q-38 91 -38 235v672h281v-488q0 -224 15 -275q35 -109 161 -109q72 0 129 40t78 97q21 58 21 287v448h281v-1062h-261v159zM215 1491h315l138 -299h-177z" />
    <glyph glyph-name="uacute" unicode="&#xfa;" horiz-adv-x="1150" 
d="M846 159q-54 -79 -147.5 -131t-204.5 -52q-110 0 -194.5 49t-120.5 130q-38 91 -38 235v672h281v-488q0 -224 15 -275q35 -109 161 -109q72 0 129 40t78 97q21 58 21 287v448h281v-1062h-261v159zM808 1491l-275 -299h-178l138 299h315z" />
    <glyph glyph-name="ucircumflex" unicode="&#xfb;" horiz-adv-x="1150" 
d="M846 159q-54 -79 -147.5 -131t-204.5 -52q-110 0 -194.5 49t-120.5 130q-38 91 -38 235v672h281v-488q0 -224 15 -275q35 -109 161 -109q72 0 129 40t78 97q21 58 21 287v448h281v-1062h-261v159zM706 1491l207 -295h-226l-116 149l-108 -149h-227l210 295h260z" />
    <glyph glyph-name="udieresis" unicode="&#xfc;" horiz-adv-x="1150" 
d="M846 159q-54 -79 -147.5 -131t-204.5 -52q-110 0 -194.5 49t-120.5 130q-38 91 -38 235v672h281v-488q0 -224 15 -275q35 -109 161 -109q72 0 129 40t78 97q21 58 21 287v448h281v-1062h-261v159zM479 1402v-241h-241v241h241zM910 1402v-241h-242v241h242z" />
    <glyph glyph-name="yacute" unicode="&#xfd;" horiz-adv-x="1058" 
d="M82 -194q53 -13 119 -13q99 0 145 58q46 57 72 146l-404 1065h299l254 -754l248 754h291l-196 -534l-246 -673q-23 -56 -42.5 -92.5t-49 -75t-69.5 -63t-93 -38.5q-65 -17 -144 -17q-71 0 -159 17zM799 1448l-275 -299h-178l138 299h315z" />
    <glyph glyph-name="thorn" unicode="&#xfe;" horiz-adv-x="1177" 
d="M607 1086q109 0 196 -43t142 -118t83.5 -173.5t28.5 -212.5q0 -165 -61 -296t-168 -198q-111 -69 -233 -69q-83 0 -154 33q-54 26 -126 101v-517h-180v1873h180v-516q73 76 128 102q67 34 164 34zM298 525q0 -205 83 -303t201 -98q119 0 205 101q86 104 86 315
q0 204 -84 304q-83 101 -199 101t-204 -108q-88 -106 -88 -312z" />
    <glyph glyph-name="ydieresis" unicode="&#xff;" horiz-adv-x="1058" 
d="M82 -194q53 -13 119 -13q99 0 145 58q46 57 72 146l-404 1065h299l254 -754l248 754h291l-196 -534l-246 -673q-23 -56 -42.5 -92.5t-49 -75t-69.5 -63t-93 -38.5q-65 -17 -144 -17q-71 0 -159 17zM433 1412v-241h-241v241h241zM864 1412v-241h-242v241h242z" />
    <glyph glyph-name="OE" unicode="&#x152;" horiz-adv-x="2074" 
d="M644 1491q127 0 231 -52t167 -135v162h915v-248h-658v-326h602v-248h-602v-395h686v-249h-943v173q-116 -198 -384 -198q-151 0 -265.5 58.5t-183.5 163.5t-103 240t-34 298q0 379 175 581q150 175 397 175zM701 1238q-148 0 -236 -109t-88 -372q0 -297 99 -425
q75 -97 225 -97q181 0 252 137q72 138 72 379q0 269 -88 378q-87 109 -236 109z" />
    <glyph glyph-name="oe" unicode="&#x153;" horiz-adv-x="1986" 
d="M1374 190q75 0 119 39t69 112l274 -44q-48 -148 -166.5 -234.5t-296.5 -86.5q-233 0 -374 148q-157 -148 -373 -148q-233 0 -386 155q-152 158 -152 398q0 143 65 284q62 126 185.5 199.5t292.5 73.5q223 0 371 -148q138 148 354 148q100 0 185 -33t142 -87
q166 -149 166 -504v-14h-699q8 -116 63 -187t161 -71zM1579 624q-8 116 -60.5 185.5t-157.5 69.5q-186 0 -208 -255h426zM873 540q0 135 -64.5 224t-180.5 89q-110 0 -181 -83q-70 -82 -70 -255q0 -107 63 -207q64 -99 188 -99q120 0 182.5 92t62.5 239z" />
    <glyph glyph-name="Scaron" unicode="&#x160;" horiz-adv-x="1394" 
d="M982 1807l-225 -280h-192l-216 280h206l113 -170l110 170h204zM659 1246q-46 0 -88 -7.5t-79.5 -23.5t-59.5 -45t-22 -68q0 -51 44 -89q56 -47 272 -98q70 -16 119.5 -30t110.5 -36t102 -46.5t83.5 -61.5t67.5 -80.5t41 -103t16 -130.5q0 -138 -76 -246t-191 -155
q-126 -52 -320 -52q-547 0 -605 503l288 28q24 -138 101 -209.5t219 -71.5q143 0 215 60q73 61 73 142q0 41 -14 70t-51.5 49.5t-58.5 28t-78 23.5l-20 6q-64 18 -152 39q-238 59 -334 145q-135 121 -135 295q0 112 63 209q129 200 472 200q256 0 405 -112.5t157 -331.5
l-296 -13q-17 110 -81 161t-188 51z" />
    <glyph glyph-name="scaron" unicode="&#x161;" horiz-adv-x="1025" 
d="M833 1454l-225 -280h-192l-216 280h206l113 -170l110 170h204zM739 756q-34 128 -200 128q-113 0 -159 -31q-32 -23 -32 -57q0 -30 28 -51q35 -26 262 -79q225 -51 314 -125q88 -75 88 -209q0 -146 -122 -251t-361 -105q-207 0 -337 83t-172 244l282 43q36 -167 227 -167
q201 0 201 115q0 23 -7 38t-25.5 25t-34 14.5t-47.5 12.5q-337 73 -431 137q-126 85 -126 239q0 138 109 232t338 94q217 0 324 -71q106 -71 146 -210z" />
    <glyph glyph-name="Ydieresis" unicode="&#x178;" horiz-adv-x="1394" 
d="M567 1765v-205h-188v205h188zM940 1765v-205h-188v205h188zM-3 1466h347l345 -580l338 580h341l-539 -851v-615h-295v617z" />
    <glyph glyph-name="Zcaron" unicode="&#x17d;" horiz-adv-x="1281" 
d="M935 1801l-225 -280h-192l-216 280h206l113 -170l110 170h204zM792 1218h-683v248h1073v-230l-803 -989h834v-247h-1191v267z" />
    <glyph glyph-name="zcaron" unicode="&#x17e;" horiz-adv-x="1067" 
d="M841 1454l-225 -280h-192l-216 280h206l113 -170l110 170h204zM402 240q101 7 145 7h435v-247h-948v219l398 457q91 105 145 159q-51 -3 -57 -3q-45 0 -72 -1l-375 -2v233h878v-199l-171 -197.5l-202 -232.5z" />
    <glyph glyph-name="florin" unicode="&#x192;" horiz-adv-x="1182" 
d="M37 -170q121 -23 167 -23q61 0 87 38q20 29 37 133l150 873h-202l36 211h202l16 89q29 153 48 196q37 76 107.5 110t189.5 34q129 0 267 -41l-54 -226q-88 28 -158 28q-64 0 -86 -28.5t-37 -105.5l-11 -56h208l-37 -211h-205l-173 -978q-19 -113 -49.5 -172t-100.5 -97
q-65 -35 -179 -35q-161 0 -280 40z" />
    <glyph glyph-name="circumflex" unicode="&#x2c6;" horiz-adv-x="677" 
d="M473 1491l207 -295h-226l-116 149l-108 -149h-227l210 295h260z" />
    <glyph glyph-name="tilde" unicode="&#x2dc;" horiz-adv-x="700" 
d="M216 1314q-36 0 -56 -25t-20 -64v-6h-133v5q0 97 56 160t147 63q62 0 169 -54q59 -30 94 -30q38 0 52 20t21 67h130q-3 -104 -53.5 -166t-142.5 -62q-62 0 -166 56q-67 36 -98 36z" />
    <glyph glyph-name="uni060C" unicode="&#x60c;" horiz-adv-x="609" 
d="M265 -44q-107 0 -172 77.5t-65 194.5q0 256 284 459q23 -16 51.5 -38.5l62.5 -49.5l50 -40q-81 -60 -133 -115q-53 -56 -72 -100q18 2 28 2q79 0 126.5 -57t55.5 -138v-2q0 -61 -51 -121q-64 -72 -165 -72z" />
    <glyph glyph-name="uni0615" unicode="&#x615;" 
d="M-158 1010q59 -23 117 -40l13 21l24 33q11 95 11 121q0 159 -29 323q-4 22 -5 33l146 40q3 -50 17 -171t16 -190q84 63 162 78q16 3 33 3q110 0 174 -90q29 -39 29 -90q0 -20 -4 -37q-28 -120 -132.5 -182t-257.5 -62h-30q-134 0 -338 76zM131 946q85 0 164 19t124 54
q26 28 26 52q0 20 -28 32.5t-60 12.5q-33 0 -70 -16t-57 -30t-52 -40q-41 -33 -61 -57l-23 -27h37z" />
    <glyph glyph-name="uni061B" unicode="&#x61b;" horiz-adv-x="512" 
d="M265 295q69 0 119.5 -51t50.5 -119q0 -67 -51 -117.5t-119 -50.5q-70 0 -120 49t-50 119t50 120t120 50zM292 798q81 0 126 -53t51 -137q0 -62 -35 -109t-87 -69q-36 -15 -75 -15q-105 0 -172 78t-67 194q0 260 232 408l149 -142q-70 -44 -105 -79q-37 -37 -47 -78
q20 2 30 2z" />
    <glyph glyph-name="uni061F" unicode="&#x61f;" horiz-adv-x="1024" 
d="M408 419v35q0 114 -10 172q-4 24 -13.5 38t-32.5 37q-31 31 -74 63q-88 78 -144 138q-67 73 -102.5 137t-35.5 151q0 178 148 315q149 131 383 131q237 0 363 -129v1q119 -119 119 -324v-25l-270 -30q-3 149 -67 206q-63 57 -157 57q-76 0 -134.5 -28.5t-88.5 -78.5
q-24 -39 -25 -88v-6q0 -44 41 -95q35 -43 138 -126.5t122 -101.5q62 -58 88 -114.5t26 -152.5v-182h-274zM561 -154l-222 222l222 222l222 -222z" />
    <glyph glyph-name="uni0640" unicode="&#x640;" horiz-adv-x="907" 
d="M-163 98q0 68 47 113t116 45h908q100 0 146 -96q13 -27 13 -62q0 -68 -45.5 -113t-113.5 -45h-909q-52 0 -91 27.5t-58 68.5q-13 27 -13 62z" />
    <glyph glyph-name="uni064B" unicode="&#x64b;" 
d="M-26 1245l482 191v-168l-482 -200v177zM-26 1531l482 191v-168l-482 -200v177z" />
    <glyph glyph-name="uni064C" unicode="&#x64c;" 
d="M56 1270q0 17 -8.5 33t-24.5 16q-23 0 -59.5 -18.5t-50.5 -29.5l-78 88q81 81 165 81h7q43 -2 78.5 -20t50.5 -48q22 -44 22 -76q0 -18 -15 -61q85 28 140 58q-77 42 -109 89q-33 48 -33 90q0 63 49 116q69 75 154 75q79 0 125.5 -59.5t46.5 -146.5q0 -36 -13 -99
q21 -9 29 -15l-41 -128l-58 16q-119 -106 -344 -151l-30 -6l-59 83l16 23l19.5 28.5t14 29t6.5 32.5zM380 1450q0 33 -16.5 56.5t-42.5 23.5q-17 0 -41.5 -14t-24.5 -28q0 -4 3 -8q16 -20 73 -51l-1 1l46 -23l3 21q1 7 1 22z" />
    <glyph glyph-name="uni064D" unicode="&#x64d;" 
d="M-21 -574l482 191v-168l-482 -200v177zM-21 -288l482 191v-168l-482 -200v177z" />
    <glyph glyph-name="uni064E" unicode="&#x64e;" 
d="M-45 1381l482 191v-168l-482 -200v177z" />
    <glyph glyph-name="uni064F" unicode="&#x64f;" 
d="M382 1200q-47 9 -62 16q-113 -94 -323 -165l-40 -10l-40 140l63 19.5l74.5 23.5t58 21.5t62.5 28.5l-27 11q-116 59 -116 171q0 65 43 113t103 67q32 10 57 10q71 0 124 -62q48 -57 48 -146q0 -40 -11 -91l29 -6zM279 1392q0 45 -17.5 80.5t-49.5 44.5q-20 0 -41 -16
t-28 -33q2 -5 6 -9.5t11 -10t12.5 -9l14 -8.5t11.5 -7q51 -32 81 -45q1 3 1 6v3q-1 2 -1 4z" />
    <glyph glyph-name="uni0650" unicode="&#x650;" 
d="M-21 -400l482 191v-168l-482 -200v177z" />
    <glyph glyph-name="uni0651" unicode="&#x651;" 
d="M271 1159q-52 -52 -127 -52q-89 4 -140 48.5t-51 129.5q0 104 43 175l120 -63q-31 -58 -31 -110q0 -18 12.5 -28.5t32.5 -10.5q10 0 18.5 2.5t14.5 8.5t10.5 12t7.5 16t5 17.5t3.5 20.5t2 20.5l1.5 21.5t1 20l100 38q14 -103 45 -138q19 -21 41 -21q21 2 39 13.5t18 28.5
q0 32 -35 86q-30 47 -64 84l123 85q56 -79 89 -172q14 -40 14 -75q0 -58 -33.5 -104.5t-81.5 -71.5q-35 -18 -71 -18q-62 0 -107 37z" />
    <glyph glyph-name="uni0652" unicode="&#x652;" 
d="M246 1236q38 0 68.5 29t30.5 65q0 35 -31 62.5t-68 27.5q-31 0 -57 -18.5t-39 -42.5q-8 -15 -8 -29q0 -36 33 -65t71 -29zM240 1579h12q87 0 156 -79t69 -170q0 -75 -41 -135.5t-101 -92.5q-41 -22 -89 -22q-75 0 -131 47t-83 113q-18 45 -18 90q0 77 41 136.5t101 91.5
q39 21 84 21z" />
    <glyph glyph-name="uni0653" unicode="&#x653;" 
d="M62 1375q-17 0 -31.5 -3t-26 -11.5l-18.5 -14t-15.5 -21t-11.5 -21.5t-11 -26l-10 -25l-167 53q0 13 7 30t18 37.5t13 26.5q26 57 78.5 100.5t113.5 56.5q21 3 25 3h24q69 0 157 -37l31 -15q49 -22 71 -22q19 0 32 8q42 23 95 97l156 -101q-22 -44 -84 -102
q-95 -91 -198 -91h-14l-57 13q-89 42 -134 58q-20 7 -43 7z" />
    <glyph glyph-name="uni0654" unicode="&#x654;" 
d="M125 1504q-104 78 -104 195q0 102 91 183q67 59 170 59q64 0 140 -21l-45 -138q-75 10 -97 10q-44 0 -81 -21t-51 -53q-10 -21 -1 -46q13 -28 45.5 -46t71.5 -18q23 0 47 8q62 19 146 79l30 21l62 -146l-101 -61.5l-115 -68.5l-153 -84.5l-133 -72.5l-51 145z" />
    <glyph glyph-name="uni0655" unicode="&#x655;" 
d="M207 -269q-104 78 -104 195q0 102 91 183q67 59 170 59q64 0 140 -21l-45 -138q-75 10 -97 10q-44 0 -81 -21t-51 -53q-10 -21 -1 -46q13 -28 45.5 -46t71.5 -18q23 0 47 8q62 19 146 79l30 21l62 -146l-101 -61.5l-115 -68.5l-153 -84.5l-133 -72.5l-51 145z" />
    <glyph glyph-name="uni0656" unicode="&#x656;" 
d="M-66 -698q28 100 28 209q0 106 -28 206l160 48q30 -131 30 -240q0 -129 -28 -272z" />
    <glyph glyph-name="uni0660" unicode="&#x660;" horiz-adv-x="930" 
d="M467 315q65 0 108 42.5t43 106.5q0 49 -26 85t-66 54q-27 12 -59 12q-49 0 -84 -26t-53 -67q-12 -27 -12 -58q0 -64 42 -106.5t107 -42.5zM93 464q0 124 64 212.5t164 133.5q67 30 146 30q123 0 213 -65t133 -165q30 -69 30 -146q0 -124 -65 -212t-166 -132
q-69 -30 -145 -30q-123 0 -211.5 64t-133.5 164q-29 65 -29 146z" />
    <glyph glyph-name="uni0661" unicode="&#x661;" horiz-adv-x="733" 
d="M261 -58q0 430 -21.5 728t-93.5 535q-32 106 -78 190l255 159q135 -207 185 -550q60 -400 60 -933v-129h-307z" />
    <glyph glyph-name="uni0662" unicode="&#x662;" horiz-adv-x="1138" 
d="M1029 1530q23 -157 23 -243q0 -108 -30 -202t-85.5 -164.5t-140 -111t-187.5 -40.5q-63 0 -98 7q31 -272 31 -655q0 -37 0.5 -104t0.5 -97h-307q0 639 -56 968q-24 141 -64 253l-22 53l-6 16h1l-22.5 47.5l-26.5 55t-24 46.5l258 164q62 -99 97 -189l27 -66
q30 -70 60 -113.5t78 -66.5q30 -14 66 -14h7q37 1 63 15t39.5 33.5t21 54t9.5 63.5t2 75q0 48 -17 161z" />
    <glyph glyph-name="uni0663" unicode="&#x663;" horiz-adv-x="1505" 
d="M1374 1532l11.5 -60t12 -64t8.5 -55t7 -66t2 -65q0 -190 -98 -313q-94 -113 -248 -113q-141 0 -236 90q-51 -55 -109.5 -81.5t-146.5 -26.5h-37q-12 0 -34 4q35 -314 35 -847h-310q3 48 3 113q0 11 1 31.5t1 30.5v51q0 382 -48.5 679t-166.5 508l273 159q56 -89 91 -170
l35 -84q6 -13 16.5 -39.5t16.5 -40t18.5 -33.5t25.5 -30.5t33.5 -18t46.5 -7.5q92 0 92 170q0 38 -10 143l-4 40l282 40l11 -89t13 -99t19 -79.5t33 -73.5q23 -33 56 -33q57 0 57 120q0 43 -17 143q-2 13 -8.5 49l-10.5 60z" />
    <glyph glyph-name="uni0664" unicode="&#x664;" horiz-adv-x="1144" 
d="M1057 19q-197 -78 -371 -78t-299.5 65.5t-176.5 184.5q-28 59 -28 135q0 131 88 262q26 39 62 78q-85 35 -140 77.5t-88 108.5t-33 139q0 114 80 218q69 93 200.5 173t278.5 134q38 14 39 14l97 -295q-209 -69 -327 -173q-3 -2 -16.5 -13t-19 -16.5t-12 -16t-6.5 -20.5
q0 -18 43 -33q91 -38 289 -38h39q30 0 43 1l48 -303q-199 -62 -299 -183q-26 -32 -41 -63q-19 -43 -13 -60q11 -21 60 -43q48 -21 134 -21q116 0 254 55z" />
    <glyph glyph-name="uni0665" unicode="&#x665;" horiz-adv-x="1335" 
d="M1227 498q0 -190 -117 -351q-155 -206 -437 -206q-205 0 -334.5 100t-188.5 273q-34 100 -34 202q0 110 45 240q92 269 276 477l-52 54l224 222l41 -41l103 -106h-1l21 -22q454 -483 454 -842zM674 257q191 0 236 164q12 44 12 77q0 40 -13.5 85.5t-27.5 73.5t-39 73
q-78 138 -206 286q-133 -158 -200 -353q-30 -90 -30 -131q0 -2 -0.5 -7t-0.5 -7q0 -78 25.5 -138t74.5 -86q68 -37 169 -37z" />
    <glyph glyph-name="uni0666" unicode="&#x666;" horiz-adv-x="1247" 
d="M1020 1309q-19 -218 -19 -339q0 -333 48 -537q43 -183 98 -315q19 -45 21 -47l-288 -141q-2 2 -14 29q-17 37 -66 187q-117 360 -117 829q0 52 4 166l-46 -5q-52 -7 -142 -7q-229 0 -413 81l53 293l13 5q143 -62 347 -62q145 0 317 28q29 5 47 10v-1q2 0 4 0.5t3 0.5l2 1
h4l144 -166v-10z" />
    <glyph glyph-name="uni0667" unicode="&#x667;" horiz-adv-x="1373" 
d="M541 -83q0 184 -27 358.5t-68 311.5t-108 284.5t-126.5 253.5t-144.5 241l257 165q239 -392 386 -947l85 300.5t89.5 272.5t111.5 274q33 70 57 106l256 -163q-142 -228 -297 -666q-79 -228 -120 -422q-44 -204 -45 -369h-306z" />
    <glyph glyph-name="uni0668" unicode="&#x668;" horiz-adv-x="1401" 
d="M1071 -94q-48 74 -96 179t-75.5 177l-74.5 202q-63 177 -111 345q-161 -520 -399 -909l-257 164q161 255 269.5 496t163.5 520q40 201 40 442l325 -1q6 -210 84 -505q105 -402 285 -768q51 -103 101 -180z" />
    <glyph glyph-name="uni0669" unicode="&#x669;" horiz-adv-x="1154" 
d="M591 957q-22 146 -97 221q-35 35 -72 35q-24 0 -44 -16q-51 -42 -78 -112q-14 -36 -14 -62q0 -79 164 -79q8 0 36 2l42 3q10 1 31.5 4t31.5 4zM468 633q-408 0 -429 385q0 179 117 336t277 157h8q156 -6 265 -142q74 -92 113 -239.5t58 -342.5q52 -409 230 -617
l-156 -254q-112 95 -179.5 219.5t-101.5 296.5q-21 109 -38 211q-90 -10 -164 -10z" />
    <glyph glyph-name="uni066A" unicode="&#x66a;" horiz-adv-x="1217" 
d="M715 209l244 243l245 -245l-244 -243zM-8 1329l244 243l245 -245l-244 -243zM1086 1629l-641 -1690h-348l637 1690h352z" />
    <glyph glyph-name="uni066B" unicode="&#x66b;" horiz-adv-x="589" 
d="M674 978l-517 -1164h-233l518 1164h232z" />
    <glyph glyph-name="uni066C" unicode="&#x66c;" horiz-adv-x="547" 
d="M272 -425q-109 0 -172 75.5t-65 191.5v15q0 301 400 502l84 -203q-215 -95 -249 -199l32 2h3q179 0 184 -186v-1q0 -66 -38 -111.5t-97 -68.5q-41 -16 -78 -17h-4z" />
    <glyph glyph-name="uni066D" unicode="&#x66d;" horiz-adv-x="990" 
d="M349 821l46 161.5l46 160.5h80l92 -322l334 11l26 -75l-280 -188l113 -314l-66 -45l-261 205l-265 -209l-56 54l111 309l-149 99.5l-126 85.5l21 78z" />
    <glyph glyph-name="uni066E" unicode="&#x66e;" horiz-adv-x="1982" 
d="M1707 387q-19 75 -56 152t-63 118.5l-85 129.5l246 160q165 -262 209 -477q8 -39 8 -83v-14q-8 -153 -194 -261q-222 -129 -602 -163q-100 -9 -176 -9q-735 0 -909 345v-1q-48 93 -48 206q0 38 4.5 74.5t15 72.5t19 61.5t27 62l27.5 53.5l31 56l29 51l235 -197
q-76 -108 -105 -200q-12 -38 -12 -65q0 -19 6 -33q38 -79 229 -124q186 -44 451 -44q261 0 539 70q92 23 174 59z" />
    <glyph glyph-name="uni066F" unicode="&#x66f;" horiz-adv-x="1581" 
d="M419 454q-61 -112 -93 -218t-32 -238q0 -171 146 -280q131 -99 326 -99h9q254 0 407 192q46 57 73 129l-190 1q-252 22 -364 165q-90 110 -90 245q0 150 91 316q77 140 184 198q72 39 151 39q168 0 305 -149q94 -107 148.5 -257.5t54.5 -331.5q0 -8 -0.5 -23.5
t-0.5 -22.5q0 -30 -1 -45q0 -36 -19 -135q-45 -228 -178.5 -385.5t-339.5 -220.5q-108 -33 -235 -33q-327 0 -533 187q-70 64 -113 140v-1q-99 159 -99 370q0 165 36 297t105 266zM1160 518q-65 67 -128 67q-30 0 -54 -17q-43 -30 -73 -83.5t-30 -114.5q0 -25 15.5 -43.5
t32.5 -26.5t44 -18q76 -26 158 -26q8 0 22.5 -0.5t21.5 -0.5q12 0 32 0.5t28 0.5q33 0 48 1q-5 92 -71 200q-21 35 -46 61z" />
    <glyph glyph-name="uni0670" unicode="&#x670;" 
d="M-45 1072q28 99 28 209q0 107 -28 206l147 48q30 -131 30 -240q0 -129 -28 -272z" />
    <glyph glyph-name="uni06AA" unicode="&#x6aa;" horiz-adv-x="2572" 
d="M2325 0q-949 -82 -1553 -82q-481 0 -810 56l51 312q334 -53 761 -53q131 0 276.5 4.5t323 12t276.5 10.5q308 9 510 24q-9 10 -29.5 37t-37 45t-35.5 32q-79 59 -215 59q-6 0 -18.5 -0.5t-18.5 -0.5q-11 0 -41 -2h-9q-2 0 -5 -0.5t-4 -0.5q-169 -13 -241 -25
q-6 -2 -13 -2h-4l-5 -1h-4q-23 0 -72 -4.5t-72 -5.5q-170 -5 -217 -5h-54q-163 3 -276 20t-186 67q-58 37 -86.5 71.5t-28.5 91.5v18q0 176 160 326q182 171 598 320q81 30 173 55l80 -305q-471 -139 -673 -322q-33 -30 -47 -51q26 -6 81 -6h46q33 0 105 1t109 1h66
q182 0 269 15q24 5 177 20q130 12 213 12q190 0 283 -46q89 -45 152.5 -105t115.5 -149l91 -249l-118 -178q-3 -1 -12.5 -6t-17 -8t-14.5 -3z" />
    <glyph glyph-name="uni06C2" unicode="&#x6c2;" horiz-adv-x="1395" 
d="M1373 256h7q69 0 113.5 -44.5t44.5 -113.5t-44.5 -113.5t-113.5 -44.5h-6q-1 0 -2.5 0.5t-2.5 0.5q-80 1 -146 22t-125.5 69t-89 78.5t-87.5 98.5l-20 23l-31 38.5l-35 43t-33.5 37.5t-40 38t-39.5 29q-31 19 -63 19q-80 0 -134 -64q-88 -103 -151 -338l-300 80
q25 94 52.5 168.5t71 152t95.5 132t127 95t166 55.5q31 5 73 5q148 0 275 -91q35 -25 72.5 -60t61 -61l64.5 -73l59 -67q56 -63 121 -98q28 -15 61 -17zM284 1081q0 -45 43 -73.5t96 -28.5q15 0 30.5 3t31 10.5t25 12.5t26.5 15.5l22 13.5q20 12 49 33l77 -102
q-28 -22 -62 -43.5t-55 -33.5t-71 -38.5l-68 -36.5l-240 -133l-62 113l167 93q-52 29 -85 78.5t-33 116.5q0 99 86 171q68 56 160 56q70 0 138 -24l-36 -121l-33 8q-45 9 -69 9q-89 0 -129 -72q-8 -14 -8 -27z" />
    <glyph glyph-name="uni06C3" unicode="&#x6c3;" horiz-adv-x="1548" 
d="M1535 256h7q69 0 113.5 -44.5t44.5 -113.5t-44.5 -113.5t-113.5 -44.5h-6q-1 0 -2.5 0.5t-2.5 0.5q-80 1 -146 22t-125.5 69t-89 78.5t-87.5 98.5l-20 23l-31 38.5l-35 43t-33.5 37.5t-40 38t-39.5 29q-31 19 -63 19q-80 0 -134 -64q-88 -103 -151 -338l-300 80
q25 94 52.5 168.5t71 152t95.5 132t127 95t166 55.5q31 5 73 5q148 0 275 -91q35 -25 72.5 -60t61 -61l64.5 -73l59 -67q56 -63 121 -98q28 -15 61 -17zM726 1109l-188 -188l-194 193l192 193l190 -190l188 188l194 -193l-192 -193z" />
    <glyph glyph-name="uni06D4" unicode="&#x6d4;" horiz-adv-x="679" 
d="M680 256q33 0 52 -18t19 -50v-180q0 -70 -71 -70h-690q-38 0 -54 16t-16 54v180q0 68 70 68h690z" />
    <glyph glyph-name="uni06D5" unicode="&#x6d5;" horiz-adv-x="983" 
d="M485 -60q-133 0 -240.5 54.5t-165.5 141.5q-60 90 -60 211q0 201 177 415q32 40 56 64l18 18q-4 3 -20 16t-23 20l-18 16l199 243q69 -51 132.5 -111.5t153.5 -155.5q259 -295 259 -525q0 -93 -32 -166.5t-89.5 -122.5t-132 -78t-165.5 -38q-20 -2 -49 -2zM679 347
q0 60 -73 151q-68 86 -152 170q-111 -123 -153 -234q-14 -38 -14 -78v-9q1 -24 21.5 -43t52 -29.5t63 -15.5t61.5 -5q122 0 175 49q19 18 19 44z" />
    <glyph glyph-name="uni06F0" unicode="&#x6f0;" horiz-adv-x="980" 
d="M467 335q65 0 108 42.5t43 106.5q0 49 -26 85t-66 54q-27 12 -59 12q-49 0 -84 -26t-53 -67q-12 -27 -12 -58q0 -64 42 -106.5t107 -42.5zM93 484q0 124 64 212.5t164 133.5q67 30 146 30q123 0 213 -65t133 -165q30 -69 30 -146q0 -124 -65 -212t-166 -132
q-69 -30 -145 -30q-123 0 -211.5 64t-133.5 164q-29 65 -29 146z" />
    <glyph glyph-name="uni06F1" unicode="&#x6f1;" horiz-adv-x="762" 
d="M261 -58q0 430 -21.5 728t-93.5 535q-32 106 -78 190l255 159q135 -207 185 -550q60 -400 60 -933v-129h-307z" />
    <glyph glyph-name="uni06F2" unicode="&#x6f2;" horiz-adv-x="1209" 
d="M1029 1530q23 -157 23 -243q0 -108 -30 -202t-85.5 -164.5t-140 -111t-187.5 -40.5q-63 0 -98 7q31 -272 31 -655q0 -37 0.5 -104t0.5 -97h-307q0 639 -56 968q-24 141 -64 253l-22 53l-6 16h1l-22.5 47.5l-26.5 55t-24 46.5l258 164q62 -99 97 -189l27 -66
q30 -70 60 -113.5t78 -66.5q30 -14 66 -14h7q37 1 63 15t39.5 33.5t21 54t9.5 63.5t2 75q0 48 -17 161z" />
    <glyph glyph-name="uni06F3" unicode="&#x6f3;" horiz-adv-x="1565" 
d="M1374 1532l11.5 -60t12 -64t8.5 -55t7 -66t2 -65q0 -190 -98 -313q-94 -113 -248 -113q-141 0 -236 90q-51 -55 -109.5 -81.5t-146.5 -26.5h-37q-12 0 -34 4q35 -314 35 -847h-310q3 48 3 113q0 11 1 31.5t1 30.5v51q0 382 -48.5 679t-166.5 508l273 159q56 -89 91 -170
l35 -84q6 -13 16.5 -39.5t16.5 -40t18.5 -33.5t25.5 -30.5t33.5 -18t46.5 -7.5q92 0 92 170q0 38 -10 143l-4 40l282 40l11 -89t13 -99t19 -79.5t33 -73.5q23 -33 56 -33q57 0 57 120q0 43 -17 143q-2 13 -8.5 49l-10.5 60z" />
    <glyph glyph-name="uni06F4" unicode="&#x6f4;" horiz-adv-x="1302" 
d="M1248 787q-104 -75 -208 -113t-236 -38q-159 0 -273 58q36 -327 36 -764h-307q0 233 -8.5 410t-33 370t-75.5 351.5t-129 278.5l259 163l28.5 -48l29.5 -49.5t25.5 -46t25.5 -52.5q67 93 168.5 152t231.5 59h33q117 0 199.5 -32.5t147.5 -97.5l-160 -252q0 1 -22 13
q-117 62 -205 62h-8q-115 -16 -201 -95q-37 -35 -37 -63q0 -1 0.5 -4t0.5 -5q6 -31 34 -53t69.5 -32.5t82 -15t84.5 -4.5q185 0 319 88z" />
    <glyph glyph-name="uni06F5" unicode="&#x6f5;" horiz-adv-x="1395" 
d="M431 1323q-37 37 -43 44l214 215q6 -7 22 -23l27 -27q32 -32 55 -51v1l21 -21q192 -178 299 -311q192 -244 283 -521q31 -101 31 -214q0 -159 -58.5 -277t-163.5 -180q-76 -44 -183 -49h-2q-141 0 -242 107q-102 -106 -247 -106q-143 0 -252 122q-126 142 -126 360
q0 153 38 279t108 269q74 150 219 383zM1069 409q0 68 -18 129h1q-23 70 -62 140.5t-72 119t-95.5 118.5t-91.5 99.5l-101 101.5q-140 -185 -242 -428q-62 -150 -62 -314q0 -48 20.5 -87.5t52.5 -57.5q23 -13 45 -13q43 0 86 71q32 53 53 187l9 75l240 -2q0 -197 49 -292
q20 -38 49 -42q58 12 98.5 69t40.5 126z" />
    <glyph glyph-name="uni06F6" unicode="&#x6f6;" horiz-adv-x="1176" 
d="M439 1038q0 -47 40 -70t102 -23h15q11 0 16 1h12q31 0 61 2t64.5 8t54.5 9t60.5 14l51.5 14l57.5 16.5t50.5 14.5l109 -264l-99 -46q-191 -73 -356 -252q-179 -194 -288 -447l-17 -39.5l-15 -33.5l-12 -27l-287 90q11 32 67 149q105 219 248 416q42 57 84 98
q-97 21 -167 84t-103 153q-23 63 -23 129q0 207 184 360q147 114 349 114q91 0 168.5 -27.5t166.5 -78.5l-139 -230q-83 36 -154 36h-54q-52 0 -102 -16t-82 -41h1q-64 -58 -64 -113z" />
    </font>
</defs>
</svg>
