<?xml version="1.0" standalone="no"?>
<!DOCTYPE svg PUBLIC "-//W3C//DTD SVG 1.1//EN" "http://www.w3.org/Graphics/SVG/1.1/DTD/svg11.dtd" >
<svg>
<metadata>
Created by FontForge 20090622 at Wed Sep  9 15:52:45 2015
 By deploy user
Copyright (c) 2015 by www.fontiran.com (Moslem Ebrahimi). All rights reserved.
</metadata>
<defs>
<font id="IRANSans-Light" horiz-adv-x="0" >
  <font-face 
    font-family="IRANSans"
    font-weight="300"
    font-stretch="normal"
    units-per-em="2048"
    panose-1="2 4 5 3 5 2 1 2 2 3"
    ascent="1638"
    descent="-410"
    x-height="1082"
    cap-height="1456"
    bbox="-237 -1141 4424 2438"
    underline-thickness="102"
    underline-position="-205"
    unicode-range="U+0020-U+FEFC"
  />
<missing-glyph horiz-adv-x="1229" 
d="M102 -362v1806h1024v-1806h-1024zM217 -248h795v1577h-795v-1577z" />
    <glyph glyph-name="uniFDF2" unicode="&#xfedf;&#xfee0;&#xfe7c;&#xfeea;" horiz-adv-x="2048" arabic-form="isolated" 
d="M1467 322q0 -62 33 -106.5t91 -48.5h20q84 0 132 24.5t59 84.5q5 26 5 64q0 8 -18 228l-55 658q6 1 154 35q34 -447 51 -698q16 -245 16 -281v-7q-3 -79 -65 -170q-58 -84 -232 -84h-18q-10 -2 -14 -2h-13q-17 0 -34 3t-37 8t-30 7q-69 30 -115 73q-36 -26 -53 -40
q-82 -53 -221 -53h-44q-18 -2 -30 -2q-10 0 -32 2h-10q-69 12 -97 32q-78 38 -131 125q-130 -20 -230 -20q-249 0 -343 118q-50 58 -50 142q0 53 20 97v1q122 244 470 373l-14 152q-2 6 -2 8v7q29 3 78.5 7.5t78.5 7.5q26 -308 53 -507q25 -187 49 -252q25 -66 61 -100
q24 -24 47 -31t65 -7h60q119 0 160 95q7 13 7 70t-2.5 123t-5 112.5t-8 128t-7.5 122.5q-8 137 -18 286l158 17q5 -79 18 -220t17 -216q13 -182 19 -273q2 -27 3.5 -50t2.5 -33zM673 721q-272 -107 -353 -274q-4 -12 -4 -34q0 -27 12.5 -41.5t39.5 -29.5q53 -30 188 -30
q62 0 168 12q-9 42 -17 97t-12.5 95t-11 106.5t-10.5 98.5zM1580 1437q0 -76 -28.5 -121t-90.5 -45q-48 0 -76 30.5t-49 82.5q-25 -53 -55.5 -84.5t-80.5 -31.5q-46 0 -79 36v-1q-33 48 -33 127v21q3 43 8 76q11 -2 30 -7t29 -7q-5 -37 -5 -65v-1v-21q0 -96 50 -96
q82 0 109 193q11 -1 33 -1h31q0 -55 17 -105t46 -75q11 -9 25 -9q34 0 45.5 27t11.5 77q0 79 -50 160l53 30l27.5 -57.5t20 -58t11.5 -74.5zM1338 1952q15 -62 15 -140q0 -87 -17 -166l-58 16q16 64 16 136q0 68 -16 137z" />
    <glyph glyph-name="uniFDFC" unicode="&#x631;&#xfbfe;&#xfe8e;&#x644;" horiz-adv-x="2845" arabic-form="isolated" 
d="M308 247q-87 -134 -87 -346q0 -138 55 -222.5t160 -133.5q95 -45 197 -45q147 0 258.5 66.5t164.5 173.5q49 98 49 266q0 345 -32 969l-19 447h8q10 0 66 6q10 1 37.5 2.5t45.5 3.5l14 -352q0 -13 1 -36t1.5 -42t0.5 -36q0 -57 3 -114l3 -69q10 -230 24 -794
q0 -199 -68.5 -330t-201.5 -213q-161 -100 -354 -100q-254 0 -422 180q-143 154 -143 340q0 302 124 476l30 -26l27 -24q1 -1 58 -47zM1831 161q61 0 104.5 3.5t90.5 15t76.5 31.5t50 55.5t23.5 85.5q0 4 0.5 13t0.5 14q0 139 -77 313l-47 104q2 6 27 16q16 7 51 20.5
t59 24.5q113 -219 136 -423q2 -18 2 -53q0 -79 -28 -148.5t-74 -117.5q-122 -106 -372 -106q-7 0 -19.5 -0.5t-18.5 -0.5q-154 0 -255.5 68t-116.5 196q-4 50 -4 75v16q2 62 2 100q6 207 6 210v119q0 7 -0.5 17.5t-0.5 13.5v23q0 71 -20 343q-3 55 -11.5 135.5t-16.5 80.5
l160 30q5 -64 18 -212t20 -258.5t7 -220.5q0 -199 -15 -369q0 -83 26 -133t86 -68q17 -10 57 -10h38q20 0 35 -3zM2621 641q10 -39 45.5 -147t52.5 -191t17 -174q0 -188 -117 -359q-156 -229 -498 -404l-66 138q272 135 426 339q98 141 98 290q0 30 -2.5 59t-9 62
t-10.5 50.5t-14 57.5t-13 51q-12 48 -56 183zM1772 -275l-141 -141l-143 142l141 142zM2115 -277l-140 -141l-143 143l141 141z" />
    <glyph glyph-name="uniFEF5" unicode="&#xfedf;&#xfe82;" horiz-adv-x="1350" arabic-form="isolated" 
d="M1107 1505q63 -410 100 -915v-1q1 -5 1 -15v-14q0 -176 -98 -344q-108 -184 -410 -253l1 1q-112 -23 -215 -23q-65 0 -128 9q5 31 14.5 80.5t13.5 73.5q30 -6 98 -6q93 0 201 24q-38 202 -158 466q-83 182 -223 414q-93 154 -151 237l130 91q289 -419 438 -792
q77 -194 114 -363q71 46 126 126t78 171q12 46 12 85q0 15 -1 22l-50.5 455l-50.5 455l79 8zM175 1643q55 0 132.5 -31.5t130.5 -31.5q74 0 139 92q20 -12 50 -32.5t48 -31.5q-19 -38 -62 -73t-91 -57q-40 -18 -88 -18h-7q-38 1 -74.5 11t-76.5 25.5t-63 21.5q-20 5 -39 5
q-38 0 -57 -18q-44 -39 -65 -108l-112 35q18 58 40 93h-1q61 99 155 115l21 3h20z" />
    <glyph glyph-name="uniFEF6" unicode="&#xfee0;&#xfe82;" horiz-adv-x="1470" arabic-form="final" 
d="M412 109q30 -6 98 -6q93 0 201 24q-38 208 -161 470q-156 334 -370 646l129 92q126 -182 244 -392.5t194 -398.5q76 -190 114 -362q141 79 186 200q15 40 15 84v16q0 4 -2 14q-25 379 -74 876q-6 60 -9 96l-3 24l158 17q0 -2 6 -53q38 -320 86 -1050q7 -75 27 -119
t66 -72v-1q48 -28 107 -36h4h2l1 -1l30 -1h9q32 0 55.5 -23t23.5 -55q0 -33 -23 -55.5t-56 -22.5h-49q-103 0 -205 78q-44 34 -86 101q-80 -89 -176.5 -144.5t-227.5 -86.5l1 1q-112 -23 -215 -23q-65 0 -128 9l15 83zM217 1649q55 0 132.5 -31.5t130.5 -31.5q74 0 139 92
q20 -12 50 -32.5t48 -31.5q-19 -38 -62 -73t-91 -57q-40 -18 -88 -18h-7q-38 1 -74.5 11t-76.5 25.5t-63 21.5q-20 5 -39 5q-38 0 -57 -18q-44 -39 -65 -108l-112 35q18 58 40 93h-1q61 99 155 115l21 3h20z" />
    <glyph glyph-name="uniFEF7" unicode="&#xfedf;&#xfe84;" horiz-adv-x="1247" arabic-form="isolated" 
d="M1005 1505q63 -410 100 -915v-1q1 -5 1 -15v-14q0 -176 -98 -344q-108 -184 -410 -253l1 1q-112 -23 -215 -23q-65 0 -128 9q5 31 14.5 80.5t13.5 73.5q30 -6 98 -6q93 0 201 24q-38 202 -158 466q-83 182 -223 414q-93 154 -151 237l130 91q289 -419 438 -792
q77 -194 114 -363q71 46 126 126t78 171q12 46 12 85q0 15 -1 22l-50.5 455l-50.5 455l79 8zM-30 1359q-8 14 -19 35t-19 34l188 105q-44 19 -81 51.5t-54 71.5q-13 30 -13 70q0 66 36 113.5t91 70.5q45 18 94 18q60 0 108 -16l-23 -72q-9 1 -25.5 4t-31 4.5t-28.5 1.5
q-60 0 -101.5 -34t-41.5 -90q0 -45 29.5 -75t71.5 -45q20 -7 44 -7q20 0 46 8l-1 -1q38 12 134 71l47 -62q-54 -36 -233 -135z" />
    <glyph glyph-name="uniFEF8" unicode="&#xfee0;&#xfe84;" horiz-adv-x="1470" arabic-form="final" 
d="M412 109q30 -6 98 -6q93 0 201 24q-38 208 -161 470q-156 334 -370 646l129 92q126 -182 244 -392.5t194 -398.5q76 -190 114 -362q141 79 186 200q15 40 15 84v16q0 4 -2 14q-25 379 -74 876q-6 60 -9 96l-3 24l158 17q0 -2 6 -53q38 -320 86 -1050q7 -75 27 -119
t66 -72v-1q48 -28 107 -36h4h2l1 -1l30 -1h9q32 0 55.5 -23t23.5 -55q0 -33 -23 -55.5t-56 -22.5h-49q-103 0 -205 78q-44 34 -86 101q-80 -89 -176.5 -144.5t-227.5 -86.5l1 1q-112 -23 -215 -23q-65 0 -128 9l15 83zM68 1390l-19 34.5l-19 34.5l188 105q-44 19 -81 51.5
t-54 71.5q-13 30 -13 70q0 66 36 113.5t91 70.5q45 18 94 18q60 0 108 -16l-23 -72q-9 1 -25.5 4t-31 4.5t-28.5 1.5q-60 0 -101.5 -34t-41.5 -90q0 -45 29.5 -75t71.5 -45q20 -7 44 -7q20 0 46 8l-1 -1q38 12 134 71l47 -62q-54 -36 -233 -135z" />
    <glyph glyph-name="uniFEF9" unicode="&#xfedf;&#xfe88;" horiz-adv-x="1247" arabic-form="isolated" 
d="M1005 1505q63 -410 100 -915v-1q1 -5 1 -15v-14q0 -176 -98 -344q-108 -184 -410 -253l1 1q-112 -23 -215 -23q-65 0 -128 9q5 31 14.5 80.5t13.5 73.5q30 -6 98 -6q93 0 201 24q-38 202 -158 466q-83 182 -223 414q-93 154 -151 237l130 91q289 -419 438 -792
q77 -194 114 -363q71 46 126 126t78 171q12 46 12 85q0 15 -1 22l-50.5 455l-50.5 455l79 8zM471 -752l-19 34.5l-19 34.5l188 105q-44 19 -81 51.5t-54 71.5q-13 30 -13 70q0 66 36 113.5t91 70.5q45 18 94 18q60 0 108 -16l-23 -72q-9 1 -25.5 4t-31 4.5t-28.5 1.5
q-60 0 -101.5 -34t-41.5 -90q0 -45 29.5 -75t71.5 -45q20 -7 44 -7q20 0 46 8l-1 -1q38 12 134 71l47 -62q-54 -36 -233 -135z" />
    <glyph glyph-name="uniFEFA" unicode="&#xfee0;&#xfe88;" horiz-adv-x="1470" arabic-form="final" 
d="M412 109q30 -6 98 -6q93 0 201 24q-38 208 -161 470q-156 334 -370 646l129 92q126 -182 244 -392.5t194 -398.5q76 -190 114 -362q141 79 186 200q15 40 15 84v16q0 4 -2 14q-25 379 -74 876q-6 60 -9 96l-3 24l158 17q0 -2 6 -53q38 -320 86 -1050q7 -75 27 -119
t66 -72v-1q48 -28 107 -36h4h2l1 -1l30 -1h9q32 0 55.5 -23t23.5 -55q0 -33 -23 -55.5t-56 -22.5h-49q-103 0 -205 78q-44 34 -86 101q-80 -89 -176.5 -144.5t-227.5 -86.5l1 1q-112 -23 -215 -23q-65 0 -128 9l15 83zM623 -710q-8 13 -19.5 34t-18.5 35l188 105
q-44 19 -81 51.5t-54 71.5q-13 30 -13 70q0 66 36 113.5t91 70.5q45 18 94 18q60 0 108 -16l-23 -72q-9 1 -25.5 4t-31 4.5t-28.5 1.5q-60 0 -101.5 -34t-41.5 -90q0 -45 29.5 -75t71.5 -45q20 -7 44 -7q20 0 46 8l-1 -1q38 12 134 71l47 -62q-54 -36 -233 -135z" />
    <glyph glyph-name="uniFEFB" unicode="&#xfedf;&#xfe8e;" horiz-adv-x="1187" arabic-form="isolated" 
d="M1005 1505q63 -410 100 -915v-1q1 -5 1 -15v-14q0 -176 -98 -344q-108 -184 -410 -253l1 1q-112 -23 -215 -23q-65 0 -128 9q5 31 14.5 80.5t13.5 73.5q30 -6 98 -6q93 0 201 24q-38 202 -158 466q-83 182 -223 414q-93 154 -151 237l130 91q289 -419 438 -792
q77 -194 114 -363q71 46 126 126t78 171q12 46 12 85q0 15 -1 22l-50.5 455l-50.5 455l79 8z" />
    <glyph glyph-name="uniFEFC" unicode="&#xfee0;&#xfe8e;" horiz-adv-x="1461" arabic-form="final" 
d="M412 109q30 -6 98 -6q93 0 201 24q-38 208 -161 470q-156 334 -370 646l129 92q126 -182 244 -392.5t194 -398.5q76 -190 114 -362q141 79 186 200q15 40 15 84v16q0 4 -2 14q-25 379 -74 876q-6 60 -9 96l-3 24l158 17q0 -2 6 -53q38 -320 86 -1050q7 -75 27 -119
t66 -72v-1q48 -28 107 -36h4h2l1 -1l30 -1h9q32 0 55.5 -23t23.5 -55q0 -33 -23 -55.5t-56 -22.5h-49q-103 0 -205 78q-44 34 -86 101q-80 -89 -176.5 -144.5t-227.5 -86.5l1 1q-112 -23 -215 -23q-65 0 -128 9l15 83z" />
    <glyph glyph-name="uni06440671.isol" unicode="&#xfedf;&#xfb51;" horiz-adv-x="1247" 
d="M1005 1505q63 -410 100 -915v-1q1 -5 1 -15v-14q0 -176 -98 -344q-108 -184 -410 -253l1 1q-112 -23 -215 -23q-65 0 -128 9q5 31 14.5 80.5t13.5 73.5q30 -6 98 -6q93 0 201 24q-38 202 -158 466q-83 182 -223 414q-93 154 -151 237l130 91q289 -419 438 -792
q77 -194 114 -363q71 46 126 126t78 171q12 46 12 85q0 15 -1 22l-50.5 455l-50.5 455l79 8zM304 1485q208 0 217 101q0 31 -23.5 48.5t-56.5 17.5q-67 0 -118 -49.5t-80 -114.5q27 -3 61 -3zM445 1717q62 0 103 -39.5t41 -100.5q0 -51 -44.5 -88t-106.5 -53.5t-130 -16.5
q-74 0 -117.5 13t-69.5 50q-14 10 -34 10q-38 0 -100 -41l-18 68q70 37 121 37q58 0 90 -45q22 41 43.5 71.5t54 64t75 52t92.5 18.5z" />
    <glyph glyph-name="uni06440671.fina" unicode="&#xfee0;&#xfb51;" horiz-adv-x="1470" 
d="M412 109q30 -6 98 -6q93 0 201 24q-38 208 -161 470q-156 334 -370 646l129 92q126 -182 244 -392.5t194 -398.5q76 -190 114 -362q141 79 186 200q15 40 15 84v16q0 4 -2 14q-25 379 -74 876q-6 60 -9 96l-3 24l158 17q0 -2 6 -53q38 -320 86 -1050q7 -75 27 -119
t66 -72v-1q48 -28 107 -36h4h2l1 -1l30 -1h9q32 0 55.5 -23t23.5 -55q0 -33 -23 -55.5t-56 -22.5h-49q-103 0 -205 78q-44 34 -86 101q-80 -89 -176.5 -144.5t-227.5 -86.5l1 1q-112 -23 -215 -23q-65 0 -128 9l15 83zM373 1503q208 0 217 101q0 31 -23.5 48.5t-56.5 17.5
q-67 0 -118 -49.5t-80 -114.5q27 -3 61 -3zM514 1735q62 0 103 -39.5t41 -100.5q0 -51 -44.5 -88t-106.5 -53.5t-130 -16.5q-74 0 -117.5 13t-69.5 50q-14 10 -34 10q-38 0 -100 -41l-18 68q70 37 121 37q58 0 90 -45q22 41 43.5 71.5t54 64t75 52t92.5 18.5z" />
    <glyph glyph-name="tooman" unicode="&#xfe97;&#xfeee;&#xfee3;&#xfe8e;&#x646;" horiz-adv-x="4519" 
d="M4383 1219l-145 -146l-148 148l146 146zM4028 1221l-146 -146l-148 147l146 147zM3509 670q-71 0 -137 -106q-65 -102 -65 -202q0 -60 35 -106v1q20 -27 54 -44t84 -24t88.5 -9t99.5 -2q56 0 113 5q-9 197 -93 343q-47 83 -106 120q-37 24 -73 24zM2774 186
q61 0 87.5 53.5t26.5 132.5q0 153 -98 236q-45 39 -99 39q-24 0 -42 -11q-38 -23 -80 -102q-29 -53 -47 -91l-62 -124q128 -93 252 -124q36 -9 62 -9zM260 150q0 -220 127 -332t357 -119q5 0 15.5 -0.5t15.5 -0.5q189 0 316.5 79t182.5 220q38 97 38 215q0 265 -153 515
l139 89q119 -178 162 -456q11 -72 11 -143q0 -245 -117.5 -406t-318.5 -231q-120 -41 -257 -41q-6 0 -18 0.5t-19 0.5q-226 4 -379 96t-217 260q-44 115 -44 260q0 301 163 573l128 -94q-81 -129 -118 -335q-14 -78 -14 -150zM933 785l-147 -147l-148 148l147 147zM4004 176
q95 5 155.5 35t91.5 94q16 32 16 88q0 54 -19 140.5t-45 148.5q-7 16 -19 46l-22 54l-19 44l142 71q96 -216 126 -372q13 -68 13 -130q0 -173 -123 -279q-85 -75 -240 -91q-15 -5 -28 -5h-73h-34q-54 -278 -288 -472q-214 -177 -509 -227l-37 154q291 64 482 225
q175 148 201 320h-77q-96 0 -157 5q-207 13 -306 135v-1q-61 78 -61 200q0 187 117 348q98 120 218 120q133 0 246 -122v1q83 -96 132 -232t52 -298h65zM2001 176q116 5 189 60.5t126 151.5l64.5 122.5l53.5 103.5q28 52 57 87q85 103 203 103q100 0 177 -57.5t116.5 -151.5
t39.5 -207q0 -187 -103 -290q-68 -68 -178 -68q-75 0 -165 36q-95 38 -212 123q-4 -4 -10 -9.5t-9 -8.5q-129 -130 -305 -148q-12 -3 -23 -3h-22h-17q-6 0 -16 2q-164 10 -252 98q-81 81 -81 260q4 81 4 285v129q0 280 -21 566q-4 57 -12 102l156 28q33 -204 33 -668v-40
q0 -25 0.5 -71t0.5 -66q0 -27 -0.5 -74t-0.5 -67q0 -84 -1 -126v-17q0 -52 6.5 -80.5t29.5 -49.5q48 -48 172 -55z" />
    <glyph glyph-name="uni0621" unicode="&#x621;" horiz-adv-x="1019" arabic-form="isolated" 
d="M448 147q-68 41 -113.5 106t-45.5 149q0 105 64.5 177t161.5 97q36 10 77 10q76 0 193 -47q7 -3 11 -4l-51 -105q-85 38 -165 38q-87 0 -138 -64q-35 -44 -35 -99q0 -53 30.5 -94t74.5 -65q41 -22 80 -22q2 0 7.5 -0.5t8.5 -0.5q43 0 92 14t71 24t73 35l17 -33
l19.5 -36.5l17.5 -32.5q-48 -26 -172 -72l-251.5 -94l-262.5 -98l-40 112z" />
    <glyph glyph-name="uni0622" unicode="&#x622;" horiz-adv-x="623" arabic-form="isolated" 
d="M470 607q0 -302 -19 -593l-157 9q19 288 19 590q0 283 -29 671q-9 118 -20 200q22 4 154 17q52 -394 52 -894zM223 1870q55 0 132.5 -31.5t130.5 -31.5q74 0 139 92q20 -12 50 -32.5t48 -31.5q-19 -38 -62 -73t-91 -57q-41 -18 -88 -18h-7q-38 1 -74.5 11t-76.5 25.5
t-63 21.5q-20 5 -39 5q-38 0 -57 -18q-44 -39 -65 -108l-112 35q18 58 40 93h-1q61 99 155 115l21 3h20z" />
    <glyph glyph-name="uni0623" unicode="&#x623;" horiz-adv-x="546" arabic-form="isolated" 
d="M397 607q0 -302 -19 -593l-157 9q19 288 19 590q0 283 -29 671q-9 118 -20 200q22 4 154 17q52 -394 52 -894zM73 1536q-8 14 -19 35t-19 34l188 105q-44 19 -81 51.5t-54 71.5q-13 30 -13 70q0 66 36 113.5t91 70.5q45 18 94 18q60 0 108 -16l-23 -72q-9 1 -25.5 4
t-31 4.5t-28.5 1.5q-60 0 -101.5 -34t-41.5 -90q0 -45 29.5 -75t71.5 -45q20 -7 44 -7q20 0 46 8l-1 -1q38 12 134 71l47 -62q-54 -36 -233 -135z" />
    <glyph glyph-name="uni0624" unicode="&#x624;" horiz-adv-x="1043" arabic-form="isolated" 
d="M661 178q49 0 129 5q-7 157 -57.5 281t-142.5 182q-37 24 -72 24q-48 0 -96 -52q-105 -113 -105 -256q0 -59 36 -106v1q79 -79 231 -79h77zM244 159q-61 79 -61 200q0 78 35 187q59 180 185 250q56 31 115 31q133 0 246 -122v1q86 -96 135 -232.5t49 -303.5
q0 -214 -116 -406q-80 -131 -205 -230t-281 -158q-100 -38 -208 -55l-37 154q291 64 482 225q175 148 201 320h-77q-14 -1 -43 -1q-208 0 -336 67q-55 29 -84 74v-1zM314 1043q-58 24 -96.5 74.5t-38.5 119.5q0 95 66.5 153.5t164.5 58.5q42 0 120 -19l-28 -92
q-48 13 -92 13q-35 0 -62 -12v2q-29 -12 -50 -41t-21 -63q0 -15 8 -36l-1 1q13 -34 49 -58t79 -24q26 0 55.5 10.5t40.5 17l42 25.5q24 14 43 29l59 -78l-41.5 -28.5t-50.5 -31l-42.5 -24.5l-56 -30.5t-51.5 -27.5l-227 -126l-48 87z" />
    <glyph glyph-name="uni0625" unicode="&#x625;" horiz-adv-x="540" arabic-form="isolated" 
d="M377 607q0 -302 -19 -593l-157 9q19 288 19 590q0 283 -29 671q-9 118 -20 200q22 4 154 17q52 -394 52 -894zM63 -691q-7 14 -19 35l-19 34l188 105q-44 19 -81 51.5t-54 71.5q-13 30 -13 70q0 66 36 113.5t91 70.5q45 18 94 18q60 0 108 -16l-23 -72q-9 1 -25.5 4
t-31 4.5t-28.5 1.5q-60 0 -101.5 -34t-41.5 -90q0 -45 29.5 -75t71.5 -45q20 -7 44 -7q20 0 46 8l-1 -1q38 12 134 71l47 -62q-54 -36 -233 -135z" />
    <glyph glyph-name="uni0626" unicode="&#x626;" horiz-adv-x="1723" arabic-form="isolated" 
d="M1626 634q-67 25 -143 25q-43 0 -72 -7q-121 -14 -241 -142q-74 -80 -107 -173q-16 -45 -16 -90t17.5 -79.5t43.5 -54t66.5 -35.5t75.5 -24l82.5 -18.5t75.5 -19.5q88 -28 139 -77.5t51 -140.5q0 -27 -6 -63q-34 -194 -263 -306q-218 -112 -544 -112q-181 0 -324.5 54
t-233.5 152q-132 155 -132 377q0 49 6.5 101t12 79.5t20.5 93.5q54 239 113 407q3 -1 78 -28l75 -27q-92 -282 -136 -548q-5 -58 -5 -78q0 -283 271 -378q114 -40 255 -40q283 0 465 88q84 40 130 91q51 56 51 110q0 15 -6 28.5t-19.5 23.5t-26 17.5t-33 14.5t-33 10.5
t-35 9t-29.5 7.5q-38 10 -57 16l-54.5 17t-55.5 20.5l-49 24t-46.5 30.5t-36 36.5t-30 45.5t-17.5 54q-10 47 -10 100q0 201 140 373q72 89 172.5 148t223.5 73q25 3 50 3q94 0 218 -42l-37.5 -77zM504 830q-58 24 -96.5 74.5t-38.5 119.5q0 95 66.5 153.5t164.5 58.5
q42 0 120 -19l-28 -92q-48 13 -92 13q-35 0 -62 -12v2q-29 -12 -50 -41t-21 -63q0 -15 8 -36l-1 1q13 -34 49 -58t79 -24q26 0 55.5 10.5t40.5 17l42 25.5q24 14 43 29l59 -78l-41.5 -28.5t-50.5 -31l-42.5 -24.5l-56 -30.5t-51.5 -27.5l-227 -126l-48 87z" />
    <glyph glyph-name="uni0627" unicode="&#x627;" horiz-adv-x="492" arabic-form="isolated" 
d="M368 604q0 -302 -19 -593l-157 9q19 335 19 586q0 558 -52 925l157 24q0 -19 5.5 -56l6.5 -44q28 -213 38 -688q2 -102 2 -163z" />
    <glyph glyph-name="uni0628" unicode="&#x628;" horiz-adv-x="1975" arabic-form="isolated" 
d="M1765 339q-2 26 -7.5 52.5t-10.5 48t-15.5 49.5t-16.5 45.5t-20.5 46.5l-21 42t-23.5 43.5t-22 38.5t-23.5 40t-21.5 36l133 86q152 -236 189 -457q4 -24 4 -52q0 -53 -27 -88t-78 -69q-217 -123 -600 -169q-102 -12 -187 -12h-19q-522 5 -734 176q-143 115 -143 294
q0 132 79 278q24 44 34 59l126 -94q-10 -15 -18.5 -32.5l-19 -41l-18.5 -40.5q-28 -71 -28 -128q0 -68 28 -110.5t83 -76.5q199 -126 611 -126q479 0 767 161zM1158 -361l-147 -147l-148 148l147 147z" />
    <glyph glyph-name="uni0629" unicode="&#x629;" horiz-adv-x="1020" arabic-form="isolated" 
d="M426 842l-75 68l107 114q120 -107 214 -209q116 -133 177 -254q61 -122 61 -218q0 -258 -291 -319q-40 -8 -97 -8q-111 0 -202 44t-137 115q-47 71 -47 168q0 87 40 177q60 135 185 260zM278 344q0 -77 74 -123t170 -46q3 0 12 0.5t15 0.5q61 0 111.5 22t80.5 58
q26 31 26 82q0 69 -62 168q-65 104 -161 208l-18 20l-16 -15q-138 -117 -207 -267q-25 -54 -25 -108zM428 1360l-146 -146l-148 147l146 147zM783 1358l-145 -146l-148 148l146 146z" />
    <glyph glyph-name="uni062A" unicode="&#x62a;" horiz-adv-x="1948" arabic-form="isolated" 
d="M1745 339q-2 26 -7.5 52.5t-10.5 48t-15.5 49.5t-16.5 45.5t-20.5 46.5l-21 42t-23.5 43.5t-22 38.5t-23.5 40t-21.5 36l133 86q152 -236 189 -457q4 -24 4 -52q0 -53 -27 -88t-78 -69q-217 -123 -600 -169q-102 -12 -187 -12h-19q-522 5 -734 176q-143 115 -143 294
q0 132 79 278q24 44 34 59l126 -94q-10 -15 -18.5 -32.5l-19 -41l-18.5 -40.5q-28 -71 -28 -128q0 -68 28 -110.5t83 -76.5q199 -126 611 -126q479 0 767 161zM972 989l-146 -146l-148 147l146 147zM1327 987l-145 -146l-148 148l146 146z" />
    <glyph glyph-name="uni062B" unicode="&#x62b;" horiz-adv-x="1964" arabic-form="isolated" 
d="M1752 339q-2 26 -7.5 52.5t-10.5 48t-15.5 49.5t-16.5 45.5t-20.5 46.5l-21 42t-23.5 43.5t-22 38.5t-23.5 40t-21.5 36l133 86q152 -236 189 -457q4 -24 4 -52q0 -53 -27 -88t-78 -69q-217 -123 -600 -169q-102 -12 -187 -12h-19q-522 5 -734 176q-143 115 -143 294
q0 132 79 278q24 44 34 59l126 -94q-10 -15 -18.5 -32.5l-19 -41l-18.5 -40.5q-28 -71 -28 -128q0 -68 28 -110.5t83 -76.5q199 -126 611 -126q479 0 767 161zM1058 968l146 146l148 -148l-146 -146zM652 969l146 147l148 -148l-146 -147zM875 1259l132 132l133 -133
l-132 -132z" />
    <glyph glyph-name="uni062C" unicode="&#x62c;" horiz-adv-x="1570" arabic-form="isolated" 
d="M316 676l-65 42.5l-64 41.5q132 205 301 276q65 27 137 27q152 0 301 -79q49 -26 104.5 -63t91 -64l98.5 -76.5l89 -69.5q65 -49 130 -87l-63 -182q-84 9 -165 9q-332 0 -597 -140q-207 -109 -298 -277q-46 -84 -53 -173v-9q0 -291 313 -410q131 -50 297 -50
q155 0 278 42t237 122l90 -129q-298 -199 -643 -199q-239 0 -411.5 92.5t-256.5 257.5q-57 112 -57 257v21q0 211 157 392q145 166 379 255.5t537 89.5h35q-51 28 -114.5 74l-111 83.5t-113.5 77t-130 60.5q-51 17 -108 17q-58 0 -112 -26t-85 -55t-68 -72t-60 -76z
M1034 -93l-147 -147l-148 148l147 147z" />
    <glyph glyph-name="uni062D" unicode="&#x62d;" horiz-adv-x="1592" arabic-form="isolated" 
d="M310 676l-65 42.5l-64 41.5q132 205 301 276q65 27 137 27q152 0 301 -79q49 -26 104.5 -63t91 -64l98.5 -76.5l89 -69.5q65 -49 130 -87l-63 -182q-84 9 -165 9q-332 0 -597 -140q-207 -109 -298 -277q-46 -84 -53 -173v-9q0 -291 313 -410q131 -50 297 -50
q155 0 278 42t237 122l90 -129q-298 -199 -643 -199q-239 0 -411.5 92.5t-256.5 257.5q-57 112 -57 257v21q0 211 157 392q145 166 379 255.5t537 89.5h35q-51 28 -114.5 74l-111 83.5t-113.5 77t-130 60.5q-51 17 -108 17q-58 0 -112 -26t-85 -55t-68 -72t-60 -76z" />
    <glyph glyph-name="uni062E" unicode="&#x62e;" horiz-adv-x="1570" arabic-form="isolated" 
d="M310 676l-65 42.5l-64 41.5q132 205 301 276q65 27 137 27q152 0 301 -79q49 -26 104.5 -63t91 -64l98.5 -76.5l89 -69.5q65 -49 130 -87l-63 -182q-84 9 -165 9q-332 0 -597 -140q-207 -109 -298 -277q-46 -84 -53 -173v-9q0 -291 313 -410q131 -50 297 -50
q155 0 278 42t237 122l90 -129q-298 -199 -643 -199q-239 0 -411.5 92.5t-256.5 257.5q-57 112 -57 257v21q0 211 157 392q145 166 379 255.5t537 89.5h35q-51 28 -114.5 74l-111 83.5t-113.5 77t-130 60.5q-51 17 -108 17q-58 0 -112 -26t-85 -55t-68 -72t-60 -76z
M754 1442l-147 -147l-148 148l147 147z" />
    <glyph glyph-name="uni062F" unicode="&#x62f;" horiz-adv-x="1127" arabic-form="isolated" 
d="M409 958l65 146q162 -87 325 -284q97 -117 159 -249q54 -111 54 -223q0 -103 -56 -169q-131 -158 -411 -158q-159 0 -341 74q-52 21 -77 42l67 153q181 -106 390 -106q172 0 250 94q29 38 29 86q0 62 -41 146q-62 126 -198 270q-119 127 -215 178z" />
    <glyph glyph-name="uni0630" unicode="&#x630;" horiz-adv-x="1111" arabic-form="isolated" 
d="M409 958l65 146q162 -87 325 -284q97 -117 159 -249q54 -111 54 -223q0 -103 -56 -169q-131 -158 -411 -158q-159 0 -341 74q-52 21 -77 42l67 153q181 -106 390 -106q172 0 250 94q29 38 29 86q0 62 -41 146q-62 126 -198 270q-119 127 -215 178zM609 1464l-147 -147
l-148 148l147 147z" />
    <glyph glyph-name="uni0631" unicode="&#x631;" horiz-adv-x="757" arabic-form="isolated" 
d="M596 144q0 -9 1.5 -26t1.5 -28q0 -237 -195 -452q-181 -199 -437 -327l-69 140q228 117 377 275q74 78 122 173q46 91 46 191q0 21 -2 42.5t-6.5 46t-7.5 39.5t-10 43.5t-9 38.5q-31 134 -79 278l152 47q89 -308 115 -481z" />
    <glyph glyph-name="uni0632" unicode="&#x632;" horiz-adv-x="772" arabic-form="isolated" 
d="M596 144q0 -9 1.5 -26t1.5 -28q0 -237 -195 -452q-181 -199 -437 -327l-69 140q228 117 377 275q74 78 122 173q46 91 46 191q0 21 -2 42.5t-6.5 46t-7.5 39.5t-10 43.5t-9 38.5q-31 134 -79 278l152 47q89 -308 115 -481zM545 1056l-147 -147l-148 148l147 147z" />
    <glyph glyph-name="uni0633" unicode="&#x633;" horiz-adv-x="2654" arabic-form="isolated" 
d="M2407 430q-8 103 -39.5 192.5t-83.5 192.5l136 82q65 -111 115 -287q28 -101 28 -195q-5 -275 -175 -361q-62 -31 -145 -31q-89 0 -179 82q-30 27 -54 63q-58 -68 -128 -104t-169 -42h-11q-108 0 -209 85q2 -40 2 -59q0 -333 -217 -518q-200 -171 -487 -171q-16 0 -50 2
q-196 0 -332 79.5t-210 221.5q-72 137 -72 327q0 109 27 220q44 175 141 333l65 -46l58 -40q-132 -214 -132 -487q0 -170 78 -279t219 -151q64 -19 155 -19q113 5 202 24t165 57t126 95.5t78 142.5t28 195q0 149 -41.5 274t-112.5 251l138 78l24.5 -59l27 -63l27 -59t31 -61
l33 -53t39 -52t43 -41.5t50.5 -36.5q50 -29 110 -30q60 3 99.5 29.5t59 74.5t27 100t7.5 124v122q33 3 87 9t78 8q1 -6 1 -20v-21q0 -226 65 -352q42 -83 120 -83q53 0 90 38.5t52 92t15 114.5v12z" />
    <glyph glyph-name="uni0634" unicode="&#x634;" horiz-adv-x="2681" arabic-form="isolated" 
d="M2407 430q-8 103 -39.5 192.5t-83.5 192.5l136 82q65 -111 115 -287q28 -101 28 -195q-5 -275 -175 -361q-62 -31 -145 -31q-89 0 -179 82q-30 27 -54 63q-58 -68 -128 -104t-169 -42h-11q-108 0 -209 85q2 -40 2 -59q0 -333 -217 -518q-200 -171 -487 -171q-16 0 -50 2
q-196 0 -332 79.5t-210 221.5q-72 137 -72 327q0 109 27 220q44 175 141 333l65 -46l58 -40q-132 -214 -132 -487q0 -170 78 -279t219 -151q64 -19 155 -19q113 5 202 24t165 57t126 95.5t78 142.5t28 195q0 149 -41.5 274t-112.5 251l138 78l24.5 -59l27 -63l27 -59t31 -61
l33 -53t39 -52t43 -41.5t50.5 -36.5q50 -29 110 -30q60 3 99.5 29.5t59 74.5t27 100t7.5 124v122q33 3 87 9t78 8q1 -6 1 -20v-21q0 -226 65 -352q42 -83 120 -83q53 0 90 38.5t52 92t15 114.5v12zM1952 1142l146 146l148 -148l-146 -146zM1546 1143l146 147l148 -148
l-146 -147zM1769 1433l132 132l133 -133l-132 -132z" />
    <glyph glyph-name="uni0635" unicode="&#x635;" horiz-adv-x="2867" arabic-form="isolated" 
d="M1238 585q23 8 73.5 28t72.5 28l37 -86.5t39.5 -81t48 -81t54.5 -65t67 -54.5q100 182 258 333v-1q197 187 392 223q48 9 98 9h14q182 -4 296 -127q103 -103 103 -248v-14q-16 -176 -133.5 -283.5t-299.5 -149.5q-126 -29 -238 -29h-23q-184 0 -319.5 45t-264.5 133
q0 -2 0.5 -10t0.5 -14v-32q0 -6 1 -16.5t1 -15.5v-25q0 -250 -111.5 -412t-311.5 -229q-117 -39 -257 -39q-173 0 -307.5 46t-214.5 135q-130 143 -130 368v13q0 212 100 449q32 76 56 118l132 -85q-79 -148 -116 -339q-15 -77 -15 -151q0 -396 495 -396q224 0 359 114
q164 152 164 400q0 74 -9.5 146t-32 150.5t-36 120t-43.5 125.5zM1767 201q155 -57 337 -57q231 0 395 94q121 79 136 220v11q0 78 -57 132.5t-132 70.5q-37 8 -69 8q-60 0 -115.5 -16t-104 -46t-84 -58t-76.5 -68q-154 -147 -230 -291z" />
    <glyph glyph-name="uni0636" unicode="&#x636;" horiz-adv-x="2894" arabic-form="isolated" 
d="M1238 585q23 8 73.5 28t72.5 28l37 -86.5t39.5 -81t48 -81t54.5 -65t67 -54.5q100 182 258 333v-1q197 187 392 223q48 9 98 9h14q182 -4 296 -127q103 -103 103 -248v-14q-16 -176 -133.5 -283.5t-299.5 -149.5q-126 -29 -238 -29h-23q-184 0 -319.5 45t-264.5 133
q0 -2 0.5 -10t0.5 -14v-32q0 -6 1 -16.5t1 -15.5v-25q0 -250 -111.5 -412t-311.5 -229q-117 -39 -257 -39q-173 0 -307.5 46t-214.5 135q-130 143 -130 368v13q0 212 100 449q32 76 56 118l132 -85q-79 -148 -116 -339q-15 -77 -15 -151q0 -396 495 -396q224 0 359 114
q164 152 164 400q0 74 -9.5 146t-32 150.5t-36 120t-43.5 125.5zM1767 201q155 -57 337 -57q231 0 395 94q121 79 136 220v11q0 78 -57 132.5t-132 70.5q-37 8 -69 8q-60 0 -115.5 -16t-104 -46t-84 -58t-76.5 -68q-154 -147 -230 -291zM2421 1250l-147 -147l-148 148
l147 147z" />
    <glyph glyph-name="uni0637" unicode="&#x637;" horiz-adv-x="1776" arabic-form="isolated" 
d="M754 868q0 -21 1 -64.5t1 -69.5q0 -18 1.5 -58t1.5 -55q267 255 483 287q34 6 69 6q107 0 192 -44.5t135 -117.5q43 -62 47 -141q0 -3 0.5 -10t0.5 -11q0 -136 -86 -262q-79 -115 -225 -191q-223 -117 -519 -117q-44 0 -126 4h-4q-295 16 -608 132q12 29 29.5 76l26.5 71
q126 -48 256 -79q56 83 142 192q26 166 26 318q0 229 -46 628q-15 137 -21 171l157 21q40 -301 64 -640q2 -28 2 -46zM603 192q107 -10 112 -10h10q1 0 5 -0.5t5 -0.5l62 -2q21 -1 63 -1q203 0 343.5 46t242.5 148q37 37 60.5 92.5t23.5 119.5q0 87 -62 128.5t-161 41.5
q-27 0 -41 -2q-103 -16 -229 -98t-261 -232z" />
    <glyph glyph-name="uni0638" unicode="&#x638;" horiz-adv-x="1787" arabic-form="isolated" 
d="M754 868q0 -21 1 -64.5t1 -69.5q0 -18 1.5 -58t1.5 -55q267 255 483 287q34 6 69 6q107 0 192 -44.5t135 -117.5q43 -62 47 -141q0 -3 0.5 -10t0.5 -11q0 -136 -86 -262q-79 -115 -225 -191q-223 -117 -519 -117q-44 0 -126 4h-4q-295 16 -608 132q12 29 29.5 76l26.5 71
q126 -48 256 -79q56 83 142 192q26 166 26 318q0 229 -46 628q-15 137 -21 171l157 21q40 -301 64 -640q2 -28 2 -46zM603 192q107 -10 112 -10h10q1 0 5 -0.5t5 -0.5l62 -2q21 -1 63 -1q203 0 343.5 46t242.5 148q37 37 60.5 92.5t23.5 119.5q0 87 -62 128.5t-161 41.5
q-27 0 -41 -2q-103 -16 -229 -98t-261 -232zM1446 1338l-147 -147l-148 148l147 147z" />
    <glyph glyph-name="uni0639" unicode="&#x639;" horiz-adv-x="1543" arabic-form="isolated" 
d="M1408 -581q-120 -96 -257.5 -145t-322.5 -49q-353 0 -562 226q-141 151 -141 387q0 393 399 616q43 25 100 49l56 19l-47 24q-146 104 -146 298q0 161 123 284q53 53 127 87.5t158 37.5q4 0 11 0.5t10 0.5q91 0 190 -44q100 -43 183 -120l-99 -122q-93 72 -190 110
q-48 18 -90 18h-7q-74 -12 -129.5 -40t-92 -84t-36.5 -133q0 -81 45.5 -133t114.5 -72t163 -20q119 0 321 51q7 -30 14 -85t11 -78l-120.5 -20t-135.5 -23.5l-116.5 -23t-127 -31t-103.5 -36.5q-320 -133 -404 -373q-25 -72 -25 -154q0 -199 155 -324q73 -58 175 -91
t220 -33q277 0 483 159z" />
    <glyph glyph-name="uni063A" unicode="&#x63a;" horiz-adv-x="1548" arabic-form="isolated" 
d="M1408 -581q-120 -96 -257.5 -145t-322.5 -49q-353 0 -562 226q-141 151 -141 387q0 393 399 616q43 25 100 49l56 19l-47 24q-146 104 -146 298q0 161 123 284q53 53 127 87.5t158 37.5q4 0 11 0.5t10 0.5q91 0 190 -44q100 -43 183 -120l-99 -122q-93 72 -190 110
q-48 18 -90 18h-7q-74 -12 -129.5 -40t-92 -84t-36.5 -133q0 -81 45.5 -133t114.5 -72t163 -20q119 0 321 51q7 -30 14 -85t11 -78l-120.5 -20t-135.5 -23.5l-116.5 -23t-127 -31t-103.5 -36.5q-320 -133 -404 -373q-25 -72 -25 -154q0 -199 155 -324q73 -58 175 -91
t220 -33q277 0 483 159zM1006 1725l-147 -147l-148 148l147 147z" />
    <glyph glyph-name="uni0641" unicode="&#x641;" horiz-adv-x="1953" arabic-form="isolated" 
d="M326 769q-44 -109 -44 -210q0 -94 43 -165q72 -116 242.5 -170t400.5 -54h41q397 0 597 127q66 42 97 97q-74 -16 -148 -16q-217 0 -333 124q-58 67 -58 179q0 109 40 204t104 155q76 72 166 72q123 0 225 -112v-1q111 -122 153 -334q13 -66 13 -141q0 -77 -16.5 -140.5
t-44 -111.5t-72 -86t-92 -64t-114 -45t-127 -29.5t-141.5 -16.5t-148 -8t-155 -2q-595 0 -767 294q-64 110 -64 243q0 159 63 287l69.5 -38zM1709 572q-24 118 -51.5 197.5t-78.5 132.5q-41 43 -101 53q-21 4 -52 -19q-49 -36 -85 -101.5t-36 -136.5q0 -46 19.5 -80.5
t54.5 -53.5t77.5 -28t92.5 -9l70 4q56 6 93 16zM1630 1465l-147 -147l-148 148l147 147z" />
    <glyph glyph-name="uni0642" unicode="&#x642;" horiz-adv-x="1592" arabic-form="isolated" 
d="M265 -2q0 -225 140 -342.5t376 -117.5h18q185 0 325 146q125 131 167 334l-228 3q-217 16 -307 135q-65 83 -65 195q0 103 33.5 194t87.5 158q95 121 217 121q77 0 135 -32.5t111 -90.5v1q84 -94 133 -232.5t49 -303.5q0 -31 -1 -46l-3 -45q1 -1 -1 -32q-8 -144 -93 -309
q-182 -353 -594 -353q-288 0 -473 165q-86 77 -136 191.5t-50 259.5q0 29 3 61q16 218 142 462l68 -37.5t72 -38.5q-60 -116 -93 -221.5t-33 -224.5zM1184 175q61 0 117 4q-6 156 -57 280.5t-142 182.5q-36 23 -73 23q-79 -8 -137 -123q-51 -102 -51 -187q0 -64 29 -99v1
q36 -50 116 -66t198 -16zM971 1166l-146 -146l-148 147l146 147zM1326 1164l-145 -146l-148 148l146 146z" />
    <glyph glyph-name="uni0643" unicode="&#x643;" horiz-adv-x="2003" arabic-form="isolated" 
d="M1806 1490q37 -411 48 -886q2 -84 2 -96q-5 -160 -89.5 -257.5t-229.5 -155.5q-232 -86 -566 -86q-522 5 -734 176q-143 115 -143 295q0 132 79 278q24 45 34 59l126 -94q-2 -3 -5 -7l-2 -3q-4 -9 -22 -45.5t-27 -58.5q-25 -66 -25 -128q0 -67 28 -109t82 -78
q194 -126 609 -126q122 0 223 9.5t198.5 33t169 69.5t108.5 112q27 50 30 125q-22 637 -43 879q-7 74 -7 78zM829 400q-8 13 -19.5 34.5l-18.5 34.5l188 105q-44 19 -81 51.5t-54 71.5q-13 30 -13 70q0 66 36 113.5t91 70.5q45 18 94 18q60 0 108 -16l-23 -72q-9 1 -25.5 4
t-31 4.5t-28.5 1.5q-60 0 -101.5 -34t-41.5 -90q0 -45 29.5 -75t71.5 -45q20 -7 44 -7q20 0 46 8l-1 -1q38 12 134 71l47 -62q-54 -36 -233 -135z" />
    <glyph glyph-name="uni0644" unicode="&#x644;" horiz-adv-x="1472" arabic-form="isolated" 
d="M1086 1501q31 1 79.5 4t76.5 4q14 -305 44 -1107q8 -219 8 -416q0 -213 -93 -354t-256 -210q-136 -58 -278 -58h-17q-212 0 -380 137q-184 149 -184 406v11q5 311 109 476l143 -64q-96 -194 -96 -412q0 -244 223 -352q94 -46 180 -46h16q132 0 234 53.5t165 142.5
q78 111 78 270q0 529 -52 1515z" />
    <glyph glyph-name="uni0645" unicode="&#x645;" horiz-adv-x="1178" arabic-form="isolated" 
d="M293 406q31 0 91 -16q32 97 84.5 191t106.5 150q91 90 195 90h10q149 -6 231 -104.5t96 -258.5q1 -7 1 -22v-21q0 -99 -28.5 -181t-79.5 -130q-30 -28 -55.5 -40.5t-61.5 -12.5q-19 0 -39 2.5t-34 5.5t-36 10t-31 10.5l-34.5 13.5t-32.5 13q-35 13 -125 50v-1
q-168 72 -246 93q-31 8 -31 -14v-31l35 -914h-156l-36 908q0 152 115 199q24 10 61 10zM611 302l49.5 -21.5l56 -23.5l49.5 -19t59.5 -19t54.5 -12q36 15 54 80t18 131q0 73 -27 132t-71 89q-36 25 -80 25h-2q-40 0 -86 -48q-73 -75 -156 -282z" />
    <glyph glyph-name="uni0646" unicode="&#x646;" horiz-adv-x="1592" arabic-form="isolated" 
d="M286 -58q0 -220 127 -332t357 -119q5 0 15.5 -0.5t15.5 -0.5q189 0 316.5 79t182.5 220q38 97 38 215q0 265 -153 515l139 89q119 -178 162 -456q11 -72 11 -143q0 -245 -117.5 -406t-318.5 -231q-120 -41 -257 -41q-6 0 -18 0.5t-19 0.5q-226 4 -379 96t-217 260
q-44 115 -44 260q0 301 163 573l128 -94q-81 -129 -118 -335q-14 -78 -14 -150zM966 641l-147 -147l-148 148l147 147z" />
    <glyph glyph-name="uni0647" unicode="&#x647;" horiz-adv-x="974" arabic-form="isolated" 
d="M389 842l-75 68l107 114q120 -107 214 -209q116 -133 177 -254q61 -122 61 -218q0 -258 -291 -319q-40 -8 -97 -8q-111 0 -202 44t-137 115q-47 71 -47 168q0 87 40 177q60 135 185 260zM241 344q0 -77 74 -123t170 -46q3 0 12 0.5t15 0.5q61 0 111.5 22t80.5 58
q26 31 26 82q0 69 -62 168q-65 104 -161 208l-18 20l-16 -15q-138 -117 -207 -267q-25 -54 -25 -108z" />
    <glyph glyph-name="uni0648" unicode="&#x648;" horiz-adv-x="1083" arabic-form="isolated" 
d="M661 178q49 0 129 5q-7 157 -57.5 281t-142.5 182q-37 24 -72 24q-48 0 -96 -52q-105 -113 -105 -256q0 -59 36 -106v1q79 -79 231 -79h77zM244 159q-61 79 -61 200q0 78 35 187q59 180 185 250q56 31 115 31q133 0 246 -122v1q86 -96 135 -232.5t49 -303.5
q0 -214 -116 -406q-80 -131 -205 -230t-281 -158q-100 -38 -208 -55l-37 154q291 64 482 225q175 148 201 320h-77q-14 -1 -43 -1q-208 0 -336 67q-55 29 -84 74v-1z" />
    <glyph glyph-name="uni0649" unicode="&#x649;" horiz-adv-x="1733" arabic-form="isolated" 
d="M1626 634q-67 25 -143 25q-43 0 -72 -7q-121 -14 -241 -142q-74 -80 -107 -173q-16 -45 -16 -90t17.5 -79.5t43.5 -54t66.5 -35.5t75.5 -24l82.5 -18.5t75.5 -19.5q88 -28 139 -77.5t51 -140.5q0 -27 -6 -63q-34 -194 -263 -306q-218 -112 -544 -112q-181 0 -324.5 54
t-233.5 152q-132 155 -132 377q0 49 6.5 101t12 79.5t20.5 93.5q54 239 113 407q3 -1 78 -28l75 -27q-92 -282 -136 -548q-5 -58 -5 -78q0 -283 271 -378q114 -40 255 -40q283 0 465 88q84 40 130 91q51 56 51 110q0 15 -6 28.5t-19.5 23.5t-26 17.5t-33 14.5t-33 10.5
t-35 9t-29.5 7.5q-38 10 -57 16l-54.5 17t-55.5 20.5l-49 24t-46.5 30.5t-36 36.5t-30 45.5t-17.5 54q-10 47 -10 100q0 201 140 373q72 89 172.5 148t223.5 73q25 3 50 3q94 0 218 -42l-37.5 -77z" />
    <glyph glyph-name="uni064A" unicode="&#x64a;" horiz-adv-x="1781" arabic-form="isolated" 
d="M1626 634q-67 25 -143 25q-43 0 -72 -7q-121 -14 -241 -142q-74 -80 -107 -173q-16 -45 -16 -90t17.5 -79.5t43.5 -54t66.5 -35.5t75.5 -24l82.5 -18.5t75.5 -19.5q88 -28 139 -77.5t51 -140.5q0 -27 -6 -63q-34 -194 -263 -306q-218 -112 -544 -112q-181 0 -324.5 54
t-233.5 152q-132 155 -132 377q0 49 6.5 101t12 79.5t20.5 93.5q54 239 113 407q3 -1 78 -28l75 -27q-92 -282 -136 -548q-5 -58 -5 -78q0 -283 271 -378q114 -40 255 -40q283 0 465 88q84 40 130 91q51 56 51 110q0 15 -6 28.5t-19.5 23.5t-26 17.5t-33 14.5t-33 10.5
t-35 9t-29.5 7.5q-38 10 -57 16l-54.5 17t-55.5 20.5l-49 24t-46.5 30.5t-36 36.5t-30 45.5t-17.5 54q-10 47 -10 100q0 201 140 373q72 89 172.5 148t223.5 73q25 3 50 3q94 0 218 -42l-37.5 -77zM773 -993l-146 -146l-148 147l146 147zM1128 -995l-145 -146l-148 148
l146 146z" />
    <glyph glyph-name="uni066E.init" unicode="&#x66e;" horiz-adv-x="700" 
d="M-7 20q-32 0 -55 22.5t-23 55.5t23 55.5t55 22.5h125q4 0 12 -0.5t11 -0.5q114 0 184 29.5t105 100.5q16 32 16 88q0 54 -19 140.5t-45 148.5l-60 144l142 71q96 -216 126 -372q13 -68 13 -130q0 -173 -123 -279q-110 -96 -341 -96h-146z" />
    <glyph glyph-name="uni066E.medi" unicode="&#x66e;" horiz-adv-x="705" 
d="M4 20q-34 0 -56 22t-22 56q0 32 22.5 55t55.5 23h17q167 0 256.5 59t89.5 197q0 96 -39 232q30 7 76.5 21.5t72.5 21.5q48 -181 50 -291q2 -61 8.5 -100t25 -73.5t53.5 -50.5t90 -16q32 0 55.5 -23t23.5 -55q0 -33 -23 -55.5t-55 -22.5q-170 0 -272 134
q-137 -134 -412 -134h-17z" />
    <glyph glyph-name="uni066E.fina" unicode="&#x66e;" horiz-adv-x="2316" 
d="M2308 20q-338 4 -439 290q-281 -293 -841 -293q-292 2 -488.5 67t-287.5 218q-64 109 -64 243q0 155 84 334q118 -67 139 -78l-21.5 -50.5t-25 -62.5t-14.5 -57.5t-8 -73.5q0 -75 26.5 -134t68 -97t104.5 -66.5t123.5 -43.5t136.5 -26q97 -14 227 -14q336 0 538 97
t285 323q13 37 30 90q32 -8 82 -22.5t70 -19.5q-30 -131 -30 -175v-10q4 -140 84 -211.5t229 -71.5q33 0 56 -22.5t23 -55.5t-23 -55.5t-56 -22.5h-8z" />
    <glyph glyph-name="uni066F.init" unicode="&#x66f;" horiz-adv-x="895" 
d="M536 887q-51 60 -108 60q-41 0 -96 -55q-36 -36 -60 -92t-24 -120q0 -51 27 -81h-1q57 -73 242 -73h94q17 0 61 4q-19 235 -135 358v-1zM-3 20q-31 0 -54.5 23t-23.5 55q0 33 23.5 55.5t56.5 22.5q99 0 171.5 3.5t153 15t138.5 32t110.5 56t87.5 85.5h-154
q-108 0 -193.5 33.5t-136.5 93.5q-28 23 -42 74.5t-14 109.5q0 105 44 205q61 140 156 193q50 28 108 28q123 0 225 -111q117 -130 155 -346q12 -67 12 -137q0 -85 -22.5 -154.5t-61 -120t-96.5 -88.5t-123 -62t-146 -39t-160 -21t-170 -6h-44z" />
    <glyph glyph-name="uni066F.medi" unicode="&#x66f;" horiz-adv-x="1019" 
d="M508 761q-69 0 -136 -67q-76 -76 -76 -199q0 -59 58 -125q64 -73 165 -119q124 55 165 183q11 34 11 72q0 74 -35 137.5t-86 96.5q-33 21 -66 21zM0 20q-34 0 -56 22t-22 56t22 56t56 22q143 0 309 21q-116 104 -145 223q-10 42 -10 72q0 128 59.5 227.5t152.5 156.5
q64 39 143 42q117 -6 196 -75t114 -174q22 -66 22 -139q0 -177 -135 -323q147 -31 312 -31q34 0 56.5 -22t22.5 -56q0 -33 -22.5 -55.5t-56.5 -22.5h-9q-272 0 -486 72q-185 -72 -515 -72h-8z" />
    <glyph glyph-name="uni066F.fina" unicode="&#x66f;" horiz-adv-x="1570" 
d="M1022 668q-44 0 -93 -60q-77 -92 -95 -230q-1 -8 -1 -25q0 -35 11.5 -63t28.5 -46.5t46.5 -31.5t56 -20t67.5 -10.5t70.5 -4.5t74.5 -1h44h62q-11 266 -144 422q-61 70 -128 70zM383 449q-60 -115 -93 -221t-33 -226q0 -145 64 -249t173 -157q111 -54 263 -54
q302 0 451 263q43 80 73 212h-49q-246 0 -358 49q-65 29 -106.5 72t-65.5 110q-18 51 -18 106q0 100 34 192.5t86 157.5q96 122 218 122q134 0 245 -122q170 -189 184 -526q26 -2 55 -2h65q32 0 55.5 -23t23.5 -55q0 -31 -23.5 -54.5t-55.5 -23.5h-131q-60 -355 -297 -526h1
q-162 -111 -387 -111q-201 0 -345 76t-227 212q-86 144 -86 332q0 4 0.5 14t0.5 15q0 20 1 29q23 228 142 462z" />
    <glyph glyph-name="uni0671" unicode="&#x671;" horiz-adv-x="573" arabic-form="isolated" 
d="M393 607q0 -302 -19 -593l-157 9q19 288 19 590q0 283 -29 671q-9 118 -20 200q22 4 154 17q52 -394 52 -894zM319 1782q208 0 217 101q0 31 -23.5 48.5t-56.5 17.5q-67 0 -118 -49.5t-80 -114.5q27 -3 61 -3zM460 2014q62 0 103 -39.5t41 -100.5q0 -51 -44.5 -88
t-106.5 -53.5t-130 -16.5q-74 0 -117.5 13t-69.5 50q-14 10 -34 10q-38 0 -100 -41l-18 68q70 37 121 37q58 0 90 -45q22 41 43.5 71.5t54 64t75 52t92.5 18.5z" />
    <glyph glyph-name="uni0679" unicode="&#x679;" horiz-adv-x="1970" arabic-form="isolated" 
d="M1759 339q-2 26 -7.5 52.5t-10.5 48t-15.5 49.5t-16.5 45.5t-20.5 46.5l-21 42t-23.5 43.5t-22 38.5t-23.5 40t-21.5 36l133 86q152 -236 189 -457q4 -24 4 -52q0 -53 -27 -88t-78 -69q-217 -123 -600 -169q-102 -12 -187 -12h-19q-522 5 -734 176q-143 115 -143 294
q0 132 79 278q24 44 34 59l126 -94q-10 -15 -18.5 -32.5l-19 -41l-18.5 -40.5q-28 -71 -28 -128q0 -68 28 -110.5t83 -76.5q199 -126 611 -126q479 0 767 161zM1169 1226q69 0 118 -36.5t49 -99.5q0 -74 -59 -139q-120 -105 -295 -105h-28q-139 0 -289 57q20 45 26 61
q37 -14 108 -34l32 44l13 18t16 21q13 74 13 138q0 144 -34 337l69 9q1 -10 5 -43l6 -50l6 -60q4 -44 5 -53l3 -45q3 -26 3 -42q0 -3 1 -11t1 -13v-81q56 53 111 86q70 41 120 41zM871 918q43 -5 57 -5q9 -1 28 -1h28q154 0 247 84q39 39 39 81q0 37 -26.5 61t-65.5 24
q-32 0 -58 -11.5t-62 -36.5q-82 -58 -132 -124q-6 -8 -18 -22z" />
    <glyph glyph-name="uni067E" unicode="&#x67e;" horiz-adv-x="1964" arabic-form="isolated" 
d="M1758 339q-2 26 -7.5 52.5t-10.5 48t-15.5 49.5t-16.5 45.5t-20.5 46.5l-21 42t-23.5 43.5t-22 38.5t-23.5 40t-21.5 36l133 86q152 -236 189 -457q4 -24 4 -52q0 -53 -27 -88t-78 -69q-217 -123 -600 -169q-102 -12 -187 -12h-19q-522 5 -734 176q-143 115 -143 294
q0 132 79 278q24 44 34 59l126 -94q-10 -15 -18.5 -32.5l-19 -41l-18.5 -40.5q-28 -71 -28 -128q0 -68 28 -110.5t83 -76.5q199 -126 611 -126q479 0 767 161zM1211 -162l146 -146l-148 -148l-146 146zM805 -163l146 -147l-148 -148l-146 147zM1013 -468l132 -132l-133 -133
l-132 132z" />
    <glyph glyph-name="uni0686" unicode="&#x686;" horiz-adv-x="1598" arabic-form="isolated" 
d="M334 676l-65 42.5l-64 41.5q132 205 301 276q65 27 137 27q152 0 301 -79q49 -26 104.5 -63t91 -64l98.5 -76.5l89 -69.5q65 -49 130 -87l-63 -182q-84 9 -165 9q-332 0 -597 -140q-207 -109 -298 -277q-46 -84 -53 -173v-9q0 -291 313 -410q131 -50 297 -50
q155 0 278 42t237 122l90 -129q-298 -199 -643 -199q-239 0 -411.5 92.5t-256.5 257.5q-57 112 -57 257v21q0 211 157 392q145 166 379 255.5t537 89.5h35q-51 28 -114.5 74l-111 83.5t-113.5 77t-130 60.5q-51 17 -108 17q-58 0 -112 -26t-85 -55t-68 -72t-60 -76z
M1091 154l140 -140l-142 -142l-141 140zM700 153l141 -141l-143 -142l-140 141zM900 -140l127 -127l-128 -128l-127 127z" />
    <glyph glyph-name="uni0688" unicode="&#x688;" horiz-adv-x="1149" arabic-form="isolated" 
d="M417 958l65 146q162 -87 325 -284q97 -117 159 -249q54 -111 54 -223q0 -103 -56 -169q-131 -158 -411 -158q-159 0 -341 74q-52 21 -77 42l67 153q181 -106 390 -106q172 0 250 94q29 38 29 86q0 62 -41 146q-62 126 -198 270q-119 127 -215 178zM673 1668
q69 0 118 -36.5t49 -99.5q0 -74 -59 -139q-120 -105 -295 -105h-28q-139 0 -289 57q20 45 26 61q37 -14 108 -34l32 44l13 18t16 21q13 74 13 138q0 144 -34 337l69 9q1 -10 5 -43l6 -50l6 -60q4 -44 5 -53l3 -45q3 -25 3 -42q0 -3 1 -11t1 -13v-81q56 53 111 86
q70 41 120 41zM375 1360q42 -5 57 -5q9 -1 28 -1h28q154 0 247 84q39 39 39 81q0 37 -26.5 61t-65.5 24q-32 0 -58 -11.5t-62 -36.5q-82 -58 -132 -124q-6 -8 -18 -22z" />
    <glyph glyph-name="uni0691" unicode="&#x691;" horiz-adv-x="864" arabic-form="isolated" 
d="M596 144q0 -9 1.5 -26t1.5 -28q0 -237 -195 -452q-181 -199 -437 -327l-69 140q228 117 377 275q74 78 122 173q46 91 46 191q0 21 -2 42.5t-6.5 46t-7.5 39.5t-10 43.5t-9 38.5q-31 134 -79 278l152 47q89 -308 115 -481zM583 1320q69 0 118 -36.5t49 -99.5
q0 -74 -59 -139q-120 -105 -295 -105h-28q-139 0 -289 57q20 45 26 61q37 -14 108 -34l32 44l13 18t16 21q13 74 13 138q0 144 -34 337l69 9q1 -10 5 -43l6 -50l6 -60q4 -44 5 -53l3 -45q3 -26 3 -42q0 -3 1 -11t1 -13v-81q56 53 111 86q70 41 120 41zM285 1012q42 -5 57 -5
q9 -1 28 -1h28q154 0 247 84q39 39 39 81q0 37 -26.5 61t-65.5 24q-32 0 -58 -11.5t-62 -36.5q-82 -58 -132 -124q-6 -8 -18 -22z" />
    <glyph glyph-name="uni0698" unicode="&#x698;" horiz-adv-x="930" arabic-form="isolated" 
d="M694 144q0 -9 1.5 -26t1.5 -28q0 -237 -195 -452q-181 -199 -437 -327l-69 140q228 117 377 275q74 78 122 173q46 91 46 191q0 21 -2 42.5t-6.5 46t-7.5 39.5t-10 43.5t-9 38.5q-31 134 -79 278l152 47q89 -308 115 -481zM520 1082l146 146l148 -148l-146 -146z
M114 1083l146 147l148 -148l-146 -147zM337 1373l132 132l133 -133l-132 -132z" />
    <glyph glyph-name="uni06A9" unicode="&#x6a9;" horiz-adv-x="2059" arabic-form="isolated" 
d="M340 735q-28 -51 -40.5 -75.5t-27.5 -73.5t-15 -94q0 -67 27.5 -110t80.5 -78q180 -118 613 -123q58 -4 88 -4q181 0 365 46q176 44 243 117q49 53 49 115q0 83 -79 191q-61 85 -182 194q-92 83 -267 223q3 36 11.5 104t11.5 103l830 346l62 -144l-796 -320
q267 -221 368 -332q78 -85 128 -175q50 -89 50 -180q0 -80 -37 -155t-91 -118q-203 -163 -594 -169q-14 0 -41 -0.5t-40 -0.5l-81 1q-372 10 -568 80q-201 80 -269 220q-40 76 -40 168q0 172 114 337q35 -27 127 -93z" />
    <glyph glyph-name="uni06AA.init" unicode="&#x6aa;" horiz-adv-x="2138" 
d="M-6 20q-32 0 -55 23t-23 55t23 55t55 23h7q1 0 3 -0.5t3 -0.5h191q977 0 1507 45q104 9 188 21l-9 27q-60 109 -154 156q-60 30 -197 30q-134 0 -350 -30q-1 -1 -3 -1h-1l-5 -1h-8q-39 0 -122 -6.5t-122 -7.5q-36 -1 -113 -1h-54q-179 3 -300 29v-1q-83 18 -140 60
t-57 114v13q0 64 28 124.5t69.5 105.5t102 89.5t111.5 73t113 57.5l408 153l48 -138q-285 -78 -526 -226q-136 -84 -195 -167q-31 -43 -32 -79q27 -16 121 -33q116 -21 303 -21q191 0 307 11q34 3 123.5 13.5t160 16.5t135.5 6q184 0 285 -56q123 -75 197 -204
q34 -60 66 -131l-1 1l2 -5l-70 -117h-7q-44 -4 -146 -17.5t-159 -19.5q-294 -30 -552 -33l-1153 -6h-3z" />
    <glyph glyph-name="uni06AA.medi" unicode="&#x6aa;" horiz-adv-x="2675" 
d="M-14 20q-32 0 -55 23t-23 55t23 55t55 23h128q20 0 59.5 -1t58.5 -1h433q33 0 104.5 1t109.5 1h141q473 0 708 18q124 9 281 25l135 13l-16 32l-1 3q-31 52 -71 99q-23 27 -32 36.5t-27.5 19.5t-43.5 14q-60 9 -138 9q-136 0 -388 -32h-7q-14 0 -32 -1.5l-43.5 -3.5
t-40.5 -3q-150 -8 -252 -8h-48q-180 3 -301 29v-1q-83 18 -140 60t-57 114v13q0 141 136 267q208 196 695 345l41 -149q-330 -101 -520 -224q-122 -78 -172 -165q-24 -42 -27 -81q26 -15 66.5 -25t70 -13.5t88.5 -8.5q82 -7 173 -7q191 0 307 11l127.5 14t181.5 17.5
t142 5.5q181 0 257 -42q99 -59 193 -218l27 -51q47 -62 141.5 -86t238.5 -26h3q31 0 54.5 -23t23.5 -55t-23.5 -55t-54.5 -23q-219 5 -396 69q0 -1 -1.5 -1.5t-5 -1.5t-8.5 -1.5t-13 -1.5t-17 -2q-67 -6 -136.5 -11.5t-149.5 -10.5l-140 -8.5t-154 -7t-143 -5.5t-155.5 -5.5
t-143 -4.5t-154.5 -4t-144 -4q-114 -3 -199 -3q-36 0 -101 0.5t-94 0.5h-178q-43 0 -86 1t-86 1h-184z" />
    <glyph glyph-name="uni06AA.fina" unicode="&#x6aa;" horiz-adv-x="2720" 
d="M1392 1224q5 -18 18 -69t23 -80q-319 -99 -523 -224q-135 -82 -192 -165q-28 -41 -31 -81q27 -15 123 -33q123 -21 302 -21q191 0 308 11q33 3 130.5 14t174 17t145.5 6q181 0 257 -42q98 -59 193 -218l27 -51q47 -62 138.5 -86t235.5 -26q31 0 54.5 -23t23.5 -55
t-23.5 -55t-54.5 -23q-138 2 -308 44q-21 8 -31 8q-9 0 -17 2.5t-18.5 7.5t-17.5 8h-3q-4 -1 -12 -2t-18 -2q-887 -81 -1531 -81q-444 0 -717 42q5 26 13 75t13 77q253 -39 693 -39q633 0 1291 60q82 8 141 12l-16 32l-1 3q-70 121 -135 158q-7 7 -39 11q-62 9 -138 9
q-138 0 -388 -32h-7q-13 0 -31 -1.5l-43 -3.5t-41 -3q-152 -8 -253 -8h-48q-180 3 -301 29v-1q-83 18 -140 60t-57 114v13q0 141 136 267q208 196 695 345z" />
    <glyph glyph-name="uni06AF" unicode="&#x6af;" horiz-adv-x="2052" arabic-form="isolated" 
d="M340 733q-28 -51 -40.5 -75.5t-27.5 -73.5t-15 -94q0 -67 27.5 -110t80.5 -78q180 -118 613 -123q58 -4 88 -4q181 0 365 46q176 44 243 117q49 53 49 115q0 83 -79 191q-61 85 -182 194q-92 83 -267 223q3 36 11.5 104t11.5 103l830 346l62 -144l-796 -320
q267 -221 368 -332q78 -85 128 -175q50 -89 50 -180q0 -80 -37 -155t-91 -118q-203 -163 -594 -169q-14 0 -41 -0.5t-40 -0.5l-81 1q-372 10 -568 80q-201 80 -269 220q-40 76 -40 168q0 172 114 337q35 -27 127 -93zM1993 1766l-390 -165l-391 -165q1 21 3.5 54t3.5 52
l735 307z" />
    <glyph glyph-name="uni06BA" unicode="&#x6ba;" horiz-adv-x="1630" arabic-form="isolated" 
d="M286 -58q0 -220 127 -332t357 -119q5 0 15.5 -0.5t15.5 -0.5q189 0 316.5 79t182.5 220q38 97 38 215q0 265 -153 515l139 89q119 -178 162 -456q11 -72 11 -143q0 -245 -117.5 -406t-318.5 -231q-120 -41 -257 -41q-6 0 -18 0.5t-19 0.5q-226 4 -379 96t-217 260
q-44 115 -44 260q0 301 163 573l128 -94q-81 -129 -118 -335q-14 -78 -14 -150z" />
    <glyph glyph-name="uni06BE" unicode="&#x6be;" horiz-adv-x="1604" arabic-form="isolated" 
d="M704 78q-76 -25 -201 -25q-210 0 -379 48q-38 11 -60 28.5t-22 50.5q0 32 22 54t55 22q12 0 24 -3q119 -40 205 -53q45 -7 89 -7q34 0 67 5q-90 88 -130 167q-42 82 -42 158q0 100 40.5 181.5t105.5 135.5q55 45 120 66l-107 41l77 144l241.5 -91.5t208.5 -88.5t222 -111
q156 -89 216 -170q88 -121 88 -248q0 -200 -199 -308l1 1q-95 -58 -306 -58q-184 0 -336 61zM1076 599v-28q0 -84 -52 -200q-51 -111 -137 -188q67 -14 134 -14h48q111 0 191 35t116 104q21 40 21 86q0 87 -91 182q-103 106 -257 169q27 -66 27 -146zM780 801q-14 3 -26 3
q-49 0 -117 -34q-67 -35 -109.5 -92.5t-42.5 -137.5q0 -91 72 -179q51 -62 134 -112q160 70 207 237q13 46 13 93q0 135 -77 198q-24 19 -53 24h-1z" />
    <glyph glyph-name="uni06C0" unicode="&#x6c0;" horiz-adv-x="983" arabic-form="isolated" 
d="M389 842l-75 68l107 114q120 -107 214 -209q116 -133 177 -254q61 -122 61 -218q0 -258 -291 -319q-40 -8 -97 -8q-111 0 -202 44t-137 115q-47 71 -47 168q0 87 40 177q60 135 185 260zM241 344q0 -77 74 -123t170 -46q3 0 12 0.5t15 0.5q61 0 111.5 22t80.5 58
q26 31 26 82q0 69 -62 168q-65 104 -161 208l-18 20l-16 -15q-138 -117 -207 -267q-25 -54 -25 -108zM337 1261q-58 24 -96.5 74.5t-38.5 119.5q0 95 66.5 153.5t164.5 58.5q42 0 120 -19l-28 -92q-48 13 -92 13q-35 0 -62 -12v2q-29 -12 -50 -41t-21 -63q0 -15 8 -36l-1 1
q13 -34 49 -58t79 -24q26 0 55.5 10.5t40.5 17l42 25.5q24 14 43 29l59 -78l-41.5 -28.5t-50.5 -31l-42.5 -24.5l-56 -30.5t-51.5 -27.5l-227 -126l-48 87z" />
    <glyph glyph-name="uni06C1" unicode="&#x6c1;" horiz-adv-x="1313" arabic-form="final" 
d="M1391 98q0 -32 -23.5 -55t-54.5 -23q-109 0 -185 44.5t-148 123.5l-77 87l-77 87q-75 80 -148 114q-39 18 -84 18q-41 0 -83 -13q-96 -33 -171 -161q-66 -110 -111 -280l-150 40q42 158 100 276.5t145 195.5q112 98 270 98q125 0 238 -84q43 -32 82.5 -71t92 -100.5
l71.5 -82.5q73 -80 150 -117q39 -19 85 -19q31 0 54.5 -23t23.5 -55z" />
    <glyph glyph-name="twodots.above_uni0647" unicode="&#x6c3;" horiz-adv-x="1020" 
d="M426 842l-75 68l107 114q120 -107 214 -209q116 -133 177 -254q61 -122 61 -218q0 -258 -291 -319q-40 -8 -97 -8q-111 0 -202 44t-137 115q-47 71 -47 168q0 87 40 177q60 135 185 260zM278 344q0 -77 74 -123t170 -46q3 0 12 0.5t15 0.5q61 0 111.5 22t80.5 58
q26 31 26 82q0 69 -62 168q-65 104 -161 208l-18 20l-16 -15q-138 -117 -207 -267q-25 -54 -25 -108zM411 1370l-146 -146l-148 147l146 147zM766 1368l-145 -146l-148 148l146 146z" />
    <glyph glyph-name="uni06CC" unicode="&#x6cc;" horiz-adv-x="1759" arabic-form="isolated" 
d="M1626 634q-67 25 -143 25q-43 0 -72 -7q-121 -14 -241 -142q-74 -80 -107 -173q-16 -45 -16 -90t17.5 -79.5t43.5 -54t66.5 -35.5t75.5 -24l82.5 -18.5t75.5 -19.5q88 -28 139 -77.5t51 -140.5q0 -27 -6 -63q-34 -194 -263 -306q-218 -112 -544 -112q-181 0 -324.5 54
t-233.5 152q-132 155 -132 377q0 49 6.5 101t12 79.5t20.5 93.5q54 239 113 407q3 -1 78 -28l75 -27q-92 -282 -136 -548q-5 -58 -5 -78q0 -283 271 -378q114 -40 255 -40q283 0 465 88q84 40 130 91q51 56 51 110q0 15 -6 28.5t-19.5 23.5t-26 17.5t-33 14.5t-33 10.5
t-35 9t-29.5 7.5q-38 10 -57 16l-54.5 17t-55.5 20.5l-49 24t-46.5 30.5t-36 36.5t-30 45.5t-17.5 54q-10 47 -10 100q0 201 140 373q72 89 172.5 148t223.5 73q25 3 50 3q94 0 218 -42l-37.5 -77z" />
    <glyph glyph-name="uni06D2" unicode="&#x6d2;" horiz-adv-x="1975" arabic-form="isolated" 
d="M1012 -104q-122 0 -186 -1h-34q-212 0 -363 28t-239 106q-40 35 -59.5 68t-19.5 84q0 12 1.5 22t6 20.5l7 16.5t9.5 19t10 18q26 48 77 85.5t121.5 61.5t132 38t141.5 26q71 11 208 24l-36 -147q-336 -25 -483 -117q-30 -18 -43 -40q-10 -14 -10 -24q0 -28 35 -52
q74 -52 194.5 -68t295.5 -16q16 0 46.5 -0.5t44.5 -0.5h132q44 0 90.5 1.5t84 3t90.5 5.5t82 6t88.5 9t80.5 9t86.5 10.5t78.5 10t84.5 11t77.5 10.5q57 7 84 12l-23 -87q-4 -11 -17 -70q-389 -56 -703 -76q-95 -6 -173 -6z" />
    <glyph glyph-name="uni06D3" unicode="&#x6d3;" horiz-adv-x="2024" arabic-form="isolated" 
d="M1045 -104q-122 0 -186 -1h-34q-212 0 -363 28t-239 106q-40 35 -59.5 68t-19.5 84q0 12 1.5 22t6 20.5l7 16.5t9.5 19t10 18q26 48 77 85.5t121.5 61.5t132 38t141.5 26q71 11 208 24l-36 -147q-336 -25 -483 -117q-30 -18 -43 -40q-10 -14 -10 -24q0 -28 35 -52
q74 -52 194.5 -68t295.5 -16q16 0 46.5 -0.5t44.5 -0.5h132q44 0 90.5 1.5t84 3t90.5 5.5t82 6t88.5 9t80.5 9t86.5 10.5t78.5 10t84.5 11t77.5 10.5q57 7 84 12l-23 -87q-4 -11 -17 -70q-389 -56 -703 -76q-95 -6 -173 -6zM473 727q-58 24 -96.5 74.5t-38.5 119.5
q0 95 66.5 153.5t164.5 58.5q42 0 120 -19l-28 -92q-48 13 -92 13q-35 0 -62 -12v2q-29 -12 -50 -41t-21 -63q0 -15 8 -36l-1 1q13 -34 49 -58t79 -24q26 0 55.5 10.5t40.5 17l42 25.5q24 14 43 29l59 -78l-41.5 -28.5t-50.5 -31l-42.5 -24.5l-56 -30.5t-51.5 -27.5
l-227 -126l-48 87z" />
    <glyph glyph-name="uniFB51" unicode="&#x671;" horiz-adv-x="611" arabic-form="final" 
d="M691 98q0 -33 -23 -55.5t-56 -22.5q-207 0 -307 100q-81 81 -81 260q4 81 4 285v129q0 280 -21 566q-4 57 -12 102l156 28q33 -204 33 -668v-40q0 -25 0.5 -71t0.5 -66q0 -27 -0.5 -74t-0.5 -67q0 -84 -1 -126v-17q0 -52 6.5 -80.5t29.5 -49.5q52 -52 184 -55h9
q32 0 55.5 -23t23.5 -55zM332 1786q208 0 217 101q0 31 -23.5 48.5t-56.5 17.5q-67 0 -118 -49.5t-80 -114.5q27 -3 61 -3zM473 2018q62 0 103 -39.5t41 -100.5q0 -51 -44.5 -88t-106.5 -53.5t-130 -16.5q-74 0 -117.5 13t-69.5 50q-14 10 -34 10q-39 0 -100 -41l-18 68
q70 37 121 37q58 0 90 -45q22 41 43.5 71.5t54 64t75 52t92.5 18.5z" />
    <glyph glyph-name="uniFB57" unicode="&#x67e;" horiz-adv-x="2247" arabic-form="final" 
d="M2228 20q-338 4 -439 290q-281 -293 -841 -293q-292 2 -488.5 67t-287.5 218q-64 109 -64 243q0 155 84 334q118 -67 139 -78l-21.5 -50.5t-25 -62.5t-14.5 -57.5t-8 -73.5q0 -75 26.5 -134t68 -97t104.5 -66.5t123.5 -43.5t136.5 -26q97 -14 227 -14q336 0 538 97
t285 323q13 37 30 90q32 -8 82 -22.5t70 -19.5q-30 -131 -30 -175v-10q4 -140 84 -211.5t229 -71.5q33 0 56 -22.5t23 -55.5t-23 -55.5t-56 -22.5h-8zM1221 -151l146 -146l-148 -148l-146 146zM815 -152l146 -147l-148 -148l-146 147zM1023 -457l132 -132l-133 -133
l-132 132z" />
    <glyph glyph-name="uniFB58" unicode="&#x67e;" horiz-adv-x="859" arabic-form="initial" 
d="M0 20q-32 0 -55 22.5t-23 55.5t23 55.5t55 22.5h111q64 0 109.5 1.5t104.5 9t98.5 20.5t75 38t51.5 60q16 32 16 88q0 39 -9 85.5t-16 70t-25 79.5q-18 60 -80 198l142 71q96 -216 126 -372q13 -68 13 -130q0 -173 -123 -279q-62 -54 -154 -75t-225 -21h-215zM575 -202
l146 -146l-148 -148l-146 146zM169 -203l146 -147l-148 -148l-146 147zM377 -508l132 -132l-133 -133l-132 132z" />
    <glyph glyph-name="uniFB59" unicode="&#x67e;" horiz-adv-x="859" arabic-form="medial" 
d="M-3 20q-33 0 -55.5 22.5t-22.5 55.5t22.5 55.5t55.5 22.5h76q61 0 108 3t100.5 11t92.5 24.5t72 41t50 64t17 90.5v12q-7 121 -37 227q32 8 79 22.5t70 20.5q18 -66 35 -198.5t24 -171.5q27 -146 171 -146q33 0 56.5 -22.5t23.5 -55.5t-23 -55.5t-55 -22.5
q-169 0 -273 138q-74 -71 -210 -104.5t-301 -33.5h-76zM566 -206l146 -146l-148 -148l-146 146zM160 -207l146 -147l-148 -148l-146 147zM368 -512l132 -132l-133 -133l-132 132z" />
    <glyph glyph-name="uniFB67" unicode="&#x679;" horiz-adv-x="2236" arabic-form="final" 
d="M2228 20q-338 4 -439 290q-281 -293 -841 -293q-292 2 -488.5 67t-287.5 218q-64 109 -64 243q0 155 84 334q118 -67 139 -78l-21.5 -50.5t-25 -62.5t-14.5 -57.5t-8 -73.5q0 -75 26.5 -134t68 -97t104.5 -66.5t123.5 -43.5t136.5 -26q97 -14 227 -14q336 0 538 97
t285 323q13 37 30 90q32 -8 82 -22.5t70 -19.5q-30 -131 -30 -175v-10q4 -140 84 -211.5t229 -71.5q33 0 56 -22.5t23 -55.5t-23 -55.5t-56 -22.5h-8zM1243 1226q69 0 118 -36.5t49 -99.5q0 -74 -59 -139q-120 -105 -295 -105h-28q-139 0 -289 57q20 45 26 61
q37 -14 108 -34l32 44l13 18t16 21q13 74 13 138q0 144 -34 337l69 9q1 -10 5 -43l6 -50l6 -60q4 -44 5 -53l3 -45q3 -26 3 -42q0 -3 1 -11t1 -13v-81q56 53 111 86q70 41 120 41zM945 918q43 -5 57 -5q9 -1 28 -1h28q154 0 247 84q39 39 39 81q0 37 -26.5 61t-65.5 24
q-32 0 -58 -11.5t-62 -36.5q-82 -58 -132 -124q-6 -8 -18 -22z" />
    <glyph glyph-name="uniFB68" unicode="&#x679;" horiz-adv-x="774" arabic-form="initial" 
d="M-5 20q-32 0 -55 22.5t-23 55.5t23 55.5t55 22.5h125q4 0 12 -0.5t11 -0.5q114 0 184 29.5t105 100.5q16 32 16 88q0 54 -19 140.5t-45 148.5l-60 144l142 71q96 -216 126 -372q13 -68 13 -130q0 -173 -123 -279q-110 -96 -341 -96h-146zM520 1485q69 0 118 -36.5
t49 -99.5q0 -74 -59 -139q-120 -105 -295 -105h-28q-139 0 -289 57q20 45 26 61q37 -14 108 -34l32 44l13 18t16 21q13 74 13 138q0 144 -34 337l69 9q1 -10 5 -43l6 -50l6 -60q4 -44 5 -53l3 -45q3 -25 3 -42q0 -3 1 -11t1 -13v-81q56 53 111 86q70 41 120 41zM222 1177
q42 -5 57 -5q9 -1 28 -1h28q154 0 247 84q39 39 39 81q0 37 -26.5 61t-65.5 24q-32 0 -58 -11.5t-62 -36.5q-82 -58 -132 -124q-6 -8 -18 -22z" />
    <glyph glyph-name="uniFB69" unicode="&#x679;" horiz-adv-x="859" arabic-form="medial" 
d="M-3 20q-33 0 -55.5 22.5t-22.5 55.5t22.5 55.5t55.5 22.5h76q61 0 108 3t100.5 11t92.5 24.5t72 41t50 64t17 90.5v12q-7 121 -37 227q32 8 79 22.5t70 20.5q18 -66 35 -198.5t24 -171.5q27 -146 171 -146q33 0 56.5 -22.5t23.5 -55.5t-23 -55.5t-55 -22.5
q-169 0 -273 138q-74 -71 -210 -104.5t-301 -33.5h-76zM581 1375q69 0 118 -36.5t49 -99.5q0 -74 -59 -139q-120 -105 -295 -105h-28q-139 0 -289 57q20 45 26 61q37 -14 108 -34l32 44l13 18t16 21q13 74 13 138q0 144 -34 337l69 9q1 -10 5 -43l6 -50l6 -60q4 -44 5 -53
l3 -45q3 -25 3 -42q0 -3 1 -11t1 -13v-81q56 53 111 86q70 41 120 41zM283 1067q42 -5 57 -5q9 -1 28 -1h28q154 0 247 84q39 39 39 81q0 37 -26.5 61t-65.5 24q-32 0 -58 -11.5t-62 -36.5q-82 -58 -132 -124q-6 -8 -18 -22z" />
    <glyph glyph-name="uniFB6A" unicode="&#x6a4;" horiz-adv-x="1959" arabic-form="isolated" 
d="M326 769q-44 -109 -44 -210q0 -94 43 -165q72 -116 242.5 -170t400.5 -54h41q397 0 597 127q66 42 97 97q-74 -16 -148 -16q-217 0 -333 124q-58 67 -58 179q0 109 40 204t104 155q76 72 166 72q123 0 225 -112v-1q111 -122 153 -334q13 -66 13 -141q0 -77 -16.5 -140.5
t-44 -111.5t-72 -86t-92 -64t-114 -45t-127 -29.5t-141.5 -16.5t-148 -8t-155 -2q-595 0 -767 294q-64 110 -64 243q0 159 63 287l69.5 -38zM1709 572q-24 118 -51.5 197.5t-78.5 132.5q-41 43 -101 53q-21 4 -52 -19q-49 -36 -85 -101.5t-36 -136.5q0 -46 19.5 -80.5
t54.5 -53.5t77.5 -28t92.5 -9l70 4q56 6 93 16zM1499 1487l146 146l148 -148l-146 -146zM1093 1488l146 147l148 -148l-146 -147zM1316 1778l132 132l133 -133l-132 -132z" />
    <glyph glyph-name="uniFB6B" unicode="&#x6a4;" horiz-adv-x="2106" arabic-form="final" 
d="M326 764q-54 -120 -54 -228q0 -156 125 -254q164 -130 563 -130h52q185 0 415 41q-119 96 -149 232q-10 45 -10 76q0 151 101 281q106 136 254 136q159 0 255 -137q69 -97 69 -245q0 -95 -28 -165t-79 -139q-3 -4 -24 -25q180 -31 292 -31q33 0 56 -22.5t23 -55.5
q0 -32 -23.5 -55t-55.5 -23q-256 0 -470 73l-67 -22q-195 -73 -610 -73q-611 3 -782 295q-64 108 -64 244q0 146 72 303l69.5 -38zM1629 263q101 57 144 123q44 67 44 142q0 97 -43 156t-124 72q-18 3 -27 3q-65 0 -113 -43t-74 -104q-20 -47 -20 -116q0 -59 56 -128
q64 -77 157 -105zM1641 1274l146 146l148 -148l-146 -146zM1235 1275l146 147l148 -148l-146 -147zM1458 1565l132 132l133 -133l-132 -132z" />
    <glyph glyph-name="uniFB6C" unicode="&#x6a4;" horiz-adv-x="896" arabic-form="initial" 
d="M536 887q-51 60 -108 60q-41 0 -96 -55q-36 -36 -60 -92t-24 -120q0 -51 27 -81h-1q57 -73 242 -73h94q17 0 61 4q-19 235 -135 358v-1zM-3 20q-31 0 -54.5 23t-23.5 55q0 33 23.5 55.5t56.5 22.5q99 0 171.5 3.5t153 15t138.5 32t110.5 56t87.5 85.5h-154
q-108 0 -193.5 33.5t-136.5 93.5q-28 23 -42 74.5t-14 109.5q0 105 44 205q61 140 156 193q50 28 108 28q123 0 225 -111q117 -130 155 -346q12 -67 12 -137q0 -85 -22.5 -154.5t-61 -120t-96.5 -88.5t-123 -62t-146 -39t-160 -21t-170 -6h-44zM401 1388l146 146l148 -148
l-146 -146zM-5 1389l146 147l148 -148l-146 -147zM218 1679l132 132l133 -133l-132 -132z" />
    <glyph glyph-name="uniFB6D" unicode="&#x6a4;" horiz-adv-x="1009" arabic-form="medial" 
d="M508 761q-69 0 -136 -67q-76 -76 -76 -199q0 -59 58 -125q64 -73 165 -119q124 55 165 183q11 34 11 72q0 74 -35 137.5t-86 96.5q-33 21 -66 21zM0 20q-34 0 -56 22t-22 56t22 56t56 22q143 0 309 21q-116 104 -145 223q-10 42 -10 72q0 128 59.5 227.5t152.5 156.5
q64 39 143 42q117 -6 196 -75t114 -174q22 -66 22 -139q0 -177 -135 -323q147 -31 312 -31q34 0 56.5 -22t22.5 -56q0 -33 -22.5 -55.5t-56.5 -22.5h-9q-272 0 -486 72q-185 -72 -515 -72h-8zM503 1261l146 146l148 -148l-146 -146zM97 1262l146 147l148 -148l-146 -147z
M320 1552l132 132l133 -133l-132 -132z" />
    <glyph glyph-name="uniFB7B" unicode="&#x686;" horiz-adv-x="1587" arabic-form="final" 
d="M1003 83l137 -137l-139 -138l-136 136zM624 82l136 -138l-138 -138l-136 137zM818 -203l124 -124l-125 -124l-123 123zM1681 96q0 -32 -23.5 -54t-55.5 -22q-331 0 -468 161q-72 102 -77 224q-2 16 1 38q-247 -24 -441.5 -120t-298.5 -251q-66 -99 -75 -211v-9
q0 -291 313 -410q131 -50 297 -50q155 0 278 42t237 122l90 -129q-298 -199 -643 -199q-239 0 -411.5 92.5t-256.5 257.5q-57 112 -57 257v21q0 211 157 392q145 166 379 255.5t537 89.5h35q-51 28 -114.5 74l-111 83.5t-113.5 77t-130 60.5q-51 17 -108 17q-58 0 -112 -26
t-85 -55t-68 -72t-60 -76l-65 42.5l-64 41.5q132 205 301 276q64 27 137 27q152 0 301 -79q49 -26 104.5 -63t91 -64l98.5 -76.5l89 -69.5q65 -49 130 -87l-51 -159l-154 -10q-1 -5 -1 -15v-14q0 -62 20.5 -108t53.5 -73t85.5 -42.5t105.5 -21t124 -5.5q32 0 55.5 -24
t23.5 -56z" />
    <glyph glyph-name="uniFB7C" unicode="&#x686;" horiz-adv-x="1559" arabic-form="initial" 
d="M-1 20q-32 0 -56 23t-24 55q0 33 23.5 55.5t56.5 22.5h198q249 0 547 100q228 76 521 223l-298 124l-34.5 17t-37.5 18l-35 16.5t-38.5 17.5t-36 14t-40.5 13.5t-39 10.5q-39 9 -72 9q-98 0 -190 -98q-54 -57 -101 -142l-134 80q36 79 107 156t142 115q87 46 176 46
q84 0 194 -40q109 -40 306.5 -139.5t305.5 -138.5q5 -30 16 -79.5t16 -77.5q-50 -19 -197 -93q-438 -213 -785 -280q-144 -28 -293 -28h-198zM954 -145l146 -146l-148 -148l-146 146zM548 -146l146 -147l-148 -148l-146 147zM756 -451l132 -132l-133 -133l-132 132z" />
    <glyph glyph-name="uniFB7D" unicode="&#x686;" horiz-adv-x="1663" arabic-form="medial" 
d="M0 20q-33 0 -56 22t-23 55q0 32 23.5 55.5t55.5 23.5h183q243 0 505 91q163 56 449 199l60 30q-75 26 -251.5 113t-284.5 115q-54 14 -100 14q-97 0 -189 -96q-59 -62 -102 -143l-130 88q116 212 282 283q63 27 139 27q113 0 277 -67q73 -30 209.5 -99.5t204.5 -98.5
q72 -30 135 -43l17 -78t16 -78l-27 -12q-21 -11 -53.5 -26t-50.5 -24q29 -99 126.5 -147t237.5 -48h14q32 0 55.5 -23.5t23.5 -55.5q0 -33 -23 -55t-56 -22h-14q-191 0 -323.5 72.5t-184.5 207.5q-191 -95 -354.5 -159t-343.5 -98q-127 -24 -264 -24zM953 -151l146 -146
l-148 -148l-146 146zM547 -152l146 -147l-148 -148l-146 147zM755 -457l132 -132l-133 -133l-132 132z" />
    <glyph glyph-name="uniFB89" unicode="&#x688;" horiz-adv-x="1242" arabic-form="final" 
d="M1249 20q-207 0 -318 141q-15 -12 -32 -23t-41.5 -23t-37 -17.5l-45 -19.5t-38.5 -16q-108 -42 -247 -42q-165 0 -308 98q-50 34 -86 70l91 126q159 -134 328 -134q151 0 309 104q18 12 29 23l-313 754q77 31 144 61l315 -759q33 -87 55 -115q9 -13 20 -22
q57 -50 175 -50q32 0 55.5 -23t23.5 -55t-23.5 -55t-55.5 -23zM705 1644q69 0 118 -36.5t49 -99.5q0 -74 -59 -139q-120 -105 -295 -105h-28q-139 0 -289 57q20 45 26 61q37 -14 108 -34l32 44l13 18t16 21q13 74 13 138q0 144 -34 337l69 9q1 -10 5 -43l6 -50l6 -60
q4 -44 5 -53l3 -45q3 -26 3 -42q0 -3 1 -11t1 -13v-81q56 53 111 86q70 41 120 41zM407 1336q43 -5 57 -5q9 -1 28 -1h28q154 0 247 84q39 39 39 81q0 37 -26.5 61t-65.5 24q-32 0 -58 -11.5t-62 -36.5q-82 -58 -132 -124q-6 -8 -18 -22z" />
    <glyph glyph-name="uniFB8B" unicode="&#x698;" horiz-adv-x="871" arabic-form="final" 
d="M875 20q-71 0 -120.5 26t-99.5 76v-53q0 -158 -93 -313q-168 -278 -538 -466q-10 21 -33 65.5t-37 74.5q324 168 464 387q80 124 80 253v20q0 6 -2 20q-5 33 -10.5 65t-14.5 70.5l-14 60.5t-18.5 68.5t-16.5 58t-19.5 65.5t-17.5 57l150 46q75 -228 153 -325
q38 -48 80.5 -74t101.5 -26h5q32 0 55.5 -23.5t23.5 -55.5q0 -33 -23 -55t-56 -22zM497 967l146 146l148 -148l-146 -146zM91 968l146 147l148 -148l-146 -147zM314 1258l132 132l133 -133l-132 -132z" />
    <glyph glyph-name="uniFB8D" unicode="&#x691;" horiz-adv-x="822" arabic-form="final" 
d="M825 20q-71 0 -120.5 26t-99.5 76v-53q0 -158 -93 -313q-168 -278 -538 -466q-10 21 -33 65.5t-37 74.5q324 168 464 387q80 124 80 253v20q0 6 -2 20q-5 33 -10.5 65t-14.5 70.5l-14 60.5t-18.5 68.5t-16.5 58t-19.5 65.5t-17.5 57l150 46q75 -228 153 -325
q38 -48 80.5 -74t101.5 -26h5q32 0 55.5 -23.5t23.5 -55.5q0 -33 -23 -55t-56 -22zM588 1267q69 0 118 -36.5t49 -99.5q0 -74 -59 -139q-120 -105 -295 -105h-28q-139 0 -289 57q20 45 26 61q37 -14 108 -34l32 44l13 18t16 21q13 74 13 138q0 144 -34 337l69 9q1 -10 5 -43
l6 -50l6 -60q4 -44 5 -53l3 -45q3 -26 3 -42q0 -3 1 -11t1 -13v-81q56 53 111 86q70 41 120 41zM290 959q43 -5 57 -5q9 -1 28 -1h28q154 0 247 84q39 39 39 81q0 37 -26.5 61t-65.5 24q-32 0 -58 -11.5t-62 -36.5q-82 -58 -132 -124q-6 -8 -18 -22z" />
    <glyph glyph-name="uniFB8F" unicode="&#x6a9;" horiz-adv-x="2321" arabic-form="final" 
d="M320 733q-82 -138 -82 -242q0 -53 22 -98q31 -60 99.5 -103.5t161 -66.5t189 -33t206.5 -10q10 0 26.5 -0.5t22.5 -0.5q15 -1 45 -1q7 0 21 -0.5t20 -0.5q251 0 449 69q105 41 148 96q44 56 44 124q0 100 -92 228q-73 102 -172 194t-231 194q3 33 10 93t10 91l868 373
l59 -145l-806 -341q279 -193 426 -427q35 -55 80 -175t80 -175q127 -197 388 -200h8q34 0 56 -22t22 -56q0 -32 -22.5 -55t-55.5 -23q-173 0 -307 72t-222 194q-67 -110 -201 -174q-205 -92 -541 -92h-92q-520 0 -736 176q-57 43 -103 128l2 -2q-41 84 -41 180q0 59 18 120
t36.5 97.5t49.5 90.5q3 4 4 6t3 5t3 6z" />
    <glyph glyph-name="uniFB90" unicode="&#x6a9;" horiz-adv-x="936" arabic-form="initial" 
d="M-12 20q-36 0 -62 21.5t-26 55.5q0 36 25 57.5t63 21.5h105q63 0 108 1.5t100 8t93.5 17.5t77.5 31t62.5 48t38 69.5t14.5 93.5q0 74 -26 131t-74 122q-144 197 -379 387q3 33 10.5 92t10.5 90l349 149.5l443 189.5q42 -94 63 -145l-728 -306q98 -83 166.5 -147.5
t144.5 -161t119 -192.5q52 -116 52 -225q0 -110 -57 -215h1q-85 -150 -288 -188q-29 -7 -83 -7z" />
    <glyph glyph-name="uniFB91" unicode="&#x6a9;" horiz-adv-x="1169" arabic-form="medial" 
d="M1 20q-33 0 -56 22.5t-23 55.5q0 32 23.5 55t55.5 23h339q85 0 163 66q80 68 89 143v14q0 103 -73 235q-107 192 -286 356q-65 60 -98 85q0 4 12 100l12 99l854 368q42 -94 63 -145l-807 -339q227 -183 368 -433l84.5 -155.5t96.5 -172.5q41 -66 80 -109t106 -76.5
t151 -35.5h43q32 0 55 -23t23 -55q0 -33 -22.5 -55.5t-55.5 -22.5h-8q-121 0 -226 34q-123 46 -246 202q-49 -90 -97 -134h1q-104 -91 -295 -102h-326z" />
    <glyph glyph-name="uniFB93" unicode="&#x6af;" horiz-adv-x="2309" arabic-form="final" 
d="M320 733q-82 -138 -82 -242q0 -53 22 -98q31 -60 99.5 -103.5t161 -66.5t189 -33t206.5 -10q10 0 26.5 -0.5t22.5 -0.5q15 -1 45 -1q7 0 21 -0.5t20 -0.5q251 0 449 69q105 41 148 96q44 56 44 124q0 100 -92 228q-73 102 -172 194t-231 194q3 33 10 93t10 91l868 373
l59 -145l-806 -341q279 -193 426 -427q35 -55 80 -175t80 -175q127 -197 388 -200h8q34 0 56 -22t22 -56q0 -32 -22.5 -55t-55.5 -23q-173 0 -307 72t-222 194q-67 -110 -201 -174q-205 -92 -541 -92h-92q-520 0 -736 176q-57 43 -103 128l2 -2q-41 84 -41 180q0 59 18 120
t36.5 97.5t49.5 90.5q3 4 4 6t3 5t3 6zM2047 1794l-850 -370q1 21 3.5 54t3.5 53l402.5 173l401.5 173z" />
    <glyph glyph-name="uniFB94" unicode="&#x6af;" horiz-adv-x="941" arabic-form="initial" 
d="M4 20q-36 0 -62 21.5t-26 55.5q0 36 25 57.5t63 21.5h105q63 0 108 1.5t100 8t93.5 17.5t77.5 31t62.5 48t38 69.5t14.5 93.5q0 74 -26 131t-74 122q-144 197 -379 387q3 33 10.5 92t10.5 90l349 149.5l443 189.5q42 -94 63 -145l-728 -306q98 -83 166.5 -147.5
t144.5 -161t119 -192.5q52 -116 52 -225q0 -110 -57 -215h1q-85 -150 -288 -188q-29 -7 -83 -7zM888 1746l-390 -165l-391 -165q1 21 3.5 54t3.5 52l735 307z" />
    <glyph glyph-name="uniFB95" unicode="&#x6af;" horiz-adv-x="1187" arabic-form="medial" 
d="M1 20q-33 0 -56 22.5t-23 55.5q0 32 23.5 55t55.5 23h339q85 0 163 66q80 68 89 143v14q0 103 -73 235q-107 192 -286 356q-65 60 -98 85q0 4 12 100l12 99l854 368q42 -94 63 -145l-807 -339q227 -183 368 -433l84.5 -155.5t96.5 -172.5q41 -66 80 -109t106 -76.5
t151 -35.5h43q32 0 55 -23t23 -55q0 -33 -22.5 -55.5t-55.5 -22.5h-8q-121 0 -226 34q-123 46 -246 202q-49 -90 -97 -134h1q-104 -91 -295 -102h-326zM940 1787l-391 -165l-390 -165q1 21 3.5 54t3.5 52l735 307z" />
    <glyph glyph-name="uniFB9F" unicode="&#x6ba;" horiz-adv-x="1709" arabic-form="final" 
d="M1786 98q0 -32 -23.5 -55t-55.5 -23q-129 0 -261 78v-18q0 -4 1 -12t1 -12v-25q0 -5 0.5 -11t0.5 -7q0 -132 -38 -259q-57 -153 -177.5 -255t-289.5 -141q-108 -25 -210 -25q-550 0 -645 498q-10 54 -10 118q0 293 165 572q22 -15 61.5 -45.5t65.5 -48.5
q-49 -78 -97 -252q-33 -123 -36 -220v-17q0 -47 7 -83q0 -3 -0.5 -7t-0.5 -7q0 -67 50 -141q94 -140 286 -192q68 -18 147 -18q155 0 273 48t190 136q100 122 100 333q0 92 -21.5 187t-44 152t-63.5 145q-9 20 -17 34l133 84q13 -19 59 -117q57 -108 108 -171
q59 -74 115.5 -109.5t147.5 -35.5q33 0 56 -22.5t23 -55.5z" />
    <glyph glyph-name="uniFBA5" unicode="&#x6c0;" horiz-adv-x="1090" arabic-form="final" 
d="M1090 20q-119 0 -192.5 38t-124.5 123q-135 -21 -229 -21q-250 0 -344 118q-48 59 -48 147q0 64 21 108.5t60 92.5q137 165 407 265l-15 145l157 34q11 -54 19 -173.5t18 -171.5q26 -226 52 -346q10 -47 18.5 -74.5t25 -56.5t43 -45t64.5 -22q33 -5 68 -5q33 0 56 -22.5
t23 -55.5q0 -32 -23.5 -55t-55.5 -23zM634 720q-55 -23 -92 -40t-84 -44t-81.5 -59.5t-56.5 -70.5q-17 -30 -17 -67q0 -125 235 -125q93 0 181 18q-25 129 -59 398zM486 1253q-58 24 -96.5 74.5t-38.5 119.5q0 95 66.5 153.5t164.5 58.5q42 0 120 -19l-28 -92q-48 13 -92 13
q-35 0 -62 -12v2q-29 -12 -50 -41t-21 -63q0 -15 8 -36l-1 1q13 -34 49 -58t79 -24q26 0 55.5 10.5t40.5 17l42 25.5q24 14 43 29l59 -78l-41.5 -28.5t-50.5 -31l-42.5 -24.5l-56 -30.5t-51.5 -27.5l-227 -126l-48 87z" />
    <glyph glyph-name="uniFBA6" unicode="&#x6c1;" horiz-adv-x="983" arabic-form="isolated" 
d="M389 842l-75 68l107 114q120 -107 214 -209q116 -133 177 -254q61 -122 61 -218q0 -258 -291 -319q-40 -8 -97 -8q-111 0 -202 44t-137 115q-47 71 -47 168q0 87 40 177q60 135 185 260zM241 344q0 -77 74 -123t170 -46q3 0 12 0.5t15 0.5q61 0 111.5 22t80.5 58
q26 31 26 82q0 69 -62 168q-65 104 -161 208l-18 20l-16 -15q-138 -117 -207 -267q-25 -54 -25 -108z" />
    <glyph glyph-name="uniFBA8" unicode="&#x6c1;" horiz-adv-x="728" arabic-form="initial" 
d="M0 20q-32 0 -55 22.5t-23 55.5t23 55.5t55 22.5h80q4 0 12 -0.5t11 -0.5q114 0 184 29.5t105 100.5q16 32 16 88q0 54 -19 140.5t-45 148.5l-60 144l141 74q98 -222 127 -375q13 -68 13 -130q0 -173 -123 -279q-110 -96 -341 -96h-101zM496 -453q-46 5 -83.5 33.5
t-57.5 67.5q-13 27 -15 60q3 73 27.5 129t69.5 123q44 65 71 100l79 -52q-4 -7 -22.5 -35t-26.5 -41l-22 -36t-23.5 -43t-17.5 -39q-12 -30 -12 -52q0 -33 26 -56q25 -22 90 -45z" />
    <glyph glyph-name="uniFBA9" unicode="&#x6c1;" horiz-adv-x="1000" arabic-form="medial" 
d="M633 -451l-56 -31l-72 -41q-159 101 -245 255h1q-73 129 -91 318q-70 -21 -178 -30v155q28 2 43 3.5t37 5.5t35 10t26 17t21 26q24 45 28 71q1 4 7 17l148 -53q-14 -82 -14 -166q0 -233 164 -421q29 162 80.5 273t148.5 165q97 53 236 53h27q6 0 14 -0.5t10 -0.5h5v-155
h-2h-1l-1 1q-4 1 -23 1h-28q-160 0 -213 -77q-107 -154 -107 -396zM880 -701q-46 5 -83.5 33.5t-57.5 67.5q-13 27 -15 60q3 73 27.5 129t69.5 123q44 65 71 100l79 -52q-4 -7 -22.5 -35t-26.5 -41l-22 -36t-23.5 -43t-17.5 -39q-12 -30 -12 -52q0 -33 26 -56q25 -22 90 -45
z" />
    <glyph glyph-name="uniFBAB" unicode="&#x6be;" horiz-adv-x="1169" arabic-form="final" 
d="M734 721q-124 -101 -186 -285q-28 -82 -28 -174v-32q0 -8 4 -44l46 7q127 21 201.5 102t74.5 215q0 132 -87 210zM131 -64q-31 2 -53 24.5t-22 53.5q0 13 4.5 23.5t8 17t16 14t16 9l21.5 9t19 7.5l225 90q-4 54 -4 79q0 257 162 465q30 38 49 60t52 49.5t67 42.5
q31 14 59 14q70 0 141 -83q112 -132 112 -300q0 -195 -107 -315.5t-285 -154.5l-21 -4l-32 -6q58 -142 177 -303q23 134 73 220.5t141 151.5q103 76 222 76q32 0 55.5 -23t23.5 -55q0 -33 -23 -55.5t-56 -22.5h-9q-87 -3 -162 -78q-60 -60 -95 -170q-11 -34 -11 -82
q0 -122 83 -198l-49.5 -58t-52.5 -63q-178 147 -297 301q-116 150 -169 309l-16 44z" />
    <glyph glyph-name="uniFBAC" unicode="&#x6be;" horiz-adv-x="1444" arabic-form="initial" 
d="M0 20q-34 0 -58 23t-24 56t24 55t58 22h9q204 0 357 22q-90 88 -130 167q-42 83 -42 158q0 100 40.5 181.5t105.5 135.5q55 45 120 66l-107 41l77 144q443 -166 670 -293q161 -90 218 -168q88 -121 88 -248q0 -200 -199 -308l1 1q-95 -58 -306 -58q-184 0 -336 61
q-180 -58 -557 -58h-9zM938 599v-28q0 -84 -52 -200q-51 -111 -137 -188q67 -14 134 -14h48q111 0 191 35t116 104q21 40 21 86q0 87 -91 182q-103 106 -257 169q27 -66 27 -146zM642 801q-14 3 -26 3q-49 0 -117 -34q-67 -35 -109.5 -92.5t-42.5 -137.5q0 -91 72 -179
q51 -62 134 -112q160 70 207 237q13 46 13 93q0 135 -77 198q-24 19 -53 24h-1z" />
    <glyph glyph-name="uniFBAD" unicode="&#x6be;" horiz-adv-x="1003" arabic-form="medial" 
d="M510 725q-53 -6 -109 -88q-76 -111 -107 -287q-9 -51 -9 -96q0 -14 5 -64q4 0 21.5 -2t25.5 -2q98 0 164.5 61t96.5 151q19 57 19 116q0 140 -93 207zM-1 20q-33 0 -55.5 22.5t-22.5 55.5q0 32 23 55t55 23h133q0 5 -0.5 15t-0.5 15q0 113 38 253q77 281 225 389
q56 40 118 46q109 0 186 -141q29 -55 47.5 -130.5t18.5 -149.5q0 -93 -28 -150q-43 -121 -150.5 -193.5t-260.5 -98.5q64 -159 161 -271q39 -45 82 -70q-1 11 -1 31q0 177 129 310q89 91 199 127q55 18 110 18q32 0 55.5 -23t23.5 -55q0 -33 -23 -55.5t-56 -22.5h-9
q-121 -6 -212 -109q-90 -101 -90 -227q0 -111 75 -191l-104 -125q-366 229 -489 613l-14 39h-163z" />
    <glyph glyph-name="uniFBAF" unicode="&#x6d2;" horiz-adv-x="1499" arabic-form="final" 
d="M1578 98q0 -32 -23 -55t-55 -23h-704q-249 0 -408 -51q-119 -38 -165 -98q-15 -23 -10 -34q47 -69 221 -103q145 -28 375 -28h107q20 0 58 1t58 1h60q194 0 297 9l43 -150q-22 -5 -131 -7q-49 -1 -151.5 -4.5t-185.5 -5.5t-155 -2q-370 0 -564 81q-38 16 -66.5 33.5
t-57.5 43.5t-44.5 61t-15.5 77q0 54 35 111q102 168 474 209q109 12 226 12h704q32 0 55 -23t23 -55z" />
    <glyph glyph-name="uniFBB1" unicode="&#x6d3;" horiz-adv-x="1461" arabic-form="final" 
d="M1539 98q0 -32 -23.5 -55t-54.5 -23h-704q-249 0 -408 -51q-119 -38 -165 -98q-15 -23 -10 -34q47 -69 221 -103q145 -28 375 -28h107q19 0 58 1t58 1h60q193 0 297 9l43 -150q-22 -5 -131 -7q-49 -1 -151.5 -4.5t-185.5 -5.5t-155 -2q-370 0 -564 81q-38 16 -66.5 33.5
t-57.5 43.5t-44.5 61t-15.5 77q0 54 35 111q102 168 474 209q109 12 226 12h704q31 0 54.5 -23t23.5 -55zM341 421q-58 24 -96.5 74.5t-38.5 119.5q0 95 66.5 153.5t164.5 58.5q42 0 120 -19l-28 -92q-48 13 -92 13q-35 0 -62 -12v2q-29 -12 -50 -41t-21 -63q0 -15 8 -36
l-1 1q13 -34 49 -58t79 -24q26 0 55.5 10.5t40.5 17l42 25.5q24 14 43 29l59 -78l-41.5 -28.5t-50.5 -31l-42.5 -24.5l-56 -30.5t-51.5 -27.5l-227 -126l-48 87z" />
    <glyph glyph-name="uniFBE8" unicode="&#x649;" horiz-adv-x="708" arabic-form="initial" 
d="M-7 20q-32 0 -55 22.5t-23 55.5t23 55.5t55 22.5h125q4 0 12 -0.5t11 -0.5q114 0 184 29.5t105 100.5q16 32 16 88q0 54 -19 140.5t-45 148.5l-60 144l142 71q96 -216 126 -372q13 -68 13 -130q0 -173 -123 -279q-110 -96 -341 -96h-146z" />
    <glyph glyph-name="uniFBE9" unicode="&#x649;" horiz-adv-x="705" arabic-form="medial" 
d="M4 20q-34 0 -56 22t-22 56q0 32 22.5 55t55.5 23h17q167 0 256.5 59t89.5 197q0 96 -39 232q30 7 76.5 21.5t72.5 21.5q48 -181 50 -291q2 -61 8.5 -100t25 -73.5t53.5 -50.5t90 -16q32 0 55.5 -23t23.5 -55q0 -33 -23 -55.5t-55 -22.5q-170 0 -272 134
q-137 -134 -412 -134h-17z" />
    <glyph glyph-name="uniFBFD" unicode="&#x6cc;" horiz-adv-x="1686" arabic-form="final" 
d="M1795 98q0 -33 -23 -55.5t-56 -22.5h-295q78 -66 117 -133q28 -49 28 -97q-3 -151 -135 -254q-104 -81 -261.5 -124.5t-339.5 -43.5q-484 0 -619 232q-93 135 -93 351v23q0 124 47 312q40 160 115 340l145 -59q-72 -181 -111 -341q-38 -155 -38 -279q0 -220 122 -320.5
t356 -100.5q15 0 40 -0.5t36 -0.5q154 0 336 54q142 41 208 118q35 41 35 93q0 34 -49 74q-125 104 -404 155h-3l11 158l752 -1q33 0 56 -22.5t23 -55.5z" />
    <glyph glyph-name="uniFBFE" unicode="&#x6cc;" horiz-adv-x="799" arabic-form="initial" 
d="M341 -345l-146 -146l-148 147l146 147zM696 -347l-145 -146l-148 148l146 146zM-51 20q-32 0 -55 22.5t-23 55.5t23 55.5t55 22.5h111q64 0 109.5 1.5t104.5 9t98.5 20.5t75 38t51.5 60q16 32 16 88q0 39 -9 85.5t-16 70t-25 79.5q-18 60 -80 198l142 71
q96 -216 126 -372q13 -68 13 -130q0 -173 -123 -279q-62 -54 -154 -75t-225 -21h-215z" />
    <glyph glyph-name="uniFBFF" unicode="&#x6cc;" horiz-adv-x="860" arabic-form="medial" 
d="M-3 20q-33 0 -55.5 22.5t-22.5 55.5t22.5 55.5t55.5 22.5h76q61 0 108 3t100.5 11t92.5 24.5t72 41t50 64t17 90.5v12q-7 121 -37 227q32 8 79 22.5t70 20.5q18 -66 35 -198.5t24 -171.5q27 -146 171 -146q33 0 56.5 -22.5t23.5 -55.5t-23 -55.5t-55 -22.5
q-169 0 -273 138q-74 -71 -210 -104.5t-301 -33.5h-76zM319 -380l-146 -146l-148 147l146 147zM674 -382l-145 -146l-148 148l146 146z" />
    <glyph glyph-name="uniFC5E" unicode="&#xfc5e;" arabic-form="isolated" 
d="M261 1237q-55 -74 -125 -74h-6q-145 8 -145 138q0 57 28 120l29 -13l31 -14q-21 -56 -21 -94q0 -71 80 -71q91 0 91 160q0 3 -0.5 7t-0.5 6v12q48 6 57 15q14 -110 45 -155q23 -32 50 -32q74 6 74 86q0 85 -59 160l27 18l27 18q23 -36 34.5 -56t25 -60t13.5 -76
q0 -85 -68 -132q-34 -22 -78 -22q-64 0 -109 59zM-44 1843q54 0 85 -36t31 -95q0 -31 -10 -81q145 43 231 102l-14 13q-5 1 -16.5 7.5t-15.5 7.5l-25 12q-94 45 -94 133q0 71 75 122q43 29 88 29q61 0 96.5 -49t35.5 -117q0 -46 -21 -121q3 -1 12.5 -4.5t15.5 -5.5l-19 -61
q-3 1 -3 0l-4 1l-36 10q-106 -101 -346 -157l-38 54q22 51 22 102q0 33 -9 47v-1q-14 22 -39 22q-36 0 -72 -32l-47 47q51 51 117 51zM357 1892q0 71 -46 96h-2h-1l-2 1q-8 2 -15 2q-36 0 -66 -26.5t-30 -59.5q0 -44 57 -72l54 -27l35 -15q16 69 16 101z" />
    <glyph glyph-name="uniFC5F" unicode="&#xfc5f;" arabic-form="isolated" 
d="M269 1231q-55 -74 -125 -74h-6q-145 8 -145 138q0 57 28 120l29 -13l31 -14q-21 -56 -21 -94q0 -71 80 -71q91 0 91 160q0 3 -0.5 7t-0.5 6v12q48 6 57 15q14 -110 45 -155q23 -32 50 -32q74 6 74 86q0 85 -59 160l27 18l27 18q23 -36 34.5 -56t25 -60t13.5 -76
q0 -85 -68 -132q-34 -22 -78 -22q-64 0 -109 59zM465 774l-215 -89l-216 -88v89l212.5 85l218.5 87v-84zM465 1033l-215 -89l-216 -88v89l212.5 85l218.5 87v-84z" />
    <glyph glyph-name="uniFC60" unicode="&#xfc60;" arabic-form="isolated" 
d="M237 1366q-55 -74 -125 -74h-6q-145 8 -145 138q0 57 28 120l29 -13l31 -14q-21 -56 -21 -94q0 -71 80 -71q91 0 91 160q0 3 -0.5 7t-0.5 6v12q48 6 57 15q14 -110 45 -155q23 -32 50 -32q74 6 74 86q0 85 -59 160l27 18l27 18q23 -36 34.5 -56t25 -60t13.5 -76
q0 -85 -68 -132q-34 -22 -78 -22q-64 0 -109 59zM417 1873l-473 -189v90l473 181v-82z" />
    <glyph glyph-name="uniFC61" unicode="&#xfc61;" arabic-form="isolated" 
d="M257 1246q-55 -74 -125 -74h-6q-145 8 -145 138q0 57 28 120l29 -13l31 -14q-21 -56 -21 -94q0 -71 80 -71q91 0 91 160q0 3 -0.5 7t-0.5 6v12q48 6 57 15q14 -110 45 -155q23 -32 50 -32q74 6 74 86q0 85 -59 160q4 3 8.5 6l10 6.5l8.5 5.5l27 18q23 -36 34.5 -56
t25 -60t13.5 -76q0 -85 -68 -132q-34 -22 -78 -22q-64 0 -109 59zM382 1874q0 -59 -22 -113q6 -2 9 -2t18 -6l-19 -57l-42 15q-108 -103 -313 -171l-21 58q165 55 276 133q-121 48 -159 96q-22 26 -22 62q0 2 0.5 6t0.5 7q14 93 107 135q25 11 57 11q66 0 98 -49.5
t32 -124.5zM251 1989q-28 0 -54 -17.5t-41 -40.5q-12 -18 -12 -38q0 -14 5 -24.5t18.5 -19.5t19.5 -12.5t24 -11.5l93 -44q19 39 19 90q0 44 -19 81t-53 37z" />
    <glyph glyph-name="uniFC62" unicode="&#xfc62;" arabic-form="isolated" 
d="M264 1254q-55 -74 -125 -74h-6q-145 8 -145 138q0 57 28 120l29 -13l31 -14q-21 -56 -21 -94q0 -71 80 -71q91 0 91 160q0 3 -0.5 7t-0.5 6v12q48 6 57 15q14 -110 45 -155q23 -32 50 -32q74 6 74 86q0 85 -59 160q4 3 8.5 6l10 6.5l8.5 5.5l27 18q23 -36 34.5 -56
t25 -60t13.5 -76q0 -85 -68 -132q-34 -22 -78 -22q-64 0 -109 59zM508 1039l-473 -189v90l473 181v-82z" />
    <glyph glyph-name="uniFC63" unicode="&#xfc63;" arabic-form="isolated" 
d="M269 1221q-55 -74 -125 -74h-6q-145 8 -145 138q0 57 28 120l29 -13l31 -14q-21 -56 -21 -94q0 -71 80 -71q91 0 91 160q0 3 -0.5 7t-0.5 6v12q48 6 57 15q14 -110 45 -155q23 -32 50 -32q74 6 74 86q0 85 -59 160l27 18l27 18q23 -36 34.5 -56t25 -60t13.5 -76
q0 -85 -68 -132q-34 -22 -78 -22q-64 0 -109 59zM289 1882q19 -69 19 -180q0 -84 -19 -177l-79 17q17 76 17 145q0 105 -19 177q2 1 35.5 7.5t45.5 10.5z" />
    <glyph glyph-name="uniFE70" unicode="&#xfe70;" arabic-form="isolated" 
d="M445 1306l-215.5 -88.5l-215.5 -88.5v89l212.5 85l218.5 87v-84zM438 1528l-216 -89l-215 -88v89l215.5 86l215.5 86v-84z" />
    <glyph glyph-name="uniFE72" unicode="&#xfe72;" arabic-form="isolated" 
d="M9 1409q54 0 85 -36t31 -95q0 -31 -10 -81q145 43 231 102l-14 13q-5 1 -16.5 7.5t-15.5 7.5l-25 12q-94 45 -94 133q0 71 75 122q43 29 88 29q61 0 96.5 -49t35.5 -117q0 -46 -21 -121q3 -1 12.5 -4.5t15.5 -5.5l-19 -61q-3 1 -3 0l-4 1l-36 10q-106 -101 -346 -157
l-38 54q22 51 22 102q0 33 -9 47v-1q-14 22 -39 22q-36 0 -72 -32l-47 47q51 51 117 51zM410 1458q0 71 -46 96h-2h-1q-1 1 -2 1q-8 2 -15 2q-36 0 -66 -26.5t-30 -59.5q0 -44 57 -72l54 -27l35 -15q16 69 16 101z" />
    <glyph glyph-name="uniFE74" unicode="&#xfe74;" arabic-form="isolated" 
d="M441 -491l-216 -89l-215 -88v89l212.5 85l218.5 87v-84zM441 -232l-215.5 -88l-215.5 -89v89l212.5 85l218.5 87v-84z" />
    <glyph glyph-name="uniFE76" unicode="&#xfe76;" arabic-form="isolated" 
d="M468 1453l-473 -189v90l473 181v-82z" />
    <glyph glyph-name="uniFE78" unicode="&#xfe78;" arabic-form="isolated" 
d="M365 1429q0 -59 -22 -113q6 -2 9 -2t18 -6l-19 -57l-42 15q-108 -103 -313 -171l-21 58q165 55 276 133q-121 48 -159 96q-22 26 -22 62q0 2 0.5 6t0.5 7q14 93 107 135q25 11 57 11q66 0 98 -49.5t32 -124.5zM234 1544q-28 0 -54 -17.5t-41 -40.5q-12 -18 -12 -38
q0 -14 5 -24.5t18.5 -19.5t19.5 -12.5t24 -11.5l93 -44q19 39 19 90q0 44 -19 81t-53 37z" />
    <glyph glyph-name="uniFE7A" unicode="&#xfe7a;" arabic-form="isolated" 
d="M463 -337l-473 -189v90l473 181v-82z" />
    <glyph glyph-name="uniFE7C" unicode="&#xfe7c;" arabic-form="isolated" 
d="M269 1221q-55 -74 -125 -74h-6q-145 8 -145 138q0 57 28 120l29 -13l31 -14q-21 -56 -21 -94q0 -71 80 -71q91 0 91 160q0 3 -0.5 7t-0.5 6v12q48 6 57 15q14 -110 45 -155q23 -32 50 -32q74 6 74 86q0 85 -59 160l27 18l27 18q23 -36 34.5 -56t25 -60t13.5 -76
q0 -85 -68 -132q-34 -22 -78 -22q-64 0 -109 59z" />
    <glyph glyph-name="uniFE7E" unicode="&#xfe7e;" arabic-form="isolated" 
d="M358 1330q0 52 -31 91t-81 39q-49 0 -81.5 -39t-32.5 -91q0 -38 20.5 -70.5t49.5 -48.5q21 -12 44 -12q50 0 81 39.5t31 91.5zM246 1531q77 0 128.5 -60.5t54.5 -140.5v-7q0 -61 -31.5 -108t-79.5 -70q-34 -17 -72 -17h-7q-61 0 -102.5 36.5t-61.5 91.5q-13 35 -13 74
q0 61 31 109.5t77 72.5q36 19 76 19z" />
    <glyph glyph-name="uniFE82" unicode="&#x622;" horiz-adv-x="617" arabic-form="final" 
d="M691 98q0 -33 -23 -55.5t-56 -22.5q-207 0 -307 100q-81 81 -81 260q4 81 4 285v129q0 280 -21 566q-4 57 -12 102l156 28q33 -204 33 -668v-40q0 -25 0.5 -71t0.5 -66q0 -27 -0.5 -74t-0.5 -67q0 -84 -1 -126v-17q0 -52 6.5 -80.5t29.5 -49.5q52 -52 184 -55h9
q32 0 55.5 -23t23.5 -55zM123 1849q55 0 132.5 -31.5t130.5 -31.5q74 0 139 92q20 -12 50 -32.5t48 -31.5q-19 -38 -62 -73t-91 -57q-40 -18 -88 -18h-7q-38 1 -74.5 11t-76.5 25.5t-63 21.5q-20 5 -39 5q-38 0 -57 -18q-44 -39 -65 -108l-112 35q18 58 40 93h-1
q61 99 155 115q2 0 6 1t7.5 1.5t7.5 0.5h20z" />
    <glyph glyph-name="uniFE84" unicode="&#x623;" horiz-adv-x="606" arabic-form="final" 
d="M691 98q0 -33 -23 -55.5t-56 -22.5q-207 0 -307 100q-81 81 -81 260q4 81 4 285v129q0 280 -21 566q-4 57 -12 102l156 28q33 -204 33 -668v-40q0 -25 0.5 -71t0.5 -66q0 -27 -0.5 -74t-0.5 -67q0 -84 -1 -126v-17q0 -52 6.5 -80.5t29.5 -49.5q52 -52 184 -55h9
q32 0 55.5 -23t23.5 -55zM65 1516q-7 14 -18.5 34.5l-19.5 34.5l188 105q-44 19 -81 51.5t-54 71.5q-13 30 -13 70q0 66 36 113.5t91 70.5q45 18 94 18q60 0 108 -16l-23 -72q-9 1 -25.5 4t-31 4.5t-28.5 1.5q-60 0 -101.5 -34t-41.5 -90q0 -45 29.5 -75t71.5 -45
q20 -7 44 -7q20 0 46 8l-1 -1q38 12 134 71l47 -62q-54 -36 -233 -135z" />
    <glyph glyph-name="uniFE86" unicode="&#x624;" horiz-adv-x="1058" arabic-form="final" 
d="M1123 97q0 -33 -23.5 -55t-56.5 -22h-107q-54 -278 -288 -472q-214 -177 -509 -227l-37 154q291 64 482 225q175 148 201 320h-77q-96 0 -157 5q-207 13 -306 135v-1q-61 78 -61 200q0 187 117 348q98 120 218 120q133 0 246 -122v1q83 -96 132 -232t52 -298h94
q34 0 57 -22.5t23 -56.5zM519 670q-71 0 -137 -106q-65 -102 -65 -202q0 -60 35 -106v1q20 -27 54 -44t84 -24t88.5 -9t99.5 -2q56 0 113 5q-9 197 -93 343q-47 83 -106 120q-37 24 -73 24zM374 1079q-58 24 -96.5 74.5t-38.5 119.5q0 95 66.5 153.5t164.5 58.5
q42 0 120 -19l-28 -92q-48 13 -92 13q-35 0 -62 -12v2q-29 -12 -50 -41t-21 -63q0 -15 8 -36l-1 1q13 -34 49 -58t79 -24q26 0 55.5 10.5t40.5 17l42 25.5q24 14 43 29l59 -78l-41.5 -28.5t-50.5 -31l-42.5 -24.5l-56 -30.5t-51.5 -27.5l-227 -126l-48 87z" />
    <glyph glyph-name="uniFE88" unicode="&#x625;" horiz-adv-x="611" arabic-form="final" 
d="M691 98q0 -33 -23 -55.5t-56 -22.5q-207 0 -307 100q-81 81 -81 260q4 81 4 285v129q0 280 -21 566q-4 57 -12 102l156 28q33 -204 33 -668v-40q0 -25 0.5 -71t0.5 -66q0 -27 -0.5 -74t-0.5 -67q0 -84 -1 -126v-17q0 -52 6.5 -80.5t29.5 -49.5q52 -52 184 -55h9
q32 0 55.5 -23t23.5 -55zM179 -669l-18.5 34l-19.5 35l188 105q-44 19 -81 51.5t-54 71.5q-13 30 -13 70q0 66 36 113.5t91 70.5q45 18 94 18q60 0 108 -16l-23 -72q-9 1 -25.5 4t-31 4.5t-28.5 1.5q-60 0 -101.5 -34t-41.5 -90q0 -45 29.5 -75t71.5 -45q20 -7 44 -7
q20 0 46 8l-1 -1q38 12 134 71l47 -62q-54 -36 -233 -135z" />
    <glyph glyph-name="uniFE8A" unicode="&#x626;" horiz-adv-x="1683" arabic-form="final" 
d="M1795 98q0 -33 -23 -55.5t-56 -22.5h-295q78 -66 117 -133q28 -49 28 -97q-3 -151 -135 -254q-104 -81 -261.5 -124.5t-339.5 -43.5q-484 0 -619 232q-93 135 -93 351v23q0 124 47 312q40 160 115 340l145 -59q-72 -181 -111 -341q-38 -155 -38 -279q0 -220 122 -320.5
t356 -100.5q15 0 40 -0.5t36 -0.5q154 0 336 54q142 41 208 118q35 41 35 93q0 34 -49 74q-125 104 -404 155h-3l11 158l752 -1q33 0 56 -22.5t23 -55.5zM720 311q-58 24 -96.5 74.5t-38.5 119.5q0 95 66.5 153.5t164.5 58.5q42 0 120 -19l-28 -92q-48 13 -92 13
q-35 0 -62 -12v2q-29 -12 -50 -41t-21 -63q0 -15 8 -36l-1 1q13 -34 49 -58t79 -24q26 0 55.5 10.5t40.5 17l42 25.5q24 14 43 29l59 -78l-41.5 -28.5t-50.5 -31l-42.5 -24.5l-56 -30.5t-51.5 -27.5l-227 -126l-48 87z" />
    <glyph glyph-name="uniFE8B" unicode="&#x626;" horiz-adv-x="711" arabic-form="initial" 
d="M-7 20q-32 0 -55 22.5t-23 55.5t23 55.5t55 22.5h125q4 0 12 -0.5t11 -0.5q114 0 184 29.5t105 100.5q16 32 16 88q0 54 -19 140.5t-45 148.5l-60 144l142 71q96 -216 126 -372q13 -68 13 -130q0 -173 -123 -279q-110 -96 -341 -96h-146zM299 1130q-58 24 -96.5 74.5
t-38.5 119.5q0 95 66.5 153.5t164.5 58.5q42 0 120 -19l-28 -92q-48 13 -92 13q-35 0 -62 -12v2q-29 -12 -50 -41t-21 -63q0 -15 8 -36l-1 1q13 -34 49 -58t79 -24q26 0 55.5 10.5t40.5 17l42 25.5q24 14 43 29l59 -78l-41.5 -28.5t-50.5 -31l-42.5 -24.5l-56 -30.5
t-51.5 -27.5l-227 -126l-48 87z" />
    <glyph glyph-name="uniFE8C" unicode="&#x626;" horiz-adv-x="715" arabic-form="medial" 
d="M4 20q-34 0 -56 22t-22 56q0 32 22.5 55t55.5 23h17q167 0 256.5 59t89.5 197q0 96 -39 232q30 7 76.5 21.5t72.5 21.5q48 -181 50 -291q2 -61 8.5 -100t25 -73.5t53.5 -50.5t90 -16q32 0 55.5 -23t23.5 -55q0 -33 -23 -55.5t-55 -22.5q-170 0 -272 134
q-137 -134 -412 -134h-17zM287 1013q-58 24 -96.5 74.5t-38.5 119.5q0 95 66.5 153.5t164.5 58.5q42 0 120 -19l-28 -92q-48 13 -92 13q-35 0 -62 -12v2q-29 -12 -50 -41t-21 -63q0 -15 8 -36l-1 1q13 -34 49 -58t79 -24q26 0 55.5 10.5t40.5 17l42 25.5q24 14 43 29l59 -78
l-41.5 -28.5t-50.5 -31l-42.5 -24.5l-56 -30.5t-51.5 -27.5l-227 -126l-48 87z" />
    <glyph glyph-name="uniFE8E" unicode="&#x627;" horiz-adv-x="594" arabic-form="final" 
d="M670 98q0 -32 -23.5 -55t-55.5 -23q-207 0 -307 100q-44 44 -62.5 106t-18.5 154v18q4 42 4 152v115q0 12 -0.5 40t-0.5 44q0 61 -1 89q0 429 -31 624l156 28q32 -190 32 -628q2 -78 2 -112v-240q0 -48 -2 -88v-61q0 -52 6.5 -80.5t29.5 -49.5q52 -52 184 -55h9
q32 0 55.5 -23.5t23.5 -54.5z" />
    <glyph glyph-name="uniFE90" unicode="&#x628;" horiz-adv-x="2245" arabic-form="final" 
d="M2228 20q-338 4 -439 290q-281 -293 -841 -293q-292 2 -488.5 67t-287.5 218q-64 109 -64 243q0 155 84 334q118 -67 139 -78l-21.5 -50.5t-25 -62.5t-14.5 -57.5t-8 -73.5q0 -75 26.5 -134t68 -97t104.5 -66.5t123.5 -43.5t136.5 -26q97 -14 227 -14q336 0 538 97
t285 323q13 37 30 90q32 -8 82 -22.5t70 -19.5q-30 -131 -30 -175v-10q4 -140 84 -211.5t229 -71.5q33 0 56 -22.5t23 -55.5t-23 -55.5t-56 -22.5h-8zM1138 -362l-147 -147l-148 148l147 147z" />
    <glyph glyph-name="uniFE91" unicode="&#x628;" horiz-adv-x="664" arabic-form="initial" 
d="M-7 20q-32 0 -55 22.5t-23 55.5t23 55.5t55 22.5h125q4 0 12 -0.5t11 -0.5q114 0 184 29.5t105 100.5q16 32 16 88q0 54 -19 140.5t-45 148.5l-60 144l142 71q96 -216 126 -372q13 -68 13 -130q0 -173 -123 -279q-110 -96 -341 -96h-146zM441 -376l-147 -147l-148 148
l147 147z" />
    <glyph glyph-name="uniFE92" unicode="&#x628;" horiz-adv-x="718" arabic-form="medial" 
d="M4 20q-34 0 -56 22t-22 56q0 32 22.5 55t55.5 23h17q167 0 256.5 59t89.5 197q0 96 -39 232q30 7 76.5 21.5t72.5 21.5q48 -181 50 -291q2 -61 8.5 -100t25 -73.5t53.5 -50.5t90 -16q32 0 55.5 -23t23.5 -55q0 -33 -23 -55.5t-55 -22.5q-170 0 -272 134
q-137 -134 -412 -134h-17zM536 -361l-147 -147l-148 148l147 147z" />
    <glyph glyph-name="uniFE94" unicode="&#x629;" horiz-adv-x="1126" arabic-form="final" 
d="M1127 20q-119 0 -192.5 38t-124.5 123q-135 -21 -229 -21q-250 0 -344 118q-48 59 -48 147q0 64 21 108.5t60 92.5q137 165 407 265l-15 145l157 34q11 -54 19 -173.5t18 -171.5q26 -226 52 -346q10 -47 18.5 -74.5t25 -56.5t43 -45t64.5 -22q33 -5 68 -5q33 0 56 -22.5
t23 -55.5q0 -32 -23.5 -55t-55.5 -23zM671 720q-55 -23 -92 -40t-84 -44t-81.5 -59.5t-56.5 -70.5q-17 -30 -17 -67q0 -125 235 -125q93 0 181 18q-25 129 -59 398zM594 1426l-146 -146l-148 147l146 147zM949 1424l-145 -146l-148 148l146 146z" />
    <glyph glyph-name="uniFE96" unicode="&#x62a;" horiz-adv-x="2253" arabic-form="final" 
d="M2228 20q-338 4 -439 290q-281 -293 -841 -293q-292 2 -488.5 67t-287.5 218q-64 109 -64 243q0 155 84 334q118 -67 139 -78l-21.5 -50.5t-25 -62.5t-14.5 -57.5t-8 -73.5q0 -75 26.5 -134t68 -97t104.5 -66.5t123.5 -43.5t136.5 -26q97 -14 227 -14q336 0 538 97
t285 323q13 37 30 90q32 -8 82 -22.5t70 -19.5q-30 -131 -30 -175v-10q4 -140 84 -211.5t229 -71.5q33 0 56 -22.5t23 -55.5t-23 -55.5t-56 -22.5h-8zM993 984l-146 -146l-148 147l146 147zM1348 982l-145 -146l-148 148l146 146z" />
    <glyph glyph-name="uniFE97" unicode="&#x62a;" horiz-adv-x="788" arabic-form="initial" 
d="M389 1246l-146 -146l-148 147l146 147zM744 1244l-145 -146l-148 148l146 146zM-37 20q-32 0 -55 22.5t-23 55.5t23 55.5t55 22.5h111q64 0 109.5 1.5t104.5 9t98.5 20.5t75 38t51.5 60q16 32 16 88q0 39 -9 85.5t-16 70t-25 79.5q-18 60 -80 198l142 71
q96 -216 126 -372q13 -68 13 -130q0 -173 -123 -279q-62 -54 -154 -75t-225 -21h-215z" />
    <glyph glyph-name="uniFE98" unicode="&#x62a;" horiz-adv-x="870" arabic-form="medial" 
d="M-3 20q-33 0 -55.5 22.5t-22.5 55.5t22.5 55.5t55.5 22.5h76q61 0 108 3t100.5 11t92.5 24.5t72 41t50 64t17 90.5v12q-7 121 -37 227q32 8 79 22.5t70 20.5q18 -66 35 -198.5t24 -171.5q27 -146 171 -146q33 0 56.5 -22.5t23.5 -55.5t-23 -55.5t-55 -22.5
q-169 0 -273 138q-74 -71 -210 -104.5t-301 -33.5h-76zM410 1022l-146 -146l-148 147l146 147zM765 1020l-145 -146l-148 148l146 146z" />
    <glyph glyph-name="uniFE9A" unicode="&#x62b;" horiz-adv-x="2233" arabic-form="final" 
d="M2228 20q-338 4 -439 290q-281 -293 -841 -293q-292 2 -488.5 67t-287.5 218q-64 109 -64 243q0 155 84 334q118 -67 139 -78l-21.5 -50.5t-25 -62.5t-14.5 -57.5t-8 -73.5q0 -75 26.5 -134t68 -97t104.5 -66.5t123.5 -43.5t136.5 -26q97 -14 227 -14q336 0 538 97
t285 323q13 37 30 90q32 -8 82 -22.5t70 -19.5q-30 -131 -30 -175v-10q4 -140 84 -211.5t229 -71.5q33 0 56 -22.5t23 -55.5t-23 -55.5t-56 -22.5h-8zM1106 968l146 146l148 -148l-146 -146zM700 969l146 147l148 -148l-146 -147zM923 1259l132 132l133 -133l-132 -132z" />
    <glyph glyph-name="uniFE9B" unicode="&#x62b;" horiz-adv-x="799" arabic-form="initial" 
d="M510 1252l146 146l148 -148l-146 -146zM104 1253l146 147l148 -148l-146 -147zM327 1543l132 132l133 -133l-132 -132zM0 20q-32 0 -55 22.5t-23 55.5t23 55.5t55 22.5h111q64 0 109.5 1.5t104.5 9t98.5 20.5t75 38t51.5 60q16 32 16 88q0 39 -9 85.5t-16 70t-25 79.5
q-18 60 -80 198l142 71q96 -216 126 -372q13 -68 13 -130q0 -173 -123 -279q-62 -54 -154 -75t-225 -21h-215z" />
    <glyph glyph-name="uniFE9C" unicode="&#x62b;" horiz-adv-x="864" arabic-form="medial" 
d="M-3 20q-33 0 -55.5 22.5t-22.5 55.5t22.5 55.5t55.5 22.5h76q61 0 108 3t100.5 11t92.5 24.5t72 41t50 64t17 90.5v12q-7 121 -37 227q32 8 79 22.5t70 20.5q18 -66 35 -198.5t24 -171.5q27 -146 171 -146q33 0 56.5 -22.5t23.5 -55.5t-23 -55.5t-55 -22.5
q-169 0 -273 138q-74 -71 -210 -104.5t-301 -33.5h-76zM466 1087l146 146l148 -148l-146 -146zM60 1088l146 147l148 -148l-146 -147zM283 1378l132 132l133 -133l-132 -132z" />
    <glyph glyph-name="uniFE9E" unicode="&#x62c;" horiz-adv-x="1609" arabic-form="final" 
d="M1681 96q0 -32 -23.5 -54t-55.5 -22q-331 0 -468 161q-72 102 -77 224q-2 16 1 38q-247 -24 -441.5 -120t-298.5 -251q-66 -99 -75 -211v-9q0 -291 313 -410q131 -50 297 -50q155 0 278 42t237 122l90 -129q-298 -199 -643 -199q-239 0 -411.5 92.5t-256.5 257.5
q-57 112 -57 257v21q0 211 157 392q145 166 379 255.5t537 89.5h35q-51 28 -114.5 74l-111 83.5t-113.5 77t-130 60.5q-51 17 -108 17q-58 0 -112 -26t-85 -55t-68 -72t-60 -76l-65 42.5l-64 41.5q132 205 301 276q64 27 137 27q152 0 301 -79q49 -26 104.5 -63t91 -64
l98.5 -76.5l89 -69.5q65 -49 130 -87l-51 -159l-154 -10q-1 -5 -1 -15v-14q0 -62 20.5 -108t53.5 -73t85.5 -42.5t105.5 -21t124 -5.5q32 0 55.5 -24t23.5 -56zM970 -122l-147 -147l-148 148l147 147z" />
    <glyph glyph-name="uniFE9F" unicode="&#x62c;" horiz-adv-x="1548" arabic-form="initial" 
d="M-1 20q-32 0 -56 23t-24 55q0 33 23.5 55.5t56.5 22.5h198q249 0 547 100q228 76 521 223l-298 124l-34.5 17t-37.5 18l-35 16.5t-38.5 17.5t-36 14t-40.5 13.5t-39 10.5q-39 9 -72 9q-98 0 -190 -98q-54 -57 -101 -142l-134 80q36 79 107 156t142 115q87 46 176 46
q84 0 194 -40q109 -40 306.5 -139.5t305.5 -138.5q5 -30 16 -79.5t16 -77.5q-50 -19 -197 -93q-438 -213 -785 -280q-144 -28 -293 -28h-198zM912 -365l-147 -147l-148 148l147 147z" />
    <glyph glyph-name="uniFEA0" unicode="&#x62c;" horiz-adv-x="1663" arabic-form="medial" 
d="M0 20q-33 0 -56 22t-23 55q0 32 23.5 55.5t55.5 23.5h183q243 0 505 91q163 56 449 199l60 30q-75 26 -251.5 113t-284.5 115q-54 14 -100 14q-97 0 -189 -96q-59 -62 -102 -143l-130 88q116 212 282 283q63 27 139 27q113 0 277 -67q73 -30 209.5 -99.5t204.5 -98.5
q72 -30 135 -43l17 -78t16 -78l-27 -12q-21 -11 -53.5 -26t-50.5 -24q29 -99 126.5 -147t237.5 -48h14q32 0 55.5 -23.5t23.5 -55.5q0 -33 -23 -55t-56 -22h-14q-191 0 -323.5 72.5t-184.5 207.5q-191 -95 -354.5 -159t-343.5 -98q-127 -24 -264 -24zM936 -363l-147 -147
l-148 148l147 147z" />
    <glyph glyph-name="uniFEA2" unicode="&#x62d;" horiz-adv-x="1600" arabic-form="final" 
d="M1681 96q0 -32 -23.5 -54t-55.5 -22q-331 0 -468 161q-72 102 -77 224q-2 16 1 38q-247 -24 -441.5 -120t-298.5 -251q-66 -99 -75 -211v-9q0 -291 313 -410q131 -50 297 -50q155 0 278 42t237 122l90 -129q-298 -199 -643 -199q-239 0 -411.5 92.5t-256.5 257.5
q-57 112 -57 257v21q0 211 157 392q145 166 379 255.5t537 89.5h35q-51 28 -114.5 74l-111 83.5t-113.5 77t-130 60.5q-51 17 -108 17q-58 0 -112 -26t-85 -55t-68 -72t-60 -76l-65 42.5l-64 41.5q132 205 301 276q64 27 137 27q152 0 301 -79q49 -26 104.5 -63t91 -64
l98.5 -76.5l89 -69.5q65 -49 130 -87l-51 -159l-154 -10q-1 -5 -1 -15v-14q0 -62 20.5 -108t53.5 -73t85.5 -42.5t105.5 -21t124 -5.5q32 0 55.5 -24t23.5 -56z" />
    <glyph glyph-name="uniFEA3" unicode="&#x62d;" horiz-adv-x="1548" arabic-form="initial" 
d="M-1 20q-32 0 -56 23t-24 55q0 33 23.5 55.5t56.5 22.5h198q249 0 547 100q228 76 521 223l-298 124l-34.5 17t-37.5 18l-35 16.5t-38.5 17.5t-36 14t-40.5 13.5t-39 10.5q-39 9 -72 9q-98 0 -190 -98q-54 -57 -101 -142l-134 80q36 79 107 156t142 115q87 46 176 46
q84 0 194 -40q109 -40 306.5 -139.5t305.5 -138.5q5 -30 16 -79.5t16 -77.5q-50 -19 -197 -93q-438 -213 -785 -280q-144 -28 -293 -28h-198z" />
    <glyph glyph-name="uniFEA4" unicode="&#x62d;" horiz-adv-x="1667" arabic-form="medial" 
d="M0 20q-33 0 -56 22t-23 55q0 32 23.5 55.5t55.5 23.5h183q243 0 505 91q163 56 449 199l60 30q-75 26 -251.5 113t-284.5 115q-54 14 -100 14q-97 0 -189 -96q-59 -62 -102 -143l-130 88q116 212 282 283q63 27 139 27q113 0 277 -67q73 -30 209.5 -99.5t204.5 -98.5
q72 -30 135 -43l17 -78t16 -78l-27 -12q-21 -11 -53.5 -26t-50.5 -24q29 -99 126.5 -147t237.5 -48h14q32 0 55.5 -23.5t23.5 -55.5q0 -33 -23 -55t-56 -22h-14q-191 0 -323.5 72.5t-184.5 207.5q-191 -95 -354.5 -159t-343.5 -98q-127 -24 -264 -24z" />
    <glyph glyph-name="uniFEA6" unicode="&#x62e;" horiz-adv-x="1603" arabic-form="final" 
d="M1681 96q0 -32 -23.5 -54t-55.5 -22q-331 0 -468 161q-72 102 -77 224q-2 16 1 38q-247 -24 -441.5 -120t-298.5 -251q-66 -99 -75 -211v-9q0 -291 313 -410q131 -50 297 -50q155 0 278 42t237 122l90 -129q-298 -199 -643 -199q-239 0 -411.5 92.5t-256.5 257.5
q-57 112 -57 257v21q0 211 157 392q145 166 379 255.5t537 89.5h35q-51 28 -114.5 74l-111 83.5t-113.5 77t-130 60.5q-51 17 -108 17q-58 0 -112 -26t-85 -55t-68 -72t-60 -76l-65 42.5l-64 41.5q132 205 301 276q64 27 137 27q152 0 301 -79q49 -26 104.5 -63t91 -64
l98.5 -76.5l89 -69.5q65 -49 130 -87l-51 -159l-154 -10q-1 -5 -1 -15v-14q0 -62 20.5 -108t53.5 -73t85.5 -42.5t105.5 -21t124 -5.5q32 0 55.5 -24t23.5 -56zM759 1384l-147 -147l-148 148l147 147z" />
    <glyph glyph-name="uniFEA7" unicode="&#x62e;" horiz-adv-x="1548" arabic-form="initial" 
d="M-1 20q-32 0 -56 23t-24 55q0 33 23.5 55.5t56.5 22.5h198q249 0 547 100q228 76 521 223l-298 124l-34.5 17t-37.5 18l-35 16.5t-38.5 17.5t-36 14t-40.5 13.5t-39 10.5q-39 9 -72 9q-98 0 -190 -98q-54 -57 -101 -142l-134 80q36 79 107 156t142 115q87 46 176 46
q84 0 194 -40q109 -40 306.5 -139.5t305.5 -138.5q5 -30 16 -79.5t16 -77.5q-50 -19 -197 -93q-438 -213 -785 -280q-144 -28 -293 -28h-198zM739 1285l-147 -147l-148 148l147 147z" />
    <glyph glyph-name="uniFEA8" unicode="&#x62e;" horiz-adv-x="1669" arabic-form="medial" 
d="M0 20q-33 0 -56 22t-23 55q0 32 23.5 55.5t55.5 23.5h183q243 0 505 91q163 56 449 199l60 30q-75 26 -251.5 113t-284.5 115q-54 14 -100 14q-97 0 -189 -96q-59 -62 -102 -143l-130 88q116 212 282 283q63 27 139 27q113 0 277 -67q73 -30 209.5 -99.5t204.5 -98.5
q72 -30 135 -43l17 -78t16 -78l-27 -12q-21 -11 -53.5 -26t-50.5 -24q29 -99 126.5 -147t237.5 -48h14q32 0 55.5 -23.5t23.5 -55.5q0 -33 -23 -55t-56 -22h-14q-191 0 -323.5 72.5t-184.5 207.5q-191 -95 -354.5 -159t-343.5 -98q-127 -24 -264 -24zM687 1224l-147 -147
l-148 148l147 147z" />
    <glyph glyph-name="uniFEAA" unicode="&#x62f;" horiz-adv-x="1253" arabic-form="final" 
d="M1249 20q-207 0 -318 141q-15 -12 -32 -23t-41.5 -23t-37 -17.5l-45 -19.5t-38.5 -16q-108 -42 -247 -42q-165 0 -308 98q-50 34 -86 70l91 126q159 -134 328 -134q151 0 309 104q18 12 29 23l-313 754q77 31 144 61l315 -759q33 -87 55 -115q9 -13 20 -22
q57 -50 175 -50q32 0 55.5 -23t23.5 -55t-23.5 -55t-55.5 -23z" />
    <glyph glyph-name="uniFEAC" unicode="&#x630;" horiz-adv-x="1247" arabic-form="final" 
d="M1249 20q-207 0 -318 141q-15 -12 -32 -23t-41.5 -23t-37 -17.5l-45 -19.5t-38.5 -16q-108 -42 -247 -42q-165 0 -308 98q-50 34 -86 70l91 126q159 -134 328 -134q151 0 309 104q18 12 29 23l-313 754q77 31 144 61l315 -759q33 -87 55 -115q9 -13 20 -22
q57 -50 175 -50q32 0 55.5 -23t23.5 -55t-23.5 -55t-55.5 -23zM774 1468l-147 -147l-148 148l147 147z" />
    <glyph glyph-name="uniFEAE" unicode="&#x631;" horiz-adv-x="816" arabic-form="final" 
d="M825 20q-71 0 -120.5 26t-99.5 76v-53q0 -158 -93 -313q-168 -278 -538 -466q-10 21 -33 65.5t-37 74.5q324 168 464 387q80 124 80 253v20q0 6 -2 20q-5 33 -10.5 65t-14.5 70.5l-14 60.5t-18.5 68.5t-16.5 58t-19.5 65.5t-17.5 57l150 46q75 -228 153 -325
q38 -48 80.5 -74t101.5 -26h5q32 0 55.5 -23.5t23.5 -55.5q0 -33 -23 -55t-56 -22z" />
    <glyph glyph-name="uniFEB0" unicode="&#x632;" horiz-adv-x="819" arabic-form="final" 
d="M825 20q-71 0 -120.5 26t-99.5 76v-53q0 -158 -93 -313q-168 -278 -538 -466q-10 21 -33 65.5t-37 74.5q324 168 464 387q80 124 80 253v20q0 6 -2 20q-5 33 -10.5 65t-14.5 70.5l-14 60.5t-18.5 68.5t-16.5 58t-19.5 65.5t-17.5 57l150 46q75 -228 153 -325
q38 -48 80.5 -74t101.5 -26h5q32 0 55.5 -23.5t23.5 -55.5q0 -33 -23 -55t-56 -22zM538 994l-147 -147l-148 148l147 147z" />
    <glyph glyph-name="uniFEB2" unicode="&#x633;" horiz-adv-x="2889" arabic-form="final" 
d="M2432 548q0 34 -11 155l164 11q7 -129 40 -274q43 -129 105 -196q63 -68 141 -68h20q32 0 55.5 -23.5t23.5 -55.5q0 -31 -23.5 -54t-55.5 -23h-20q-90 0 -167.5 45t-128.5 121q-4 6 -40 66q-37 -82 -74.5 -130t-99.5 -77q-55 -26 -120 -26q-89 0 -177 84q-29 27 -53 62
q-116 -136 -299 -146h-15q-108 0 -204 61l2 -52q2 -32 2 -48q0 -275 -213 -452q-208 -172 -503 -172q-26 0 -39 1q-224 0 -372.5 107.5t-209.5 291.5q-32 94 -32 218q0 158 50 312q47 163 114 261l63 -47l64 -48q-81 -129 -118 -336q-14 -78 -14 -149q0 -175 83 -283
t234 -149q70 -19 169 -19q438 21 535 312q37 116 37 255q0 129 -27 235t-80 229q28 19 67 37l32 16q11 5 33 19q5 -5 24 -57l24.5 -65.5l26 -70.5t27.5 -65t34.5 -64t40.5 -51t51 -42q43 -26 108 -26q31 0 58 6t47.5 19.5t37 28.5t28.5 39.5t21 45.5t15 53.5l10 56t6.5 61
t3.5 61.5t2 63v15l164 -11l-7 -152q0 -194 73 -263q29 -28 80 -28q33 0 52.5 12t41.5 37v-1q40 44 64 122.5t28 170.5q0 6 0.5 17t0.5 17z" />
    <glyph glyph-name="uniFEB3" unicode="&#x633;" horiz-adv-x="1609" arabic-form="initial" 
d="M1 19q-29 2 -51 24.5t-22 53.5q0 30 21.5 53t50.5 26q109 3 194 86q121 118 182 402l157 -31q-4 -15 -19.5 -67t-22.5 -79t-14.5 -72.5t-7.5 -85.5q0 -162 128 -162q98 0 171 97q56 75 89.5 181t58.5 249q29 -5 78.5 -14.5t73.5 -14.5v-1q-17 -84 -32 -212q-5 -45 -5 -74
q0 -214 167 -214q84 0 126.5 52.5t42.5 143.5q0 90 -47 242q-34 110 -83 206l139 74q92 -184 132 -362q18 -81 18 -157q0 -171 -92 -263t-264 -92h-10q-104 0 -210 100q-31 29 -54 65q-143 -165 -299 -165q-119 0 -209 94q-30 32 -48 72q-69 -72 -147 -112t-192 -43z" />
    <glyph glyph-name="uniFEB4" unicode="&#x633;" horiz-adv-x="1851" arabic-form="medial" 
d="M533 217q25 -43 86 -43q39 0 82 30q154 111 225 502l155 -29q-22 -108 -22 -205v-23q0 -204 89 -257q22 -13 66 -13q62 0 99 43v-1q44 47 65.5 136.5t21.5 195.5q0 7 0.5 19.5t0.5 17.5q0 18 -1 36.5t-2.5 40.5t-2.5 35l159 14q11 -143 50 -275.5t102 -199.5
q60 -65 139 -65h8q33 0 55.5 -22.5t22.5 -55.5q0 -32 -23 -55t-55 -23h-8q-207 0 -336 229q-22 -51 -45.5 -88t-58.5 -71t-83 -52t-108 -18q-112 0 -176.5 56t-106.5 158q-74 -112 -138 -158q-84 -59 -177 -59q-57 0 -100.5 17t-73.5 51.5t-49 68t-40 83.5q-51 -69 -87 -102
q-118 -115 -259 -115h-9q-32 0 -55.5 23t-23.5 55q0 31 24.5 53.5t55.5 24.5h8q79 0 163 84q79 79 154 250q41 93 66 184v2l152 -42l-2 -6l1 1q-42 -141 -42 -273q0 -4 0.5 -13.5t0.5 -14.5q3 -81 33 -132v1z" />
    <glyph glyph-name="uniFEB6" unicode="&#x634;" horiz-adv-x="2889" arabic-form="final" 
d="M2432 548q0 34 -11 155l164 11q7 -129 40 -274q43 -129 105 -196q63 -68 141 -68h20q32 0 55.5 -23.5t23.5 -55.5q0 -31 -23.5 -54t-55.5 -23h-20q-90 0 -167.5 45t-128.5 121q-4 6 -40 66q-37 -82 -74.5 -130t-99.5 -77q-55 -26 -120 -26q-89 0 -177 84q-29 27 -53 62
q-116 -136 -299 -146h-15q-108 0 -204 61l2 -52q2 -32 2 -48q0 -275 -213 -452q-208 -172 -503 -172q-26 0 -39 1q-224 0 -372.5 107.5t-209.5 291.5q-32 94 -32 218q0 158 50 312q47 163 114 261l63 -47l64 -48q-81 -129 -118 -336q-14 -78 -14 -149q0 -175 83 -283
t234 -149q70 -19 169 -19q438 21 535 312q37 116 37 255q0 129 -27 235t-80 229q28 19 67 37l32 16q11 5 33 19q5 -5 24 -57l24.5 -65.5l26 -70.5t27.5 -65t34.5 -64t40.5 -51t51 -42q43 -26 108 -26q31 0 58 6t47.5 19.5t37 28.5t28.5 39.5t21 45.5t15 53.5l10 56t6.5 61
t3.5 61.5t2 63v15l164 -11l-7 -152q0 -194 73 -263q29 -28 80 -28q33 0 52.5 12t41.5 37v-1q40 44 64 122.5t28 170.5q0 6 0.5 17t0.5 17zM2050 1050l146 146l148 -148l-146 -146zM1644 1051l146 147l148 -148l-146 -147zM1867 1341l132 132l133 -133l-132 -132z" />
    <glyph glyph-name="uniFEB7" unicode="&#x634;" horiz-adv-x="1609" arabic-form="initial" 
d="M1 19q-29 2 -51 24.5t-22 53.5q0 30 21.5 53t50.5 26q109 3 194 86q121 118 182 402l157 -31q-4 -15 -19.5 -67t-22.5 -79t-14.5 -72.5t-7.5 -85.5q0 -162 128 -162q98 0 171 97q56 75 89.5 181t58.5 249q29 -5 78.5 -14.5t73.5 -14.5v-1q-17 -84 -32 -212q-5 -45 -5 -74
q0 -214 167 -214q84 0 126.5 52.5t42.5 143.5q0 90 -47 242q-34 110 -83 206l139 74q92 -184 132 -362q18 -81 18 -157q0 -171 -92 -263t-264 -92h-10q-104 0 -210 100q-31 29 -54 65q-143 -165 -299 -165q-119 0 -209 94q-30 32 -48 72q-69 -72 -147 -112t-192 -43z
M987 1156l146 146l148 -148l-146 -146zM581 1157l146 147l148 -148l-146 -147zM804 1447l132 132l133 -133l-132 -132z" />
    <glyph glyph-name="uniFEB8" unicode="&#x634;" horiz-adv-x="1876" arabic-form="medial" 
d="M540 217q25 -43 86 -43q39 0 82 30q154 111 225 502l155 -29q-22 -108 -22 -205v-23q0 -204 89 -257q22 -13 66 -13q62 0 99 43v-1q44 47 65.5 136.5t21.5 195.5q0 7 0.5 19.5t0.5 17.5q0 18 -1 36.5t-2.5 40.5t-2.5 35l159 14q11 -143 50 -275.5t102 -199.5
q60 -65 139 -65h8q33 0 55.5 -22.5t22.5 -55.5q0 -32 -23 -55t-55 -23h-8q-207 0 -336 229q-22 -51 -45.5 -88t-58.5 -71t-83 -52t-108 -18q-112 0 -176.5 56t-106.5 158q-74 -112 -138 -158q-84 -59 -177 -59q-57 0 -100.5 17t-73.5 51.5t-49 68t-40 83.5q-51 -69 -87 -102
q-118 -115 -259 -115h-9q-32 0 -55.5 23t-23.5 55q0 31 24.5 53.5t55.5 24.5h8q79 0 163 84q79 79 154 250q41 93 66 184v2l152 -42l-2 -6l1 1q-42 -141 -42 -273q0 -4 0.5 -13.5t0.5 -14.5q3 -81 33 -132v1zM1055 1125l146 146l148 -148l-146 -146zM649 1126l146 147
l148 -148l-146 -147zM872 1416l132 132l133 -133l-132 -132z" />
    <glyph glyph-name="uniFEBA" unicode="&#x635;" horiz-adv-x="2868" arabic-form="final" 
d="M1730 200q158 -58 343 -58q236 0 391 95q54 29 89 88.5t35 134.5q0 124 -109 186q-55 32 -135 32q-93 0 -164 -33t-144 -91q-197 -159 -306 -354zM2947 97q0 -32 -23 -54.5t-56 -22.5q-90 0 -167 27t-123 73q-209 -135 -494 -135h-23q-338 0 -587 181q7 -46 7 -131v-27
q0 -212 -131 -391q-85 -117 -223.5 -182t-325.5 -65q-221 0 -374 73.5t-224 217.5q-55 111 -55 263v8q2 147 46 299.5t108 270.5q44 -30 135 -87q-71 -135 -116 -339q-16 -74 -16 -152q0 -209 128 -302.5t363 -93.5q237 0 372.5 120.5t152.5 344.5q1 9 1 26q0 4 0.5 13.5
t0.5 13.5q0 95 -21 201t-42.5 174t-57.5 163l147 58q56 -131 149 -271q30 -47 97 -98q98 181 262 334q186 182 387 221q55 10 100 10h12q133 -4 226 -68t136 -170q29 -70 29 -151q0 -112 -61 -214q23 -32 122 -53q27 -6 52 -6h8q33 0 56 -23t23 -56z" />
    <glyph glyph-name="uniFEBB" unicode="&#x635;" horiz-adv-x="1871" arabic-form="initial" 
d="M739 169q89 -18 196 -18q319 0 517 91q179 83 179 241q0 77 -56 140q-87 77 -193 77q-56 0 -112 -19.5t-89.5 -40.5t-80.5 -56q-48 -35 -87 -70v1q-130 -123 -234 -279q-22 -33 -40 -67zM0 20q-33 0 -56 22.5t-23 55.5t23 55.5t56 22.5q139 0 214.5 54t106.5 166
q11 40 32 139.5t34 146.5l151 -45q-15 -44 -26 -141q-3 -26 -1 -41q0 -137 82 -238q31 71 112 183q210 288 447 398q123 58 240 58q176 0 297 -124q94 -117 94 -262q0 -4 -0.5 -11.5t-0.5 -11.5q-14 -239 -292 -363q-217 -96 -508 -96q-173 0 -275 17.5t-181 76.5
q-59 44 -122 122q-129 -181 -395 -184h-9z" />
    <glyph glyph-name="uniFEBC" unicode="&#x635;" horiz-adv-x="1933" arabic-form="medial" 
d="M-1 20q-32 0 -55 22.5t-23 54.5t23 55.5t55 23.5h9q112 3 162.5 23.5t95.5 78.5q37 49 58 112.5t42 161.5l15 66q9 39 16 64l149 -46q-2 -7 -7.5 -28l-8 -30.5t-6.5 -28.5t-6 -32.5t-3.5 -32.5t-1.5 -37q0 -170 89 -233q98 205 305 412q186 173 402 218q53 10 112 10
q180 0 293 -122q88 -88 88 -242v-20q-13 -159 -148 -294h279q33 0 56.5 -23t23.5 -56t-23.5 -55t-56.5 -22l-252 -1q-97 0 -174 7q-68 6 -107 25q-233 -62 -414 -62q-159 0 -292.5 33.5t-215.5 101.5q-43 36 -63 88q-79 -106 -173 -147q-93 -45 -243 -45zM1408 696
q-208 -9 -392 -185v1q-156 -147 -260 -342q164 -17 221 -17q263 0 455 77q69 27 117 67h-1q92 74 98 184q0 3 0.5 8.5t0.5 7.5q0 117 -107 173q-49 26 -116 26h-16z" />
    <glyph glyph-name="uniFEBE" unicode="&#x636;" horiz-adv-x="2867" arabic-form="final" 
d="M1730 200q158 -58 343 -58q236 0 391 95q54 29 89 88.5t35 134.5q0 124 -109 186q-55 32 -135 32q-93 0 -164 -33t-144 -91q-197 -159 -306 -354zM2947 97q0 -32 -23 -54.5t-56 -22.5q-90 0 -167 27t-123 73q-209 -135 -494 -135h-23q-338 0 -587 181q7 -46 7 -131v-27
q0 -212 -131 -391q-85 -117 -223.5 -182t-325.5 -65q-221 0 -374 73.5t-224 217.5q-55 111 -55 263v8q2 147 46 299.5t108 270.5q44 -30 135 -87q-71 -135 -116 -339q-16 -74 -16 -152q0 -209 128 -302.5t363 -93.5q237 0 372.5 120.5t152.5 344.5q1 9 1 26q0 4 0.5 13.5
t0.5 13.5q0 95 -21 201t-42.5 174t-57.5 163l147 58q56 -131 149 -271q30 -47 97 -98q98 181 262 334q186 182 387 221q55 10 100 10h12q133 -4 226 -68t136 -170q29 -70 29 -151q0 -112 -61 -214q23 -32 122 -53q27 -6 52 -6h8q33 0 56 -23t23 -56zM2443 1201l-147 -147
l-148 148l147 147z" />
    <glyph glyph-name="uniFEBF" unicode="&#x636;" horiz-adv-x="1894" arabic-form="initial" 
d="M739 169q89 -18 196 -18q319 0 517 91q179 83 179 241q0 77 -56 140q-87 77 -193 77q-56 0 -112 -19.5t-89.5 -40.5t-80.5 -56q-48 -35 -87 -70v1q-130 -123 -234 -279q-22 -33 -40 -67zM0 20q-33 0 -56 22.5t-23 55.5t23 55.5t56 22.5q139 0 214.5 54t106.5 166
q11 40 32 139.5t34 146.5l151 -45q-15 -44 -26 -141q-3 -26 -1 -41q0 -137 82 -238q31 71 112 183q210 288 447 398q123 58 240 58q176 0 297 -124q94 -117 94 -262q0 -4 -0.5 -11.5t-0.5 -11.5q-14 -239 -292 -363q-217 -96 -508 -96q-173 0 -275 17.5t-181 76.5
q-59 44 -122 122q-129 -181 -395 -184h-9zM1446 1250l-147 -147l-148 148l147 147z" />
    <glyph glyph-name="uniFEC0" unicode="&#x636;" horiz-adv-x="1931" arabic-form="medial" 
d="M-1 20q-32 0 -55 22.5t-23 54.5t23 55.5t55 23.5h9q112 3 162.5 23.5t95.5 78.5q37 49 58 112.5t42 161.5l15 66q9 39 16 64l149 -46q-2 -7 -7.5 -28l-8 -30.5t-6.5 -28.5t-6 -32.5t-3.5 -32.5t-1.5 -37q0 -170 89 -233q98 205 305 412q186 173 402 218q53 10 112 10
q180 0 293 -122q88 -88 88 -242v-20q-13 -159 -148 -294h279q33 0 56.5 -23t23.5 -56t-23.5 -55t-56.5 -22l-252 -1q-97 0 -174 7q-68 6 -107 25q-233 -62 -414 -62q-159 0 -292.5 33.5t-215.5 101.5q-43 36 -63 88q-79 -106 -173 -147q-93 -45 -243 -45zM1408 696
q-208 -9 -392 -185v1q-156 -147 -260 -342q164 -17 221 -17q263 0 455 77q69 27 117 67h-1q92 74 98 184q0 3 0.5 8.5t0.5 7.5q0 117 -107 173q-49 26 -116 26h-16zM1501 1228l-147 -147l-148 148l147 147z" />
    <glyph glyph-name="uniFEC2" unicode="&#x637;" horiz-adv-x="1867" arabic-form="final" 
d="M1946 98q0 -32 -22.5 -55t-55.5 -23h-920q-14 -1 -41 -1h-40q-7 0 -23.5 0.5t-25.5 0.5q-28 0 -77 3h-4q-297 16 -608 132q12 29 29.5 77t26.5 70q131 -50 256 -79q61 89 134 181l25 36q12 81 12 158q0 22 -1.5 66.5t-1.5 68.5q0 142 -29 465q-20 202 -36 320l155 35
q36 -362 52 -494l4 -47q9 -94 9 -123v-43q0 -9 2 -59l4 -167q267 255 483 287q37 7 68 7q112 0 201 -49.5t136 -128.5q33 -55 38 -126v-18q0 -103 -60 -218q-71 -137 -179 -196l403 -2h8q34 0 56 -22t22 -56zM930 178q317 15 522 201q88 96 88 205q0 81 -61 125.5t-156 44.5
q-25 0 -46 -3q-102 -16 -229 -103q-122 -84 -261 -238l-175 -222z" />
    <glyph glyph-name="uniFEC3" unicode="&#x637;" horiz-adv-x="1509" arabic-form="initial" 
d="M340 177q11 -1 62 -1h129q198 0 312 27q247 59 383 212q63 71 63 153q0 90 -66.5 137t-167.5 47q-28 0 -48 -4q-103 -22 -229 -108q-122 -83 -260 -235v1q-48 -57 -178 -229zM-3 20q-33 0 -56 22.5t-23 55.5q0 31 23.5 54.5t55.5 23.5h162q22 36 24 40q58 104 132 196
q20 130 24 386v41q0 187 -23 442l-21 215l163 29q44 -334 44 -714v-44q0 -8 -1 -26t-1 -28v-54q0 -9 -0.5 -24t-0.5 -21q138 128 257 198q123 73 227 92q50 8 94 8q153 0 257 -100q95 -102 95 -231q0 -171 -142 -329q-133 -117 -297.5 -175t-391.5 -58l-592 1h-9z" />
    <glyph glyph-name="uniFEC4" unicode="&#x637;" horiz-adv-x="1583" arabic-form="medial" 
d="M484 175q8 0 23 -0.5t22 -0.5h45q208 0 352.5 46t259.5 147q65 65 88 170q8 33 6 63q-12 74 -74 112t-155 38q-30 0 -57.5 -6.5t-44.5 -13.5t-59 -26q-74 -33 -166 -104q-215 -164 -376 -424zM-8 20q-34 0 -56 22t-22 56t22 56t56 22h164q70 109 161 222q31 55 31 230v31
q0 141 -8 293l-9 156q-14 225 -35 381l155 28q58 -376 58 -797v-108q276 258 484 289q35 5 64 5q216 0 330 -156q52 -72 52 -170q0 -128 -87 -257q-27 -39 -51 -65l-22 -22l-63 -60h373q32 0 55 -22.5t23 -54.5t-23 -55t-55 -23q-6 0 -20 -0.5t-21 -0.5h-48q-8 0 -30 -0.5
t-36 -0.5h-93q-246 0 -382 44q-153 -43 -354 -43h-613z" />
    <glyph glyph-name="uniFEC6" unicode="&#x638;" horiz-adv-x="1868" arabic-form="final" 
d="M1946 98q0 -32 -22.5 -55t-55.5 -23h-920q-14 -1 -41 -1h-40q-7 0 -23.5 0.5t-25.5 0.5q-28 0 -77 3h-4q-297 16 -608 132q12 29 29.5 77t26.5 70q131 -50 256 -79q61 89 134 181l25 36q12 81 12 158q0 22 -1.5 66.5t-1.5 68.5q0 142 -29 465q-20 202 -36 320l155 35
q36 -362 52 -494l4 -47q9 -94 9 -123v-43q0 -9 2 -59l4 -167q267 255 483 287q37 7 68 7q112 0 201 -49.5t136 -128.5q33 -55 38 -126v-18q0 -103 -60 -218q-71 -137 -179 -196l403 -2h8q34 0 56 -22t22 -56zM930 178q317 15 522 201q88 96 88 205q0 81 -61 125.5t-156 44.5
q-25 0 -46 -3q-102 -16 -229 -103q-122 -84 -261 -238l-175 -222zM1430 1355l-147 -147l-148 148l147 147z" />
    <glyph glyph-name="uniFEC7" unicode="&#x638;" horiz-adv-x="1520" arabic-form="initial" 
d="M340 177q11 -1 62 -1h129q198 0 312 27q247 59 383 212q63 71 63 153q0 90 -66.5 137t-167.5 47q-28 0 -48 -4q-103 -22 -229 -108q-122 -83 -260 -235v1q-48 -57 -178 -229zM-3 20q-33 0 -56 22.5t-23 55.5q0 31 23.5 54.5t55.5 23.5h162q22 36 24 40q58 104 132 196
q20 130 24 386v41q0 187 -23 442l-21 215l163 29q44 -334 44 -714v-44q0 -8 -1 -26t-1 -28v-54q0 -9 -0.5 -24t-0.5 -21q138 128 257 198q123 73 227 92q50 8 94 8q153 0 257 -100q95 -102 95 -231q0 -171 -142 -329q-133 -117 -297.5 -175t-391.5 -58l-592 1h-9zM1195 1343
l-147 -147l-148 148l147 147z" />
    <glyph glyph-name="uniFEC8" unicode="&#x638;" horiz-adv-x="1570" arabic-form="medial" 
d="M484 175q8 0 23 -0.5t22 -0.5h45q208 0 352.5 46t259.5 147q65 65 88 170q8 33 6 63q-12 74 -74 112t-155 38q-30 0 -57.5 -6.5t-44.5 -13.5t-59 -26q-74 -33 -166 -104q-215 -164 -376 -424zM-8 20q-34 0 -56 22t-22 56t22 56t56 22h164q70 109 161 222q31 55 31 230v31
q0 141 -8 293l-9 156q-14 225 -35 381l155 28q58 -376 58 -797v-108q276 258 484 289q35 5 64 5q216 0 330 -156q52 -72 52 -170q0 -128 -87 -257q-27 -39 -51 -65l-22 -22l-63 -60h373q32 0 55 -22.5t23 -54.5t-23 -55t-55 -23q-6 0 -20 -0.5t-21 -0.5h-48q-8 0 -30 -0.5
t-36 -0.5h-93q-246 0 -382 44q-153 -43 -354 -43h-613zM1204 1354l-147 -147l-148 148l147 147z" />
    <glyph glyph-name="uniFECA" unicode="&#x639;" horiz-adv-x="1355" arabic-form="final" 
d="M1432 97q0 -33 -22 -54.5t-55 -23.5q-149 0 -315 68q-127 51 -308 176q-316 -122 -419 -302q-42 -73 -42 -167q0 -146 142 -272q121 -108 253 -129q72 -9 148 -9q245 0 435 119l37.5 -63l43.5 -73q-229 -143 -510 -143l-104 5q-180 18 -319 98.5t-223 208.5
q-59 97 -59 239v14q3 150 60 254h-1q61 110 172 193.5t250 138.5q-137 123 -281 283q-7 61 -10 109q51 73 140.5 122.5t198.5 73.5l-1 -1q111 24 209 24q113 0 205.5 -30.5t140.5 -87.5t48 -131v-9q-4 -200 -236 -337q-58 -34 -107 -56q112 -68 227 -114q114 -45 225 -45
q32 -2 54.5 -24t22.5 -55zM473 719q182 -188 283 -274q174 72 245 130q85 68 87 156q0 30 -24 50.5t-63 30t-74.5 13.5t-73.5 4q-143 0 -297 -65q-44 -18 -83 -45z" />
    <glyph glyph-name="uniFECB" unicode="&#x639;" horiz-adv-x="1072" arabic-form="initial" 
d="M-80 98q0 33 23.5 55.5t56.5 22.5l335 4q-92 84 -127 160q-36 78 -36 163q0 135 69 233.5t178 145.5q75 33 164 33q209 0 389 -162l-97 -119q-85 67 -185 105q-52 20 -107 20q-92 0 -152.5 -43.5t-86.5 -117.5q-16 -45 -16 -95q0 -106 63.5 -176t159.5 -99
q51 -15 107 -15q117 0 313 40l19 -152q-326 -79 -772 -79l-218 -2q-33 0 -56.5 22.5t-23.5 55.5z" />
    <glyph glyph-name="uniFECC" unicode="&#x639;" horiz-adv-x="1138" arabic-form="medial" 
d="M747 242q172 -66 399 -66q32 0 55.5 -24t23.5 -56q0 -31 -23.5 -54t-55.5 -23q-328 0 -543 126q-258 -126 -602 -126q-31 0 -55 23t-24 54q0 32 24 56t55 24q162 0 351 44q55 13 101 32q-98 90 -263 286l-79 93l10 123q191 166 485 166q135 0 245 -38t158 -112
q30 -46 30 -88q0 -2 0.5 -7t0.5 -8q0 -36 -20 -87q-49 -118 -164 -238q-59 -62 -109 -100zM281 675q3 -4 33.5 -40t36 -43t32.5 -38l36.5 -41.5l33 -36.5t38 -40l35.5 -34.5l40 -37.5t39 -33q87 45 181 171q56 74 82 134q13 31 13 48q-123 79 -285 79t-315 -88z" />
    <glyph glyph-name="uniFECE" unicode="&#x63a;" horiz-adv-x="1351" arabic-form="final" 
d="M1425 97q0 -33 -22 -54.5t-55 -23.5q-149 0 -315 68q-127 51 -308 176q-316 -122 -419 -302q-42 -73 -42 -167q0 -146 142 -272q121 -108 253 -129q72 -9 148 -9q245 0 435 119l37.5 -63l43.5 -73q-229 -143 -510 -143l-104 5q-180 18 -319 98.5t-223 208.5
q-59 97 -59 239v14q3 150 60 254h-1q61 110 172 193.5t250 138.5q-137 123 -281 283q-7 61 -10 109q51 73 140.5 122.5t198.5 73.5l-1 -1q111 24 209 24q113 0 205.5 -30.5t140.5 -87.5t48 -131v-9q-4 -200 -236 -337q-58 -34 -107 -56q112 -68 227 -114q114 -45 225 -45
q32 -2 54.5 -24t22.5 -55zM466 719q182 -188 283 -274q174 72 245 130q85 68 87 156q0 30 -24 50.5t-63 30t-74.5 13.5t-73.5 4q-143 0 -297 -65q-44 -18 -83 -45zM900 1341l-147 -147l-148 148l147 147z" />
    <glyph glyph-name="uniFECF" unicode="&#x63a;" horiz-adv-x="1089" arabic-form="initial" 
d="M-80 98q0 33 23.5 55.5t56.5 22.5l335 4q-92 84 -127 160q-36 78 -36 163q0 135 69 233.5t178 145.5q75 33 164 33q209 0 389 -162l-97 -119q-85 67 -185 105q-52 20 -107 20q-92 0 -152.5 -43.5t-86.5 -117.5q-16 -45 -16 -95q0 -106 63.5 -176t159.5 -99
q51 -15 107 -15q117 0 313 40l19 -152q-326 -79 -772 -79l-218 -2q-33 0 -56.5 22.5t-23.5 55.5zM650 1331l-147 -147l-148 148l147 147z" />
    <glyph glyph-name="uniFED0" unicode="&#x63a;" horiz-adv-x="1144" arabic-form="medial" 
d="M739 242q172 -66 399 -66q32 0 55.5 -24t23.5 -56q0 -31 -23.5 -54t-55.5 -23q-328 0 -543 126q-258 -126 -602 -126q-31 0 -55 23t-24 54q0 32 24 56t55 24q162 0 351 44q55 13 101 32q-98 90 -263 286l-79 93l10 123q191 166 485 166q135 0 245 -38t158 -112
q30 -46 30 -88q0 -2 0.5 -7t0.5 -8q0 -36 -20 -87q-49 -118 -164 -238q-59 -62 -109 -100zM273 675q3 -4 33.5 -40t36 -43t32.5 -38l36.5 -41.5l33 -36.5t38 -40l35.5 -34.5l40 -37.5t39 -33q87 45 181 171q56 74 82 134q13 31 13 48q-123 79 -285 79t-315 -88zM745 1318
l-147 -147l-148 148l147 147z" />
    <glyph glyph-name="uniFED2" unicode="&#x641;" horiz-adv-x="2101" arabic-form="final" 
d="M326 764q-54 -120 -54 -228q0 -156 125 -254q164 -130 563 -130h52q185 0 415 41q-119 96 -149 232q-10 45 -10 76q0 151 101 281q106 136 254 136q159 0 255 -137q69 -97 69 -245q0 -95 -28 -165t-79 -139q-3 -4 -24 -25q180 -31 292 -31q33 0 56 -22.5t23 -55.5
q0 -32 -23.5 -55t-55.5 -23q-256 0 -470 73l-67 -22q-195 -73 -610 -73q-611 3 -782 295q-64 108 -64 244q0 146 72 303l69.5 -38zM1629 263q101 57 144 123q44 67 44 142q0 97 -43 156t-124 72q-18 3 -27 3q-65 0 -113 -43t-74 -104q-20 -47 -20 -116q0 -59 56 -128
q64 -77 157 -105zM1731 1335l-147 -147l-148 148l147 147z" />
    <glyph glyph-name="uniFED3" unicode="&#x641;" horiz-adv-x="903" arabic-form="initial" 
d="M536 887q-51 60 -108 60q-41 0 -96 -55q-36 -36 -60 -92t-24 -120q0 -51 27 -81h-1q57 -73 242 -73h94q17 0 61 4q-19 235 -135 358v-1zM-3 20q-31 0 -54.5 23t-23.5 55q0 33 23.5 55.5t56.5 22.5q99 0 171.5 3.5t153 15t138.5 32t110.5 56t87.5 85.5h-154
q-108 0 -193.5 33.5t-136.5 93.5q-28 23 -42 74.5t-14 109.5q0 105 44 205q61 140 156 193q50 28 108 28q123 0 225 -111q117 -130 155 -346q12 -67 12 -137q0 -85 -22.5 -154.5t-61 -120t-96.5 -88.5t-123 -62t-146 -39t-160 -21t-170 -6h-44zM544 1470l-147 -147l-148 148
l147 147z" />
    <glyph glyph-name="uniFED4" unicode="&#x641;" horiz-adv-x="1019" arabic-form="medial" 
d="M508 761q-69 0 -136 -67q-76 -76 -76 -199q0 -59 58 -125q64 -73 165 -119q124 55 165 183q11 34 11 72q0 74 -35 137.5t-86 96.5q-33 21 -66 21zM0 20q-34 0 -56 22t-22 56t22 56t56 22q143 0 309 21q-116 104 -145 223q-10 42 -10 72q0 128 59.5 227.5t152.5 156.5
q64 39 143 42q117 -6 196 -75t114 -174q22 -66 22 -139q0 -177 -135 -323q147 -31 312 -31q34 0 56.5 -22t22.5 -56q0 -33 -22.5 -55.5t-56.5 -22.5h-9q-272 0 -486 72q-185 -72 -515 -72h-8zM603 1346l-147 -147l-148 148l147 147z" />
    <glyph glyph-name="uniFED6" unicode="&#x642;" horiz-adv-x="1565" arabic-form="final" 
d="M1022 668q-44 0 -93 -60q-77 -92 -95 -230q-1 -8 -1 -25q0 -35 11.5 -63t28.5 -46.5t46.5 -31.5t56 -20t67.5 -10.5t70.5 -4.5t74.5 -1h44h62q-11 266 -144 422q-61 70 -128 70zM383 449q-60 -115 -93 -221t-33 -226q0 -145 64 -249t173 -157q111 -54 263 -54
q302 0 451 263q43 80 73 212h-49q-246 0 -358 49q-65 29 -106.5 72t-65.5 110q-18 51 -18 106q0 100 34 192.5t86 157.5q96 122 218 122q134 0 245 -122q170 -189 184 -526q26 -2 55 -2h65q32 0 55.5 -23t23.5 -55q0 -31 -23.5 -54.5t-55.5 -23.5h-131q-60 -355 -297 -526h1
q-162 -111 -387 -111q-201 0 -345 76t-227 212q-86 144 -86 332q0 4 0.5 14t0.5 15q0 20 1 29q23 228 142 462zM979 1135l-146 -146l-148 147l146 147zM1334 1133l-145 -146l-148 148l146 146z" />
    <glyph glyph-name="uniFED7" unicode="&#x642;" horiz-adv-x="908" arabic-form="initial" 
d="M536 887q-51 60 -108 60q-41 0 -96 -55q-36 -36 -60 -92t-24 -120q0 -51 27 -81h-1q57 -73 242 -73h94q17 0 61 4q-19 235 -135 358v-1zM-3 20q-31 0 -54.5 23t-23.5 55q0 33 23.5 55.5t56.5 22.5q99 0 171.5 3.5t153 15t138.5 32t110.5 56t87.5 85.5h-154
q-108 0 -193.5 33.5t-136.5 93.5q-28 23 -42 74.5t-14 109.5q0 105 44 205q61 140 156 193q50 28 108 28q123 0 225 -111q117 -130 155 -346q12 -67 12 -137q0 -85 -22.5 -154.5t-61 -120t-96.5 -88.5t-123 -62t-146 -39t-160 -21t-170 -6h-44zM373 1481l-146 -146l-148 147
l146 147zM728 1479l-145 -146l-148 148l146 146z" />
    <glyph glyph-name="uniFED8" unicode="&#x642;" horiz-adv-x="1037" arabic-form="medial" 
d="M522 761q-69 0 -136 -67q-76 -76 -76 -199q0 -59 58 -125q64 -73 165 -119q124 55 165 183q11 34 11 72q0 74 -35 137.5t-86 96.5q-33 21 -66 21zM14 20q-34 0 -56 22t-22 56t22 56t56 22q143 0 309 21q-116 104 -145 223q-10 42 -10 72q0 128 59.5 227.5t152.5 156.5
q64 39 143 42q117 -6 196 -75t114 -174q22 -66 22 -139q0 -177 -135 -323q147 -31 312 -31q34 0 56.5 -22t22.5 -56q0 -33 -22.5 -55.5t-56.5 -22.5h-9q-272 0 -486 72q-185 -72 -515 -72h-8zM494 1329l-146 -146l-148 147l146 147zM849 1327l-145 -146l-148 148l146 146z
" />
    <glyph glyph-name="uniFEDA" unicode="&#x643;" horiz-adv-x="2060" arabic-form="final" 
d="M315 706q-81 -137 -81 -242q0 -67 28 -110t82 -78q191 -125 609 -125q388 0 593 111q75 41 100.5 125t25.5 228q0 102 -15 317q-11 338 -33 525l156 16q22 -213 36 -536q2 -57 10.5 -181t10.5 -200q3 -60 6.5 -100.5t14 -91t26 -83t44 -59.5t66.5 -38q23 -6 66 -8
q32 0 55 -23t23 -55t-23 -55t-55 -23q-100 3 -177 45v-1q-83 46 -141 162q-96 -96 -223 -148q-232 -86 -566 -86q-522 5 -734 176q-143 115 -143 295q0 173 113 337zM760 422q-8 13 -19.5 34.5l-18.5 34.5l188 105q-43 18 -80.5 51t-54.5 72q-13 30 -13 70q0 66 36 113.5
t91 70.5q45 18 94 18q60 0 108 -16l-23 -72q-2 0 -34 5t-51 5q-59 0 -101 -34t-42 -90q0 -45 29.5 -75t71.5 -45q20 -7 44 -7q60 0 151 58q22 14 28 20l47 -62q-54 -36 -233 -135z" />
    <glyph glyph-name="uniFEDB" unicode="&#x643;" horiz-adv-x="942" arabic-form="initial" 
d="M0 20q-36 0 -62 21.5t-26 55.5q0 36 25 57.5t63 21.5h105q63 0 108 1.5t100 8t93.5 17.5t77.5 31t62.5 48t38 69.5t14.5 93.5q0 74 -26 131t-74 122q-144 197 -379 387q3 33 10.5 92t10.5 90l349 149.5l443 189.5q42 -94 63 -145l-728 -306q98 -83 166.5 -147.5
t144.5 -161t119 -192.5q52 -116 52 -225q0 -110 -57 -215h1q-85 -150 -288 -188q-29 -7 -83 -7z" />
    <glyph glyph-name="uniFEDC" unicode="&#x643;" horiz-adv-x="1188" arabic-form="medial" 
d="M-10 20q-33 0 -56 22.5t-23 55.5q0 32 23.5 55t55.5 23h339q85 0 163 66q80 68 89 143v14q0 103 -73 235q-107 192 -286 356q-65 60 -98 85q0 4 12 100l12 99l854 368q42 -94 63 -145l-807 -339q227 -183 368 -433l84.5 -155.5t96.5 -172.5q41 -66 80 -109t106 -76.5
t151 -35.5h43q32 0 55 -23t23 -55q0 -33 -22.5 -55.5t-55.5 -22.5h-8q-121 0 -226 34q-123 46 -246 202q-49 -90 -97 -134h1q-104 -91 -295 -102h-326z" />
    <glyph glyph-name="uniFEDE" unicode="&#x644;" horiz-adv-x="1490" arabic-form="final" 
d="M1488 20q-114 0 -217 59q0 -4 0.5 -15t0.5 -17v-37q0 -7 0.5 -19t0.5 -17v-28q0 -418 -372 -539q-129 -42 -291 -42q-204 0 -338.5 102.5t-184.5 274.5q-22 76 -22 176q0 192 47 348q28 94 66 148l139 -82q-96 -187 -96 -414q0 -130 64 -218t167 -138q86 -41 158 -41
q183 0 309 69t174 201q24 66 24 155q0 128 -4 290.5t-6.5 246.5t-12 305.5t-10.5 254.5q-13 352 -19 458q31 1 79.5 4t76.5 4q33 -777 43 -1093q7 -107 64 -173.5t160 -66.5q32 0 55.5 -23.5t23.5 -55.5q0 -33 -23 -55t-56 -22z" />
    <glyph glyph-name="uniFEDF" unicode="&#x644;" horiz-adv-x="547" arabic-form="initial" 
d="M0 20q-32 0 -55 23t-23 55q0 33 23 55.5t55 22.5h56q129 0 180.5 61.5t51.5 198.5v14l-17 491q-11 338 -33 525l156 16l6 -60q17 -165 30 -476l7 -211q1 -29 4 -108t3 -125q0 -19 2 -53v-20q0 -200 -97 -304.5t-293 -104.5h-56z" />
    <glyph glyph-name="uniFEE0" unicode="&#x644;" horiz-adv-x="661" arabic-form="medial" 
d="M0 20q-32 0 -55 22.5t-23 55.5q0 32 23 55t55 23h95q50 2 75 5.5t52 17.5t40 41q29 60 34 152q0 91 3 289t3 297v150q0 240 -14 373q28 3 78 10.5t77 10.5q19 -204 19 -567q0 -113 -3.5 -329t-3.5 -237q0 -104 52 -158.5t155 -54.5q32 0 56 -23.5t24 -54.5
q0 -33 -23.5 -55.5t-56.5 -22.5h-12q-160 0 -266 113q-52 -52 -98.5 -79.5t-117.5 -31.5q-36 -2 -50 -2h-118z" />
    <glyph glyph-name="uniFEE2" unicode="&#x645;" horiz-adv-x="1358" arabic-form="final" 
d="M270 405q30 0 88 -15q88 246 222 360q81 68 175 71q213 -17 293 -219q26 -67 33 -128v-2q16 -104 73.5 -182.5t145.5 -104.5q26 -7 54 -9h10q34 0 56.5 -22.5t22.5 -55.5t-22.5 -55.5t-56.5 -22.5h-10q-100 9 -183.5 58.5t-141.5 123.5q-33 -60 -71 -103q-44 -51 -99 -51
q-19 0 -36 4q-103 21 -287 100t-284 100v-8q0 -82 2.5 -166t8.5 -208t8 -182l15 -391l-159 -7l-18.5 453l-18.5 453q0 73 31 124t87 74q27 11 62 11zM507 331l114 -45q114 -49 233 -80q49 35 79 154q8 32 8 50q0 81 -37 143t-94 93q-31 17 -58 17h-3q-27 0 -55 -19t-43 -37
t-37 -47q-72 -98 -107 -229z" />
    <glyph glyph-name="uniFEE3" unicode="&#x645;" horiz-adv-x="1138" arabic-form="initial" 
d="M1 20q-32 0 -55 23t-23 55q0 31 23 53.5t54 24.5q124 0 201.5 56t132.5 156l64.5 122.5l53.5 103.5q28 52 57 87q85 103 203 103q100 0 177 -57.5t116.5 -151.5t39.5 -207q0 -187 -103 -290q-68 -68 -178 -68q-75 0 -165 36q-95 38 -212 123q-4 -4 -10 -9.5t-9 -8.5
q-148 -151 -367 -151zM792 186q61 0 87.5 53.5t26.5 132.5q0 153 -98 236q-45 39 -99 39q-24 0 -42 -11q-38 -23 -80 -102q-29 -53 -47 -91l-62 -124q128 -93 252 -124q36 -9 62 -9z" />
    <glyph glyph-name="uniFEE4" unicode="&#x645;" horiz-adv-x="1311" arabic-form="medial" 
d="M455 307q136 -103 235 -129q16 -5 38 -5q68 0 105.5 67t37.5 155q0 3 -0.5 11t-0.5 11q0 52 -52 136q-57 90 -144 90q-59 0 -110 -89q-20 -33 -62 -115.5t-65 -120.5zM-3 20q-32 0 -55 22.5t-23 53.5q0 32 23.5 56t54.5 24q130 0 231 114q19 22 39 50.5l33.5 48.5
t34.5 60l28.5 54t31.5 62t27 55q53 105 142 154q52 28 112 28q72 0 128.5 -26.5t91.5 -67.5t66.5 -99t51.5 -111.5t47.5 -115t53.5 -100.5q70 -106 197 -106q32 0 56 -24t24 -56q0 -31 -24 -53.5t-56 -22.5q-109 0 -208 69q-75 51 -139 134q-57 -141 -150 -189
q-33 -17 -79 -17q-58 0 -175 43q-89 36 -211 127q-106 -157 -340 -167h-13z" />
    <glyph glyph-name="uniFEE6" unicode="&#x646;" horiz-adv-x="1714" arabic-form="final" 
d="M1786 98q0 -32 -23.5 -55t-55.5 -23q-129 0 -261 78v-18q0 -4 1 -12t1 -12v-25q0 -5 0.5 -11t0.5 -7q0 -132 -38 -259q-57 -153 -177.5 -255t-289.5 -141q-108 -25 -210 -25q-550 0 -645 498q-10 54 -10 118q0 293 165 572q22 -15 61.5 -45.5t65.5 -48.5
q-49 -78 -97 -252q-33 -123 -36 -220v-17q0 -47 7 -83q0 -3 -0.5 -7t-0.5 -7q0 -67 50 -141q94 -140 286 -192q68 -18 147 -18q155 0 273 48t190 136q100 122 100 333q0 92 -21.5 187t-44 152t-63.5 145q-9 20 -17 34l133 84q13 -19 59 -117q57 -108 108 -171
q59 -74 115.5 -109.5t147.5 -35.5q33 0 56 -22.5t23 -55.5zM917 574l-147 -147l-148 148l147 147z" />
    <glyph glyph-name="uniFEE7" unicode="&#x646;" horiz-adv-x="706" arabic-form="initial" 
d="M-7 20q-32 0 -55 22.5t-23 55.5t23 55.5t55 22.5h125q4 0 12 -0.5t11 -0.5q114 0 184 29.5t105 100.5q16 32 16 88q0 54 -19 140.5t-45 148.5l-60 144l142 71q96 -216 126 -372q13 -68 13 -130q0 -173 -123 -279q-110 -96 -341 -96h-146zM477 1248l-147 -147l-148 148
l147 147z" />
    <glyph glyph-name="uniFEE8" unicode="&#x646;" horiz-adv-x="705" arabic-form="medial" 
d="M4 20q-34 0 -56 22t-22 56q0 32 22.5 55t55.5 23h17q167 0 256.5 59t89.5 197q0 96 -39 232q30 7 76.5 21.5t72.5 21.5q48 -181 50 -291q2 -61 8.5 -100t25 -73.5t53.5 -50.5t90 -16q32 0 55.5 -23t23.5 -55q0 -33 -23 -55.5t-55 -22.5q-170 0 -272 134
q-137 -134 -412 -134h-17zM541 1126l-147 -147l-148 148l147 147z" />
    <glyph glyph-name="uniFEEA" unicode="&#x647;" horiz-adv-x="1090" arabic-form="final" 
d="M1090 20q-119 0 -192.5 38t-124.5 123q-135 -21 -229 -21q-250 0 -344 118q-48 59 -48 147q0 64 21 108.5t60 92.5q137 165 407 265l-15 145l157 34q11 -54 19 -173.5t18 -171.5q26 -226 52 -346q10 -47 18.5 -74.5t25 -56.5t43 -45t64.5 -22q33 -5 68 -5q33 0 56 -22.5
t23 -55.5q0 -32 -23.5 -55t-55.5 -23zM634 720q-55 -23 -92 -40t-84 -44t-81.5 -59.5t-56.5 -70.5q-17 -30 -17 -67q0 -125 235 -125q93 0 181 18q-25 129 -59 398z" />
    <glyph glyph-name="uniFEEB" unicode="&#x647;" horiz-adv-x="1473" arabic-form="initial" 
d="M0 20q-34 0 -58 23t-24 56t24 55t58 22h9q204 0 357 22q-90 88 -130 167q-42 83 -42 158q0 100 40.5 181.5t105.5 135.5q55 45 120 66l-107 41l77 144q443 -166 670 -293q161 -90 218 -168q88 -121 88 -248q0 -200 -199 -308l1 1q-95 -58 -306 -58q-184 0 -336 61
q-180 -58 -557 -58h-9zM938 599v-28q0 -84 -52 -200q-51 -111 -137 -188q67 -14 134 -14h48q111 0 191 35t116 104q21 40 21 86q0 87 -91 182q-103 106 -257 169q27 -66 27 -146zM642 801q-14 3 -26 3q-49 0 -117 -34q-67 -35 -109.5 -92.5t-42.5 -137.5q0 -91 72 -179
q51 -62 134 -112q160 70 207 237q13 46 13 93q0 135 -77 198q-24 19 -53 24h-1z" />
    <glyph glyph-name="uniFEEC" unicode="&#x647;" horiz-adv-x="1005" arabic-form="medial" 
d="M510 725q-53 -6 -109 -88q-76 -111 -107 -287q-9 -51 -9 -96q0 -14 5 -64q4 0 21.5 -2t25.5 -2q98 0 164.5 61t96.5 151q19 57 19 116q0 140 -93 207zM-1 20q-33 0 -55.5 22.5t-22.5 55.5q0 32 23 55t55 23h133q0 5 -0.5 15t-0.5 15q0 113 38 253q77 281 225 389
q56 40 118 46q109 0 186 -141q29 -55 47.5 -130.5t18.5 -149.5q0 -93 -28 -150q-43 -121 -150.5 -193.5t-260.5 -98.5q64 -159 161 -271q39 -45 82 -70q-1 11 -1 31q0 177 129 310q89 91 199 127q55 18 110 18q32 0 55.5 -23t23.5 -55q0 -33 -23 -55.5t-56 -22.5h-9
q-121 -6 -212 -109q-90 -101 -90 -227q0 -111 75 -191l-104 -125q-366 229 -489 613l-14 39h-163z" />
    <glyph glyph-name="uniFEEE" unicode="&#x648;" horiz-adv-x="1043" arabic-form="final" 
d="M1123 97q0 -33 -23.5 -55t-56.5 -22h-107q-54 -278 -288 -472q-214 -177 -509 -227l-37 154q291 64 482 225q175 148 201 320h-77q-96 0 -157 5q-207 13 -306 135v-1q-61 78 -61 200q0 187 117 348q98 120 218 120q133 0 246 -122v1q83 -96 132 -232t52 -298h94
q34 0 57 -22.5t23 -56.5zM519 670q-71 0 -137 -106q-65 -102 -65 -202q0 -60 35 -106v1q20 -27 54 -44t84 -24t88.5 -9t99.5 -2q56 0 113 5q-9 197 -93 343q-47 83 -106 120q-37 24 -73 24z" />
    <glyph glyph-name="uniFEF0" unicode="&#x649;" horiz-adv-x="1715" arabic-form="final" 
d="M1795 98q0 -33 -23 -55.5t-56 -22.5h-295q78 -66 117 -133q28 -49 28 -97q-3 -151 -135 -254q-104 -81 -261.5 -124.5t-339.5 -43.5q-484 0 -619 232q-93 135 -93 351v23q0 124 47 312q40 160 115 340l145 -59q-72 -181 -111 -341q-38 -155 -38 -279q0 -220 122 -320.5
t356 -100.5q15 0 40 -0.5t36 -0.5q154 0 336 54q142 41 208 118q35 41 35 93q0 34 -49 74q-125 104 -404 155h-3l11 158l752 -1q33 0 56 -22.5t23 -55.5z" />
    <glyph glyph-name="uniFEF2" unicode="&#x64a;" horiz-adv-x="1687" arabic-form="final" 
d="M1795 98q0 -33 -23 -55.5t-56 -22.5h-295q78 -66 117 -133q28 -49 28 -97q-3 -151 -135 -254q-104 -81 -261.5 -124.5t-339.5 -43.5q-484 0 -619 232q-93 135 -93 351v23q0 124 47 312q40 160 115 340l145 -59q-72 -181 -111 -341q-38 -155 -38 -279q0 -220 122 -320.5
t356 -100.5q15 0 40 -0.5t36 -0.5q154 0 336 54q142 41 208 118q35 41 35 93q0 34 -49 74q-125 104 -404 155h-3l11 158l752 -1q33 0 56 -22.5t23 -55.5zM754 -929l-146 -146l-148 147l146 147zM1109 -931l-145 -146l-148 148l146 146z" />
    <glyph glyph-name="uniFEF3" unicode="&#x64a;" horiz-adv-x="804" arabic-form="initial" 
d="M336 -346l-146 -146l-148 147l146 147zM691 -348l-145 -146l-148 148l146 146zM-51 20q-32 0 -55 22.5t-23 55.5t23 55.5t55 22.5h111q64 0 109.5 1.5t104.5 9t98.5 20.5t75 38t51.5 60q16 32 16 88q0 39 -9 85.5t-16 70t-25 79.5q-18 60 -80 198l142 71
q96 -216 126 -372q13 -68 13 -130q0 -173 -123 -279q-62 -54 -154 -75t-225 -21h-215z" />
    <glyph glyph-name="uniFEF4" unicode="&#x64a;" horiz-adv-x="854" arabic-form="medial" 
d="M-3 20q-33 0 -55.5 22.5t-22.5 55.5t22.5 55.5t55.5 22.5h76q61 0 108 3t100.5 11t92.5 24.5t72 41t50 64t17 90.5v12q-7 121 -37 227q32 8 79 22.5t70 20.5q18 -66 35 -198.5t24 -171.5q27 -146 171 -146q33 0 56.5 -22.5t23.5 -55.5t-23 -55.5t-55 -22.5
q-169 0 -273 138q-74 -71 -210 -104.5t-301 -33.5h-76zM311 -380l-146 -146l-148 147l146 147zM666 -382l-145 -146l-148 148l146 146z" />
    <glyph glyph-name=".notdef" horiz-adv-x="1229" 
d="M102 -362v1806h1024v-1806h-1024zM217 -248h795v1577h-795v-1577z" />
    <glyph glyph-name=".null" 
 />
    <glyph glyph-name="nonmarkingreturn" horiz-adv-x="602" 
 />
    <glyph glyph-name="space" unicode=" " horiz-adv-x="771" 
 />
    <glyph glyph-name="space" unicode="&#xa0;" horiz-adv-x="771" 
 />
    <glyph glyph-name="exclam" unicode="!" horiz-adv-x="579" 
d="M223 461l-33 872v304h183v-304l-23 -872h-127zM435 155l-149 -149l-141 141l148 150z" />
    <glyph glyph-name="quotedbl" unicode="&#x22;" horiz-adv-x="693" 
d="M247 1042h-111l1 348v146h140v-136zM517 1042h-111l1 356v138h140v-136z" />
    <glyph glyph-name="numbersign" unicode="#" horiz-adv-x="1212" 
d="M452 410l-80 -410h-143l80 410h-239v137h265l69 354h-258v139h285l82 416h143l-82 -416h264l82 416h144l-82 -416h204v-139h-231l-69 -354h225v-137h-251l-80 -410h-144l80 410h-264zM742 547l69 354h-264l-69 -354h264z" />
    <glyph glyph-name="dollar" unicode="$" horiz-adv-x="1100" 
d="M295 429q0 -139 72.5 -214t207.5 -75q201 0 262 138q19 42 19 97q0 79 -40 128.5t-110 86.5q-42 22 -151 61t-151 61q-112 58 -175 143.5t-63 223.5q0 173 96 273t262 121v219h149v-220q171 -23 263 -144t92 -320h-184q0 103 -36.5 176.5t-105.5 107.5q-48 23 -106 23
q-117 0 -181 -59.5t-64 -173.5q0 -84 38 -132t111 -86q42 -21 154.5 -61.5t154.5 -62.5q111 -58 171.5 -142.5t60.5 -220.5q0 -178 -104.5 -277t-281.5 -117v-191h-148v191q-187 18 -292 132t-105 314h185z" />
    <glyph glyph-name="percent" unicode="%" horiz-adv-x="1495" 
d="M105 1176q0 101 47 172t126 105q56 24 125 24q105 0 175 -50t102 -135q21 -55 21 -116v-77q0 -101 -46.5 -171t-125.5 -104q-55 -24 -124 -24q-105 0 -176 50t-103 134q-21 54 -21 115v77zM403 1356q-76 0 -118 -50t-42 -130v-77q0 -79 43 -129t119 -50t117 49.5
t41 129.5v77q0 80 -42 130t-118 50zM814 357q0 101 47.5 171.5t126.5 104.5q56 24 124 24q105 0 175.5 -50t102.5 -134q21 -56 21 -116v-78q0 -101 -47 -171.5t-126 -104.5q-56 -24 -124 -24q-104 0 -176 50t-104 133q-20 51 -20 117v78zM1112 536q-75 0 -117.5 -49.5
t-42.5 -129.5v-78q0 -80 42.5 -130t119.5 -50q76 0 117 50t41 130v78q0 80 -42.5 129.5t-117.5 49.5zM342 176l711 1138l105 -66l-711 -1138z" />
    <glyph glyph-name="ampersand" unicode="&#x26;" horiz-adv-x="1316" 
d="M948 115q-147 -135 -376 -135q-162 0 -274.5 64.5t-163.5 181.5q-33 75 -33 165q0 102 45 174.5t123 136.5q53 44 114 87l-62.5 78t-48 75.5t-40.5 95.5q-12 40 -12 84q0 129 56.5 211t158.5 119q68 24 149 24q117 0 200.5 -51.5t121.5 -138.5q24 -56 24 -118
q0 -81 -31 -138.5t-87 -111.5q-35 -34 -79 -67l-110 -81l324 -387q68 134 68 289h167q0 -253 -123 -423l208 -249h-222zM286 391q0 -124 77.5 -192t208.5 -68q144 0 269 112l-355 425l-42 -31q-93 -70 -133 -147q-25 -47 -25 -99zM583 1324q-84 0 -131 -54t-47 -142
q0 -53 32 -114q31 -58 86 -126l105 74q64 42 97.5 86.5t33.5 119.5q0 72 -50 114t-126 42z" />
    <glyph glyph-name="quotesingle" unicode="'" horiz-adv-x="397" 
d="M232 1057h-129l1 352v127h149v-111z" />
    <glyph glyph-name="parenleft" unicode="(" horiz-adv-x="816" 
d="M678 -306l-52.5 -59.5l-52.5 -59.5q-240 228 -359 463t-119 486v29q8 144 45 275.5t98.5 242t129.5 199t154 174.5q18 18 36 34q43 -57 101 -124q-129 -129 -194 -223v1q-93 -133 -149.5 -274t-61.5 -310v-24q0 -212 100 -412q106 -212 324 -418z" />
    <glyph glyph-name="parenright" unicode=")" horiz-adv-x="883" 
d="M405 1131q-65 94 -194 223q58 67 101 124q342 -305 439 -748q19 -90 24 -177v-29q0 -251 -119 -486t-359 -463l-52.5 59.5l-52.5 59.5q218 206 324 418q100 200 100 412v24q-5 169 -61.5 310t-149.5 274v-1z" />
    <glyph glyph-name="asterisk" unicode="*" horiz-adv-x="1132" 
d="M915 295q-114 -82 -146 -103l-201 290l-202 -290l-38.5 28t-33.5 24l-33 24q-1 1 -15 11.5t-22 15.5l221 276l-343 97l58 172l331 -120l-13 350h177l-19 -348l340 119l59 -176l-350 -94z" />
    <glyph glyph-name="plus" unicode="+" horiz-adv-x="1207" 
d="M1094 731v-175h-406v-460h-186v460h-406v175h406v425h186v-425h406z" />
    <glyph glyph-name="comma" unicode="," horiz-adv-x="391" 
d="M29 -218q98 134 98 286v151h181v-148q0 -146 -100 -283q-31 -42 -74 -78z" />
    <glyph glyph-name="hyphen" unicode="-" horiz-adv-x="990" 
d="M104 543v151h760v-151h-760z" />
    <glyph glyph-name="period" unicode="." horiz-adv-x="567" 
d="M290 -7q-56 0 -93 37t-37 93t37 93.5t93 37.5t93.5 -37.5t37.5 -93.5q0 -55 -37.5 -92.5t-93.5 -37.5z" />
    <glyph glyph-name="slash" unicode="/" horiz-adv-x="825" 
d="M18 -125l608 1581h158l-607 -1581h-159z" />
    <glyph glyph-name="zero" unicode="0" horiz-adv-x="1138" 
d="M574 1476q105 0 185.5 -31t132 -85t84 -135t45.5 -173.5t13 -208.5v-222q0 -116 -13 -209t-45.5 -175.5t-83.5 -137.5t-131 -87t-185 -32t-185 32t-132 87t-84.5 137.5t-46 175.5t-13.5 209v222q0 145 22 255t73 198t142.5 134t221.5 46zM574 1324q-67 0 -117 -24.5
t-79.5 -64t-47.5 -100t-24 -122t-6 -139.5v-282q0 -243 72 -353q70 -108 204 -108q67 0 117 25.5t79.5 67t47 104t23.5 124t6 140.5v282q0 79 -6 140.5t-24 122t-48 99.5t-79.5 63.5t-117.5 24.5z" />
    <glyph glyph-name="one" unicode="1" horiz-adv-x="929" 
d="M543 0v1233l-373 -137v168l530 199h29v-1463h-186z" />
    <glyph glyph-name="two" unicode="2" horiz-adv-x="1144" 
d="M569 1324q-140 0 -215.5 -78t-75.5 -219h-185q0 154 73 258t197 155q89 36 206 36q154 0 258.5 -60t150.5 -171q30 -72 30 -159q0 -117 -82 -258q-67 -114 -191 -253l-391 -424h731v-151h-954v133l477 530l71 79.5t54 69t53 82.5q46 84 46 170q0 88 -39 148.5t-106 91.5
q-44 20 -108 20z" />
    <glyph glyph-name="three" unicode="3" horiz-adv-x="1138" 
d="M832 402q0 134 -82.5 199.5t-227.5 65.5h-132v151h132q132 0 210 64t78 186q0 256 -255 256q-120 0 -191.5 -66.5t-71.5 -183.5h-185q0 138 73.5 231.5t191.5 138.5q84 32 183 32q155 0 258.5 -60t149.5 -173q32 -78 32 -179q0 -146 -125 -254q-43 -37 -104 -63
q116 -36 183.5 -121.5t67.5 -219.5q0 -154 -75 -254t-203 -144q-83 -28 -183 -28q-153 0 -263.5 61.5t-162.5 169.5q-36 75 -36 173h186q0 -121 75 -187t201 -66q132 0 204 69.5t72 201.5z" />
    <glyph glyph-name="four" unicode="4" horiz-adv-x="1136" 
d="M1104 489v-151h-202v-338h-186v338h-663v109l652 1009h197v-967h202zM716 489v714l-22 -40l-431 -674h453z" />
    <glyph glyph-name="five" unicode="5" horiz-adv-x="1155" 
d="M329 383q15 -120 85 -186t194 -66q138 0 207 90t69 241q0 109 -44 185t-122 113q-53 25 -125 25q-82 0 -131.5 -22t-107.5 -71l-148 38l74 726h746v-171h-589l-44 -397q109 63 243 63q156 0 257.5 -77.5t145.5 -208.5q30 -90 30 -201q0 -167 -67.5 -282t-189.5 -166
q-87 -36 -204 -36q-146 0 -249 59.5t-157 165.5q-39 77 -48 178h175z" />
    <glyph glyph-name="six" unicode="6" horiz-adv-x="1155" 
d="M320 823q116 132 314 132q204 0 317 -151q100 -133 100 -329q0 -168 -67.5 -284.5t-188.5 -172.5q-82 -38 -195 -38q-221 0 -352 178q-117 159 -117 380v87q0 152 24.5 278t77.5 230t134 175t197.5 110t264.5 39h17v-157h-17q-246 0 -379 -146q-113 -124 -130 -331z
M603 801q-147 0 -243 -121q-27 -34 -43 -79v-68q0 -183 87 -297q79 -103 196 -103q132 0 200.5 93t68.5 240q0 107 -39 186.5t-110 120.5q-49 28 -117 28z" />
    <glyph glyph-name="seven" unicode="7" horiz-adv-x="1150" 
d="M458 0h-194l601 1304h-788v152h984v-104z" />
    <glyph glyph-name="eight" unicode="8" horiz-adv-x="1133" 
d="M355 750q-94 46 -151.5 128.5t-57.5 197.5q0 144 69 238.5t188 134.5q80 27 172 27q145 0 248.5 -61t148.5 -169q32 -76 32 -170q0 -115 -59.5 -198t-153.5 -129q174 -76 229 -241q18 -54 18 -115q0 -150 -76 -247.5t-204 -138.5q-84 -27 -183 -27q-157 0 -265.5 61.5
t-161.5 174.5q-36 76 -36 177q0 131 67.5 220.5t175.5 136.5zM297 397q0 -128 74 -197t204 -69t204 69.5t74 196.5q0 95 -45.5 161t-121.5 95q-52 20 -113 20q-127 0 -201.5 -74.5t-74.5 -201.5zM819 1073q0 169 -145 232q-44 19 -99 19q-113 0 -178.5 -68t-65.5 -183
q0 -114 65 -181t179 -67t179 66.5t65 181.5z" />
    <glyph glyph-name="nine" unicode="9" horiz-adv-x="1132" 
d="M1016 820q0 -196 -37 -343t-117 -256.5t-215 -165.5t-324 -56h-18v156h18q252 0 374 120.5t133 364.5q-129 -153 -315 -153q-202 0 -315 153q-100 134 -100 332q0 169 67.5 288.5t188.5 175.5q86 40 195 40q234 0 357 -184q108 -160 108 -405v-67zM545 640q138 0 239 120
q28 34 47 78v74q0 136 -44.5 237.5t-128.5 145.5q-51 27 -106 27q-100 0 -162.5 -56.5t-89.5 -148.5q-18 -61 -18 -135q0 -108 38 -190.5t108 -122.5q50 -29 117 -29z" />
    <glyph glyph-name="colon" unicode=":" horiz-adv-x="564" 
d="M287 23q-55 0 -89.5 34.5t-34.5 89.5t34.5 89.5t89.5 34.5t89.5 -34.5t34.5 -89.5t-34.5 -89.5t-89.5 -34.5zM287 681q-55 0 -89.5 34t-34.5 89t34.5 90t89.5 35t89.5 -35t34.5 -90q0 -54 -34.5 -88.5t-89.5 -34.5z" />
    <glyph glyph-name="semicolon" unicode=";" horiz-adv-x="429" 
d="M225 872q-52 0 -83 29t-31 79q0 51 30.5 81.5t83.5 30.5q54 0 85 -30t31 -82q0 -50 -31.5 -79t-84.5 -29zM41 -218q98 134 98 286v151h181v-148q0 -146 -100 -283q-31 -42 -74 -78z" />
    <glyph glyph-name="less" unicode="&#x3c;" horiz-adv-x="1004" 
d="M890 391v-196l-818 379v146l818 378v-196l-626 -258z" />
    <glyph glyph-name="equal" unicode="=" horiz-adv-x="1169" 
d="M152 814v161h834v-161h-834zM152 399v160h834v-160h-834z" />
    <glyph glyph-name="greater" unicode="&#x3e;" horiz-adv-x="1085" 
d="M134 909v190l854 -378v-146l-854 -379v192l661 262z" />
    <glyph glyph-name="question" unicode="?" horiz-adv-x="957" 
d="M486 1314q-100 0 -163 -52t-63 -147h-185q3 166 120 265q114 96 291 96q189 0 294.5 -98.5t105.5 -281.5q0 -125 -78 -239q-62 -90 -173 -194q-49 -45 -71 -105t-22 -148h-185q2 104 23 173t68 125q43 51 146 154q51 51 79 102.5t28 125.5q0 107 -55 165.5t-160 58.5z
M458 -11q-51 0 -80 27.5t-29 76.5t29.5 77.5t79.5 28.5t80 -29t30 -77q0 -49 -29.5 -76.5t-80.5 -27.5z" />
    <glyph glyph-name="at" unicode="@" horiz-adv-x="1877" 
d="M896 -328q193 0 331 79l37 -115q-136 -89 -372 -89q-295 0 -480 145t-257 398q-41 142 -41 322q0 233 65 423t183 325q236 271 606 271q378 0 584 -251q184 -223 184 -608q0 -217 -68 -367t-212 -203q-60 -22 -130 -22q-187 0 -240 168q-106 -168 -267 -168
q-94 0 -157 49.5t-89.5 127.5t-26.5 181q0 150 42 278.5t113 218.5q123 154 281 154q93 0 158 -27t131 -79l-52 -554q-2 -19 -2 -53q0 -178 130 -178q115 0 187 118q74 120 74 364q0 344 -159 531.5t-485 187.5q-313 0 -502 -227q-98 -117 -151 -286.5t-53 -376.5
q0 -253 91 -428t265 -253q124 -56 282 -56zM1118 832q-55 29 -120 29q-114 0 -189 -112q-48 -71 -75.5 -175.5t-27.5 -223.5q0 -103 38 -165t120 -62q54 0 91.5 29t70.5 78q26 38 45 90q0 8 1 9z" />
    <glyph glyph-name="A" unicode="A" horiz-adv-x="1372" 
d="M363 380l-137 -380h-198l556 1456h168l557 -1456h-197l-139 380h-610zM916 538l-248 681l-247 -681h495z" />
    <glyph glyph-name="B" unicode="B" horiz-adv-x="1302" 
d="M1121 1068q0 -109 -60 -185t-156 -117q117 -31 186 -120.5t69 -225.5q0 -207 -130.5 -313.5t-351.5 -106.5h-509v1456h476q476 0 476 -388zM967 418q0 131 -72 197t-208 66h-326v-524h317q133 0 211 67.5t78 193.5zM928 1069q0 123 -71.5 176t-211.5 53h-284v-463h290
q125 0 201 60t76 174z" />
    <glyph glyph-name="C" unicode="C" horiz-adv-x="1349" 
d="M1047 988q-22 160 -101.5 245t-240.5 85q-151 0 -241 -83t-127 -223q-25 -94 -25 -210v-148q0 -170 52 -293t156 -183q71 -41 168 -41q254 0 324 187q23 61 35 138h193q-27 -229 -167 -355.5t-385 -126.5q-206 0 -337.5 108t-190.5 289q-41 126 -41 277v146
q0 231 89.5 393t253.5 235q108 48 243 48q239 0 376 -130t159 -358h-193z" />
    <glyph glyph-name="D" unicode="D" horiz-adv-x="1358" 
d="M169 1456h411q287 0 464 -185q178 -188 178 -501v-86q0 -241 -101.5 -402.5t-284.5 -233.5q-122 -48 -273 -48h-394v1456zM361 157h202q232 0 350.5 140.5t118.5 386.5v89q0 244 -113 384.5t-339 140.5h-219v-1141z" />
    <glyph glyph-name="E" unicode="E" horiz-adv-x="1231" 
d="M361 673v-516h733v-157h-925v1456h915v-158h-723v-468h631v-157h-631z" />
    <glyph glyph-name="F" unicode="F" horiz-adv-x="1174" 
d="M361 643v-643h-192v1456h902v-158h-710v-498h611v-157h-611z" />
    <glyph glyph-name="G" unicode="G" horiz-adv-x="1372" 
d="M1244 191q-148 -211 -515 -211q-216 0 -357 108.5t-205 291.5q-45 129 -45 291v114q0 243 84.5 408.5t250.5 235.5q111 47 250 47q235 0 371.5 -117.5t165.5 -329.5h-192q-24 137 -109 213t-235 76q-87 0 -154.5 -27t-112 -74t-73.5 -115t-41 -145t-12 -170v-116
q0 -182 63 -312t182 -186q76 -36 170 -36q228 0 323 105v327h-337v156h528v-534z" />
    <glyph glyph-name="H" unicode="H" horiz-adv-x="1405" 
d="M1095 0v673h-734v-673h-192v1456h192v-626h734v626h193v-1456h-193z" />
    <glyph glyph-name="I" unicode="I" horiz-adv-x="538" 
d="M183 0v1456h192v-1456h-192z" />
    <glyph glyph-name="J" unicode="J" horiz-adv-x="1103" 
d="M512 137q127 0 197 77.5t70 210.5v1031h193v-1031q0 -162 -73.5 -267t-202.5 -149q-85 -29 -184 -29q-160 0 -267.5 60.5t-157.5 175.5q-34 78 -34 186h192q0 -129 69 -197t198 -68z" />
    <glyph glyph-name="K" unicode="K" horiz-adv-x="1382" 
d="M361 492v-492h-192v1456h192v-720l323.5 360l323.5 360h232l-573 -643l618 -813h-230l-516 677z" />
    <glyph glyph-name="L" unicode="L" horiz-adv-x="1176" 
d="M1052 157v-157h-883v1456h193v-1299h690z" />
    <glyph glyph-name="M" unicode="M" horiz-adv-x="1726" 
d="M893 268l476 1188h249v-1456h-192v567l18 612l-478 -1179h-147l-477 1176l19 -609v-567h-192v1456h248z" />
    <glyph glyph-name="N" unicode="N" horiz-adv-x="1450" 
d="M1095 0l-733 1122v-1122h-193v1456h193l735 -1127v1127h191v-1456h-193z" />
    <glyph glyph-name="O" unicode="O" horiz-adv-x="1415" 
d="M1289 681q0 -242 -88.5 -410.5t-254.5 -242.5q-108 -48 -241 -48q-108 0 -198.5 31t-156.5 88t-112.5 128.5t-76.5 160.5q-43 128 -43 293v92q0 240 91 410.5t257 244.5q108 48 237 48q214 0 349.5 -111t195.5 -299q41 -127 41 -293v-92zM1098 775q0 395 -228 501
q-75 35 -167 35q-101 0 -177.5 -42.5t-119.5 -108t-69 -155.5q-28 -99 -28 -230v-94q0 -184 58.5 -316t175.5 -187q75 -35 162 -35q107 0 184.5 41.5t122 116.5t65.5 169t21 211v94z" />
    <glyph glyph-name="P" unicode="P" horiz-adv-x="1362" 
d="M1216 1011q0 -112 -36.5 -196.5t-104 -138t-160 -80t-209.5 -26.5h-345v-570h-192v1456h537q179 0 301.5 -69t174.5 -197q34 -83 34 -179zM1024 1009q0 139 -85.5 214t-232.5 75h-345v-571h345q151 0 234.5 70.5t83.5 211.5z" />
    <glyph glyph-name="Q" unicode="Q" horiz-adv-x="1391" 
d="M1281 681q0 -208 -66 -361t-189 -241l260 -204l-131 -121l-307 244q-72 -18 -152 -18q-108 0 -198.5 31t-156.5 88t-112.5 128.5t-76.5 160.5q-43 128 -43 293v92q0 240 91 410.5t257 244.5q108 48 237 48q214 0 350 -111t196 -299q41 -127 41 -293v-92zM696 143
q106 0 184 41.5t122.5 117t65.5 169.5t21 210v94q0 187 -55.5 317t-171.5 184q-75 35 -168 35q-279 0 -365 -306q-28 -99 -28 -230v-94q0 -251 109 -399q102 -139 286 -139z" />
    <glyph glyph-name="R" unicode="R" horiz-adv-x="1287" 
d="M1161 1018q0 -144 -76 -242t-202 -146l342 -618v-12h-206l-316 589h-342v-589h-193v1456h482q240 0 375.5 -109.5t135.5 -328.5zM656 746q141 0 226.5 70.5t85.5 201.5q0 141 -83.5 210.5t-234.5 69.5h-289v-552h295z" />
    <glyph glyph-name="S" unicode="S" horiz-adv-x="1245" 
d="M631 137q142 0 228 57t86 174q0 91 -44.5 138t-132.5 84q-46 20 -180 63t-186 67q-178 79 -243 208q-33 66 -33 151q0 169 136 283q137 114 359 114q176 0 300.5 -74t179.5 -202q34 -78 34 -165h-193q0 139 -86 211t-235 72q-136 0 -218.5 -58t-82.5 -178q0 -43 15 -78
t44.5 -60t58 -41.5t68.5 -33.5q62 -26 154 -52q249 -69 362 -174q116 -106 116 -273q0 -144 -82.5 -233.5t-215.5 -128.5q-96 -28 -209 -28q-153 0 -274 53t-194 145q-83 105 -83 244h193q0 -141 100 -213t258 -72z" />
    <glyph glyph-name="T" unicode="T" horiz-adv-x="1250" 
d="M707 1298v-1298h-191v1298h-467v158h1126v-158h-468z" />
    <glyph glyph-name="U" unicode="U" horiz-adv-x="1330" 
d="M665 137q163 0 249.5 85t86.5 248v986h193v-986q0 -234 -158 -368q-143 -122 -371 -122q-180 0 -303.5 72t-181.5 203q-40 90 -40 215v986h190v-986q0 -162 86.5 -247.5t248.5 -85.5z" />
    <glyph glyph-name="V" unicode="V" horiz-adv-x="1358" 
d="M1067 1456h210l-540 -1456h-170l-539 1456h209l414 -1201z" />
    <glyph glyph-name="W" unicode="W" horiz-adv-x="1820" 
d="M511 267l41 173l288 1016h162l281 -1016l40 -176l31 196l226 996h193l-353 -1456h-175l-300 1061l-23 111l-23 -111l-311 -1061h-175l-352 1456h192l230 -997z" />
    <glyph glyph-name="X" unicode="X" horiz-adv-x="1306" 
d="M993 1456h226l-460 -722l471 -734h-228l-358 568l-360 -568h-227l472 734l-461 722h225l351 -558z" />
    <glyph glyph-name="Y" unicode="Y" horiz-adv-x="1250" 
d="M993 1456h218l-502 -913v-543h-192v543l-502 913h220l378 -731z" />
    <glyph glyph-name="Z" unicode="Z" horiz-adv-x="1226" 
d="M1146 157v-157h-1060v144l798 1154h-785v158h1015v-141l-801 -1158h833z" />
    <glyph glyph-name="bracketleft" unicode="[" horiz-adv-x="702" 
d="M332 1512v-1672h191v-152h-377v1976h377v-152h-191z" />
    <glyph glyph-name="backslash" unicode="\" horiz-adv-x="853" 
d="M216 1456l608 -1581h-176l-608 1581h176z" />
    <glyph glyph-name="bracketright" unicode="]" horiz-adv-x="526" 
d="M387 1664v-1976h-378v152h193v1672h-193v152h378z" />
    <glyph glyph-name="asciicircum" unicode="^" horiz-adv-x="835" 
d="M236 729h-172l299 727h127l298 -727h-171l-191 482z" />
    <glyph glyph-name="underscore" unicode="_" horiz-adv-x="924" 
d="M4 -151v151h916v-151h-916z" />
    <glyph glyph-name="grave" unicode="`" horiz-adv-x="584" 
d="M315 1240l-258 294h223l194 -294h-159z" />
    <glyph glyph-name="a" unicode="a" horiz-adv-x="1108" 
d="M964 236q0 -133 38 -220v-16h-194q-15 29 -26 114q-127 -134 -308 -134q-123 0 -211.5 52t-127.5 142q-26 60 -26 126q0 95 38 165.5t106.5 111t153.5 60t188 19.5h184v85q0 103 -60 157.5t-169 54.5q-76 0 -133 -28t-83 -78q-17 -32 -17 -65h-186q0 123 117 218
q126 102 313 102q282 0 373 -204q30 -68 30 -159v-503zM501 141q95 0 169.5 45.5t108.5 116.5v222h-154q-331 0 -331 -199q0 -89 56.5 -137t150.5 -48z" />
    <glyph glyph-name="b" unicode="b" horiz-adv-x="1111" 
d="M325 963q111 139 309 139q159 0 256 -89t138 -237q28 -100 28 -226v-21q0 -182 -62.5 -314.5t-179.5 -193.5q-79 -41 -178 -41q-205 0 -317 145l-9 -125h-170v1536h185v-573zM325 307q85 -170 265 -170q76 0 132 31.5t87.5 87t46.5 123.5t15 150v21q0 277 -151 364
q-53 31 -132 31q-185 0 -263 -170v-468z" />
    <glyph glyph-name="c" unicode="c" horiz-adv-x="1051" 
d="M574 131q104 0 174.5 58t80.5 152h175q-8 -120 -83 -204t-185 -127q-76 -30 -162 -30q-178 0 -291.5 90t-160.5 243q-30 97 -30 207v42q0 180 70.5 307t198.5 189q91 44 212 44q144 0 244.5 -64t150.5 -173q31 -68 36 -155h-175q-14 160 -155 221q-44 19 -101 19
q-157 0 -233 -124q-63 -102 -63 -264v-42q0 -262 153 -355q56 -34 144 -34z" />
    <glyph glyph-name="d" unicode="d" horiz-adv-x="1127" 
d="M829 116q-111 -136 -309 -136q-190 0 -308 156q-117 155 -117 393v21q0 184 65 316.5t186 195.5q77 40 176 40q189 0 301 -130v564h185v-1536h-170zM823 792q-83 153 -255 153q-77 0 -134 -31.5t-90 -87t-48.5 -124.5t-15.5 -152v-21q0 -269 157 -361q53 -31 129 -31
q175 0 257 158v497z" />
    <glyph glyph-name="e" unicode="e" horiz-adv-x="1127" 
d="M599 131q173 0 285 146l113 -88q-132 -209 -408 -209q-223 0 -361 148q-135 143 -135 375v42q0 190 79 324.5t217 194.5q87 38 177 38q224 0 334.5 -143.5t110.5 -387.5v-83h-733q2 -119 52 -203t136 -126q57 -28 133 -28zM826 654q-7 133 -71 214.5t-189 81.5
q-126 0 -195.5 -87t-86.5 -223h542v14z" />
    <glyph glyph-name="f" unicode="f" horiz-adv-x="731" 
d="M604 1399q-93 0 -140.5 -52.5t-47.5 -150.5v-114h231v-143h-231v-939h-185v939h-171v143h171v114q0 172 92.5 266.5t263.5 94.5q61 0 127 -17l-10 -150q-41 9 -100 9z" />
    <glyph glyph-name="g" unicode="g" horiz-adv-x="1119" 
d="M824 108q-110 -128 -303 -128q-191 0 -309 156q-116 154 -116 393v21q0 186 63.5 318t185.5 194q79 40 178 40q199 0 309 -140l9 120h169v-1059q0 -161 -73 -267.5t-200 -151.5q-84 -30 -186 -30q-130 0 -236 51.5t-164 135.5l96 111q57 -69 125.5 -108t165.5 -39
q136 0 211 76t75 213v94zM824 790q-84 155 -255 155q-77 0 -133.5 -31.5t-89.5 -87t-48.5 -124.5t-15.5 -152v-21q0 -271 156 -361q53 -31 129 -31q173 0 257 159v494z" />
    <glyph glyph-name="h" unicode="h" horiz-adv-x="1090" 
d="M325 951q123 151 320 151q346 0 346 -393v-709h-185v711q0 119 -52.5 176.5t-164.5 57.5q-92 0 -159.5 -49t-104.5 -125v-771h-185v1536h185v-585z" />
    <glyph glyph-name="i" unicode="i" horiz-adv-x="467" 
d="M156 0v1082h185v-1082h-185zM250 1264q-51 0 -80 28t-29 77t29 78t80 29q50 0 80 -29.5t30 -77.5t-30 -76.5t-80 -28.5z" />
    <glyph glyph-name="j" unicode="j" horiz-adv-x="460" 
d="M19 -279q68 0 97.5 36.5t29.5 113.5v1211h185v-1211q0 -308 -283 -308q-59 0 -113 18v148q35 -8 84 -8zM235 1264q-50 0 -79 28.5t-29 76.5t29.5 77.5t78.5 29.5q50 0 80 -29.5t30 -77.5t-30 -76.5t-80 -28.5z" />
    <glyph glyph-name="k" unicode="k" horiz-adv-x="1053" 
d="M326 380v-380h-185v1536h185v-929q60 75 133 154.5l164 173.5l139 147h225l-421 -452l470 -630h-217l-377 501z" />
    <glyph glyph-name="l" unicode="l" horiz-adv-x="481" 
d="M156 0v1536h185v-1536h-185z" />
    <glyph glyph-name="m" unicode="m" horiz-adv-x="1658" 
d="M573 945q-182 0 -249 -155v-790h-185v1082h175l5 -120q120 140 321 140q226 0 309 -174q55 79 142 126.5t203 47.5q362 0 362 -391v-711h-185v712q0 120 -56 176.5t-175 56.5q-108 0 -174 -62.5t-76 -164.5v-718h-186v711q0 234 -231 234z" />
    <glyph glyph-name="n" unicode="n" horiz-adv-x="1108" 
d="M589 945q-92 0 -159.5 -49t-104.5 -125v-771h-185v1082h175l6 -136q124 156 324 156q346 0 346 -393v-709h-185v711q0 119 -52.5 176.5t-164.5 57.5z" />
    <glyph glyph-name="o" unicode="o" horiz-adv-x="1138" 
d="M91 551q0 183 77 315t210 194q92 42 204 42q176 0 292.5 -91t167.5 -241q34 -99 34 -219v-22q0 -185 -76 -315t-211 -192q-91 -42 -205 -42q-175 0 -291 90.5t-167 239.5q-35 102 -35 219v22zM277 529q0 -130 44.5 -225t128.5 -141q58 -32 134 -32q116 0 187 68t101 177
q19 70 19 153v22q0 130 -45 225t-129 142q-57 32 -135 32q-142 0 -228 -120q-77 -107 -77 -279v-22z" />
    <glyph glyph-name="p" unicode="p" horiz-adv-x="1116" 
d="M318 962q112 140 314 140q160 0 257.5 -89t136.5 -237q28 -106 28 -226v-21q0 -181 -62 -314t-179 -194q-79 -41 -178 -41q-198 0 -310 125v-521h-185v1498h169zM325 279q84 -148 254 -148q76 0 133.5 32t91 88.5t49.5 126t16 151.5v21q0 130 -40.5 224t-120.5 140
q-55 31 -131 31q-167 0 -252 -149v-517z" />
    <glyph glyph-name="q" unicode="q" horiz-adv-x="1136" 
d="M822 100q-112 -120 -298 -120q-159 0 -257.5 91.5t-142.5 238.5q-29 97 -29 219v21q0 188 63.5 318.5t185.5 193.5q79 40 182 40q194 0 303 -129l8 109h170v-1498h-185v516zM822 807q-90 143 -250 143q-143 0 -222 -120q-70 -105 -70 -280v-21q0 -130 40 -225t120 -141
q55 -32 130 -32q168 0 252 146v530z" />
    <glyph glyph-name="r" unicode="r" horiz-adv-x="712" 
d="M663 916q-36 7 -91 7q-181 0 -247 -155v-768h-185v1082h180l3 -125q89 145 258 145q15 0 23 -1l24 -3q25 -4 35 -10v-172z" />
    <glyph glyph-name="s" unicode="s" horiz-adv-x="1028" 
d="M280 333q5 -98 76 -150t182 -52q167 0 217 95q15 28 15 61q0 61 -30.5 94t-89.5 56q-40 16 -147.5 42.5t-143.5 39.5q-104 37 -165.5 98.5t-61.5 167.5q0 110 66.5 183t168.5 108q75 26 165 26q141 0 240 -54t145 -152q28 -60 28 -132h-186q0 61 -37.5 104.5t-92.5 65.5
q-41 16 -97 16q-95 0 -155 -39.5t-60 -119.5q0 -58 31 -85t94 -48q55 -19 125 -34q139 -31 231.5 -77.5t133.5 -130.5q23 -47 23 -116q0 -117 -68 -189.5t-178 -106.5q-77 -24 -171 -24q-206 0 -329 110q-114 101 -114 243h185z" />
    <glyph glyph-name="t" unicode="t" horiz-adv-x="651" 
d="M456 -20q-127 0 -188.5 75.5t-61.5 213.5v670h-197v143h197v262h185v-262h202v-143h-202v-671q0 -67 28 -98.5t91 -31.5q28 0 88 12v-150q-73 -20 -142 -20z" />
    <glyph glyph-name="u" unicode="u" horiz-adv-x="1089" 
d="M808 107q-108 -127 -317 -127q-181 0 -268 104.5t-87 298.5v699h185v-701q0 -244 200 -244q213 0 282 158v787h185v-1082h-176z" />
    <glyph glyph-name="v" unicode="v" horiz-adv-x="990" 
d="M765 1082h189l-388 -1082h-141l-392 1082h189l275 -831z" />
    <glyph glyph-name="w" unicode="w" horiz-adv-x="1500" 
d="M1306 1082h185l-315 -1082h-150l-263 820l-256 -820h-150l-314 1082h184l213 -810l252 810h149l257 -827z" />
    <glyph glyph-name="x" unicode="x" horiz-adv-x="1000" 
d="M743 1082h216l-354 -535l365 -547h-214l-250 405l-250 -405h-215l365 547l-354 535h214l237 -395z" />
    <glyph glyph-name="y" unicode="y" horiz-adv-x="1058" 
d="M84 -271q28 -4 50 -4q69 0 116 22.5t72.5 59t44.5 95.5l41 110l-386 1070h202l270 -811l252 811h198l-435 -1249q-66 -180 -194 -243q-54 -27 -127 -27q-24 0 -104 16v150z" />
    <glyph glyph-name="z" unicode="z" horiz-adv-x="1034" 
d="M947 151v-151h-859v136l597 793h-588v153h820v-131l-603 -800h633z" />
    <glyph glyph-name="braceleft" unicode="{" horiz-adv-x="717" 
d="M632 -366q-356 99 -356 465v206q0 238 -212 238v145q212 0 212 237v207q0 366 356 465l38 -115q-209 -69 -209 -350v-207q0 -219 -167 -310q167 -90 167 -310v-206q0 -281 209 -350z" />
    <glyph glyph-name="bar" unicode="|" horiz-adv-x="471" 
d="M175 -270v1726h149v-1726h-149z" />
    <glyph glyph-name="braceright" unicode="}" horiz-adv-x="673" 
d="M19 -251q210 70 210 350v206q0 225 181 310q-181 84 -181 310v207q0 281 -209 350l38 115q356 -99 356 -465v-207q0 -237 212 -237v-145q-212 0 -212 -238v-206q0 -366 -356 -465z" />
    <glyph glyph-name="asciitilde" unicode="~" horiz-adv-x="1358" 
d="M939 565q83 0 127 59t44 152l153 1q0 -121 -53 -211t-140 -134q-60 -30 -131 -30q-68 0 -128 24t-96 53.5l-85 71.5t-84 63q-41 25 -92 25q-81 0 -121.5 -55t-40.5 -146l-161 -2q0 122 51.5 208.5t140.5 129.5q57 28 131 28q50 0 93 -10.5t82 -35t61.5 -42t61.5 -51.5
q60 -56 91 -73q45 -25 96 -25z" />
    <glyph glyph-name="exclamdown" unicode="&#xa1;" horiz-adv-x="514" 
d="M338 684l13 -1044h-194l13 1044h168zM249 1101q50 0 79.5 -28.5t29.5 -76.5t-29.5 -77.5t-79.5 -29.5t-80 29.5t-30 77.5t30 76.5t80 28.5z" />
    <glyph glyph-name="cent" unicode="&#xa2;" horiz-adv-x="1119" 
d="M842 710q-10 107 -78 173.5t-178 66.5q-153 0 -224.5 -107t-71.5 -281v-42q0 -262 153 -355q56 -34 144 -34q79 0 138.5 35t90.5 92q22 40 26 83h175q-5 -104 -64.5 -181.5t-149.5 -125.5q-59 -32 -133 -46v-233h-186v235q-181 31 -280 172.5t-99 357.5v42
q0 159 55.5 275.5t156.5 187.5q69 49 167 67v226h186v-223q115 -18 197 -83t121 -164q26 -66 29 -138h-175z" />
    <glyph glyph-name="sterling" unicode="&#xa3;" horiz-adv-x="1241" 
d="M908 1087q0 111 -63.5 171t-174.5 60q-112 0 -173.5 -78t-61.5 -201l9 -260h319v-157h-314l8 -220q0 -150 -62 -245h733l-1 -157h-1032v157h77q50 12 71 84t21 160l-8 221h-165v157h160l-9 260q0 156 71.5 258.5t196.5 148.5q81 30 177 30q145 0 243 -60.5t141 -169.5
q28 -71 28 -159h-191z" />
    <glyph glyph-name="currency" unicode="&#xa4;" horiz-adv-x="1467" 
d="M1330 608q0 -196 -102 -355l143 -144l-132 -136l-136 139q-160 -132 -368 -132t-366 130l-134 -136l-130 135l139 141q-104 154 -104 358q0 208 112 369l-147 151l130 136l147 -150q157 120 353 120q195 0 355 -121l149 152l132 -137l-151 -154q110 -163 110 -366z
M311 608q0 -189 125 -323q123 -134 299 -134q174 0 299 134q123 134 123 323q0 149 -71.5 256.5t-186.5 161.5q-77 36 -164 36q-92 0 -168.5 -36.5t-130.5 -95.5q-125 -134 -125 -322z" />
    <glyph glyph-name="yen" unicode="&#xa5;" horiz-adv-x="1235" 
d="M978 1456h219l-418 -720h312v-125h-384v-165h384v-124h-384v-322h-193v322h-378v124h378v165h-378v125h313l-418 720h220l363 -674z" />
    <glyph glyph-name="brokenbar" unicode="&#xa6;" horiz-adv-x="562" 
d="M345 1491v-790h-157v790h157zM345 360v-791h-157v791h157z" />
    <glyph glyph-name="section" unicode="&#xa7;" horiz-adv-x="1205" 
d="M278 825q-68 51 -102.5 117.5t-34.5 167.5q0 135 80 219.5t207 120.5q92 26 202 26q173 0 289.5 -62.5t168.5 -183.5q34 -80 34 -185h-185q0 97 -47.5 161.5t-127.5 96.5q-56 22 -132 22q-225 0 -285 -131q-18 -39 -18 -82q0 -46 12.5 -79.5t39 -57t53.5 -37.5t70 -30
q52 -20 139 -45l148 -43t133 -52t117 -74.5t75.5 -108t30.5 -154.5q0 -188 -186 -274q69 -50 105 -116.5t36 -168.5q0 -169 -134 -270q-126 -97 -354 -97q-171 0 -293 57.5t-183 169.5q-46 84 -46 204l186 2q0 -140 92.5 -210.5t243.5 -70.5q101 0 175.5 33t106.5 96
q20 40 20 84q0 43 -14 76t-43.5 56t-55 36.5t-69.5 31.5q-52 21 -137.5 47l-146.5 44t-132 52t-115.5 74.5t-74.5 108t-30 155.5q0 187 182 274zM797 238q73 18 117.5 66.5t44.5 123.5q0 52 -19 85t-57 62q-40 30 -110 57q-75 29 -171 59q-90 24 -165 51q-155 -38 -155 -189
q0 -47 12.5 -81.5t39.5 -58t55 -38t71 -30.5t165.5 -52.5t171.5 -54.5z" />
    <glyph glyph-name="dieresis" unicode="&#xa8;" horiz-adv-x="750" 
d="M61 1270v205h188v-205h-188zM434 1270v205h188v-205h-188z" />
    <glyph glyph-name="copyright" unicode="&#xa9;" horiz-adv-x="1603" 
d="M788 412q96 0 140.5 44t44.5 141h146q0 -155 -86 -234.5t-245 -79.5q-124 0 -205.5 62t-116.5 167q-24 72 -24 158v116q0 132 53 224t149 134q66 29 144 29q158 0 245 -80t87 -233h-146q0 95 -45.5 139.5t-140.5 44.5q-101 0 -151.5 -71.5t-50.5 -185.5v-117
q0 -115 50.5 -186.5t151.5 -71.5zM206 729q0 -137 47.5 -251.5t126.5 -197.5q77 -82 184 -132t237 -50q248 0 419 182q175 186 175 449q0 136 -48 250.5t-127 196.5q-175 180 -419 180q-129 0 -236.5 -49.5t-184.5 -130.5q-79 -82 -126.5 -196.5t-47.5 -250.5zM91 729
q0 314 208 533q203 214 502 214q195 0 357 -100q249 -154 326 -444q26 -98 26 -203q0 -316 -208 -533q-206 -217 -501 -217q-294 0 -502 217q-208 219 -208 533z" />
    <glyph glyph-name="ordfeminine" unicode="&#xaa;" horiz-adv-x="756" 
d="M379 1491q153 0 226 -55t73 -187v-240l-1 -61q0 -134 41 -184h-148q-19 37 -22 89q-122 -107 -256 -107q-109 0 -177 59t-68 160q0 54 18 93t53.5 62.5t75 36t97.5 22.5l147 22q14 3 47 9.5t49 10.5q-2 67 -12.5 91.5t-50.5 43.5q-35 18 -94 18q-147 0 -166 -125l-137 34
q13 100 95.5 154t209.5 54zM196 965q0 -48 36.5 -73.5t93.5 -25.5q81 0 140.5 48t63.5 122q1 25 3 68q-53 -14 -192 -36q-90 -14 -117 -39q-28 -25 -28 -64z" />
    <glyph glyph-name="guillemotleft" unicode="&#xab;" horiz-adv-x="1184" 
d="M538 151h-141l-295 388v19l295 389h141l-258 -399zM868 151h-141l-295 388v19l295 389h141l-258 -399z" />
    <glyph glyph-name="logicalnot" unicode="&#xac;" horiz-adv-x="1323" 
d="M1082 424h-170v438h-798v168h968v-606z" />
    <glyph glyph-name="uni00AD" unicode="&#xad;" horiz-adv-x="724" 
d="M65 440v181h553v-181h-553z" />
    <glyph glyph-name="registered" unicode="&#xae;" horiz-adv-x="1593" 
d="M90 729q0 316 208 533q205 214 502 214q296 0 501 -214q208 -219 208 -533q0 -316 -208 -533q-206 -217 -501 -217q-296 0 -502 217q-208 219 -208 533zM205 729q0 -263 175 -449q173 -182 420 -182q249 0 420 182q174 183 174 449q0 138 -47.5 251.5t-126.5 195.5
q-175 180 -420 180t-420 -180q-80 -82 -127.5 -196t-47.5 -251zM963 513q0 76 -34.5 108.5t-112.5 32.5h-163v-338h-141v849h276q149 0 235.5 -62t86.5 -194q0 -123 -128 -188q123 -52 123 -207v-55q0 -91 17 -127v-16h-145q-14 42 -14 114v83zM969 904q0 78 -44 106
t-137 28h-135v-256h156q70 3 115 32.5t45 89.5z" />
    <glyph glyph-name="macron" unicode="&#xaf;" horiz-adv-x="1129" 
d="M-31 1566v129h1193v-129h-1193z" />
    <glyph glyph-name="degree" unicode="&#xb0;" horiz-adv-x="830" 
d="M405 936q-114 0 -195.5 81.5t-81.5 196.5q0 114 82 195.5t195 81.5q115 0 196.5 -81t81.5 -196q0 -114 -81.5 -196t-196.5 -82zM406 1383q-70 0 -119.5 -49.5t-49.5 -119.5t49.5 -119.5t119.5 -49.5q69 0 118.5 50t49.5 119q0 68 -50 118.5t-118 50.5z" />
    <glyph glyph-name="plusminus" unicode="&#xb1;" horiz-adv-x="1144" 
d="M477 260v403h-399v167h399v399h170v-399h399v-167h-399v-403h-170zM1046 0h-968v168h968v-168z" />
    <glyph glyph-name="uni00B2" unicode="&#xb2;" horiz-adv-x="700" 
d="M46 1268q29 112 100 164t206 52q150 0 221 -59t71 -144q0 -82 -59 -159q-47 -56 -205 -171l-26 -19l-27 -20l-22 -18l-23.5 -20.5t-19.5 -19.5h386v-121h-623q4 40 26.5 80.5t45 65t59.5 59.5q44 41 123 99q144 105 171 135q37 40 37 84q0 53 -38 81.5t-100 28.5
q-71 0 -101.5 -25t-50.5 -89z" />
    <glyph glyph-name="uni00B3" unicode="&#xb3;" horiz-adv-x="679" 
d="M646 946q0 -107 -88 -169t-216 -62q-266 0 -309 214l146 15q37 -112 154 -112q66 0 111.5 37t45.5 96q0 110 -159 110q-2 0 -6.5 -0.5t-7.5 -0.5q-4 0 -15.5 -1t-15.5 -1h-10l22 110q68 0 112 24t44 78q0 43 -33.5 66t-85.5 23q-61 0 -91 -24t-51 -78l-143 23
q40 103 100.5 146.5t185.5 43.5q145 0 209 -54q66 -52 66 -133q0 -62 -38 -102t-100 -58q173 -44 173 -191z" />
    <glyph glyph-name="acute" unicode="&#xb4;" horiz-adv-x="839" 
d="M222 1194l133 280h236l-220 -280h-149z" />
    <glyph glyph-name="mu" unicode="&#xb5;" horiz-adv-x="1242" 
d="M591 -25q-91 0 -144 30.5t-109 101.5v-514h-178v1469h178v-450q0 -242 26 -318q25 -68 82 -112t137 -44q81 0 144.5 45t87.5 112q26 73 26 314v453h177v-1062h-161v126q-51 -78 -110 -114.5t-156 -36.5z" />
    <glyph glyph-name="paragraph" unicode="&#xb6;" horiz-adv-x="1070" 
d="M646 520h-87q-175 0 -293 74t-167 207q-32 87 -32 187q0 163 75 272t206 160q92 36 211 36h273v-1456h-186v520z" />
    <glyph glyph-name="periodcentered" unicode="&#xb7;" horiz-adv-x="476" 
d="M261 619q-53 0 -83.5 29.5t-30.5 80.5t30.5 81.5t83.5 30.5q54 0 85 -30t31 -82t-31 -81t-85 -29z" />
    <glyph glyph-name="cedilla" unicode="&#xb8;" horiz-adv-x="670" 
d="M373 -221q-3 23 -15.5 37t-39 20t-45 7.5t-57.5 2.5l52 177h134l-33 -107q74 -9 122.5 -46.5t48.5 -100.5q0 -75 -72 -132q-70 -58 -217 -58q-83 0 -144 12l11 117q66 -4 94 -4q94 0 132 26q29 20 29 49z" />
    <glyph glyph-name="uni00B9" unicode="&#xb9;" horiz-adv-x="607" 
d="M338 674v601l-216 -57v128l355 117h18v-789h-157z" />
    <glyph glyph-name="ordmasculine" unicode="&#xba;" horiz-adv-x="915" 
d="M122 1123q0 121 53.5 205.5t146.5 121.5q64 26 142 26q122 0 203 -56.5t117 -154.5q23 -62 23 -142v-80q0 -122 -53 -205.5t-146 -121.5q-64 -26 -142 -26q-121 0 -202.5 57t-117.5 154q-24 65 -24 142v80zM644 1123q0 97 -45.5 155t-134.5 58q-88 0 -133.5 -58.5
t-45.5 -154.5v-80q0 -97 46 -155.5t135 -58.5q88 0 133 58.5t45 155.5v80z" />
    <glyph glyph-name="guillemotright" unicode="&#xbb;" horiz-adv-x="1002" 
d="M750 548l-258 399h141l295 -389v-19l-295 -388h-141zM420 548l-258 399h141l295 -389v-19l-295 -388h-141z" />
    <glyph glyph-name="onequarter" unicode="&#xbc;" horiz-adv-x="1547" 
d="M301 664v601l-216 -57v128l355 117h18v-789h-157zM339 184l711 1138l104 -66l-711 -1138zM1425 299v-130h-107v-169h-157v169h-375l-6 102l377 518h161v-490h107zM1161 299v289l-17 -28l-206 -261h223z" />
    <glyph glyph-name="onehalf" unicode="&#xbd;" horiz-adv-x="1617" 
d="M295 184l711 1138l104 -66l-711 -1138zM296 664v601l-216 -57v128l355 117h18v-789h-157zM1167 671q-69 0 -107.5 -35t-38.5 -98h-157q0 90 48 151t126 90q56 21 125 21q130 0 208 -60t78 -177q0 -70 -51 -145q-9 -13 -20.5 -27l-20 -23.5t-25 -25l-23 -21.5l-26.5 -25
t-25 -23l-176 -145h399v-128h-599v108l288 271q66 60 94 105q27 44 27 77q0 52 -34 81t-90 29z" />
    <glyph glyph-name="threequarters" unicode="&#xbe;" horiz-adv-x="1674" 
d="M466 184l711 1138l104 -66l-711 -1138zM1517 299v-130h-107v-169h-157v169h-375l-6 102l377 518h161v-490h107zM1253 299v289l-17 -28l-206 -261h223zM558 895q0 115 -160 115h-84v116h84q67 0 106.5 27t39.5 82q0 52 -35.5 77.5t-97.5 25.5q-55 0 -93.5 -23t-38.5 -69
h-157q0 81 49 132.5t125 73.5q53 15 113 15q130 0 211.5 -56t81.5 -169q0 -118 -136 -171q149 -41 149 -184q0 -78 -43.5 -131.5t-110.5 -76.5t-152 -23q-94 0 -166 33.5t-107 94.5q-25 43 -25 105h158q0 -50 42.5 -77.5t103.5 -27.5q65 0 104 27.5t39 83.5z" />
    <glyph glyph-name="questiondown" unicode="&#xbf;" horiz-adv-x="971" 
d="M253 0q0 -109 58 -166.5t167 -57.5q147 0 206 114q19 37 19 90h185q-2 -130 -70 -216.5t-178 -123.5q-74 -25 -162 -25q-193 0 -301.5 97.5t-108.5 282.5q0 117 78 241q56 88 167 195q48 45 69 103t21 146h185q-2 -102 -23 -168.5t-68 -124.5q-29 -36 -140 -155
q-49 -52 -76.5 -105.5t-27.5 -126.5zM487 1101q50 0 79.5 -28t29.5 -76t-29.5 -77.5t-79.5 -29.5t-80 29.5t-30 77.5q0 49 29.5 76.5t80.5 27.5z" />
    <glyph glyph-name="Agrave" unicode="&#xc0;" horiz-adv-x="1373" 
d="M363 380l-137 -380h-198l556 1456h168l557 -1456h-197l-139 380h-610zM916 538l-248 681l-247 -681h495zM595 1647l-258 294h223l194 -294h-159z" />
    <glyph glyph-name="Aacute" unicode="&#xc1;" horiz-adv-x="1373" 
d="M363 380l-137 -380h-198l556 1456h168l557 -1456h-197l-139 380h-610zM916 538l-248 681l-247 -681h495zM578 1516l133 280h236l-220 -280h-149z" />
    <glyph glyph-name="Acircumflex" unicode="&#xc2;" horiz-adv-x="1373" 
d="M363 380l-137 -380h-198l556 1456h168l557 -1456h-197l-139 380h-610zM916 538l-248 681l-247 -681h495zM663 1690l-113 -170h-206l216 280h192l225 -280h-204z" />
    <glyph glyph-name="Atilde" unicode="&#xc3;" horiz-adv-x="1373" 
d="M363 380l-137 -380h-198l556 1456h168l557 -1456h-197l-139 380h-610zM916 538l-248 681l-247 -681h495zM526 1678q-36 0 -56 -25t-20 -64v-6h-133v5q0 97 56 160t147 63q62 0 169 -54q59 -30 94 -30q38 0 52 20t21 67h130q-3 -104 -53.5 -166t-142.5 -62q-62 0 -166 56
q-68 36 -98 36z" />
    <glyph glyph-name="Adieresis" unicode="&#xc4;" horiz-adv-x="1373" 
d="M363 380l-137 -380h-198l556 1456h168l557 -1456h-197l-139 380h-610zM916 538l-248 681l-247 -681h495zM379 1506v205h188v-205h-188zM752 1506v205h188v-205h-188z" />
    <glyph glyph-name="Aring" unicode="&#xc5;" horiz-adv-x="1373" 
d="M651 1537q-76 0 -128.5 54.5t-52.5 132.5q0 72 54 125.5t126 53.5q74 0 127 -54t53 -129t-52.5 -129t-126.5 -54zM652 1830q-43 0 -74.5 -32t-31.5 -75q0 -46 30.5 -78.5t75.5 -32.5q43 0 74.5 32.5t31.5 76.5q0 45 -31 77t-75 32zM363 380l-137 -380h-198l556 1456h168
l557 -1456h-197l-139 380h-610zM916 538l-248 681l-247 -681h495z" />
    <glyph glyph-name="AE" unicode="&#xc6;" horiz-adv-x="1938" 
d="M996 0l-15 353h-564l-205 -353h-226l880 1456h951v-152h-691l20 -471h590v-151h-584l22 -531h705v-151h-883zM974 527l-31 733l-425 -733h456z" />
    <glyph glyph-name="Ccedilla" unicode="&#xc7;" horiz-adv-x="1557" 
d="M1047 988q-22 160 -101.5 245t-240.5 85q-151 0 -241 -83t-127 -223q-25 -94 -25 -210v-148q0 -170 52 -293t156 -183q71 -41 168 -41q254 0 324 187q23 61 35 138h193q-22 -187 -120.5 -307.5t-270.5 -158.5l-25 -80q74 -9 122.5 -46.5t48.5 -100.5q0 -75 -72 -132
q-70 -58 -217 -58q-82 0 -144 12l11 117q66 -4 94 -4q94 0 132 26q29 20 29 49q-3 23 -15.5 37t-39 20t-45 7.5t-57.5 2.5l39 134h-22q-206 0 -337.5 108t-190.5 289q-41 126 -41 277v146q0 231 89.5 393t253.5 235q108 48 243 48q239 0 376 -130t159 -358h-193z" />
    <glyph glyph-name="Egrave" unicode="&#xc8;" horiz-adv-x="1380" 
d="M361 673v-516h733v-157h-925v1456h915v-158h-723v-468h631v-157h-631zM636 1595l-258 294h223l194 -294h-159z" />
    <glyph glyph-name="Eacute" unicode="&#xc9;" horiz-adv-x="1380" 
d="M361 673v-516h733v-157h-925v1456h915v-158h-723v-468h631v-157h-631zM515 1645l133 280h236l-220 -280h-149z" />
    <glyph glyph-name="Ecircumflex" unicode="&#xca;" horiz-adv-x="1380" 
d="M361 673v-516h733v-157h-925v1456h915v-158h-723v-468h631v-157h-631zM703 1819l-113 -170h-206l216 280h192l225 -280h-204z" />
    <glyph glyph-name="Edieresis" unicode="&#xcb;" horiz-adv-x="1335" 
d="M361 673v-516h733v-157h-925v1456h915v-158h-723v-468h631v-157h-631zM386 1643v205h188v-205h-188zM759 1643v205h188v-205h-188z" />
    <glyph glyph-name="Igrave" unicode="&#xcc;" horiz-adv-x="562" 
d="M183 0v1456h192v-1456h-192zM223 1698l-258 294h223l194 -294h-159z" />
    <glyph glyph-name="Iacute" unicode="&#xcd;" horiz-adv-x="562" 
d="M183 0v1456h192v-1456h-192zM174 1535l133 280h236l-220 -280h-149z" />
    <glyph glyph-name="Icircumflex" unicode="&#xce;" horiz-adv-x="562" 
d="M183 0v1456h192v-1456h-192zM294 1706l-113 -170h-206l216 280h192l225 -280h-204z" />
    <glyph glyph-name="Idieresis" unicode="&#xcf;" horiz-adv-x="562" 
d="M183 0v1456h192v-1456h-192zM2 1652v205h188v-205h-188zM375 1652v205h188v-205h-188z" />
    <glyph glyph-name="Eth" unicode="&#xd0;" horiz-adv-x="1508" 
d="M158 0v667h-161v132h161v667h506q181 0 285 -26t190 -100q231 -196 231 -599q0 -202 -65 -370.5t-176 -249.5q-99 -73 -228 -104q-76 -17 -214 -17h-529zM352 173h313q132 0 217 23t141 79q147 147 147 468q0 301 -139 440q-67 67 -143.5 88.5t-227.5 21.5h-308v-494h404
v-132h-404v-494z" />
    <glyph glyph-name="Ntilde" unicode="&#xd1;" horiz-adv-x="1541" 
d="M1095 0l-733 1122v-1122h-193v1456h193l735 -1127v1127h191v-1456h-193zM635 1757q-36 0 -56 -25t-20 -64v-6h-133v5q0 97 56 160t147 63q63 0 169 -54q58 -30 94 -30q38 0 52 20t21 67h130q-3 -104 -53.5 -166t-142.5 -62q-62 0 -166 56q-67 36 -98 36z" />
    <glyph glyph-name="Ograve" unicode="&#xd2;" horiz-adv-x="1707" 
d="M1289 681q0 -242 -88.5 -410.5t-254.5 -242.5q-108 -48 -241 -48q-108 0 -198.5 31t-156.5 88t-112.5 128.5t-76.5 160.5q-43 128 -43 293v92q0 240 91 410.5t257 244.5q108 48 237 48q214 0 349.5 -111t195.5 -299q41 -127 41 -293v-92zM1098 775q0 395 -228 501
q-75 35 -167 35q-101 0 -177.5 -42.5t-119.5 -108t-69 -155.5q-28 -99 -28 -230v-94q0 -184 58.5 -316t175.5 -187q75 -35 162 -35q107 0 184.5 41.5t122 116.5t65.5 169t21 211v94zM725 1665l-258 294h223l194 -294h-159z" />
    <glyph glyph-name="Oacute" unicode="&#xd3;" horiz-adv-x="1707" 
d="M1289 681q0 -242 -88.5 -410.5t-254.5 -242.5q-108 -48 -241 -48q-108 0 -198.5 31t-156.5 88t-112.5 128.5t-76.5 160.5q-43 128 -43 293v92q0 240 91 410.5t257 244.5q108 48 237 48q214 0 349.5 -111t195.5 -299q41 -127 41 -293v-92zM1098 775q0 395 -228 501
q-75 35 -167 35q-101 0 -177.5 -42.5t-119.5 -108t-69 -155.5q-28 -99 -28 -230v-94q0 -184 58.5 -316t175.5 -187q75 -35 162 -35q107 0 184.5 41.5t122 116.5t65.5 169t21 211v94zM675 1531l133 280h236l-220 -280h-149z" />
    <glyph glyph-name="Ocircumflex" unicode="&#xd4;" horiz-adv-x="1707" 
d="M1289 681q0 -242 -88.5 -410.5t-254.5 -242.5q-108 -48 -241 -48q-108 0 -198.5 31t-156.5 88t-112.5 128.5t-76.5 160.5q-43 128 -43 293v92q0 240 91 410.5t257 244.5q108 48 237 48q214 0 349.5 -111t195.5 -299q41 -127 41 -293v-92zM1098 775q0 395 -228 501
q-75 35 -167 35q-101 0 -177.5 -42.5t-119.5 -108t-69 -155.5q-28 -99 -28 -230v-94q0 -184 58.5 -316t175.5 -187q75 -35 162 -35q107 0 184.5 41.5t122 116.5t65.5 169t21 211v94zM776 1711l-113 -170h-206l216 280h192l225 -280h-204z" />
    <glyph glyph-name="Otilde" unicode="&#xd5;" horiz-adv-x="1707" 
d="M1289 681q0 -242 -88.5 -410.5t-254.5 -242.5q-108 -48 -241 -48q-108 0 -198.5 31t-156.5 88t-112.5 128.5t-76.5 160.5q-43 128 -43 293v92q0 240 91 410.5t257 244.5q108 48 237 48q214 0 349.5 -111t195.5 -299q41 -127 41 -293v-92zM1098 775q0 395 -228 501
q-75 35 -167 35q-101 0 -177.5 -42.5t-119.5 -108t-69 -155.5q-28 -99 -28 -230v-94q0 -184 58.5 -316t175.5 -187q75 -35 162 -35q107 0 184.5 41.5t122 116.5t65.5 169t21 211v94zM521 1732q-36 0 -56 -25t-20 -64v-6h-133v5q0 97 56 160t147 63q63 0 169 -54
q58 -30 94 -30q38 0 52 20t21 67h130q-3 -104 -53.5 -166t-142.5 -62q-62 0 -166 56q-68 36 -98 36z" />
    <glyph glyph-name="Odieresis" unicode="&#xd6;" horiz-adv-x="1614" 
d="M1289 681q0 -242 -88.5 -410.5t-254.5 -242.5q-108 -48 -241 -48q-108 0 -198.5 31t-156.5 88t-112.5 128.5t-76.5 160.5q-43 128 -43 293v92q0 240 91 410.5t257 244.5q108 48 237 48q214 0 349.5 -111t195.5 -299q41 -127 41 -293v-92zM1098 775q0 395 -228 501
q-75 35 -167 35q-101 0 -177.5 -42.5t-119.5 -108t-69 -155.5q-28 -99 -28 -230v-94q0 -184 58.5 -316t175.5 -187q75 -35 162 -35q107 0 184.5 41.5t122 116.5t65.5 169t21 211v94zM439 1593v205h188v-205h-188zM812 1593v205h188v-205h-188z" />
    <glyph glyph-name="multiply" unicode="&#xd7;" horiz-adv-x="1215" 
d="M161 409l315 315l-314 314l122 122l314 -314l313 313l120 -121l-312 -313l314 -314l-122 -122l-314 314l-315 -315z" />
    <glyph glyph-name="Oslash" unicode="&#xd8;" horiz-adv-x="1707" 
d="M801 -25q-148 0 -244 35.5t-207 118.5l-168 -188l-99 84l176 197q-98 151 -131 254q-33 106 -33 254q0 230 92 405.5t250 264.5q163 91 362 91q133 0 234 -36q101 -34 217 -123l168 188l99 -84l-176 -198q86 -127 121 -233.5t35 -272.5q0 -230 -94 -405.5t-253 -261.5
q-164 -90 -349 -90zM1130 1197q-97 75 -165 101q-71 27 -165 27q-219 0 -362 -149t-143 -443q0 -123 19 -198t70 -173zM469 262q144 -121 326 -121q218 0 360 154t142 432q0 210 -85 367z" />
    <glyph glyph-name="Ugrave" unicode="&#xd9;" horiz-adv-x="1522" 
d="M665 137q163 0 249.5 85t86.5 248v986h193v-986q0 -234 -158 -368q-143 -122 -371 -122q-180 0 -303.5 72t-181.5 203q-40 90 -40 215v986h190v-986q0 -162 86.5 -247.5t248.5 -85.5zM701 1690l-258 294h223l194 -294h-159z" />
    <glyph glyph-name="Uacute" unicode="&#xda;" horiz-adv-x="1522" 
d="M665 137q163 0 249.5 85t86.5 248v986h193v-986q0 -234 -158 -368q-143 -122 -371 -122q-180 0 -303.5 72t-181.5 203q-40 90 -40 215v986h190v-986q0 -162 86.5 -247.5t248.5 -85.5zM607 1540l133 280h236l-220 -280h-149z" />
    <glyph glyph-name="Ucircumflex" unicode="&#xdb;" horiz-adv-x="1522" 
d="M665 137q163 0 249.5 85t86.5 248v986h193v-986q0 -234 -158 -368q-143 -122 -371 -122q-180 0 -303.5 72t-181.5 203q-40 90 -40 215v986h190v-986q0 -162 86.5 -247.5t248.5 -85.5zM763 1815l-113 -170h-206l216 280h192l225 -280h-204z" />
    <glyph glyph-name="Udieresis" unicode="&#xdc;" horiz-adv-x="1522" 
d="M665 137q163 0 249.5 85t86.5 248v986h193v-986q0 -234 -158 -368q-143 -122 -371 -122q-180 0 -303.5 72t-181.5 203q-40 90 -40 215v986h190v-986q0 -162 86.5 -247.5t248.5 -85.5zM450 1525v205h188v-205h-188zM823 1525v205h188v-205h-188z" />
    <glyph glyph-name="Yacute" unicode="&#xdd;" horiz-adv-x="1394" 
d="M993 1456h218l-502 -913v-543h-192v543l-502 913h220l378 -731zM523 1536l133 280h236l-220 -280h-149z" />
    <glyph glyph-name="Thorn" unicode="&#xde;" horiz-adv-x="1440" 
d="M158 0v1466h194v-298h359q142 0 239.5 -18t165.5 -66q71 -50 116 -141.5t45 -199.5q0 -185 -119 -316q-118 -129 -430 -129h-376v-298h-194zM731 471q170 0 258 62t88 204q0 94 -45.5 158.5t-122.5 85.5q-53 14 -182 14h-375v-524h379z" />
    <glyph glyph-name="germandbls" unicode="&#xdf;" horiz-adv-x="1316" 
d="M776 1186q0 70 -59.5 113.5t-140.5 43.5q-107 0 -175 -66t-68 -286v-991h-180v999q0 179 42.5 278.5t150.5 157.5q104 56 234 56q173 0 272 -87q99 -86 99 -200q0 -53 -16.5 -104.5t-38 -86t-47.5 -80.5t-38 -81q-12 -32 -12 -55q0 -32 16 -54.5t47 -48.5q42 -33 80 -57
q133 -86 181 -143q64 -76 64 -182q0 -139 -103 -238q-102 -99 -262 -99q-128 0 -222.5 68t-140.5 173l155 72q35 -63 68 -100.5t84 -55.5q26 -9 53 -9q74 0 129 51.5t55 122.5q0 55 -32 96q-6 7 -39 35q-23 19 -73 53q-166 112 -205 171q-40 55 -40 117q0 21 3.5 42.5t8 36
t14 35t15 30.5t19 32.5l18.5 30.5t15.5 26.5l16 28l13.5 24t13.5 27.5t9.5 26q16 41 16 78z" />
    <glyph glyph-name="agrave" unicode="&#xe0;" horiz-adv-x="1205" 
d="M964 236q0 -133 38 -220v-16h-194q-15 29 -26 114q-127 -134 -308 -134q-123 0 -211.5 52t-127.5 142q-26 60 -26 126q0 95 38 165.5t106.5 111t153.5 60t188 19.5h184v85q0 103 -60 157.5t-169 54.5q-76 0 -133 -28t-83 -78q-17 -32 -17 -65h-186q0 123 117 218
q126 102 313 102q282 0 373 -204q30 -68 30 -159v-503zM501 141q95 0 169.5 45.5t108.5 116.5v222h-154q-331 0 -331 -199q0 -89 56.5 -137t150.5 -48zM526 1246l-258 294h223l194 -294h-159z" />
    <glyph glyph-name="aacute" unicode="&#xe1;" horiz-adv-x="1205" 
d="M964 236q0 -133 38 -220v-16h-194q-15 29 -26 114q-127 -134 -308 -134q-123 0 -211.5 52t-127.5 142q-26 60 -26 126q0 95 38 165.5t106.5 111t153.5 60t188 19.5h184v85q0 103 -60 157.5t-169 54.5q-76 0 -133 -28t-83 -78q-17 -32 -17 -65h-186q0 123 117 218
q126 102 313 102q282 0 373 -204q30 -68 30 -159v-503zM501 141q95 0 169.5 45.5t108.5 116.5v222h-154q-331 0 -331 -199q0 -89 56.5 -137t150.5 -48zM418 1194l133 280h236l-220 -280h-149z" />
    <glyph glyph-name="acircumflex" unicode="&#xe2;" horiz-adv-x="1205" 
d="M964 236q0 -133 38 -220v-16h-194q-15 29 -26 114q-127 -134 -308 -134q-123 0 -211.5 52t-127.5 142q-26 60 -26 126q0 95 38 165.5t106.5 111t153.5 60t188 19.5h184v85q0 103 -60 157.5t-169 54.5q-76 0 -133 -28t-83 -78q-17 -32 -17 -65h-186q0 123 117 218
q126 102 313 102q282 0 373 -204q30 -68 30 -159v-503zM501 141q95 0 169.5 45.5t108.5 116.5v222h-154q-331 0 -331 -199q0 -89 56.5 -137t150.5 -48zM605 1364l-113 -170h-206l216 280h192l225 -280h-204z" />
    <glyph glyph-name="atilde" unicode="&#xe3;" horiz-adv-x="1205" 
d="M964 236q0 -133 38 -220v-16h-194q-15 29 -26 114q-127 -134 -308 -134q-123 0 -211.5 52t-127.5 142q-26 60 -26 126q0 95 38 165.5t106.5 111t153.5 60t188 19.5h184v85q0 103 -60 157.5t-169 54.5q-76 0 -133 -28t-83 -78q-17 -32 -17 -65h-186q0 123 117 218
q126 102 313 102q282 0 373 -204q30 -68 30 -159v-503zM501 141q95 0 169.5 45.5t108.5 116.5v222h-154q-331 0 -331 -199q0 -89 56.5 -137t150.5 -48zM477 1314q-36 0 -56 -25t-20 -64v-6h-133v5q0 97 56 160t147 63q63 0 169 -54q58 -30 94 -30q38 0 52 20t21 67h130
q-3 -104 -53.5 -166t-142.5 -62q-62 0 -166 56q-67 36 -98 36z" />
    <glyph glyph-name="adieresis" unicode="&#xe4;" horiz-adv-x="1205" 
d="M964 236q0 -133 38 -220v-16h-194q-15 29 -26 114q-127 -134 -308 -134q-123 0 -211.5 52t-127.5 142q-26 60 -26 126q0 95 38 165.5t106.5 111t153.5 60t188 19.5h184v85q0 103 -60 157.5t-169 54.5q-76 0 -133 -28t-83 -78q-17 -32 -17 -65h-186q0 123 117 218
q126 102 313 102q282 0 373 -204q30 -68 30 -159v-503zM501 141q95 0 169.5 45.5t108.5 116.5v222h-154q-331 0 -331 -199q0 -89 56.5 -137t150.5 -48zM322 1270v205h188v-205h-188zM695 1270v205h188v-205h-188z" />
    <glyph glyph-name="aring" unicode="&#xe5;" horiz-adv-x="1205" 
d="M599 1162q-76 0 -128.5 54.5t-52.5 132.5q0 72 54 125.5t126 53.5q74 0 127 -54t53 -129t-52.5 -129t-126.5 -54zM600 1455q-43 0 -74.5 -32t-31.5 -75q0 -46 30.5 -78.5t75.5 -32.5q43 0 74.5 32.5t31.5 76.5q0 45 -31 77t-75 32zM964 236q0 -133 38 -220v-16h-194
q-15 29 -26 114q-127 -134 -308 -134q-123 0 -211.5 52t-127.5 142q-26 60 -26 126q0 95 38 165.5t106.5 111t153.5 60t188 19.5h184v85q0 103 -60 157.5t-169 54.5q-76 0 -133 -28t-83 -78q-17 -32 -17 -65h-186q0 123 117 218q126 102 313 102q282 0 373 -204
q30 -68 30 -159v-503zM501 141q95 0 169.5 45.5t108.5 116.5v222h-154q-331 0 -331 -199q0 -89 56.5 -137t150.5 -48z" />
    <glyph glyph-name="ae" unicode="&#xe6;" horiz-adv-x="1778" 
d="M1642 101q-148 -121 -380 -121q-260 0 -397 180q-66 -86 -176 -133t-256 -47q-165 0 -260 83.5t-95 240.5q0 169 121.5 250t326.5 81h223v85q0 108 -55 169t-159 61q-81 0 -139.5 -31.5t-87.5 -86.5q-18 -34 -18 -73l-184 19q0 117 71.5 191.5t182.5 108.5q80 24 175 24
q241 0 341 -166q132 166 342 166q217 0 329.5 -129.5t112.5 -357.5v-118h-728q6 -168 88 -267.5t242 -99.5q68 0 129.5 17t97 36t89.5 54zM264 300q0 -85 56 -127.5t149 -42.5q113 0 225 80q34 24 55 48v237h-221q-89 0 -154 -31.5t-93 -89.5q-17 -36 -17 -74zM1475 671
q0 131 -65 205t-192 74q-94 0 -155.5 -52.5t-94.5 -135.5q-24 -61 -31 -122h538v31z" />
    <glyph glyph-name="ccedilla" unicode="&#xe7;" horiz-adv-x="1119" 
d="M574 131q104 0 174.5 58t80.5 152h175q-8 -120 -83 -204t-185 -127q-52 -21 -110 -27l-21 -67q74 -9 122.5 -46.5t48.5 -100.5q0 -75 -72 -132q-70 -58 -217 -58q-83 0 -144 12l11 117q66 -4 94 -4q94 0 132 26q29 20 29 49q-3 23 -15.5 37t-39 20t-45 7.5t-57.5 2.5
l41 139q-144 20 -237 107t-134 221q-30 97 -30 207v42q0 180 70.5 307t198.5 189q91 44 212 44q144 0 244.5 -64t150.5 -173q31 -68 36 -155h-175q-14 160 -155 221q-44 19 -101 19q-157 0 -233 -124q-63 -102 -63 -264v-42q0 -262 153 -355q56 -34 144 -34z" />
    <glyph glyph-name="egrave" unicode="&#xe8;" horiz-adv-x="1194" 
d="M599 131q173 0 285 146l113 -88q-132 -209 -408 -209q-223 0 -361 148q-135 143 -135 375v42q0 190 79 324.5t217 194.5q87 38 177 38q224 0 334.5 -143.5t110.5 -387.5v-83h-733q2 -119 52 -203t136 -126q57 -28 133 -28zM826 654q-7 133 -71 214.5t-189 81.5
q-126 0 -195.5 -87t-86.5 -223h542v14zM482 1213l-258 294h223l194 -294h-159z" />
    <glyph glyph-name="eacute" unicode="&#xe9;" horiz-adv-x="1194" 
d="M599 131q173 0 285 146l113 -88q-132 -209 -408 -209q-223 0 -361 148q-135 143 -135 375v42q0 190 79 324.5t217 194.5q87 38 177 38q224 0 334.5 -143.5t110.5 -387.5v-83h-733q2 -119 52 -203t136 -126q57 -28 133 -28zM826 654q-7 133 -71 214.5t-189 81.5
q-126 0 -195.5 -87t-86.5 -223h542v14zM412 1194l133 280h236l-220 -280h-149z" />
    <glyph glyph-name="ecircumflex" unicode="&#xea;" horiz-adv-x="1194" 
d="M599 131q173 0 285 146l113 -88q-132 -209 -408 -209q-223 0 -361 148q-135 143 -135 375v42q0 190 79 324.5t217 194.5q87 38 177 38q224 0 334.5 -143.5t110.5 -387.5v-83h-733q2 -119 52 -203t136 -126q57 -28 133 -28zM826 654q-7 133 -71 214.5t-189 81.5
q-126 0 -195.5 -87t-86.5 -223h542v14zM599 1364l-113 -170h-206l216 280h192l225 -280h-204z" />
    <glyph glyph-name="edieresis" unicode="&#xeb;" horiz-adv-x="1194" 
d="M599 131q173 0 285 146l113 -88q-132 -209 -408 -209q-223 0 -361 148q-135 143 -135 375v42q0 190 79 324.5t217 194.5q87 38 177 38q224 0 334.5 -143.5t110.5 -387.5v-83h-733q2 -119 52 -203t136 -126q57 -28 133 -28zM826 654q-7 133 -71 214.5t-189 81.5
q-126 0 -195.5 -87t-86.5 -223h542v14zM316 1270v205h188v-205h-188zM689 1270v205h188v-205h-188z" />
    <glyph glyph-name="igrave" unicode="&#xec;" horiz-adv-x="515" 
d="M198 0v1062h180v-1062h-180zM219 1240l-258 294h223l194 -294h-159z" />
    <glyph glyph-name="iacute" unicode="&#xed;" horiz-adv-x="547" 
d="M198 0v1062h180v-1062h-180zM166 1185l133 280h236l-220 -280h-149z" />
    <glyph glyph-name="icircumflex" unicode="&#xee;" horiz-adv-x="533" 
d="M198 0v1062h180v-1062h-180zM290 1360l-113 -170h-206l216 280h192l225 -280h-204z" />
    <glyph glyph-name="idieresis" unicode="&#xef;" horiz-adv-x="542" 
d="M198 0v1062h180v-1062h-180zM3 1210v205h188v-205h-188zM376 1210v205h188v-205h-188z" />
    <glyph glyph-name="eth" unicode="&#xf0;" horiz-adv-x="1229" 
d="M737 1003q-55 116 -142 213l-275 -127l-44 103l239 109q-97 90 -207 165h217q77 -58 125 -102l214 102l45 -102l-172 -83q320 -368 320 -760q0 -255 -139 -400q-140 -146 -354 -146q-255 0 -398 194q-93 127 -93 348q0 261 129 403t323 142q48 0 84.5 -7.5t57.5 -17
t70 -34.5zM870 529q0 193 -91 293q-90 102 -222 102q-129 0 -215 -102q-85 -100 -85 -310q0 -194 87 -292q89 -98 219 -98q129 0 217 103q90 104 90 304z" />
    <glyph glyph-name="ntilde" unicode="&#xf1;" horiz-adv-x="1117" 
d="M589 945q-92 0 -159.5 -49t-104.5 -125v-771h-185v1082h175l6 -136q124 156 324 156q346 0 346 -393v-709h-185v711q0 119 -52.5 176.5t-164.5 57.5zM433 1314q-36 0 -56 -25t-20 -64v-6h-133v5q0 97 56 160t147 63q63 0 169 -54q58 -30 94 -30q38 0 52 20t21 67h130
q-3 -104 -53.5 -166t-142.5 -62q-62 0 -166 56q-67 36 -98 36z" />
    <glyph glyph-name="ograve" unicode="&#xf2;" horiz-adv-x="1223" 
d="M91 551q0 183 77 315t210 194q92 42 204 42q176 0 292.5 -91t167.5 -241q34 -99 34 -219v-22q0 -185 -76 -315t-211 -192q-91 -42 -205 -42q-175 0 -291 90.5t-167 239.5q-35 102 -35 219v22zM277 529q0 -130 44.5 -225t128.5 -141q58 -32 134 -32q116 0 187 68t101 177
q19 70 19 153v22q0 130 -45 225t-129 142q-57 32 -135 32q-142 0 -228 -120q-77 -107 -77 -279v-22zM649 1240l-258 294h223l194 -294h-159z" />
    <glyph glyph-name="oacute" unicode="&#xf3;" horiz-adv-x="1223" 
d="M91 551q0 183 77 315t210 194q92 42 204 42q176 0 292.5 -91t167.5 -241q34 -99 34 -219v-22q0 -185 -76 -315t-211 -192q-91 -42 -205 -42q-175 0 -291 90.5t-167 239.5q-35 102 -35 219v22zM277 529q0 -130 44.5 -225t128.5 -141q58 -32 134 -32q116 0 187 68t101 177
q19 70 19 153v22q0 130 -45 225t-129 142q-57 32 -135 32q-142 0 -228 -120q-77 -107 -77 -279v-22zM483 1194l133 280h236l-220 -280h-149z" />
    <glyph glyph-name="ocircumflex" unicode="&#xf4;" horiz-adv-x="1223" 
d="M91 551q0 183 77 315t210 194q92 42 204 42q176 0 292.5 -91t167.5 -241q34 -99 34 -219v-22q0 -185 -76 -315t-211 -192q-91 -42 -205 -42q-175 0 -291 90.5t-167 239.5q-35 102 -35 219v22zM277 529q0 -130 44.5 -225t128.5 -141q58 -32 134 -32q116 0 187 68t101 177
q19 70 19 153v22q0 130 -45 225t-129 142q-57 32 -135 32q-142 0 -228 -120q-77 -107 -77 -279v-22zM614 1364l-113 -170h-206l216 280h192l225 -280h-204z" />
    <glyph glyph-name="otilde" unicode="&#xf5;" horiz-adv-x="1223" 
d="M91 551q0 183 77 315t210 194q92 42 204 42q176 0 292.5 -91t167.5 -241q34 -99 34 -219v-22q0 -185 -76 -315t-211 -192q-91 -42 -205 -42q-175 0 -291 90.5t-167 239.5q-35 102 -35 219v22zM277 529q0 -130 44.5 -225t128.5 -141q58 -32 134 -32q116 0 187 68t101 177
q19 70 19 153v22q0 130 -45 225t-129 142q-57 32 -135 32q-142 0 -228 -120q-77 -107 -77 -279v-22zM398 1292q-36 0 -56 -25t-20 -64v-6h-133v5q0 97 56 160t147 63q63 0 169 -54q58 -30 94 -30q38 0 52 20t21 67h130q-3 -104 -53.5 -166t-142.5 -62q-62 0 -166 56
q-68 36 -98 36z" />
    <glyph glyph-name="odieresis" unicode="&#xf6;" horiz-adv-x="1223" 
d="M91 551q0 183 77 315t210 194q92 42 204 42q176 0 292.5 -91t167.5 -241q34 -99 34 -219v-22q0 -185 -76 -315t-211 -192q-91 -42 -205 -42q-175 0 -291 90.5t-167 239.5q-35 102 -35 219v22zM277 529q0 -130 44.5 -225t128.5 -141q58 -32 134 -32q116 0 187 68t101 177
q19 70 19 153v22q0 130 -45 225t-129 142q-57 32 -135 32q-142 0 -228 -120q-77 -107 -77 -279v-22zM266 1174v205h188v-205h-188zM639 1174v205h188v-205h-188z" />
    <glyph glyph-name="divide" unicode="&#xf7;" horiz-adv-x="1150" 
d="M459 922v205h205v-205h-205zM1046 639h-968v168h968v-168zM459 319v205h205v-205h-205z" />
    <glyph glyph-name="oslash" unicode="&#xf8;" horiz-adv-x="1223" 
d="M621 1086q88 0 156 -22t142 -65l99 128l96 -70l-107 -138q65 -89 91 -171.5t26 -217.5q0 -300 -169 -441q-137 -113 -330 -113q-159 0 -281 80l-105 -135l-94 71l108 141q-64 74 -94 165t-30 218q0 302 147 435q147 135 345 135zM818 867q-91 70 -191 70
q-133 0 -223 -102t-90 -304q0 -151 52 -251zM444 187q78 -63 176 -63q139 0 229 102q91 100 91 306q0 80 -9.5 127t-37.5 111z" />
    <glyph glyph-name="ugrave" unicode="&#xf9;" horiz-adv-x="1150" 
d="M808 107q-108 -127 -317 -127q-181 0 -268 104.5t-87 298.5v699h185v-701q0 -244 200 -244q213 0 282 158v787h185v-1082h-176zM488 1240l-258 294h223l194 -294h-159z" />
    <glyph glyph-name="uacute" unicode="&#xfa;" horiz-adv-x="1150" 
d="M808 107q-108 -127 -317 -127q-181 0 -268 104.5t-87 298.5v699h185v-701q0 -244 200 -244q213 0 282 158v787h185v-1082h-176zM390 1194l133 280h236l-220 -280h-149z" />
    <glyph glyph-name="ucircumflex" unicode="&#xfb;" horiz-adv-x="1150" 
d="M808 107q-108 -127 -317 -127q-181 0 -268 104.5t-87 298.5v699h185v-701q0 -244 200 -244q213 0 282 158v787h185v-1082h-176zM577 1364l-113 -170h-206l216 280h192l225 -280h-204z" />
    <glyph glyph-name="udieresis" unicode="&#xfc;" horiz-adv-x="1150" 
d="M808 107q-108 -127 -317 -127q-181 0 -268 104.5t-87 298.5v699h185v-701q0 -244 200 -244q213 0 282 158v787h185v-1082h-176zM294 1178v205h188v-205h-188zM667 1178v205h188v-205h-188z" />
    <glyph glyph-name="yacute" unicode="&#xfd;" horiz-adv-x="1058" 
d="M84 -271q28 -4 50 -4q69 0 116 22.5t72.5 59t44.5 95.5l41 110l-386 1070h202l270 -811l252 811h198l-435 -1249q-66 -180 -194 -243q-54 -27 -127 -27q-24 0 -104 16v150zM381 1148l133 280h236l-220 -280h-149z" />
    <glyph glyph-name="thorn" unicode="&#xfe;" horiz-adv-x="1177" 
d="M607 1086q145 0 248.5 -74.5t152.5 -196.5t49 -276q0 -167 -61 -297t-168 -197q-111 -69 -233 -69q-83 0 -154 33q-54 26 -126 101v-517h-180v1873h180v-516q72 75 131 105.5t161 30.5zM298 525q0 -205 83 -303t201 -98q119 0 205 101q86 104 86 315q0 204 -84 304
q-83 101 -199 101t-204 -108q-88 -106 -88 -312z" />
    <glyph glyph-name="ydieresis" unicode="&#xff;" horiz-adv-x="1058" 
d="M84 -271q28 -4 50 -4q69 0 116 22.5t72.5 59t44.5 95.5l41 110l-386 1070h202l270 -811l252 811h198l-435 -1249q-66 -180 -194 -243q-54 -27 -127 -27q-24 0 -104 16v150zM248 1188v205h188v-205h-188zM621 1188v205h188v-205h-188z" />
    <glyph glyph-name="OE" unicode="&#x152;" horiz-adv-x="1999" 
d="M660 1477q99 0 294 -21h837v-158h-723v-468h631v-157h-631v-516h733v-157h-847q-195 -21 -292 -21q-195 0 -325.5 97t-190.5 258q-41 111 -41 242v304q0 203 88 346t240 208q101 43 227 43zM290 576q0 -205 92.5 -325t279.5 -120q122 0 214 14v1165q-100 15 -216 15
q-125 0 -209.5 -57.5t-122.5 -155t-38 -230.5v-306z" />
    <glyph glyph-name="oe" unicode="&#x153;" horiz-adv-x="1933" 
d="M976 192q-133 -212 -395 -212q-175 0 -288.5 90t-162.5 240q-33 100 -33 219v22q0 185 74 316.5t205 192.5q90 42 203 42q265 0 399 -217q101 155 264 202q53 15 109 15q216 0 328.5 -129t112.5 -354v-122h-718q5 -121 49.5 -209t126.5 -130q55 -28 129 -28
q185 0 308 108l74 -126q-140 -132 -382 -132q-139 0 -240 56.5t-163 155.5zM282 529q0 -131 42 -226.5t124 -140.5q58 -32 133 -32q102 0 170.5 56.5t97.5 143.5t29 199v22q0 130 -42 224.5t-124 142.5q-55 32 -133 32q-142 0 -225 -120q-72 -103 -72 -279v-22zM1351 950
q-159 0 -237 -182q-23 -54 -34 -119h526v26q0 126 -67 200.5t-188 74.5z" />
    <glyph glyph-name="Scaron" unicode="&#x160;" horiz-adv-x="1268" 
d="M625 1667l110 170h204l-225 -280h-192l-216 280h206zM631 137q142 0 228 57t86 174q0 91 -44.5 138t-132.5 84q-46 20 -180 63t-186 67q-178 79 -243 208q-33 66 -33 151q0 169 136 283q137 114 359 114q176 0 300.5 -74t179.5 -202q34 -78 34 -165h-193q0 139 -86 211
t-235 72q-136 0 -218.5 -58t-82.5 -178q0 -43 15 -78t44.5 -60t58 -41.5t68.5 -33.5q62 -26 154 -52q249 -69 362 -174q116 -106 116 -273q0 -144 -82.5 -233.5t-215.5 -128.5q-96 -28 -209 -28q-153 0 -274 53t-194 145q-83 105 -83 244h193q0 -141 100 -213t258 -72z" />
    <glyph glyph-name="scaron" unicode="&#x161;" horiz-adv-x="1025" 
d="M519 1284l110 170h204l-225 -280h-192l-216 280h206zM280 333q5 -98 76 -150t182 -52q167 0 217 95q15 28 15 61q0 61 -30.5 94t-89.5 56q-40 16 -147.5 42.5t-143.5 39.5q-104 37 -165.5 98.5t-61.5 167.5q0 110 66.5 183t168.5 108q75 26 165 26q141 0 240 -54
t145 -152q28 -60 28 -132h-186q0 61 -37.5 104.5t-92.5 65.5q-41 16 -97 16q-95 0 -155 -39.5t-60 -119.5q0 -58 31 -85t94 -48q55 -19 125 -34q139 -31 231.5 -77.5t133.5 -130.5q23 -47 23 -116q0 -117 -68 -189.5t-178 -106.5q-77 -24 -171 -24q-206 0 -329 110
q-114 101 -114 243h185z" />
    <glyph glyph-name="Ydieresis" unicode="&#x178;" horiz-adv-x="1394" 
d="M379 1560v205h188v-205h-188zM752 1560v205h188v-205h-188zM993 1456h218l-502 -913v-543h-192v543l-502 913h220l378 -731z" />
    <glyph glyph-name="Zcaron" unicode="&#x17d;" horiz-adv-x="1281" 
d="M621 1631l110 170h204l-225 -280h-192l-216 280h206zM1146 157v-157h-1060v144l798 1154h-785v158h1015v-141l-801 -1158h833z" />
    <glyph glyph-name="zcaron" unicode="&#x17e;" horiz-adv-x="1067" 
d="M527 1284l110 170h204l-225 -280h-192l-216 280h206zM947 151v-151h-859v136l597 793h-588v153h820v-131l-603 -800h633z" />
    <glyph glyph-name="florin" unicode="&#x192;" horiz-adv-x="1182" 
d="M81 -250q106 -22 152 -22q66 0 90 33.5t38 118.5l177 1042h-201l24 140h201l24 133q22 120 45 165q33 66 90 99t149 33q77 0 215 -38l-35 -153q-103 24 -154 24q-56 0 -84 -28q-28 -26 -47 -132l-19 -103h204l-25 -140h-204l-191 -1092q-23 -136 -79 -198.5t-181 -62.5
q-94 0 -224 26z" />
    <glyph glyph-name="circumflex" unicode="&#x2c6;" horiz-adv-x="677" 
d="M344 1364l-113 -170h-206l216 280h192l225 -280h-204z" />
    <glyph glyph-name="tilde" unicode="&#x2dc;" horiz-adv-x="700" 
d="M216 1314q-36 0 -56 -25t-20 -64v-6h-133v5q0 97 56 160t147 63q62 0 169 -54q59 -30 94 -30q38 0 52 20t21 67h130q-3 -104 -53.5 -166t-142.5 -62q-62 0 -166 56q-67 36 -98 36z" />
    <glyph glyph-name="uni060C" unicode="&#x60c;" horiz-adv-x="536" 
d="M298 290q119 -19 128 -142q0 -40 -37 -83h1q-48 -54 -125 -54q-84 0 -133 61.5t-49 155.5q0 69 17.5 128t50.5 106.5t71 84t89 73.5q45 -38 74 -59q-84 -65 -133 -143t-49 -158q33 27 95 30z" />
    <glyph glyph-name="uni0615" unicode="&#x615;" 
d="M343 1220q69 0 118 -36.5t49 -99.5q0 -74 -59 -139q-120 -105 -295 -105h-28q-139 0 -289 57q20 45 26 61q37 -14 108 -34l32 44l13 18t16 21q13 74 13 138q0 144 -34 337l69 9q1 -10 5 -43l6 -50l6 -60q4 -44 5 -53l3 -45q3 -26 3 -42q0 -3 1 -11t1 -13v-81
q56 53 111 86q70 41 120 41zM45 912q42 -5 57 -5q9 -1 28 -1h28q154 0 247 84q39 39 39 81q0 37 -26.5 61t-65.5 24q-32 0 -58 -11.5t-62 -36.5q-82 -58 -132 -124q-6 -8 -18 -22z" />
    <glyph glyph-name="uni061B" unicode="&#x61b;" horiz-adv-x="512" 
d="M249 240q46 0 80.5 -34.5t34.5 -80.5q0 -45 -34.5 -79t-80.5 -34q-47 0 -81 33.5t-34 79.5q0 47 34 81t81 34zM256 432q-84 0 -133 61.5t-49 155.5q0 227 174 342q45 -38 74 -59q-128 -89 -128 -245q60 18 96 18q127 0 127 -135q0 -41 -37 -84h1q-48 -54 -125 -54z" />
    <glyph glyph-name="uni061F" unicode="&#x61f;" horiz-adv-x="1024" 
d="M219 1538q133 109 294 109q184 0 302 -123q100 -120 109 -306h-146q-9 282 -265 282q-92 0 -179 -62q-89 -77 -89 -167q0 -143 110 -230q111 -89 188 -144q92 -106 92 -299v-123h-146v123q0 145 -113 246l-51 42q-3 3 -58.5 50t-84.5 69q-99 105 -99 265q0 157 136 269
v-1zM713 155l-149 -149l-141 141l148 150z" />
    <glyph glyph-name="uni0640" unicode="&#x640;" horiz-adv-x="907" 
d="M-9 20q-34 0 -58 22.5t-24 55.5q0 34 24 56t59 22h922q32 0 55.5 -23t23.5 -55q0 -33 -23 -55.5t-56 -22.5h-923z" />
    <glyph glyph-name="uni064B" unicode="&#x64b;" 
d="M445 1306l-215.5 -88.5l-215.5 -88.5v89l212.5 85l218.5 87v-84zM438 1528l-216 -89l-215 -88v89l215.5 86l215.5 86v-84z" />
    <glyph glyph-name="uni064C" unicode="&#x64c;" 
d="M9 1409q54 0 85 -36t31 -95q0 -31 -10 -81q145 43 231 102l-14 13q-5 1 -16.5 7.5t-15.5 7.5l-25 12q-94 45 -94 133q0 71 75 122q43 29 88 29q61 0 96.5 -49t35.5 -117q0 -46 -21 -121q3 -1 12.5 -4.5t15.5 -5.5l-19 -61q-3 1 -3 0l-4 1l-36 10q-106 -101 -346 -157
l-38 54q22 51 22 102q0 33 -9 47v-1q-14 22 -39 22q-36 0 -72 -32l-47 47q51 51 117 51zM410 1458q0 71 -46 96h-2h-1q-1 1 -2 1q-8 2 -15 2q-36 0 -66 -26.5t-30 -59.5q0 -44 57 -72l54 -27l35 -15q16 69 16 101z" />
    <glyph glyph-name="uni064D" unicode="&#x64d;" 
d="M441 -491l-216 -89l-215 -88v89l212.5 85l218.5 87v-84zM441 -232l-215.5 -88l-215.5 -89v89l212.5 85l218.5 87v-84z" />
    <glyph glyph-name="uni064E" unicode="&#x64e;" 
d="M468 1453l-473 -189v90l473 181v-82z" />
    <glyph glyph-name="uni064F" unicode="&#x64f;" 
d="M365 1429q0 -59 -22 -113q6 -2 9 -2t18 -6l-19 -57l-42 15q-108 -103 -313 -171l-21 58q165 55 276 133q-121 48 -159 96q-22 26 -22 62q0 2 0.5 6t0.5 7q14 93 107 135q25 11 57 11q66 0 98 -49.5t32 -124.5zM234 1544q-28 0 -54 -17.5t-41 -40.5q-12 -18 -12 -38
q0 -14 5 -24.5t18.5 -19.5t19.5 -12.5t24 -11.5l93 -44q19 39 19 90q0 44 -19 81t-53 37z" />
    <glyph glyph-name="uni0650" unicode="&#x650;" 
d="M463 -337l-473 -189v90l473 181v-82z" />
    <glyph glyph-name="uni0651" unicode="&#x651;" 
d="M269 1221q-55 -74 -125 -74h-6q-145 8 -145 138q0 57 28 120l29 -13l31 -14q-21 -56 -21 -94q0 -71 80 -71q91 0 91 160q0 3 -0.5 7t-0.5 6v12q48 6 57 15q14 -110 45 -155q23 -32 50 -32q74 6 74 86q0 85 -59 160l27 18l27 18q23 -36 34.5 -56t25 -60t13.5 -76
q0 -85 -68 -132q-34 -22 -78 -22q-64 0 -109 59z" />
    <glyph glyph-name="uni0652" unicode="&#x652;" 
d="M358 1330q0 52 -31 91t-81 39q-49 0 -81.5 -39t-32.5 -91q0 -38 20.5 -70.5t49.5 -48.5q21 -12 44 -12q50 0 81 39.5t31 91.5zM246 1531q77 0 128.5 -60.5t54.5 -140.5v-7q0 -61 -31.5 -108t-79.5 -70q-34 -17 -72 -17h-7q-61 0 -102.5 36.5t-61.5 91.5q-13 35 -13 74
q0 61 31 109.5t77 72.5q36 19 76 19z" />
    <glyph glyph-name="uni0653" unicode="&#x653;" 
d="M50 1520q55 0 132.5 -31.5t130.5 -31.5q74 0 139 92q20 -12 50 -32.5t48 -31.5q-19 -38 -62 -73t-91 -57q-41 -18 -88 -18h-7q-38 1 -74.5 11t-76.5 25.5t-63 21.5q-20 5 -39 5q-38 0 -57 -18q-44 -39 -65 -108l-112 35q18 58 40 93h-1q61 99 155 115l21 3h20z" />
    <glyph glyph-name="uni0654" unicode="&#x654;" 
d="M59 1332q-8 13 -19 34t-19 35l188 105q-44 19 -81 51.5t-54 71.5q-13 30 -13 70q0 66 36 113.5t91 70.5q45 18 94 18q60 0 108 -16l-23 -72q-9 1 -25.5 4t-31 4.5t-28.5 1.5q-60 0 -101.5 -34t-41.5 -90q0 -45 29.5 -75t71.5 -45q20 -7 44 -7q20 0 46 8l-1 -1
q38 12 134 71l47 -62q-54 -36 -233 -135z" />
    <glyph glyph-name="uni0655" unicode="&#x655;" 
d="M141 -444q-8 13 -19.5 34.5l-18.5 34.5l188 105q-44 19 -81 51.5t-54 71.5q-13 30 -13 70q0 66 36 113.5t91 70.5q45 18 94 18q60 0 108 -16l-23 -72q-9 1 -25.5 4t-31 4.5t-28.5 1.5q-60 0 -101.5 -34t-41.5 -90q0 -45 29.5 -75t71.5 -45q20 -7 44 -7q20 0 46 8l-1 -1
q38 12 134 71l47 -62q-54 -36 -233 -135z" />
    <glyph glyph-name="uni0656" unicode="&#x656;" 
d="M86 -312q19 -69 19 -180q0 -84 -19 -177l-79 17q17 76 17 145q0 109 -19 177q2 1 35 7.5t46 10.5z" />
    <glyph glyph-name="uni0660" unicode="&#x660;" horiz-adv-x="990" 
d="M149 483q0 112 58 193t149 121q62 27 132 27q112 0 193 -59t121 -150q27 -61 27 -132q0 -112 -59 -192.5t-150 -120.5q-59 -26 -132 -26q-113 0 -192 57.5t-120 149.5q-27 61 -27 132zM301 483q0 -62 32.5 -107t82.5 -67q35 -15 74 -15q62 0 107.5 33t67.5 83
q15 34 15 73q0 63 -32.5 108t-83.5 67q-35 15 -74 15q-63 0 -107 -32.5t-67 -83.5q-15 -35 -15 -74z" />
    <glyph glyph-name="uni0661" unicode="&#x661;" horiz-adv-x="657" 
d="M320 11q0 221 -7.5 389t-29.5 354t-68 339.5t-116 270.5l122 78q75 -122 125.5 -284.5t75.5 -356t34.5 -377.5t9.5 -413h-146z" />
    <glyph glyph-name="uni0662" unicode="&#x662;" horiz-adv-x="1149" 
d="M846 1308q0 61 -9 128l142 27q12 -58 12 -136q0 -6 -0.5 -20t-0.5 -21v-1q-4 -226 -105 -343q-93 -115 -261 -115q-98 0 -200 45l7 -68l6 -37q40 -315 40 -757h-146q0 385 -27.5 668t-110.5 495l-19 47.5l-21 52t-18.5 41t-25.5 48.5l123 79q45 -75 97 -207l1 -2v-1
q0 -1 1 -1l51 -106q39 -73 95 -113t147 -40q222 0 222 337z" />
    <glyph glyph-name="uni0663" unicode="&#x663;" horiz-adv-x="1499" 
d="M1163 1210q0 100 -25 237l142 26q28 -162 28 -264q0 -268 -159 -342q-47 -22 -107 -22q-52 0 -90 19.5t-76 55.5q-25 24 -57 74q-8 -10 -23.5 -33t-21.5 -31q-46 -50 -94.5 -76.5t-120.5 -26.5q-15 0 -29 1.5t-23.5 3.5t-23.5 6.5t-20 7l-22 9l-21 8.5l13 -96
q40 -284 40 -756h-145q1 27 1 73v74q0 634 -163 1049l-36.5 76.5l-37.5 78.5l135 81q36 -59 95.5 -193t67.5 -150q32 -66 66 -97t103 -31q40 0 60 11.5t44 41.5q68 79 71 255v29q0 65 -7 133l144 18q2 -16 8.5 -86t11 -98.5t13.5 -81t22.5 -87.5t31.5 -63q17 -26 35.5 -39
t48.5 -13q31 0 53 11t34 33t18 44t11 55q5 35 5 75z" />
    <glyph glyph-name="uni0664" unicode="&#x664;" horiz-adv-x="1133" 
d="M996 100q-193 -77 -357 -77q-149 0 -259 54.5t-153 153.5q-22 51 -22 105q0 74 36 150q52 117 181 222q17 14 19 15q-212 36 -295 141q-54 68 -54 149q0 132 136 247q156 133 428 229l50 -151q-238 -80 -371 -195q-84 -72 -84 -132q0 -74 111 -116q100 -38 288 -38
q9 0 28.5 3.5t26.5 3.5q2 0 8.5 1t12.5 1q3 0 15.5 0.5t22.5 0.5l25 -150q-229 -69 -352 -219q-73 -89 -73 -163q0 -18 8 -42l-1 1q26 -54 101.5 -83t165.5 -29q139 0 299 67z" />
    <glyph glyph-name="uni0665" unicode="&#x665;" horiz-adv-x="1231" 
d="M452 1291l60 59l58 57l23 -23q243 -243 373 -450q90 -141 128 -286q19 -72 19 -146q0 -157 -102 -306q-141 -176 -376 -176q-185 0 -299 89.5t-162 246.5q-23 75 -23 154q0 111 33.5 208t93.5 208q90 168 223 314zM373 277q38 -44 107.5 -67.5t154.5 -23.5
q148 0 235.5 85t87.5 231q0 59 -26 128q-49 130 -131.5 248t-203.5 257q-176 -196 -267 -435q-39 -103 -39 -184q0 -140 83 -239h-1z" />
    <glyph glyph-name="uni0666" unicode="&#x666;" horiz-adv-x="1189" 
d="M763 1259q-170 -28 -273 -28q-213 0 -402 84l61 146q132 -58 338 -58q21 0 121 5q40 4 80.5 11t87.5 17t73 15l104 -91l-5 -24q-26 -141 -26 -323q0 -560 137 -862q5 -12 18.5 -41l19.5 -42l-144 -70q0 1 -3 6.5t-10 20t-14 27.5q-62 124 -103.5 287t-55.5 341
q-13 160 -13 326q0 151 9 253z" />
    <glyph glyph-name="uni0667" unicode="&#x667;" horiz-adv-x="1328" 
d="M1141 1294q-245 -502 -346 -962q-42 -196 -46 -325h-145q-3 286 -69 531.5t-182 483.5q-86 175 -223 397l121 77q135 -216 229 -410.5t159 -414.5q23 -77 45 -165q135 451 310 815q53 111 93 175l120 -78q-27 -45 -66 -124z" />
    <glyph glyph-name="uni0668" unicode="&#x668;" horiz-adv-x="1297" 
d="M1063 2q-133 221 -303 690q-54 148 -99 300q-69 -281 -173 -513.5t-260 -476.5l-121 76q85 136 148 251.5t127 258.5t109 298t68 320q19 136 21 285h145q3 -124 47 -325q91 -413 348 -961q32 -68 65 -127z" />
    <glyph glyph-name="uni0669" unicode="&#x669;" horiz-adv-x="1078" 
d="M920 -3q-33 28 -62 67t-49.5 74.5t-40 92t-31 93t-26.5 105.5t-21.5 102.5t-19.5 109.5q-5 26 -7 39l-17 98q-94 -33 -174 -33q-4 0 -11 0.5t-11 0.5q-13 0 -20 1q-150 14 -237.5 89t-87.5 219q0 151 91 287t223 136h7q68 -3 117.5 -35.5t92.5 -88.5q125 -161 151 -541
l7 -50q19 -129 33.5 -207t44.5 -182t68 -174q27 -49 57 -79zM422 1336q-68 -8 -125 -107q-46 -78 -46 -170q0 -50 20 -93q27 -35 78 -55.5t112 -20.5q3 0 9 -0.5t8 -0.5q70 0 152 40q-26 183 -89 307q-26 51 -71 84q-20 14 -48 16z" />
    <glyph glyph-name="uni066A" unicode="&#x66a;" horiz-adv-x="1217" 
d="M212 19l578 1530h179l-76 -200l-70 -185l-144 -380l-122.5 -323l-167.5 -442h-177zM1090 207l-174 -173l-175 175l174 173zM459 1327l-174 -173l-175 175l174 173z" />
    <glyph glyph-name="uni066B" unicode="&#x66b;" horiz-adv-x="561" 
d="M605 938q-84 -191 -261 -548t-257 -536h-145l520 1084h143z" />
    <glyph glyph-name="uni066C" unicode="&#x66c;" horiz-adv-x="456" 
d="M244 -95q118 0 135 -133q-3 -62 -48 -100.5t-110 -41.5h-8q-85 0 -131.5 61t-46.5 153v15q0 129 73 232q77 108 246 194q28 -58 52 -95q-253 -117 -253 -284q0 -14 1 -22q40 17 77 20q2 0 6.5 0.5t6.5 0.5z" />
    <glyph glyph-name="uni066D" unicode="&#x66d;" horiz-adv-x="965" 
d="M391 764l90 317l91 -317q41 1 102.5 2t110 2.5t93.5 5.5q19 2 26 3l-277 -185l61 -170l51 -140l-260 204l-256 -202l111 308l-274 183z" />
    <glyph glyph-name="uni066E" unicode="&#x66e;" horiz-adv-x="1982" 
d="M1761 339q-2 26 -7.5 52.5t-10.5 48t-15.5 49.5t-16.5 45.5t-20.5 46.5l-21 42t-23.5 43.5t-22 38.5t-23.5 40t-21.5 36l133 86q152 -236 189 -457q4 -24 4 -52q0 -53 -27 -88t-78 -69q-217 -123 -600 -169q-102 -12 -187 -12h-19q-522 5 -734 176q-143 115 -143 294
q0 132 79 278q24 44 34 59l126 -94q-10 -15 -18.5 -32.5l-19 -41l-18.5 -40.5q-28 -71 -28 -128q0 -68 28 -110.5t83 -76.5q199 -126 611 -126q479 0 767 161z" />
    <glyph glyph-name="uni066F" unicode="&#x66f;" horiz-adv-x="1581" 
d="M265 -2q0 -225 140 -342.5t376 -117.5h18q185 0 325 146q125 131 167 334l-228 3q-217 16 -307 135q-65 83 -65 195q0 103 33.5 194t87.5 158q95 121 217 121q77 0 135 -32.5t111 -90.5v1q84 -94 133 -232.5t49 -303.5q0 -31 -1 -46l-3 -45q1 -1 -1 -32q-8 -144 -93 -309
q-182 -353 -594 -353q-288 0 -473 165q-86 77 -136 191.5t-50 259.5q0 29 3 61q16 218 142 462l68 -37.5t72 -38.5q-60 -116 -93 -221.5t-33 -224.5zM1184 175q61 0 117 4q-6 156 -57 280.5t-142 182.5q-36 23 -73 23q-79 -8 -137 -123q-51 -102 -51 -187q0 -64 29 -99v1
q36 -50 116 -66t198 -16z" />
    <glyph glyph-name="uni0670" unicode="&#x670;" 
d="M86 1477q19 -69 19 -180q0 -84 -19 -177l-79 17q17 76 17 145q0 105 -19 177q2 1 35.5 7.5t45.5 10.5z" />
    <glyph glyph-name="uni06AA" unicode="&#x6aa;" horiz-adv-x="2461" 
d="M765 419q-83 18 -140 60t-57 114v13q0 140 136 267q196 186 630 325q15 5 36.5 11.5l28.5 8.5l40 -150q-305 -87 -516 -224q-131 -85 -191 -170q-31 -43 -32 -80q32 -18 118 -30q130 -19 301 -19q191 0 307 11q34 3 123.5 13.5t160 16.5t135.5 6q184 0 285 -56
q123 -75 197 -204q34 -60 66 -131l-1 1l2 -5l-70 -117h-7q-818 -82 -1545 -82q-461 0 -717 42l25 153q262 -40 694 -40q628 0 1288 60l141 12l-9 27q-60 109 -154 156q-60 30 -197 30q-134 0 -350 -30q-1 -1 -3 -1h-1l-5 -1h-8q-39 0 -122 -6.5t-122 -7.5q-36 -1 -113 -1
h-54q-179 3 -300 29v-1z" />
    <glyph glyph-name="uni06C2" unicode="&#x6c2;" horiz-adv-x="1330" 
d="M1411 98q0 -32 -23.5 -55t-54.5 -23q-109 0 -185 44.5t-148 123.5l-77 87l-77 87q-75 80 -148 114q-39 18 -84 18q-41 0 -83 -13q-96 -33 -171 -161q-66 -110 -111 -280l-150 40q42 158 100 276.5t145 195.5q112 98 270 98q125 0 238 -84q43 -32 82.5 -71t92 -100.5
l71.5 -82.5q73 -80 150 -117q39 -19 85 -19q31 0 54.5 -23t23.5 -55zM237 798q-58 24 -96.5 74.5t-38.5 119.5q0 95 66.5 153.5t164.5 58.5q42 0 120 -19l-28 -92q-48 13 -92 13q-35 0 -62 -12v2q-29 -12 -50 -41t-21 -63q0 -15 8 -36l-1 1q13 -34 49 -58t79 -24
q26 0 55.5 10.5t40.5 17l42 25.5q24 14 43 29l59 -78l-41.5 -28.5t-50.5 -31l-42.5 -24.5l-56 -30.5t-51.5 -27.5l-227 -126l-48 87z" />
    </font>
</defs>
</svg>
